<svg width="118" height="118" viewBox="0 0 118 118" fill="none" xmlns="http://www.w3.org/2000/svg">
<path d="M117.802 0.256836H0.905273V117.154H117.802V0.256836Z" fill="#5BB947"/>
<path d="M49.3013 79.2676C49.442 79.2676 49.5593 79.3849 49.5593 79.5256V88.0413C49.5593 88.1821 49.442 88.2994 49.3013 88.2994H45.8528C45.712 88.2994 45.5947 88.1821 45.5947 88.0413V79.5256C45.5947 79.3849 45.712 79.2676 45.8528 79.2676H49.3013Z" fill="white"/>
<path d="M87.1172 91.959H30.3459C30.2052 91.959 30.0879 92.0763 30.0879 92.217V95.689C30.0879 95.8298 30.2052 95.947 30.3459 95.947H87.1172C87.2579 95.947 87.3752 95.8298 87.3752 95.689V92.217C87.3752 92.0763 87.2579 91.959 87.1172 91.959Z" fill="white"/>
<path d="M87.1172 98.8555H30.3459C30.2052 98.8555 30.0879 98.9728 30.0879 99.1135V102.585C30.0879 102.726 30.2052 102.844 30.3459 102.844H87.1172C87.2579 102.844 87.3752 102.726 87.3752 102.585V99.1135C87.3752 98.9728 87.2579 98.8555 87.1172 98.8555Z" fill="white"/>
<path d="M76.3262 69.8601C75.6225 69.2971 73.7223 68.0069 71.4233 68.0069C69.7811 68.0069 68.2328 68.6637 66.8722 69.954C66.7784 70.0478 66.7314 70.1651 66.7314 70.3059V70.6108C66.7314 70.7516 66.7784 70.9158 66.8956 71.0097C67.0129 71.1035 67.1537 71.1269 67.2944 71.1035C67.3179 71.1035 67.3648 71.08 67.4117 71.08C67.5056 71.0331 67.6229 70.9862 67.6933 70.8924C67.9982 70.6812 68.7958 70.4232 69.9688 70.4232C71.1652 70.4232 73.5346 70.7516 75.8101 72.8629L75.857 72.9098C75.9978 73.0506 76.162 73.121 76.3497 73.121C76.5374 73.121 76.7251 73.0506 76.8189 72.9098L76.8658 72.8629C79.1648 70.7281 81.5107 70.3997 82.7306 70.3997C83.9036 70.3997 84.7012 70.6812 85.0061 70.8689C85.0765 70.9393 85.1938 71.0096 85.3111 71.0566C85.358 71.08 85.4988 71.1035 85.6395 71.0566C85.8507 70.9862 85.9914 70.7985 85.9914 70.5874V70.3059C85.9914 70.1651 85.9445 70.0478 85.8507 69.954C84.4666 68.6403 82.9183 67.96 81.2292 67.96C78.9302 68.0069 77.0535 69.2737 76.3262 69.8601Z" fill="white"/>
<path d="M72.8074 47.2456C72.6901 47.2926 72.5963 47.4099 72.5494 47.5506L72.5025 47.7383C72.4555 47.879 72.479 48.0433 72.5728 48.1606C72.6667 48.2779 72.784 48.3482 72.9247 48.3482C72.9482 48.3482 72.9716 48.3482 72.9951 48.3482C73.0889 48.3482 73.1828 48.3248 73.2766 48.2779C73.3235 48.2779 73.4408 48.2309 73.6285 48.2309C73.8865 48.2309 76.1621 48.3013 77.6869 50.8818L77.7104 50.9287C77.7808 51.0695 77.9215 51.1868 78.0623 51.2103C78.1092 51.2337 78.1796 51.2337 78.25 51.2337C78.3438 51.2337 78.4611 51.2102 78.5315 51.1633L78.5784 51.1399C79.3995 50.7176 80.2674 50.5065 81.112 50.5065C82.543 50.5065 83.4814 51.093 83.6925 51.3275C83.7394 51.4214 83.8098 51.4918 83.8802 51.5387C83.9271 51.5621 84.0209 51.609 84.0678 51.6325C84.0913 51.6325 84.1148 51.6325 84.1617 51.6325C84.1851 51.6325 84.1851 51.6325 84.2086 51.6325C84.279 51.6325 84.3494 51.6091 84.4432 51.5856C84.5605 51.5152 84.6543 51.4214 84.6778 51.3041L84.7247 51.1399C84.7482 51.0929 84.7481 51.046 84.7481 50.9991C84.7481 50.9053 84.7247 50.8349 84.6778 50.7645C83.5752 48.8409 81.98 48.4421 80.8305 48.4421C79.9859 48.4421 79.2352 48.6532 78.7895 48.8174C78.2734 48.1136 76.9597 46.6826 74.9657 46.6826C74.2384 46.7061 73.5112 46.8703 72.8074 47.2456Z" fill="white"/>
<path d="M60.8197 55.9722L60.8432 56.2303C60.8432 56.3945 60.937 56.5353 61.0778 56.6056C61.1951 56.676 61.3358 56.6995 61.4531 56.6525C61.4766 56.6525 61.5 56.6291 61.547 56.6291C61.6408 56.5822 61.7346 56.5352 61.7815 56.4414C62.0161 56.2772 62.7903 55.9488 63.9398 55.9488C65.0424 55.9488 66.708 56.2538 68.4205 57.6378L68.4674 57.6848C68.5847 57.7786 68.7489 57.849 68.9131 57.849H68.9601C69.1478 57.8255 69.3119 57.7551 69.4058 57.6378L69.4527 57.5909C71.3529 55.5969 73.3938 55.2919 74.426 55.2919C75.1767 55.2919 75.6929 55.4561 75.904 55.5734C75.9744 55.6438 76.0682 55.6907 76.2089 55.7376C76.2324 55.7376 76.3262 55.7611 76.4201 55.7611C76.467 55.7611 76.5139 55.7376 76.5374 55.7376C76.7485 55.6673 76.8658 55.4796 76.8658 55.245L76.8424 55.0339C76.8424 54.8931 76.772 54.7758 76.6781 54.7054C75.5521 53.7671 74.3322 53.2744 73.042 53.2744C71.0479 53.2744 69.4527 54.4474 68.7958 55.0339C68.1859 54.6116 66.7314 53.7671 65.0189 53.7671C63.5175 53.7671 62.1569 54.4005 60.984 55.6203C60.8432 55.6907 60.7963 55.8315 60.8197 55.9722Z" fill="white"/>
<path d="M32.0825 60.5235C32.0825 57.1219 34.8273 54.3772 38.2288 54.3772C38.3696 54.3772 38.4869 54.3772 38.6276 54.4007C38.9561 50.1076 42.5453 46.7061 46.9322 46.7061C51.5302 46.7061 55.2602 50.4361 55.2602 55.0341C55.2602 56.3478 54.9552 57.5677 54.4157 58.6702C58.5914 59.5851 61.7115 63.3152 61.7115 67.749C61.7115 72.8865 57.5357 77.0622 52.3982 77.0622C52.0228 77.0622 39.9883 76.9919 39.9883 76.9919C36.3521 76.9919 33.3962 74.036 33.3962 70.3998C33.3962 68.6404 34.0766 67.0686 35.2026 65.8957C33.3259 64.7931 32.0825 62.7991 32.0825 60.5235Z" fill="white"/>
<path d="M11.7433 15.4115C11.063 15.7868 9.09243 16.3263 8.41211 16.6548V13.3705C9.32702 12.9951 11.8606 11.7753 12.7052 10.8369H16.1536V33.9207H11.7433V15.4115Z" fill="white"/>
<path d="M19.1328 27.2348H23.4024C23.4024 29.7684 23.7073 31.0822 25.3026 31.0352C26.9916 30.9883 27.062 29.0881 27.062 26.0854C27.062 23.6456 26.804 21.8862 25.0915 21.8862C24.0592 21.8862 23.4024 22.5899 23.1209 23.974H19.3205L19.6254 10.8604H30.229V14.6607H23.2616L23.027 19.7514C23.4728 19.1884 24.6457 18.7192 25.936 18.6488C29.5018 18.3438 31.2377 21.1589 31.2377 25.8742C31.2377 30.7772 30.2994 34.2961 25.0445 34.2961C20.1885 34.2961 19.1328 31.5044 19.1328 27.2348Z" fill="white"/>
<path d="M39.73 10.8613H41.2783L42.334 16.9607L43.3192 10.8613H44.9379L43.2723 19.682H41.4191L39.73 10.8613Z" fill="white"/>
<path d="M45.853 10.8613H47.6359V19.682H45.853V10.8613Z" fill="white"/>
<path d="M48.9732 10.8613H51.1314C53.36 10.8613 54.0169 11.7058 54.0169 13.6295V16.8434C54.0169 18.814 53.36 19.682 51.1549 19.682H48.9497V10.8613H48.9732ZM51.1549 18.4152C52.1402 18.4152 52.1871 17.946 52.1871 17.0311V13.3949C52.1871 12.5035 52.0932 12.1281 51.1314 12.1281H50.7561V18.4386H51.1549V18.4152Z" fill="white"/>
<path d="M56.3858 10.8613H58.3799L60.069 19.682H58.4034L58.0749 17.7349H56.6908L56.3624 19.682H54.6733L56.3858 10.8613ZM57.9107 16.6323L57.3711 13.09L56.855 16.6323H57.9107Z" fill="white"/>
<path d="M40.9734 26.5325H39.6128V25.1953H44.117V26.5325H42.7798V34.016H40.9734V26.5325Z" fill="white"/>
<path d="M44.9146 25.2188H48.7618V26.4621H46.6974V28.808H48.2926V30.0513H46.6974V32.8195H48.7853V34.0394H44.9146V25.2188Z" fill="white"/>
<path d="M49.7002 25.2188H51.9758C53.7587 25.2188 54.8378 25.7349 54.8378 27.5412C54.8378 28.6203 54.6032 29.3476 53.7586 29.7229L54.9785 34.0159H53.1487L52.14 30.0279H51.4831V34.0159H49.7002V25.2188ZM52.0227 28.9722C52.8906 28.9722 53.1722 28.55 53.1722 27.682C53.1722 26.8609 52.9376 26.4152 52.1165 26.4152H51.5066V28.9722H52.0227Z" fill="white"/>
<path d="M56.0342 25.2188H58.3097C60.0926 25.2188 61.1717 25.7349 61.1717 27.5412C61.1717 28.6203 60.9372 29.3476 60.0926 29.7229L61.3125 34.0159H59.4827L58.4739 30.0279H57.8171V34.0159H56.0342V25.2188ZM58.3566 28.9722C59.2246 28.9722 59.5062 28.55 59.5062 27.682C59.5062 26.8609 59.2716 26.4152 58.4505 26.4152H57.8406V28.9722H58.3566Z" fill="white"/>
<path d="M62.3916 25.2188H66.2389V26.4621H64.1745V28.808H65.7697V30.0513H64.1745V32.8195H66.2624V34.0394H62.3916V25.2188Z" fill="white"/>
<path d="M66.9429 31.4121L68.4912 31.154C68.5147 32.2566 68.7962 32.7962 69.3592 32.7962C69.8049 32.7962 69.9691 32.4678 69.9691 32.069C69.9691 31.3183 69.5938 30.896 69.0073 30.3799L68.0924 29.5823C67.4355 29.0192 66.9664 28.3858 66.9664 27.3536C66.9664 25.8992 67.8812 25.1016 69.3592 25.1016C71.1421 25.1016 71.494 26.4153 71.5643 27.5413L70.016 27.7759C69.9926 26.9783 69.8988 26.4153 69.3123 26.4153C68.89 26.4153 68.7023 26.7906 68.7023 27.166C68.7023 27.7994 69.0073 28.1278 69.4999 28.5501L70.3914 29.3242C71.1421 29.9576 71.752 30.7318 71.752 31.9282C71.752 33.195 70.8371 34.1099 69.4765 34.1099C67.8109 34.1568 67.0367 33.2888 66.9429 31.4121Z" fill="white"/>
<path d="M73.4881 26.5325H72.1274V25.1953H76.6316V26.5325H75.2944V34.016H73.4881V26.5325Z" fill="white"/>
<path d="M77.4287 25.2188H79.7042C81.4871 25.2188 82.5663 25.7349 82.5663 27.5412C82.5663 28.6203 82.3317 29.3476 81.4871 29.7229L82.707 34.0159H80.8772L79.8685 30.0279H79.2116V34.0159H77.4287V25.2188ZM79.7512 28.9722C80.6192 28.9722 80.9007 28.55 80.9007 27.682C80.9007 26.8609 80.6661 26.4152 79.845 26.4152H79.2351V28.9722H79.7512Z" fill="white"/>
<path d="M83.7866 25.2188H87.6339V26.4621H85.5695V28.808H87.1647V30.0513H85.5695V32.8195H87.6574V34.0394H83.7866V25.2188Z" fill="white"/>
</svg>
