<svg width="118" height="118" viewBox="0 0 118 118" fill="none" xmlns="http://www.w3.org/2000/svg">
<path d="M117.778 0.222656H0.576172V117.425H117.778V0.222656Z" fill="#F89C27"/>
<path d="M20.727 96.1237H20.9147H38.3683C38.6029 96.1237 38.7906 95.936 38.7906 95.7014C38.7906 95.5841 38.7436 95.4903 38.6733 95.4199L38.6498 95.3965L29.8761 84.0422L29.7822 83.9484C29.7118 83.8545 29.5946 83.8076 29.4538 83.8076C29.3365 83.8076 29.2427 83.8545 29.1723 83.9249L29.1254 83.9953L29.0315 84.0891L20.4689 95.3261L20.3282 95.4903C20.2813 95.5607 20.2578 95.631 20.2578 95.7249C20.3047 95.936 20.4924 96.1237 20.727 96.1237Z" fill="white"/>
<path d="M38.3214 97.7422H20.6567C20.4221 97.7422 20.2344 97.9299 20.2344 98.1644V111.982C20.2344 112.217 20.4221 112.428 20.6567 112.428H26.3338V103.724C26.3338 103.49 26.5214 103.302 26.756 103.302H32.0344C32.2689 103.302 32.4566 103.49 32.4566 103.724V112.428H38.2979C38.5325 112.428 38.7202 112.24 38.7202 111.982V98.1644C38.7437 97.9299 38.556 97.7422 38.3214 97.7422Z" fill="white"/>
<path d="M99.3623 94.1064H81.8852C81.6506 94.1064 81.4629 94.2941 81.4629 94.5287V112.193C81.4629 112.428 81.6506 112.616 81.8852 112.616H99.3623C99.5968 112.616 99.7845 112.428 99.7845 112.193V94.5287C99.7845 94.2941 99.5968 94.1064 99.3623 94.1064ZM89.7909 105.648C89.7909 105.883 89.6032 106.071 89.3686 106.071H84.1373C83.9027 106.071 83.715 105.883 83.715 105.648V102.481C83.715 102.247 83.9027 102.059 84.1373 102.059H89.3686C89.6032 102.059 89.7909 102.247 89.7909 102.481V105.648ZM89.7909 99.7836C89.7909 100.018 89.6032 100.206 89.3686 100.206H84.1373C83.9027 100.206 83.715 100.018 83.715 99.7836V96.6166C83.715 96.382 83.9027 96.1943 84.1373 96.1943H89.3686C89.6032 96.1943 89.7909 96.382 89.7909 96.6166V99.7836ZM97.7905 105.648C97.7905 105.883 97.6028 106.071 97.3682 106.071H92.1368C91.9022 106.071 91.7145 105.883 91.7145 105.648V102.481C91.7145 102.247 91.9022 102.059 92.1368 102.059H97.3682C97.6028 102.059 97.7905 102.247 97.7905 102.481V105.648ZM97.7905 99.7836C97.7905 100.018 97.6028 100.206 97.3682 100.206H92.1368C91.9022 100.206 91.7145 100.018 91.7145 99.7836V96.6166C91.7145 96.382 91.9022 96.1943 92.1368 96.1943H97.3682C97.6028 96.1943 97.7905 96.382 97.7905 96.6166V99.7836Z" fill="white"/>
<path d="M58.731 53.1465H41.6293C41.3947 53.1465 41.207 53.3342 41.207 53.5688V112.052C41.207 112.287 41.3947 112.475 41.6293 112.475H58.731C58.9656 112.475 59.1533 112.287 59.1533 112.052V53.5453C59.1533 53.3107 58.9422 53.1465 58.731 53.1465ZM48.5497 105.789C48.5497 105.906 48.4559 106.023 48.3151 106.023H44.3974C44.2801 106.023 44.1629 105.93 44.1629 105.789V101.425C44.1629 101.308 44.2567 101.214 44.3974 101.214H48.3151C48.4324 101.214 48.5497 101.308 48.5497 101.425V105.789ZM48.5497 95.7484C48.5497 95.8657 48.4559 95.983 48.3151 95.983H44.3974C44.2801 95.983 44.1629 95.8891 44.1629 95.7484V91.3849C44.1629 91.2677 44.2567 91.1504 44.3974 91.1504H48.3151C48.4324 91.1504 48.5497 91.2442 48.5497 91.3849V95.7484ZM48.5497 85.7313C48.5497 85.8486 48.4559 85.9659 48.3151 85.9659H44.3974C44.2801 85.9659 44.1629 85.872 44.1629 85.7313V81.3679C44.1629 81.2506 44.2567 81.1333 44.3974 81.1333H48.3151C48.4324 81.1333 48.5497 81.2271 48.5497 81.3679V85.7313ZM48.5497 75.7142C48.5497 75.8315 48.4559 75.9488 48.3151 75.9488H44.3974C44.2801 75.9488 44.1629 75.855 44.1629 75.7142V71.3508C44.1629 71.2335 44.2567 71.1397 44.3974 71.1397H48.3151C48.4324 71.1397 48.5497 71.2335 48.5497 71.3508V75.7142ZM48.5497 65.6737C48.5497 65.791 48.4559 65.9083 48.3151 65.9083H44.3974C44.2801 65.9083 44.1629 65.8144 44.1629 65.6737V61.3103C44.1629 61.193 44.2567 61.0757 44.3974 61.0757H48.3151C48.4324 61.0757 48.5497 61.1695 48.5497 61.3103V65.6737ZM56.2209 105.789C56.2209 105.906 56.1271 106.023 55.9863 106.023H52.0921C51.9748 106.023 51.8575 105.93 51.8575 105.789V101.425C51.8575 101.308 51.9513 101.214 52.0921 101.214H56.0097C56.127 101.214 56.2443 101.308 56.2443 101.425V105.789H56.2209ZM56.2209 95.7484C56.2209 95.8657 56.1271 95.983 55.9863 95.983H52.0921C51.9748 95.983 51.8575 95.8891 51.8575 95.7484V91.3849C51.8575 91.2677 51.9513 91.1504 52.0921 91.1504H56.0097C56.127 91.1504 56.2443 91.2442 56.2443 91.3849V95.7484H56.2209ZM56.2209 85.7313C56.2209 85.8486 56.1271 85.9659 55.9863 85.9659H52.0921C51.9748 85.9659 51.8575 85.872 51.8575 85.7313V81.3679C51.8575 81.2506 51.9513 81.1333 52.0921 81.1333H56.0097C56.127 81.1333 56.2443 81.2271 56.2443 81.3679V85.7313H56.2209ZM56.2209 75.7142C56.2209 75.8315 56.1271 75.9488 55.9863 75.9488H52.0921C51.9748 75.9488 51.8575 75.855 51.8575 75.7142V71.3508C51.8575 71.2335 51.9513 71.1397 52.0921 71.1397H56.0097C56.127 71.1397 56.2443 71.2335 56.2443 71.3508V75.7142H56.2209ZM56.2209 65.6737C56.2209 65.791 56.1271 65.9083 55.9863 65.9083H52.0921C51.9748 65.9083 51.8575 65.8144 51.8575 65.6737V61.3103C51.8575 61.193 51.9513 61.0757 52.0921 61.0757H56.0097C56.127 61.0757 56.2443 61.1695 56.2443 61.3103V65.6737H56.2209Z" fill="white"/>
<path d="M99.7845 92.3464C99.7845 92.534 99.6203 92.6982 99.4326 92.6982H81.8382C81.6505 92.6982 81.4863 92.534 81.4863 92.3464V88.8275C81.4863 88.6398 81.6505 88.4756 81.8382 88.4756H99.4326C99.6203 88.4756 99.7845 88.6398 99.7845 88.8275V92.3464Z" fill="white"/>
<path d="M79.3983 64.1722C79.3514 63.9845 79.1638 63.8438 78.9761 63.8438C78.8822 63.8438 78.8119 63.8672 78.7415 63.9141L78.718 63.9376L78.5772 64.1253L61.757 85.4497L61.6866 85.5435C61.5928 85.6373 61.5459 85.7546 61.5459 85.8719V85.8954V112.123C61.5459 112.357 61.7336 112.545 61.9682 112.545H79.0699C79.3045 112.545 79.4922 112.357 79.4922 112.123V64.3599C79.4218 64.2895 79.4218 64.2191 79.3983 64.1722ZM72.3136 75.761L72.4309 75.6203C73.5804 74.1423 75.5275 71.7495 76.4659 70.6L76.5832 70.4592C76.677 70.3419 76.8178 70.2716 76.9586 70.2716C77.1932 70.2716 77.3808 70.4358 77.4278 70.6704V70.858V71.0223V76.066C77.4278 76.324 77.2166 76.5352 76.9586 76.5586H76.9351H76.9117H72.9236H72.7124H72.689H72.6655C72.4075 76.5352 72.1963 76.3475 72.1963 76.066C72.2198 75.9487 72.2433 75.8548 72.3136 75.761ZM69.6393 105.648C69.6393 105.883 69.4516 106.07 69.217 106.07H64.1264C63.8918 106.07 63.7041 105.883 63.7041 105.648V102.458C63.7041 102.223 63.8918 102.035 64.1264 102.035H69.217C69.4516 102.035 69.6393 102.223 69.6393 102.458V105.648ZM69.6393 99.7363C69.6393 99.9709 69.4516 100.159 69.217 100.159H64.1264C63.8918 100.159 63.7041 99.9709 63.7041 99.7363V96.5458C63.7041 96.3112 63.8918 96.1236 64.1264 96.1236H69.217C69.4516 96.1236 69.6393 96.3112 69.6393 96.5458V99.7363ZM69.6393 93.848C69.6393 94.0826 69.4516 94.2703 69.217 94.2703H64.1264C63.8918 94.2703 63.7041 94.0826 63.7041 93.848V90.6576C63.7041 90.423 63.8918 90.2353 64.1264 90.2353H69.217C69.4516 90.2353 69.6393 90.423 69.6393 90.6576V93.848ZM69.6627 80.922V81.0862V87.9598C69.6627 88.1944 69.4751 88.382 69.2405 88.382H64.1498C63.9152 88.382 63.7276 88.1944 63.7276 87.9598V87.1153V87.0918C63.7276 87.0449 63.751 86.9745 63.751 86.9276C63.751 86.9041 63.7511 86.9041 63.7745 86.8807C63.7745 86.8572 63.798 86.8337 63.8214 86.8337C63.8449 86.8103 63.8449 86.7868 63.8683 86.7634C64.5252 85.825 67.4576 82.2123 68.7009 80.6874L68.8182 80.5467C68.9121 80.4294 69.0528 80.359 69.1936 80.359C69.4281 80.359 69.6158 80.5232 69.6627 80.7578V80.922ZM77.4512 105.648C77.4512 105.883 77.2635 106.07 77.029 106.07H71.9383C71.7037 106.07 71.5161 105.883 71.5161 105.648V102.458C71.5161 102.223 71.7037 102.035 71.9383 102.035H77.029C77.2635 102.035 77.4512 102.223 77.4512 102.458V105.648ZM77.4512 99.7363C77.4512 99.9709 77.2635 100.159 77.029 100.159H71.9383C71.7037 100.159 71.5161 99.9709 71.5161 99.7363V96.5458C71.5161 96.3112 71.7037 96.1236 71.9383 96.1236H77.029C77.2635 96.1236 77.4512 96.3112 77.4512 96.5458V99.7363ZM77.4512 93.848C77.4512 94.0826 77.2635 94.2703 77.029 94.2703H71.9383C71.7037 94.2703 71.5161 94.0826 71.5161 93.848V90.6576C71.5161 90.423 71.7037 90.2353 71.9383 90.2353H77.029C77.2635 90.2353 77.4512 90.423 77.4512 90.6576V93.848ZM77.4512 87.9363C77.4512 88.1709 77.2635 88.3586 77.029 88.3586H71.9383C71.7037 88.3586 71.5161 88.1709 71.5161 87.9363V84.7459C71.5161 84.5113 71.7037 84.3236 71.9383 84.3236H77.029C77.2635 84.3236 77.4512 84.5113 77.4512 84.7459V87.9363ZM77.4512 82.0481C77.4512 82.2827 77.2635 82.4703 77.029 82.4703H71.9383C71.7037 82.4703 71.5161 82.2827 71.5161 82.0481V78.8576C71.5161 78.623 71.7037 78.4354 71.9383 78.4354H77.029C77.2635 78.4354 77.4512 78.623 77.4512 78.8576V82.0481Z" fill="white"/>
<path d="M11.508 15.5413C10.8276 15.9167 8.88051 16.4562 8.2002 16.7846V13.5238C9.1151 13.1485 11.6253 11.9286 12.4698 10.9902H15.8948V33.9568H11.508V15.5413Z" fill="white"/>
<path d="M21.5954 15.5413C20.915 15.9167 18.9679 16.4562 18.2876 16.7846V13.5238C19.2025 13.1485 21.7127 11.9286 22.5572 10.9902H25.9822V33.9568H21.5954V15.5413Z" fill="white"/>
<path d="M35.0376 16.9724V13.8289C35.0376 12.0225 35.6241 10.8965 37.5946 10.8965C39.4714 10.8965 40.0578 11.9052 40.0578 13.4301V14.1573H38.3219V13.3597C38.3219 12.7498 38.2984 12.1867 37.6181 12.1867C36.9143 12.1867 36.8439 12.7732 36.8439 13.4301V17.4181C36.8439 18.1688 36.9847 18.638 37.6181 18.638C38.2984 18.638 38.3219 18.0515 38.3219 17.4181V16.5736H40.0578V17.3008C40.0578 18.8257 39.5183 19.9283 37.5946 19.9283C35.6241 19.9048 35.0376 18.7319 35.0376 16.9724Z" fill="white"/>
<path d="M41.1836 11.0137H42.9665V19.7874H41.1836V11.0137Z" fill="white"/>
<path d="M44.2803 11.0137H46.4151C48.6437 11.0137 49.3006 11.8582 49.3006 13.7584V16.9488C49.3006 18.896 48.6437 19.7874 46.462 19.7874H44.2803V11.0137ZM46.4385 18.5441C47.4238 18.5441 47.4707 18.0749 47.4707 17.16V13.5238C47.4707 12.6324 47.3769 12.257 46.4385 12.257H46.0632V18.5206H46.4385V18.5441Z" fill="white"/>
<path d="M51.6461 11.0137H53.6402L55.3292 19.7874H53.6871L53.3586 17.8638H51.9745L51.6461 19.7874H49.957L51.6461 11.0137ZM53.1944 16.7377L52.6548 13.1954L52.1387 16.7377H53.1944Z" fill="white"/>
<path d="M56.2212 11.0137H58.3559C60.5846 11.0137 61.2414 11.8582 61.2414 13.7584V16.9488C61.2414 18.896 60.5846 19.7874 58.4028 19.7874H56.2212V11.0137ZM58.3794 18.5441C59.3647 18.5441 59.4116 18.0749 59.4116 17.16V13.5238C59.4116 12.6324 59.3178 12.257 58.3794 12.257H58.0041V18.5206H58.3794V18.5441Z" fill="white"/>
<path d="M62.4146 11.0137H66.2384V12.257H64.1975V14.5795H65.7692V15.8228H64.1975V18.5675H66.2618V19.7874H62.4146V11.0137Z" fill="white"/>
<path d="M66.9653 17.1601L68.5137 16.902C68.5371 18.0046 68.7952 18.5207 69.3816 18.5207C69.8274 18.5207 69.9681 18.1923 69.9681 17.817C69.9681 17.0663 69.5928 16.644 69.0063 16.1279L68.0914 15.3303C67.4345 14.7673 66.9653 14.1339 66.9653 13.1017C66.9653 11.6707 67.8803 10.873 69.3582 10.873C71.1177 10.873 71.4695 12.1868 71.5399 13.3128L69.9916 13.5474C69.9681 12.7498 69.8743 12.1868 69.2878 12.1868C68.8656 12.1868 68.6779 12.5621 68.6779 12.9375C68.6779 13.5709 68.9829 13.8993 69.4755 14.3215L70.3669 15.0957C71.0941 15.7291 71.7041 16.5032 71.7041 17.6997C71.7041 18.9665 70.8126 19.8814 69.4285 19.8814C67.8099 19.9048 67.0357 19.0368 66.9653 17.1601Z" fill="white"/>
<path d="M75.3638 11.0137H79.1876V12.257H77.1467V14.5795H78.7184V15.8228H77.1467V18.5675H79.2111V19.7874H75.3638V11.0137Z" fill="white"/>
<path d="M35.0376 31.2595V28.116C35.0376 26.3096 35.6241 25.1836 37.5946 25.1836C39.4714 25.1836 40.0578 26.1923 40.0578 27.7172V28.4444H38.3219V27.6233C38.3219 27.0134 38.2984 26.4504 37.6181 26.4504C36.9143 26.4504 36.8439 27.0369 36.8439 27.6937V31.6818C36.8439 32.4325 36.9847 32.9017 37.6181 32.9017C38.2984 32.9017 38.3219 32.3152 38.3219 31.6818V30.8373H40.0578V31.5645C40.0578 33.0893 39.5183 34.1919 37.5946 34.1919C35.6241 34.1919 35.0376 33.019 35.0376 31.2595Z" fill="white"/>
<path d="M41.0195 31.3064V28.0456C41.0195 26.2392 41.6764 25.207 43.6 25.207C45.5237 25.207 46.1806 26.2627 46.1806 28.0456V31.3299C46.1806 33.1128 45.5237 34.1919 43.6 34.1919C41.6764 34.1919 41.0195 33.1128 41.0195 31.3064ZM44.3742 31.7521V27.5999C44.3742 26.9899 44.2804 26.4738 43.6 26.4738C42.9197 26.4738 42.8259 27.0134 42.8259 27.5999V31.7521C42.8259 32.3386 42.8963 32.9016 43.6 32.9016C44.2804 32.9016 44.3742 32.3386 44.3742 31.7521Z" fill="white"/>
<path d="M47.5177 25.3008H49.4179L50.497 30.8371L51.6466 25.3008H53.4763L53.6406 34.0745H52.3503L52.2096 28.1159L51.0835 34.0745H49.9809L48.8315 28.0924L48.6907 34.0745H47.377L47.5177 25.3008Z" fill="white"/>
<path d="M54.8604 31.3063V25.3008H56.6198V31.5409C56.6198 32.2212 56.6902 32.8781 57.394 32.8781C58.0977 32.8781 58.1681 32.1978 58.1681 31.5409V25.3008H59.9275V31.3063C59.9275 33.1361 59.3645 34.1918 57.3705 34.1918C55.3999 34.1918 54.8604 33.1361 54.8604 31.3063Z" fill="white"/>
<path d="M61.1709 25.3008H62.4142L64.3614 29.8519V25.3008H65.8393V34.0745H64.6429L62.6957 29.2185V34.0745H61.1709V25.3008Z" fill="white"/>
<path d="M67.1997 25.3008H68.9826V34.0745H67.1997V25.3008Z" fill="white"/>
<path d="M70.2964 25.3008H72.4311C74.6598 25.3008 75.3166 26.1453 75.3166 28.0455V31.236C75.3166 33.1831 74.6597 34.0745 72.478 34.0745H70.2964V25.3008ZM72.478 32.8312C73.4633 32.8312 73.5103 32.362 73.5103 31.4471V27.8109C73.5103 26.9195 73.4164 26.5441 72.478 26.5441H72.1027V32.8312H72.478Z" fill="white"/>
<path d="M77.6862 25.3008H79.6802L81.3693 34.0745H79.7271L79.3987 32.1509H78.0146L77.6862 34.0745H75.9971L77.6862 25.3008ZM79.211 31.0248L78.6715 27.4825L78.1554 31.0248H79.211Z" fill="white"/>
<path d="M82.2373 25.3008H84.3721C86.6007 25.3008 87.2575 26.1453 87.2575 28.0455V31.236C87.2575 33.1831 86.6007 34.0745 84.419 34.0745H82.2373V25.3008ZM84.419 32.8312C85.4043 32.8312 85.4512 32.362 85.4512 31.4471V27.8109C85.4512 26.9195 85.3574 26.5441 84.419 26.5441H84.0437V32.8312H84.419Z" fill="white"/>
<path d="M88.4541 25.3008H92.278V26.5441H90.237V28.8666H91.8088V30.1099H90.237V32.8546H92.3014V34.0745H88.4541V25.3008Z" fill="white"/>
<path d="M92.9819 31.4472L94.5302 31.1892C94.5537 32.2918 94.8118 32.8079 95.3982 32.8079C95.844 32.8079 95.9847 32.4794 95.9847 32.1041C95.9847 31.3534 95.6094 30.9311 95.0229 30.415L94.108 29.6174C93.4511 29.0544 92.9819 28.421 92.9819 27.3888C92.9819 25.9578 93.8968 25.1602 95.3748 25.1602C97.1342 25.1602 97.4861 26.4739 97.5565 27.5999L96.0081 27.8345C95.9847 27.0369 95.8908 26.4739 95.3044 26.4739C94.8821 26.4739 94.6945 26.8492 94.6945 27.2246C94.6945 27.858 94.9994 28.1864 95.4921 28.6087L96.3835 29.3828C97.1107 30.0162 97.7207 30.7904 97.7207 31.9868C97.7207 33.2536 96.8292 34.1685 95.4451 34.1685C93.8499 34.1919 93.0523 33.3239 92.9819 31.4472Z" fill="white"/>
<path d="M34.9434 45.7333L36.4917 45.4753C36.5151 46.5779 36.7732 47.094 37.3597 47.094C37.8054 47.094 37.9461 46.7655 37.9461 46.3902C37.9461 45.6395 37.5708 45.2172 36.9844 44.7011L36.0694 43.9035C35.4126 43.3405 34.9434 42.7071 34.9434 41.6749C34.9434 40.2439 35.8583 39.4463 37.3362 39.4463C39.0957 39.4463 39.4475 40.76 39.5179 41.886L37.9696 42.1206C37.9462 41.323 37.8523 40.76 37.2659 40.76C36.8436 40.76 36.6559 41.1353 36.6559 41.5107C36.6559 42.1441 36.9609 42.4725 37.4535 42.8948L38.3449 43.6689C39.0722 44.3023 39.6822 45.0765 39.6822 46.2729C39.6822 47.5397 38.7907 48.4546 37.4066 48.4546C35.8113 48.4781 35.0137 47.6101 34.9434 45.7333Z" fill="white"/>
<path d="M40.5737 45.5925V39.5869H42.3332V45.8271C42.3332 46.5074 42.4036 47.1642 43.1073 47.1642C43.8111 47.1642 43.8815 46.4839 43.8815 45.8271V39.5869H45.6409V45.5925C45.6409 47.4223 45.0779 48.4779 43.0839 48.4779C41.1133 48.4779 40.5737 47.4223 40.5737 45.5925Z" fill="white"/>
<path d="M46.6729 45.7333L48.2212 45.4753C48.2446 46.5779 48.5027 47.094 49.0892 47.094C49.5349 47.094 49.6756 46.7655 49.6756 46.3902C49.6756 45.6395 49.3003 45.2172 48.7138 44.7011L47.7989 43.9035C47.142 43.3405 46.6729 42.7071 46.6729 41.6749C46.6729 40.2439 47.5878 39.4463 49.0657 39.4463C50.8252 39.4463 51.177 40.76 51.2474 41.886L49.6991 42.1206C49.6757 41.323 49.5818 40.76 48.9953 40.76C48.5731 40.76 48.3854 41.1353 48.3854 41.5107C48.3854 42.1441 48.6904 42.4725 49.183 42.8948L50.0744 43.6689C50.8017 44.3023 51.4117 45.0765 51.4117 46.2729C51.4117 47.5397 50.5202 48.4546 49.1361 48.4546C47.5408 48.4781 46.7432 47.6101 46.6729 45.7333Z" fill="white"/>
<path d="M53.1946 40.9006H51.834V39.5869H56.3147V40.9006H54.9775V48.3607H53.1712V40.9006H53.1946Z" fill="white"/>
<path d="M57.1123 39.5869H60.9362V40.8302H58.8952V43.1527H60.467V44.396H58.8952V47.1408H60.9596V48.3607H57.1123V39.5869Z" fill="white"/>
<path d="M61.8511 39.5869H63.0944L65.0415 44.138V39.5869H66.5194V48.3607H65.323L63.3759 43.5046V48.3607H61.8511V39.5869Z" fill="white"/>
<path d="M68.678 40.9006H67.3174V39.5869H71.7981V40.9006H70.4609V48.3607H68.6546V40.9006H68.678Z" fill="white"/>
<path d="M73.5572 39.5876H75.5512L77.2403 48.3613H75.5982L75.2697 46.4377H73.8856L73.5572 48.3613H71.8682L73.5572 39.5876ZM74.6833 36.749H76.3488L75.0117 38.9307H74.0264L74.6833 36.749ZM75.0821 45.3116L74.5425 41.7693L74.0264 45.3116H75.0821Z" fill="white"/>
<path d="M77.3579 39.5869H78.9062L79.9384 45.6628L80.9237 39.5869H82.5424L80.8768 48.3607H79.047L77.3579 39.5869Z" fill="white"/>
<path d="M83.4336 39.5869H87.2574V40.8302H85.2165V43.1527H86.7882V44.396H85.2165V47.1408H87.2809V48.3607H83.4336V39.5869Z" fill="white"/>
<path d="M88.2192 39.5869H90.0022V48.3607H88.2192V39.5869Z" fill="white"/>
<path d="M91.105 45.7333L92.6533 45.4753C92.6767 46.5779 92.9348 47.094 93.5213 47.094C93.967 47.094 94.1078 46.7655 94.1078 46.3902C94.1078 45.6395 93.7324 45.2172 93.1459 44.7011L92.231 43.9035C91.5742 43.3405 91.105 42.7071 91.105 41.6749C91.105 40.2439 92.0199 39.4463 93.4978 39.4463C95.2572 39.4463 95.6091 40.76 95.6795 41.886L94.1312 42.1206C94.1077 41.323 94.0139 40.76 93.4274 40.76C93.0052 40.76 92.8175 41.1353 92.8175 41.5107C92.8175 42.1441 93.1225 42.4725 93.6151 42.8948L94.5066 43.6689C95.2338 44.3023 95.8437 45.0765 95.8437 46.2729C95.8437 47.5397 94.9523 48.4546 93.5682 48.4546C91.9495 48.4781 91.1754 47.6101 91.105 45.7333Z" fill="white"/>
</svg>
