<svg width="118" height="118" viewBox="0 0 118 118" fill="none" xmlns="http://www.w3.org/2000/svg">
<path d="M117.202 0.0927734H0.164551V117.131H117.202V0.0927734Z" fill="#3F7F44"/>
<path d="M101.602 81.4252C98.5285 77.1087 84.5703 59.8428 58.6479 59.8428C32.7255 59.8428 18.7673 77.1087 15.6942 81.4252C15.5534 81.6129 15.4596 81.7771 15.3657 81.8944C15.4596 82.0352 15.5769 82.1994 15.6942 82.3871C18.7908 86.7036 32.7255 103.97 58.6479 103.97C84.5703 103.97 98.5285 86.7036 101.602 82.3871C101.742 82.1994 101.836 82.0352 101.93 81.8944C101.86 81.7771 101.742 81.6129 101.602 81.4252ZM44.1971 70.7513C44.4316 70.3994 45.2058 69.4376 45.2996 69.2968C45.5108 69.0388 45.8861 68.9919 46.1676 68.9449C46.4491 68.898 46.801 69.0388 46.8479 69.2499C46.8949 69.4611 46.7306 70.2586 46.6134 70.3994C46.238 70.7982 45.2527 71.3612 44.6897 71.2674C44.2674 71.2205 44.1032 70.892 44.1971 70.7513ZM43.2587 72.6046C43.3056 72.5577 43.3291 72.5107 43.3525 72.4873C43.681 72.1119 44.3378 72.0416 44.7835 71.9712C45.2293 71.9008 45.8392 72.1119 45.9096 72.4169C45.98 72.7219 44.7835 73.2614 44.5724 73.4726C43.939 74.0356 42.9772 75.2086 42.3907 75.3493C42.203 75.3962 42.0623 75.3728 41.9215 75.3024C42.2969 74.364 42.7426 73.4491 43.2587 72.6046ZM52.9708 92.5214C52.6189 93.9055 52.2201 94.3982 51.8682 94.8439C51.5163 95.2896 50.2261 95.8526 49.405 95.7823C48.5839 95.7119 48.4666 93.5302 48.4666 92.4041C48.4666 92.0053 47.9271 93.1783 47.6221 90.8324C47.4344 89.331 46.4726 90.9966 46.4022 89.9878C46.3318 88.9791 45.8627 89.1902 45.3466 88.5568C44.8539 87.9234 44.2205 88.6272 43.5167 88.9322C42.813 89.2371 43.0945 89.4014 42.1092 89.0964C42.0857 89.0964 42.0623 89.0729 42.0388 89.0729C41.1239 86.9147 40.6313 84.5453 40.6313 82.0352C40.6313 81.4252 40.6547 80.8153 40.7251 80.2288C40.7486 80.1584 40.7955 80.1115 40.8424 80.0646C41.8042 78.9386 41.7808 78.6805 41.7808 78.6805L42.8364 78.3052C42.8364 78.3052 44.5255 78.5632 45.7923 79.0558C46.8479 79.4547 48.4901 80.3461 49.4519 79.9473C50.1557 79.6658 50.6953 79.2904 50.6249 78.704C50.5545 77.9767 49.968 77.8125 49.2877 78.3052C49.0297 78.4928 48.4901 77.2026 48.0678 77.273C47.6456 77.3433 48.5839 78.7743 48.232 78.8213C47.8802 78.8916 47.1529 77.3199 47.0122 77.0853C46.8949 76.8272 46.3318 76.2173 45.8157 76.6865C44.7601 77.6952 43.0241 77.6248 42.6722 77.9063C41.6165 78.704 41.335 77.6483 41.3585 77.0149C41.4054 76.8742 41.4523 76.7099 41.4993 76.5692C41.8511 76.1938 43.0945 76.0531 43.5167 76.3346C43.9859 76.6396 44.3144 76.2642 44.502 76.0531C44.6897 75.8654 44.6193 75.5604 44.502 75.3258C44.3847 75.0678 44.7366 74.8801 44.9712 74.8332C45.2058 74.7628 46.0269 74.1998 46.3318 74.0121C46.6603 73.8245 48.3259 73.6133 49.0766 73.9887C49.8273 74.364 50.5076 74.0591 50.8829 73.6133C51.3521 73.0738 51.9386 72.6515 52.1966 72.5107C52.4547 72.3934 51.5632 71.5489 50.8125 72.4638C50.0619 73.3787 49.6865 73.4726 49.3346 73.4726C48.9827 73.4726 46.8949 72.9565 46.6368 72.2996C46.3788 71.6428 47.2937 71.1501 48.0678 70.7748C48.842 70.3994 50.9533 70.4229 51.4694 70.2821C52.572 70.0475 53.9561 69.4845 54.6599 69.9772C55.3636 70.4463 51.7275 71.2674 52.9239 71.9243C53.3461 72.1588 55.2698 70.8217 55.9266 70.4698C57.475 69.6722 54.4253 69.4141 54.8241 67.772C55.2698 65.9422 51.0706 66.646 48.9827 66.8102C51.7978 65.0038 55.129 63.9716 58.7183 63.9716C67.234 63.9716 74.3656 69.8833 76.2892 77.8125C76.3127 78.2113 76.2423 78.4928 76.1954 78.6571C76.0312 79.3139 74.7878 79.8769 74.0841 78.8213C73.8964 78.5632 73.1222 77.836 73.1457 79.0793C73.1691 80.3226 74.3656 80.4634 73.2161 81.2141C72.0666 81.9648 71.8554 81.7771 71.3159 81.9648C70.7763 82.1525 70.2602 83.4427 70.401 84.123C70.5183 84.8033 72.1839 86.7036 70.964 86.6097C70.6825 86.5863 68.5242 85.1083 68.1723 84.17C67.797 83.1612 67.3747 82.1994 67.0932 81.4487C66.7883 80.698 66.0376 80.5103 65.3807 80.956C64.7473 81.4018 65.5684 81.824 65.0992 82.7859C64.63 83.7242 64.3016 84.5688 63.6213 83.7946C61.8618 81.7771 59.3048 82.7624 58.906 80.5338C58.6948 79.3139 57.6392 79.4312 56.7712 78.7509C55.8797 78.0706 55.3871 77.6952 55.2463 78.1879C55.1056 78.6336 58.0145 80.9091 58.2022 81.4956C58.5072 82.3636 57.3342 83.1378 56.4897 83.3489C55.6451 83.56 55.2698 82.8562 54.4253 81.9882C53.5807 81.1203 53.2054 80.4869 53.1585 81.1672C53.0646 82.1525 53.9561 83.6304 54.8241 84.17C55.5513 84.6391 56.3724 84.8503 56.1378 85.601C55.9032 86.3517 56.1378 85.9294 55.3167 86.727C54.4956 87.5481 54.3314 87.8061 54.4018 88.9322C54.4722 90.0582 54.1672 90.1286 53.9795 91.067C53.7215 91.935 53.3227 91.1373 52.9708 92.5214ZM72.3481 85.296C72.958 85.2491 73.8729 86.0936 73.521 86.422C73.1691 86.7505 72.2542 86.6332 71.8085 86.2578C71.3393 85.9059 72.0666 85.3194 72.3481 85.296ZM71.5739 84.7564C71.3863 84.6861 71.1986 84.4984 71.0578 84.0527C70.9171 83.6069 71.2924 83.3489 71.6443 83.5365C72.0196 83.7242 72.4888 84.2872 72.4888 84.5688C72.5123 84.8737 71.7851 84.8268 71.5739 84.7564ZM63.5978 84.733C63.2459 85.0614 62.331 84.9441 61.8618 84.5688C61.4161 84.2169 62.1433 83.6304 62.4248 83.6069C63.0348 83.56 63.9497 84.4046 63.5978 84.733ZM56.2316 88.2988C55.9736 88.6976 55.2933 91.7473 54.8475 91.3954C54.3783 91.0435 55.0352 87.8765 55.176 87.6419C55.8797 86.3282 57.428 86.3986 56.2316 88.2988ZM58.6948 100.075C56.9354 100.075 55.2229 99.8172 53.6277 99.348C53.3931 99.1604 53.2523 98.8554 53.4165 98.4566C53.9795 97.0021 55.6451 96.4391 56.9589 96.2983C59.8913 96.0168 63.7386 98.1985 64.3485 97.8466C64.9584 97.4948 66.2018 95.8761 68.0081 95.9465C69.2515 95.9934 69.228 96.2045 69.6503 96.3687C66.6006 98.6912 62.8002 100.075 58.6948 100.075ZM71.4332 94.8204C71.2455 94.7735 71.0578 94.7031 70.8702 94.6093C69.8849 94.1167 70.0022 94.9143 69.5095 94.7266C69.0169 94.5389 70.0491 93.4129 68.5946 94.3747C67.1401 95.3131 67.5389 94.234 66.9055 92.6153C66.2722 90.9966 67.6328 89.1668 68.7823 88.7445C70.354 88.1815 71.3159 88.0642 72.0666 87.8765C74.2248 87.3369 74.694 86.0467 75.0928 86.8208C75.1632 86.9616 75.2336 87.1024 75.3039 87.2431C75.4212 87.4777 75.5854 87.9469 75.5854 88.4161C74.6471 90.8558 73.2161 93.0375 71.4332 94.8204ZM76.3596 85.6948C75.867 85.5541 73.8495 82.7624 75.4447 80.9091C75.7027 80.6042 74.9051 79.7127 75.1163 79.6893C75.9843 79.6189 76.4534 80.1584 76.688 80.956C76.7115 81.3079 76.7115 81.6598 76.7115 82.0117C76.7584 83.2785 76.6176 84.5218 76.3596 85.6948Z" fill="white"/>
<path d="M10.6505 15.1771C9.9702 15.5524 8.02309 16.092 7.34277 16.4204V13.1596C8.25768 12.7842 10.7678 11.5643 11.6358 10.626H15.0608V33.5925H10.6505V15.1771Z" fill="white"/>
<path d="M17.8291 27.0711V26.2735H22.1925V27.0476C22.216 29.2997 22.6148 30.3319 24.0692 30.3319C25.5472 30.3319 25.8521 29.2059 25.8521 27.0242C25.8521 24.7252 25.3126 23.4114 23.2951 23.3645C23.2482 23.3411 22.8494 23.3411 22.5209 23.3411V20.1272H23.2247C25.2657 20.1272 25.8521 19.0715 25.8521 16.7256C25.8521 14.8723 25.4299 13.8401 23.9754 13.8401C22.5209 13.8401 22.216 15.0834 22.1925 16.8663V17.8986H17.8291V16.6552C17.8291 12.6202 20.1046 10.3682 23.9754 10.3682C27.8931 10.3682 30.1686 12.5264 30.1686 16.5145C30.1686 19.2123 28.9253 21.089 27.2832 21.5347C28.9488 22.1681 30.1686 23.693 30.1686 26.9538C30.1686 31.1295 28.503 34.0385 24.0223 34.0385C19.4243 34.015 17.8291 31.2468 17.8291 27.0711Z" fill="white"/>
<path d="M39.505 10.6484H41.499L43.1881 19.4222H41.5459L41.2175 17.4985H39.8334L39.505 19.4222H37.8159L39.505 10.6484ZM41.0298 16.3959L40.4903 12.8536L39.9742 16.3959H41.0298Z" fill="white"/>
<path d="M46.9884 13.8155V12.9944C46.9884 12.3845 46.9649 11.8215 46.2846 11.8215C45.5808 11.8215 45.5105 12.408 45.5105 13.0648V17.0529C45.5105 17.8036 45.6512 18.2728 46.2846 18.2728C46.9649 18.2728 46.9884 17.6863 46.9884 17.0529V16.2083H48.7244V16.9356C48.7244 18.4135 48.2317 19.4926 46.4723 19.563V20.126C47.3403 20.126 47.9033 20.4779 47.9033 21.2052C47.9033 22.0028 47.1761 22.3312 46.355 22.3312C46.0969 22.3312 45.8154 22.2843 45.5574 22.2139V21.4867C45.7216 21.5336 45.9562 21.5805 46.1673 21.5805C46.5427 21.5805 46.8476 21.4632 46.8476 21.1817C46.8476 20.7829 46.3315 20.6421 45.8623 20.6187V19.5396C44.2202 19.3988 43.7041 18.2493 43.7041 16.6306V13.4871C43.7041 11.6807 44.2906 10.5547 46.2846 10.5547C48.1613 10.5547 48.7478 11.5634 48.7478 13.0883V13.8155H46.9884Z" fill="white"/>
<path d="M50.8595 10.6489H52.8535L54.5426 19.4226H52.9004L52.572 17.4989H51.1879L50.8595 19.4226H49.1704L50.8595 10.6489ZM51.3521 9.07712C51.0471 9.07712 50.9533 9.26477 50.9533 9.52282H50.1557C50.1557 8.67829 50.3668 8.06836 51.0941 8.06836C51.6336 8.06836 51.9855 8.561 52.4547 8.561C52.7127 8.561 52.7831 8.3968 52.7831 8.13875H53.5338C53.5338 8.84252 53.44 9.59321 52.7127 9.59321C52.1732 9.59321 51.7744 9.07712 51.3521 9.07712ZM52.3843 16.3964L51.8448 12.854L51.3287 16.3964H52.3843Z" fill="white"/>
<path d="M54.9648 16.6541V13.3698C54.9648 11.5635 55.6217 10.5078 57.5454 10.5078C59.469 10.5078 60.1259 11.5635 60.1259 13.3698V16.6541C60.1259 18.437 59.469 19.5161 57.5454 19.5161C55.5982 19.5396 54.9648 18.4605 54.9648 16.6541ZM58.3195 17.0998V12.9476C58.3195 12.3376 58.2257 11.7981 57.5454 11.7981C56.865 11.7981 56.7712 12.3376 56.7712 12.9476V17.0998C56.7712 17.6863 56.8416 18.2493 57.5454 18.2493C58.2257 18.2728 58.3195 17.7098 58.3195 17.0998Z" fill="white"/>
<path d="M63.4805 16.6072V13.4636C63.4805 11.6573 64.0669 10.5312 66.061 10.5312C67.9377 10.5312 68.5242 11.54 68.5242 13.0649V13.7921H66.7882V12.971C66.7882 12.3611 66.7648 11.7981 66.0844 11.7981C65.3807 11.7981 65.3103 12.3845 65.3103 13.0414V17.0294C65.3103 17.7801 65.451 18.2493 66.0844 18.2493C66.7648 18.2493 66.7882 17.6628 66.7882 17.0294V16.1849H68.5242V16.9121C68.5242 18.437 67.9846 19.5396 66.061 19.5396C64.0669 19.5396 63.4805 18.3666 63.4805 16.6072Z" fill="white"/>
<path d="M69.2515 16.6541V13.3698C69.2515 11.5635 69.9083 10.5078 71.832 10.5078C73.7556 10.5078 74.4125 11.5635 74.4125 13.3698V16.6541C74.4125 18.437 73.7556 19.5161 71.832 19.5161C69.9083 19.5396 69.2515 18.4605 69.2515 16.6541ZM72.6061 17.0998V12.9476C72.6061 12.3376 72.5123 11.7981 71.832 11.7981C71.1517 11.7981 71.0578 12.3376 71.0578 12.9476V17.0998C71.0578 17.6863 71.1282 18.2493 71.832 18.2493C72.5123 18.2728 72.6061 17.7098 72.6061 17.0998Z" fill="white"/>
<path d="M75.3979 10.6484H76.6413L78.5884 15.223V10.6484H80.0663V19.4222H78.8699L76.9228 14.5661V19.4222H75.3979V10.6484Z" fill="white"/>
<path d="M82.013 11.9621H80.6523V10.6484H85.1565V11.9621H83.8193V19.4222H82.013V11.9621Z" fill="white"/>
<path d="M85.7197 10.6484H87.9953C89.7547 10.6484 90.8573 11.1645 90.8573 12.9709C90.8573 14.05 90.6227 14.7772 89.7782 15.1526L90.998 19.4222H89.1448L88.136 15.4341H87.5026V19.4222H85.7197V10.6484ZM88.0422 14.3785C88.9102 14.3785 89.1917 13.9562 89.1917 13.0882C89.1917 12.2671 88.9571 11.8214 88.136 11.8214H87.5026V14.355H88.0422V14.3785Z" fill="white"/>
<path d="M93.086 10.6484H95.0801L96.7691 19.4222H95.127L94.7986 17.4985H93.4145L93.086 19.4222H91.397L93.086 10.6484ZM94.6343 16.3959L94.0948 12.8536L93.5787 16.3959H94.6343Z" fill="white"/>
<path d="M101.203 10.6484H103.197L104.886 19.4222H103.244L102.915 17.4985H101.531L101.203 19.4222H99.5137L101.203 10.6484ZM102.728 16.3959L102.188 12.8536L101.672 16.3959H102.728Z" fill="white"/>
<path d="M38.3556 24.9355H40.2558L41.3349 30.4719L42.4844 24.9355H44.3142L44.4784 33.7093H43.1882L43.0474 27.7506L41.9214 33.7093H40.8188L39.6693 27.7037L39.5286 33.7093H38.2148L38.3556 24.9355Z" fill="white"/>
<path d="M45.4873 30.9411V24.9355H47.2467V31.1991C47.2467 31.8795 47.3171 32.5363 48.0209 32.5363C48.7247 32.5363 48.7951 31.856 48.7951 31.1991V24.9355H50.5545V30.9411C50.5545 32.7944 49.9915 33.8266 47.9974 33.8266C46.0034 33.8266 45.4873 32.7944 45.4873 30.9411Z" fill="white"/>
<path d="M51.5869 24.9355H53.7217C55.9503 24.9355 56.6072 25.7801 56.6072 27.6803V30.8707C56.6072 32.8178 55.9503 33.7093 53.7686 33.7093H51.5869V24.9355ZM53.7686 32.4659C54.7539 32.4659 54.8008 31.9967 54.8008 31.0818V27.4457C54.8008 26.5542 54.707 26.1789 53.7686 26.1789H53.3933V32.4659H53.7686Z" fill="white"/>
<path d="M58.7647 24.9355H60.7588L62.4478 33.7093H60.8057L60.4773 31.7856H59.0932L58.7647 33.7093H57.0757L58.7647 24.9355ZM60.2896 30.683L59.75 27.1407L59.2339 30.683H60.2896Z" fill="white"/>
<path d="M63.105 24.9355H64.3483L66.2954 29.5101V24.9355H67.7734V33.7093H66.5769L64.6298 28.8532V33.7093H63.105V24.9355Z" fill="white"/>
<path d="M72.0665 28.1026V27.2816C72.0665 26.6716 72.0431 26.1086 71.3627 26.1086C70.659 26.1086 70.5886 26.6951 70.5886 27.3519V31.34C70.5886 32.0907 70.7293 32.5599 71.3627 32.5599C72.0431 32.5599 72.0665 31.9734 72.0665 31.34V30.4955H73.8025V31.2227C73.8025 32.7006 73.3098 33.7798 71.5504 33.8501V34.4132C72.4184 34.4132 72.9814 34.765 72.9814 35.4923C72.9814 36.2899 72.2542 36.6183 71.4331 36.6183C71.1751 36.6183 70.8936 36.5714 70.6355 36.501V35.7738C70.7997 35.8207 71.0343 35.8676 71.2454 35.8676C71.6208 35.8676 71.9258 35.7503 71.9258 35.4688C71.9258 35.07 71.4097 34.9293 70.9405 34.9058V33.8267C69.2983 33.6859 68.7822 32.5364 68.7822 30.9177V27.7742C68.7822 25.9678 69.3687 24.8418 71.3627 24.8418C73.2395 24.8418 73.826 25.8506 73.826 27.3754V28.1026H72.0665Z" fill="white"/>
<path d="M75.9371 24.9355H77.9312L79.6202 33.7093H77.9781L77.6497 31.7856H76.2421L75.9137 33.7093H74.2246L75.9371 24.9355ZM77.462 30.683L76.9224 27.1407L76.4063 30.683H77.462Z" fill="white"/>
<path d="M82.6465 30.8239V27.8915C82.6465 26.0148 83.233 24.8418 85.227 24.8418C87.1037 24.8418 87.7371 25.8505 87.7371 27.4223V27.9384H86.0012V27.3285C86.0012 26.6481 85.9542 26.1555 85.2505 26.1555C84.5232 26.1555 84.4763 26.7654 84.4763 27.4223V31.3165C84.4763 32.0438 84.6171 32.6068 85.2974 32.6068C85.9777 32.6068 86.1419 32.0438 86.1419 31.2696V30.3313H85.2974V29.2521H87.7606V33.7563H86.5876L86.4703 32.9821C86.2357 33.4982 85.8135 33.897 85.0393 33.897C83.233 33.8501 82.6465 32.6537 82.6465 30.8239Z" fill="white"/>
<path d="M88.7695 24.9355H90.5524V32.4894H92.6168V33.7093H88.7695V24.9355Z" fill="white"/>
<path d="M92.9922 30.9647V27.6804C92.9922 25.874 93.649 24.8184 95.5727 24.8184C97.4964 24.8184 98.1532 25.874 98.1532 27.6804V30.9647C98.1532 32.7476 97.4964 33.8267 95.5727 33.8267C93.6256 33.8501 92.9922 32.7476 92.9922 30.9647ZM96.3469 31.4104V27.2581C96.3469 26.6482 96.253 26.1086 95.5727 26.1086C94.8924 26.1086 94.7985 26.6482 94.7985 27.2581V31.4104C94.7985 31.9969 94.8689 32.5599 95.5727 32.5599C96.253 32.5599 96.3469 31.9969 96.3469 31.4104Z" fill="white"/>
<path d="M99.1382 24.9355H101.367C102.892 24.9355 104.065 25.3578 104.065 27.2111C104.065 28.2667 103.595 28.8532 102.774 28.994C103.807 29.1347 104.323 29.8854 104.323 31.1288C104.323 32.8882 103.431 33.7093 101.766 33.7093H99.1382V24.9355ZM101.367 28.4779C102.282 28.4779 102.493 28.0556 102.493 27.258C102.493 26.4604 102.071 26.1554 101.25 26.1554H100.921V28.4779H101.367ZM101.437 32.4659C102.329 32.4659 102.61 32.0202 102.61 31.1053C102.61 30.0965 102.305 29.6743 101.39 29.6743H100.921V32.4425H101.437V32.4659Z" fill="white"/>
<path d="M106.411 24.9355H108.405L110.094 33.7093H108.452L108.123 31.7856H106.739L106.411 33.7093H104.722L106.411 24.9355ZM107.936 30.683L107.396 27.1407L106.88 30.683H107.936Z" fill="white"/>
<path d="M110.75 24.9355H112.533V32.4894H114.598V33.7093H110.75V24.9355Z" fill="white"/>
<path d="M38.2383 39.2461H40.3731C42.6017 39.2461 43.2585 40.0906 43.2585 41.9908V45.1812C43.2585 47.1284 42.6017 48.0198 40.42 48.0198H38.2383V39.2461ZM40.3965 46.7765C41.3818 46.7765 41.4287 46.3073 41.4287 45.3924V41.7562C41.4287 40.8648 41.3349 40.4894 40.3965 40.4894H40.0212V46.7765H40.3965Z" fill="white"/>
<path d="M44.103 45.2518V41.9675C44.103 40.1611 44.7599 39.1055 46.6835 39.1055C48.6072 39.1055 49.264 40.1611 49.264 41.9675V45.2518C49.264 47.0347 48.6072 48.1138 46.6835 48.1138C44.7599 48.1372 44.103 47.0581 44.103 45.2518ZM47.4577 45.6975V41.5452C47.4577 40.9353 47.3639 40.3957 46.6835 40.3957C46.0032 40.3957 45.9094 40.9353 45.9094 41.5452V45.6975C45.9094 46.284 45.9798 46.847 46.6835 46.847C47.3639 46.847 47.4577 46.284 47.4577 45.6975Z" fill="white"/>
<path d="M52.6187 45.2048V42.0613C52.6187 40.2549 53.2051 39.1289 55.1992 39.1289C57.0759 39.1289 57.6624 40.1376 57.6624 41.6625V42.3897H55.9264V41.5687C55.9264 40.9587 55.9029 40.3957 55.2226 40.3957C54.5188 40.3957 54.4485 40.9822 54.4485 41.639V45.6271C54.4485 46.3778 54.5892 46.847 55.2226 46.847C55.9029 46.847 55.9264 46.2605 55.9264 45.6271V44.7826H57.6624V45.5098C57.6624 47.0346 57.1228 48.1372 55.1992 48.1372C53.2051 48.1372 52.6187 46.9643 52.6187 45.2048Z" fill="white"/>
<path d="M58.5308 39.2461H60.3137V46.7999H62.3781V48.0198H58.5308V39.2461Z" fill="white"/>
<path d="M63.0112 39.2461H64.7941V48.0198H63.0112V39.2461Z" fill="white"/>
<path d="M66.0373 39.2461H67.9375L69.0166 44.7825L70.1661 39.2461H71.9959L72.1601 48.0198H70.8464L70.7056 42.0612L69.5796 48.0198H68.477L67.3275 42.0143L67.1868 48.0198H65.873L66.0373 39.2461Z" fill="white"/>
<path d="M74.5064 39.2461H76.5005L78.1895 48.0198H76.5474L76.219 46.0962H74.8349L74.5064 48.0198H72.8174L74.5064 39.2461ZM76.0313 44.9936L75.4917 41.4513L74.9756 44.9936H76.0313Z" fill="white"/>
</svg>
