<svg width="118" height="118" viewBox="0 0 118 118" fill="none" xmlns="http://www.w3.org/2000/svg">
<path d="M117.119 0.303711H0.29248V117.13H117.119V0.303711Z" fill="#1896D3"/>
<path d="M89.7897 85.7425C88.3117 83.7485 78.8108 71.6436 65.5094 71.6436C53.944 71.6436 41.5811 82.1298 41.5811 82.1298C41.5811 82.1298 36.9361 72.6289 27.4352 71.7139C27.3882 71.7139 27.3179 71.6905 27.2475 71.6905H27.1771C26.9894 71.6905 26.8018 71.9016 26.8252 72.0658C26.8487 72.23 26.966 72.4177 26.966 72.4177C28.1859 74.4587 31.3294 80.2296 31.3294 86.024C31.3294 91.8185 28.1859 97.6363 26.966 99.6538L26.8956 99.7711C26.8487 99.8415 26.8252 99.8884 26.8252 99.9823C26.8252 100.193 26.9894 100.334 27.1771 100.358H27.271C27.2944 100.358 27.3413 100.358 27.3648 100.358C36.9127 99.4662 41.5576 89.9183 41.5576 89.9183C41.5576 89.9183 53.9206 100.405 65.486 100.405C78.8108 100.405 88.3117 88.2996 89.7662 86.3055C89.8131 86.2586 89.8366 86.2117 89.86 86.1648C89.8835 86.1179 89.8835 86.071 89.8835 86.024C89.8835 85.9771 89.86 85.9302 89.86 85.8833C89.86 85.8363 89.8366 85.7894 89.7897 85.7425ZM72.8991 87.5723C70.7408 87.5723 69.0048 85.8364 69.0048 83.6781C69.0048 81.5433 70.7408 79.7839 72.8991 79.7839C75.0573 79.7839 76.7933 81.5199 76.7933 83.6781C76.7933 85.8129 75.0573 87.5723 72.8991 87.5723Z" fill="white"/>
<path d="M27.1068 48.8886C27.0834 48.8886 27.0599 48.8651 27.0365 48.8651C26.8253 48.8651 26.6611 49.0293 26.6611 49.2405V51.8914C26.6611 52.0087 26.7081 52.1025 26.7784 52.1729C33.2062 57.7561 39.3056 52.5247 40.7132 51.1407C40.7366 51.0937 40.7836 51.0468 40.807 51.0234C40.8774 50.9764 40.9478 50.953 41.0182 50.953C41.112 50.953 41.2058 50.9999 41.2762 51.0468L41.2997 51.0703C48.572 57.9908 56.1728 52.384 57.768 51.0703L57.9322 50.9295C57.9791 50.9061 58.026 50.9061 58.073 50.9061C58.1199 50.9061 58.1903 50.9061 58.2137 50.9295L58.3779 51.0703C59.9497 52.384 67.5739 57.9908 74.8463 51.0703C74.8463 51.0703 74.8463 51.0703 74.8698 51.0468C74.9401 50.9764 75.034 50.953 75.1278 50.953C75.1982 50.953 75.2686 50.9764 75.3389 51.0234C75.3859 51.0468 75.4093 51.0937 75.4562 51.1407C76.8638 52.5247 82.9397 57.7561 89.391 52.1729C89.4614 52.1025 89.5083 52.0087 89.5083 51.8914V49.2405C89.5083 49.0293 89.3441 48.8651 89.1329 48.8651C89.1095 48.8651 89.086 48.8651 89.0391 48.8886C88.9687 48.912 88.9218 48.959 88.8514 48.9824C86.8808 49.9677 80.7345 52.3371 75.1747 47.0588C75.1278 47.0118 75.0574 46.9649 75.0105 46.8945C74.9636 46.8711 74.9167 46.8711 74.8463 46.8711C74.7994 46.8711 74.7759 46.8711 74.729 46.8945C74.6351 46.918 74.5882 46.9884 74.5413 47.0353C72.8757 48.3021 65.2749 53.4631 58.4952 47.1291L58.4014 47.0353C58.331 46.9649 58.2372 46.918 58.1199 46.918C58.0261 46.918 57.9088 46.9649 57.8618 47.0353L57.768 47.1291C50.9883 53.4631 43.3641 48.3021 41.7219 47.0353C41.675 46.9649 41.6046 46.918 41.5342 46.8945C41.4873 46.8945 41.4639 46.8711 41.4169 46.8711C41.37 46.8711 41.2997 46.8945 41.2527 46.8945C41.2058 46.9415 41.1354 47.0118 41.0885 47.0588C35.5287 52.3371 29.3824 49.9677 27.4118 48.9824C27.2242 48.959 27.1772 48.912 27.1068 48.8886Z" fill="white"/>
<path d="M40.6896 60.8047C40.7131 60.7578 40.76 60.7344 40.7835 60.6874C40.8538 60.6405 40.9242 60.6171 40.9946 60.6171C41.0884 60.6171 41.1823 60.664 41.2526 60.7344C41.2526 60.7344 41.2526 60.7578 41.2761 60.7578C48.525 67.6783 56.1492 62.0715 57.7444 60.7578L57.9087 60.6171C57.9556 60.5936 58.0025 60.5936 58.0494 60.5936C58.0963 60.5936 58.1667 60.5936 58.2136 60.6171L58.3778 60.7578C59.9731 62.0715 67.5738 67.6783 74.8462 60.7578C74.8462 60.7578 74.8462 60.7578 74.8696 60.7344C74.94 60.664 75.0339 60.6171 75.1277 60.6171C75.1981 60.6171 75.2684 60.6405 75.3388 60.6874C75.3857 60.7109 75.4092 60.7578 75.4561 60.8047C76.8637 62.1888 82.9396 67.4202 89.3909 61.8369C89.4612 61.7665 89.5082 61.6727 89.5082 61.5789V58.928C89.5082 58.7169 89.344 58.5526 89.1328 58.5526C89.1094 58.5526 89.0859 58.5527 89.039 58.5761C88.9686 58.5996 88.9217 58.6465 88.8513 58.6699C86.8807 59.6552 80.7344 62.0012 75.1746 56.7463C75.1277 56.6994 75.0573 56.6525 75.0104 56.5821C74.9635 56.5586 74.9166 56.5352 74.8462 56.5352C74.7993 56.5352 74.7758 56.5352 74.7289 56.5586C74.635 56.5821 74.5881 56.629 74.5412 56.6994C72.8756 57.9662 65.2748 63.1272 58.4951 56.7932L58.4013 56.6994C58.3309 56.629 58.2371 56.5821 58.1198 56.5821C58.0259 56.5821 57.9321 56.629 57.8617 56.6994L57.7679 56.7932C50.9882 63.1272 43.364 57.9662 41.7218 56.6994C41.6749 56.629 41.6045 56.5821 41.5341 56.5586C41.4872 56.5352 41.4638 56.5352 41.4168 56.5352C41.3699 56.5352 41.2996 56.5352 41.2526 56.5821C41.2057 56.629 41.1353 56.6759 41.0884 56.7463C35.5286 62.0012 29.3823 59.6552 27.4117 58.6699C27.3413 58.6465 27.271 58.5996 27.224 58.5761C27.2006 58.5761 27.1771 58.5526 27.1537 58.5526C26.9425 58.5526 26.7783 58.7169 26.7783 58.928V61.5789C26.7783 61.6962 26.8252 61.79 26.8956 61.8369C33.1827 67.4202 39.2821 62.1888 40.6896 60.8047Z" fill="white"/>
<path d="M11.0607 13.6751C10.3804 14.0505 8.40981 14.59 7.72949 14.9184V11.6342C8.6444 11.2588 11.178 10.039 12.0225 9.10059H15.471V32.1844H11.0607V13.6751Z" fill="white"/>
<path d="M24.9957 26.7888H17.9814V23.3637L23.987 9.12402H29.0776V23.4576H31.3297V26.7888H29.0776V32.2079H24.9723V26.7888H24.9957ZM24.9957 23.4576V13.6517L21.4534 23.4576H24.9957Z" fill="white"/>
<path d="M38.5781 9.12402H40.1264L41.1821 15.2234L42.1674 9.12402H43.7861L42.1205 17.9447H40.2672L38.5781 9.12402Z" fill="white"/>
<path d="M44.7012 9.12402H46.4841V17.9447H44.7012V9.12402Z" fill="white"/>
<path d="M47.8208 9.12402H49.9791C52.2077 9.12402 52.8646 9.96857 52.8646 11.8922V15.1061C52.8646 17.0767 52.2077 17.9447 50.0025 17.9447H47.7974V9.12402H47.8208ZM50.0025 16.6779C50.9878 16.6779 51.0347 16.2087 51.0347 15.2938V11.6576C51.0347 10.7662 50.9409 10.3908 49.9791 10.3908H49.6037V16.7014H50.0025V16.6779Z" fill="white"/>
<path d="M55.234 9.12402H57.228L58.9171 17.9447H57.2515L56.9231 15.9976H55.539L55.2105 17.9447H53.5215L55.234 9.12402ZM56.7823 14.895L56.2427 11.3526L55.7266 14.895H56.7823Z" fill="white"/>
<path d="M62.5537 9.12402H63.797L65.7676 13.6986V9.12402H67.269V17.9447H66.0491L64.0786 13.0652V17.9447H62.5537V9.12402Z" fill="white"/>
<path d="M69.8492 9.12402H71.8433L73.5323 17.9447H71.8667L71.5383 15.9976H70.1542L69.8258 17.9447H68.1367L69.8492 9.12402ZM71.3976 14.895L70.858 11.3526L70.3419 14.895H71.3976Z" fill="white"/>
<path d="M40.2906 23.4811H42.2847L43.9737 32.3018H42.3081L41.9797 30.3547H40.5956L40.2672 32.3018H38.5781L40.2906 23.4811ZM41.4167 20.6426H43.0823L41.7451 22.8243H40.7364L41.4167 20.6426ZM41.8155 29.2521L41.2759 25.7098L40.7598 29.2521H41.8155Z" fill="white"/>
<path d="M44.6074 29.3698V26.414C44.6074 24.5372 45.2174 23.3643 47.1879 23.3643C49.0881 23.3643 49.6981 24.373 49.6981 25.9448V26.4609H47.9621V25.851C47.9621 25.1706 47.9152 24.6545 47.2114 24.6545C46.4842 24.6545 46.4372 25.2645 46.4372 25.9213V29.839C46.4372 30.5662 46.578 31.1293 47.2583 31.1293C47.9386 31.1293 48.1028 30.5428 48.1028 29.7921V28.8537H47.2349V27.7746H49.7215V32.3022H48.5486L48.4313 31.5281C48.1967 32.0442 47.7744 32.443 46.9768 32.443C45.1939 32.4195 44.6074 31.2231 44.6074 29.3698Z" fill="white"/>
<path d="M50.9175 29.5105V23.4814H52.6769V29.7685C52.6769 30.4488 52.7473 31.1292 53.4511 31.1292C54.1549 31.1292 54.2252 30.4488 54.2252 29.7685V23.4814H56.0081V29.5105C56.0081 31.3637 55.4451 32.4194 53.4511 32.4194C51.4571 32.4194 50.9175 31.3637 50.9175 29.5105Z" fill="white"/>
<path d="M58.4718 23.4814H60.4658L62.1549 32.3021H60.5127L60.1843 30.355H58.8002L58.4718 32.3021H56.7593L58.4718 23.4814ZM60.0201 29.2524L59.4805 25.7101L58.9644 29.2524H60.0201Z" fill="white"/>
</svg>
