<svg width="119" height="118" viewBox="0 0 119 118" fill="none" xmlns="http://www.w3.org/2000/svg">
<g opacity="0.5">
<path d="M118.024 0.209961H0.728516V117.506H118.024V0.209961Z" fill="#03699C"/>
<path d="M86.5892 92.4515H75.3757C74.8362 92.4515 74.3904 92.8972 74.3904 93.4368V96.8384L67.0712 97.636L56.3738 97.4014V90.8563C57.8048 90.6686 59.2124 90.3871 60.6434 89.9883C70.942 87.0794 73.194 78.5637 72.9594 72.6754C72.7249 66.6699 74.6485 64.3474 77.4167 63.3152C78.2143 63.0102 78.9884 62.8226 79.6922 62.7053C79.7157 64.1832 80.0207 65.8957 80.6775 67.9367C80.9121 67.9132 81.1702 67.9132 81.4047 67.8663C80.701 65.7784 80.4195 64.0659 80.396 62.588C81.827 62.4238 82.8358 62.5176 82.8358 62.5176C82.8358 62.5176 81.8739 62.0015 80.5133 60.852C80.9825 58.0134 82.6715 56.2775 84.4075 54.4711C85.3693 53.4858 86.3546 52.4771 87.1288 51.2572L86.5188 50.8584C85.7916 52.0079 84.8063 52.9932 83.868 53.955C82.1554 55.691 80.4429 57.4739 79.8799 60.289C79.3169 59.7963 78.7304 59.2099 78.1205 58.5061C75.5869 55.6675 72.3026 57.7554 67.6577 62.0954C62.9893 66.4353 57.1245 66.576 51.4004 60.7113C43.8466 52.9697 37.2546 53.0166 32.7269 53.4624C35.8236 54.7761 36.9027 57.6616 38.4744 65.0277C40.1166 72.7458 44.2454 76.2178 49.9225 76.7104C46.779 77.813 46.6148 79.5959 42.3921 82.5048C39.1078 84.7804 34.4629 84.0531 32.5862 83.6309C36.0347 84.71 40.1166 88.3227 43.7762 89.5895C45.911 90.3167 48.1396 90.7859 50.4386 90.9501V97.2137L31.2725 96.768V101.131L67.0712 100.31L74.3904 101.108V104.51C74.3904 105.049 74.8362 105.495 75.3757 105.495H86.5892C87.1288 105.495 87.5745 105.049 87.5745 104.51V93.3664C87.5745 92.8972 87.1288 92.4515 86.5892 92.4515ZM52.2215 91.0909C53.0191 91.1144 53.8167 91.0909 54.6143 91.0205V97.3545L52.2215 97.3076V91.0909Z" fill="white"/>
<path d="M11.3555 14.8264C10.6987 15.1782 8.79846 15.7178 8.1416 16.0462V12.8792C9.03305 12.5273 11.4728 11.3309 12.2939 10.416H15.6251V32.7257H11.3555V14.8264Z" fill="white"/>
<path d="M18.7451 25.7116V17.7824C18.7451 13.419 19.965 10.1582 24.7507 10.1582C28.856 10.1582 30.3809 12.1757 30.4043 15.8119V16.1872H26.3928C26.3928 14.3105 26.2051 13.3956 24.7976 13.3956C23.4369 13.3956 23.0851 14.4747 23.0851 17.9232V20.1753C23.5542 19.3777 24.6334 18.9085 25.9471 18.885C29.4894 18.8381 30.7797 21.6063 30.7797 25.3128C30.7797 29.8639 29.3486 33.0544 24.7976 33.0544C20.5045 33.0309 18.7451 29.9108 18.7451 25.7116ZM26.4866 26.0166C26.4866 23.7645 26.4397 22.1224 24.7741 22.1224C23.9765 22.1224 23.3196 22.6619 23.0616 23.1311V26.6735C23.0616 28.3625 23.4135 29.8405 24.7976 29.8405C26.2051 29.8639 26.4866 28.4564 26.4866 26.0166Z" fill="white"/>
<path d="M39.6709 10.415H42.3687C43.8936 10.415 44.5739 11.3065 44.5739 12.8783C44.5739 14.7081 43.5651 15.2476 42.181 15.2476H41.3834V18.9542H39.6475V10.415H39.6709ZM42.0168 14.0278C42.791 14.0278 42.9552 13.6759 42.9552 12.8313C42.9552 12.0807 42.8614 11.6349 42.0168 11.6349H41.4069V14.0278H42.0168Z" fill="white"/>
<path d="M46.2159 10.415H48.1395L49.7817 18.9307H48.1865L47.8815 17.054H46.5443L46.2159 18.9307H44.5737L46.2159 10.415ZM47.7173 15.9983L47.2011 12.5733L46.6851 15.9983H47.7173Z" fill="white"/>
<path d="M50.3447 17.8751L52.5264 11.6115H50.462V10.415H54.2624V11.3534L52.0338 17.7578H54.2859V18.9307H50.3682V17.8751H50.3447Z" fill="white"/>
<path d="M55.107 19.846C55.4824 19.7522 55.8343 19.4942 55.8343 18.9311H55.0132V17.3828H56.538V18.7435C56.538 19.7287 56.1158 20.2683 55.2478 20.3856L55.107 19.846Z" fill="white"/>
<path d="M59.6816 17.9454C60.5027 17.9454 60.7373 17.8047 60.7373 16.9836V10.415H62.4733V17.054C62.4733 18.4616 62.051 19.1418 60.5262 19.1418H59.6816V17.9454Z" fill="white"/>
<path d="M63.6934 16.2329V10.3916H65.4059V16.4675C65.4059 17.1244 65.4763 17.7812 66.1566 17.7812C66.8369 17.7812 66.9073 17.1244 66.9073 16.4675V10.3916H68.6198V16.2329C68.6198 18.0158 68.0802 19.048 66.1566 19.048C64.2329 19.048 63.6934 18.0393 63.6934 16.2329Z" fill="white"/>
<path d="M69.6284 16.3973L71.1298 16.1392C71.1533 17.1949 71.4113 17.711 71.9743 17.711C72.4201 17.711 72.5608 17.3825 72.5608 17.0072C72.5608 16.28 72.1855 15.8811 71.6224 15.365L70.731 14.5909C70.0976 14.0513 69.6519 13.4414 69.6519 12.4326C69.6519 11.0251 70.5433 10.2744 71.9743 10.2744C73.6869 10.2744 74.0388 11.5412 74.1091 12.6438L72.6078 12.8549C72.5843 12.0808 72.5139 11.5412 71.9274 11.5412C71.5286 11.5412 71.3175 11.8931 71.3175 12.2684C71.3175 12.8784 71.6224 13.2068 72.0916 13.6056L72.9596 14.3563C73.6869 14.9663 74.2733 15.7169 74.2733 16.8899C74.2733 18.1098 73.4054 19.0012 72.0682 19.0012C70.473 19.0481 69.6988 18.2036 69.6284 16.3973Z" fill="white"/>
<path d="M75.9621 11.7053H74.6484V10.415H79.0118V11.7053H77.7216V18.9542H75.9856V11.7053H75.9621Z" fill="white"/>
<path d="M79.7861 10.415H81.5221V18.9307H79.7861V10.415Z" fill="white"/>
<path d="M85.8853 13.4883V12.6907C85.8853 12.0807 85.8618 11.5412 85.1815 11.5412C84.4777 11.5412 84.4308 12.1042 84.4308 12.7376V16.6084C84.4308 17.3356 84.5716 17.8048 85.1815 17.8048C85.8383 17.8048 85.8853 17.2418 85.8853 16.6084V15.7873H87.5743V16.4911C87.5743 17.9221 87.0817 18.9543 85.3926 19.0481V19.6111C86.2372 19.6111 86.7767 19.963 86.7767 20.6668C86.7767 21.4409 86.0729 21.7694 85.2753 21.7694C85.0173 21.7694 84.7592 21.7225 84.5012 21.6521V20.9483C84.6654 20.9952 84.8765 21.0422 85.0876 21.0422C85.463 21.0422 85.7445 20.9483 85.7445 20.6668C85.7445 20.268 85.2519 20.1507 84.7827 20.1038V19.0481C83.1875 18.9074 82.6948 17.8048 82.6948 16.233V13.1833C82.6948 11.4239 83.2813 10.3213 85.1815 10.3213C87.0113 10.3213 87.5743 11.3066 87.5743 12.7845V13.5117H85.8853V13.4883Z" fill="white"/>
<path d="M89.8736 10.415H91.7972L93.4394 18.9307H91.8442L91.5392 17.054H90.202L89.8736 18.9307H88.2314L89.8736 10.415ZM91.3515 15.9983L90.8354 12.5733L90.3193 15.9983H91.3515Z" fill="white"/>
<path d="M96.9351 10.415H100.642V11.6115H98.6476V13.8635H100.196V15.0834H98.6476V17.7578H100.665V18.9307H96.9351V10.415Z" fill="white"/>
<path d="M39.6943 24.3027H41.4303V32.8184H39.6943V24.3027Z" fill="white"/>
<path d="M42.7202 24.3027H43.9401L45.8403 28.7365V24.3027H47.2713V32.8184H46.0983L44.1982 28.1031V32.8184H42.7202V24.3027Z" fill="white"/>
<path d="M48.3276 30.2849L49.829 30.0269C49.8525 31.0826 50.1105 31.5987 50.6736 31.5987C51.1193 31.5987 51.26 31.2703 51.26 30.8949C51.26 30.1677 50.8847 29.7689 50.3217 29.2528L49.4302 28.4786C48.7968 27.939 48.3511 27.3291 48.3511 26.3204C48.3511 24.9128 49.2425 24.1621 50.6736 24.1621C52.3861 24.1621 52.738 25.4289 52.8083 26.5315L51.3069 26.7426C51.2835 25.9685 51.2131 25.4289 50.6266 25.4289C50.2278 25.4289 50.0167 25.7808 50.0167 26.1561C50.0167 26.7661 50.3217 27.0945 50.7909 27.4933L51.6588 28.244C52.3861 28.854 52.9725 29.6047 52.9725 30.7776C52.9725 31.9975 52.1046 32.8889 50.7674 32.8889C49.1722 32.9359 48.398 32.0913 48.3276 30.2849Z" fill="white"/>
<path d="M54.6614 25.593H53.3477V24.3027H57.7111V25.593H56.4208V32.8419H54.6848V25.593H54.6614Z" fill="white"/>
<path d="M58.4854 24.3027H60.2213V32.8184H58.4854V24.3027Z" fill="white"/>
<path d="M62.3093 25.593H60.9956V24.3027H65.359V25.593H64.0688V32.8419H62.3328V25.593H62.3093Z" fill="white"/>
<path d="M66.0625 30.1216V24.2803H67.775V30.3562C67.775 31.0131 67.8454 31.6699 68.5257 31.6699C69.206 31.6699 69.2764 31.0131 69.2764 30.3562V24.2803H70.9889V30.1216C70.9889 31.9045 70.4494 32.9367 68.5257 32.9367C66.5786 32.9367 66.0625 31.928 66.0625 30.1216Z" fill="white"/>
<path d="M72.2324 24.3027H73.9684V32.8184H72.2324V24.3027Z" fill="white"/>
<path d="M78.3081 27.377V26.5793C78.3081 25.9694 78.2847 25.4298 77.6043 25.4298C76.9006 25.4298 76.8537 25.9928 76.8537 26.6262V30.497C76.8537 31.2242 76.9944 31.6934 77.6043 31.6934C78.2612 31.6934 78.3081 31.1304 78.3081 30.497V29.6759H79.9972V30.3797C79.9972 31.8107 79.5045 32.8429 77.8155 32.9368V33.4998C78.66 33.4998 79.1996 33.8517 79.1996 34.5555C79.1996 35.3296 78.4958 35.658 77.6982 35.658C77.4401 35.658 77.1821 35.6111 76.9241 35.5407V34.837C77.0883 34.8839 77.2994 34.9308 77.5105 34.9308C77.8859 34.9308 78.1674 34.837 78.1674 34.5555C78.1674 34.1566 77.6747 34.0393 77.2055 33.9924V32.9368C75.6103 32.796 75.1177 31.6934 75.1177 30.1217V27.072C75.1177 25.3125 75.7041 24.21 77.6043 24.21C79.4342 24.21 79.9972 25.1952 79.9972 26.6732V27.4004H78.3081V27.377Z" fill="white"/>
<path d="M80.9355 30.1444V26.954C80.9355 25.218 81.5689 24.1858 83.4457 24.1858C85.3224 24.1858 85.9558 25.218 85.9558 26.954V30.1444C85.9558 31.8804 85.3224 32.9361 83.4457 32.9361C81.5689 32.9361 80.9355 31.8804 80.9355 30.1444ZM82.9765 22.7783C82.6715 22.7783 82.6011 22.9659 82.6011 23.2005H81.827C81.827 22.3795 82.0381 21.7695 82.7419 21.7695C83.258 21.7695 83.6099 22.2387 84.0556 22.2387C84.2902 22.2387 84.384 22.0745 84.384 21.8164H85.1113C85.1113 22.4968 85.0175 23.2474 84.3137 23.2474C83.7507 23.2709 83.3753 22.7783 82.9765 22.7783ZM84.1964 30.5667V26.5317C84.1964 25.9452 84.1025 25.4292 83.4457 25.4292C82.7888 25.4292 82.695 25.9452 82.695 26.5317V30.5667C82.695 31.1532 82.7654 31.6927 83.4457 31.6927C84.1025 31.6927 84.1964 31.1532 84.1964 30.5667Z" fill="white"/>
<path d="M87.1289 24.3027H90.8354V25.4992H88.8414V27.7513H90.3897V28.9711H88.8414V31.6455H90.8589V32.8184H87.1289V24.3027Z" fill="white"/>
<path d="M91.5391 30.2849L93.0405 30.0269C93.0639 31.0826 93.322 31.5987 93.885 31.5987C94.3307 31.5987 94.4715 31.2703 94.4715 30.8949C94.4715 30.1677 94.0961 29.7689 93.5331 29.2528L92.6417 28.4786C92.0083 27.939 91.5625 27.3291 91.5625 26.3204C91.5625 24.9128 92.454 24.1621 93.885 24.1621C95.5975 24.1621 95.9494 25.4289 96.0198 26.5315L94.5184 26.7426C94.4949 25.9685 94.4246 25.4289 93.8381 25.4289C93.4393 25.4289 93.2281 25.7808 93.2281 26.1561C93.2281 26.7661 93.5331 27.0945 94.0023 27.4933L94.8703 28.244C95.5975 28.854 96.184 29.6047 96.184 30.7776C96.184 31.9975 95.316 32.8889 93.9788 32.8889C92.3836 32.9359 91.6094 32.0913 91.5391 30.2849Z" fill="white"/>
<path d="M39.6709 38.1914H43.3775V39.3878H41.3834V41.6399H42.9317V42.8598H41.3834V45.5341H43.4009V46.7071H39.6709V38.1914Z" fill="white"/>
<path d="M44.2925 38.1914H47.8818V39.3878H46.005V41.6868H47.6003V42.9067H46.005V46.7306H44.269V38.1914H44.2925Z" fill="white"/>
<path d="M48.7729 38.1914H50.5089V46.7071H48.7729V38.1914Z" fill="white"/>
<path d="M51.6821 43.9859V40.9362C51.6821 39.1768 52.2686 38.0742 54.1688 38.0742C55.9986 38.0742 56.5617 39.0595 56.5617 40.5374V41.2647H54.8726V40.467C54.8726 39.8571 54.8491 39.3175 54.1688 39.3175C53.465 39.3175 53.4181 39.8806 53.4181 40.514V44.3847C53.4181 45.112 53.5589 45.5812 54.1688 45.5812C54.8257 45.5812 54.8726 45.0181 54.8726 44.3847V43.5637H56.5617V44.2674C56.5617 45.7454 56.0456 46.8245 54.1688 46.8245C52.2686 46.8245 51.6821 45.6984 51.6821 43.9859Z" fill="white"/>
<path d="M58.8604 38.1914H60.784L62.4262 46.7071H60.831L60.526 44.8303H59.1888L58.8604 46.7071H57.2183L58.8604 38.1914ZM60.3383 43.7747L59.8222 40.3496L59.3061 43.7747H60.3383Z" fill="white"/>
<path d="M62.9658 45.628L65.1475 39.3644H63.0831V38.168H66.8835V39.1063L64.6549 45.5107H66.9069V46.6836H62.9893V45.628H62.9658Z" fill="white"/>
<path d="M67.7983 38.1914H71.5049V39.3878H69.5108V41.6399H71.0592V42.8598H69.5108V45.5341H71.5284V46.7071H67.7983V38.1914Z" fill="white"/>
<path d="M72.209 44.1736L73.7104 43.9156C73.7338 44.9712 73.9919 45.4873 74.5549 45.4873C75.0006 45.4873 75.1414 45.1589 75.1414 44.7836C75.1414 44.0563 74.766 43.6575 74.203 43.1414L73.3116 42.3672C72.6782 41.8277 72.2325 41.2178 72.2325 40.209C72.2325 38.8015 73.1239 38.0508 74.5549 38.0508C76.2674 38.0508 76.6193 39.3176 76.6897 40.4202L75.1883 40.6313C75.1649 39.8571 75.0945 39.3176 74.508 39.3176C74.1092 39.3176 73.8981 39.6695 73.8981 40.0448C73.8981 40.6548 74.203 40.9832 74.6722 41.382L75.5402 42.1327C76.2674 42.7426 76.8539 43.4933 76.8539 44.6663C76.8539 45.8861 75.9859 46.7776 74.6487 46.7776C73.0535 46.8245 72.2794 45.98 72.209 44.1736Z" fill="white"/>
</g>
<path opacity="0.5" d="M82.8124 46.0254C82.8124 46.0254 81.4517 47.8317 81.8505 49.5677C82.2494 51.3272 84.2434 52.3594 84.2434 52.3594C84.2434 52.3594 85.604 50.553 85.2052 48.817C84.8298 47.0576 82.8124 46.0254 82.8124 46.0254Z" fill="white"/>
<path opacity="0.5" d="M80.6301 56.2773C80.6301 56.2773 81.9907 54.471 81.5919 52.735C81.1931 50.9756 79.1991 49.9434 79.1991 49.9434C79.1991 49.9434 77.8385 51.7263 78.2373 53.4857C78.6361 55.2451 80.6301 56.2773 80.6301 56.2773Z" fill="white"/>
<path opacity="0.5" d="M86.167 54.3542C86.167 54.3542 87.598 55.7852 89.2167 55.6445C90.8354 55.5037 92.0553 53.8381 92.0553 53.8381C92.0553 53.8381 90.6243 52.4071 89.0056 52.5478C87.3869 52.6886 86.167 54.3542 86.167 54.3542Z" fill="white"/>
<path opacity="0.5" d="M88.5132 46.6595C87.1995 47.9967 87.3872 50.3661 87.3872 50.3661C87.3872 50.3661 89.7097 50.5772 91.0468 49.2166C92.3605 47.8794 92.1729 45.51 92.1729 45.51C92.1729 45.51 89.8504 45.3223 88.5132 46.6595Z" fill="white"/>
<path opacity="0.5" d="M85.6041 59.6785C87.2228 59.8662 88.7476 58.4821 88.7476 58.4821C88.7476 58.4821 87.645 56.7696 86.0263 56.5819C84.4077 56.3943 82.8828 57.7784 82.8828 57.7784C82.8828 57.7784 83.9854 59.4909 85.6041 59.6785Z" fill="white"/>
<path opacity="0.5" d="M87.0352 87.8301H74.9303C73.9919 87.8301 73.2178 88.6042 73.2178 89.5426C73.2178 90.481 73.9919 91.2551 74.9303 91.2551H87.0352C87.9736 91.2551 88.7477 90.481 88.7477 89.5426C88.7477 88.6042 87.9971 87.8301 87.0352 87.8301Z" fill="white"/>
<path d="M87.0352 106.715H74.9303C73.9919 106.715 73.2178 107.489 73.2178 108.427C73.2178 109.366 73.9919 110.14 74.9303 110.14H87.0352C87.9736 110.14 88.7477 109.366 88.7477 108.427C88.7477 107.489 87.9971 106.715 87.0352 106.715Z" fill="white"/>
<path opacity="0.5" d="M32.5867 83.6779C32.3052 83.5841 32.0237 83.5137 31.7422 83.4668C31.7422 83.4668 32.0472 83.5606 32.5867 83.6779Z" fill="white"/>
<path opacity="0.5" d="M30.2168 100.452C30.2168 101.367 29.5834 102.117 28.7858 102.117H27.9178C27.1202 102.117 26.4868 101.367 26.4868 100.452V97.4254C26.4868 96.5105 27.1202 95.7598 27.9178 95.7598H28.7858C29.5834 95.7598 30.2168 96.5105 30.2168 97.4254V100.452Z" fill="white"/>
</svg>
