<svg width="118" height="118" viewBox="0 0 118 118" fill="none" xmlns="http://www.w3.org/2000/svg">
<path d="M117.684 0.256836H0.576172V117.365H117.684V0.256836Z" fill="#17486A"/>
<path d="M87.7735 78.0704C87.7735 69.8362 81.2283 63.1269 73.088 62.8219C71.0001 56.9102 65.3465 52.6406 58.7075 52.6406C52.0686 52.6406 46.4149 56.8867 44.327 62.8219C36.1867 63.1269 29.6416 69.8362 29.6416 78.0704C29.6416 82.9499 31.9406 87.2898 35.5298 90.1049C35.131 91.4421 34.9199 92.8731 34.9199 94.3511C34.9199 102.749 41.77 109.6 50.1684 109.6C53.3588 109.6 56.3147 108.614 58.7779 106.925C61.1942 108.544 64.1032 109.506 67.2467 109.506C75.6685 109.506 82.4951 102.656 82.4951 94.2572C82.4951 92.8262 82.284 91.4186 81.9087 90.1049C85.4745 87.2898 87.7735 82.9499 87.7735 78.0704ZM70.8829 67.9125C70.8829 74.0119 66.3552 79.0791 60.4904 79.9471C60.3966 79.3372 60.3262 78.7038 60.3262 78.0704C60.3262 71.971 64.8538 66.9038 70.7186 66.0358C70.8359 66.6458 70.8829 67.2791 70.8829 67.9125ZM58.7544 102.961C56.4789 100.755 55.0479 97.6588 55.0479 94.2338C55.0479 90.8556 56.432 87.8059 58.6371 85.6008C60.9127 87.8059 62.3437 90.9025 62.3437 94.3276C62.3437 97.7057 60.983 100.755 58.7544 102.961ZM46.6964 66.0358C52.5612 66.9038 57.0888 71.971 57.0888 78.0704C57.0888 78.7038 57.0185 79.3372 56.9246 79.9471C51.0598 79.0791 46.5322 74.0119 46.5322 67.9125C46.5322 67.2791 46.6026 66.6458 46.6964 66.0358ZM55.7751 83.5129C53.7811 87.501 49.6523 90.2457 44.8901 90.2457C42.8726 90.2457 40.9724 89.7531 39.2833 88.8616C41.2773 84.8735 45.4062 82.1288 50.1684 82.1288C52.1859 82.1523 54.086 82.6449 55.7751 83.5129ZM61.6165 83.4425C63.3055 82.5511 65.2057 82.0584 67.2467 82.0584C72.0324 82.0584 76.1846 84.8501 78.1786 88.8851C76.4896 89.7765 74.5659 90.2692 72.5484 90.2692C67.7393 90.2457 63.587 87.4775 61.6165 83.4425ZM58.7075 55.7372C63.7043 55.7372 67.9974 58.7635 69.8741 63.0565C64.9242 63.9245 60.7719 67.2088 58.7075 71.6191C56.6431 67.1853 52.4909 63.9245 47.541 63.0565C49.4177 58.74 53.7107 55.7372 58.7075 55.7372ZM32.7147 78.0704C32.7147 71.7833 37.477 66.6223 43.5998 65.9655C43.5294 66.5989 43.4825 67.2557 43.4825 67.9125C43.4825 72.3698 45.4062 76.3813 48.4559 79.173C43.3887 79.7594 39.0722 82.8091 36.7497 87.1022C34.2631 84.8735 32.7147 81.6596 32.7147 78.0704ZM37.993 94.3276C37.993 93.4596 38.0869 92.6151 38.2511 91.794C40.2686 92.7558 42.4972 93.3189 44.8901 93.3189C47.5644 93.3189 50.0745 92.6385 52.2562 91.4187C52.092 92.3336 51.9982 93.2719 51.9982 94.2338C51.9982 98.3626 53.6403 102.093 56.3147 104.837C54.5083 105.893 52.4204 106.503 50.1918 106.503C43.459 106.503 37.993 101.037 37.993 94.3276ZM79.422 94.2338C79.422 100.943 73.956 106.409 67.2467 106.409C65.065 106.409 63.024 105.823 61.2411 104.814C63.8216 102.069 65.4403 98.386 65.4403 94.3276C65.4403 93.3188 65.3465 92.357 65.1588 91.4187C67.3405 92.6385 69.8741 93.3423 72.5484 93.3423C74.9413 93.3423 77.1934 92.8027 79.2109 91.8175C79.3516 92.5916 79.422 93.3892 79.422 94.2338ZM69.0765 79.0791C72.0792 76.2875 73.956 72.3229 73.956 67.9125C73.956 67.2557 73.9091 66.5989 73.8387 65.9655C79.9381 66.6223 84.7238 71.8068 84.7238 78.0704C84.7238 81.6362 83.1754 84.8501 80.7122 87.0787C78.4132 82.7622 74.1202 79.6891 69.0765 79.0791Z" fill="white"/>
<path d="M10.9912 14.4737C10.3344 14.8256 8.48108 15.3417 7.82422 15.6701V12.5735C8.69221 12.2216 11.085 11.0487 11.9061 10.1572H15.167V32.0446H10.9677V14.4737H10.9912Z" fill="white"/>
<path d="M23.3307 13.3477H17.3721V10.1572H27.3891V12.8785L22.7677 32.0446H18.7092L23.3307 13.3477Z" fill="white"/>
<path d="M36.1865 10.1572H38.8374C40.3388 10.1572 40.9957 11.0252 40.9957 12.5735C40.9957 14.3799 40.0104 14.896 38.6497 14.896H37.8756V18.5321H36.1865V10.1572ZM38.4855 13.6996C39.2362 13.6996 39.4004 13.3477 39.4004 12.5266C39.4004 11.7759 39.3066 11.3536 38.4621 11.3536H37.8521V13.6996H38.4855Z" fill="white"/>
<path d="M42.6143 10.1572H44.5144L46.1332 18.5321H44.5613L44.2564 16.7023H42.9427L42.6143 18.5321H41.019L42.6143 10.1572ZM44.0687 15.6232L43.5526 12.2451L43.06 15.6232H44.0687Z" fill="white"/>
<path d="M46.9546 10.1572H49.1128C50.8019 10.1572 51.8341 10.6499 51.8341 12.3624C51.8341 13.3946 51.5995 14.0749 50.8019 14.4268L51.9513 18.5087H50.2154L49.277 14.7083H48.6671V18.5087H46.978V10.1572H46.9546ZM49.1597 13.6996C49.9808 13.6996 50.2389 13.3008 50.2389 12.4797C50.2389 11.7055 50.0277 11.2833 49.2301 11.2833H48.6436V13.6996H49.1597Z" fill="white"/>
<path d="M52.7954 15.8344V12.8317C52.7954 11.0957 53.3584 10.04 55.2351 10.04C57.0415 10.04 57.5811 11.0018 57.5811 12.4563V13.1601H55.9389V12.386C55.9389 11.7995 55.9155 11.2599 55.2586 11.2599C54.5783 11.2599 54.5314 11.8229 54.5314 12.4329V16.2333C54.5314 16.937 54.6721 17.4062 55.2586 17.4062C55.9155 17.4062 55.9389 16.8432 55.9389 16.2333V15.4122H57.5811V16.0925C57.5811 17.547 57.065 18.6026 55.2351 18.6026C53.3584 18.6261 52.7954 17.5 52.7954 15.8344Z" fill="white"/>
<path d="M58.6372 10.1572H62.2734V11.3302H60.3263V13.5588H61.8277V14.7552H60.3263V17.3826H62.2969V18.5321H58.6372V10.1572Z" fill="white"/>
<path d="M63.1646 10.1572H65.3228C67.0118 10.1572 68.0441 10.6499 68.0441 12.3624C68.0441 13.3946 67.8095 14.0749 67.0119 14.4268L68.1614 18.5087H66.4254L65.487 14.7083H64.8771V18.5087H63.188V10.1572H63.1646ZM65.3697 13.6996C66.1908 13.6996 66.4488 13.3008 66.4488 12.4797C66.4488 11.7055 66.2377 11.2833 65.4401 11.2833H64.8536V13.6996H65.3697Z" fill="white"/>
<path d="M69.1938 10.1572H70.883V18.5321H69.1938V10.1572Z" fill="white"/>
<path d="M73.3696 10.1572H75.2699L76.8885 18.5321H75.3168L75.0118 16.7023H73.6981L73.3696 18.5321H71.7744L73.3696 10.1572ZM74.8241 15.6232L74.308 12.2451L73.8154 15.6232H74.8241Z" fill="white"/>
<path d="M77.4512 16.0221L78.9291 15.7641C78.9525 16.7963 79.2106 17.3124 79.7501 17.3124C80.1724 17.3124 80.3132 16.984 80.3132 16.6321C80.3132 15.9283 79.9613 15.506 79.3982 15.0368L78.5303 14.2861C77.9203 13.77 77.4746 13.1601 77.4746 12.1748C77.4746 10.7907 78.3426 10.04 79.7501 10.04C81.4392 10.04 81.7676 11.2834 81.838 12.3625L80.3601 12.5736C80.3366 11.7995 80.2662 11.2834 79.7032 11.2834C79.3044 11.2834 79.1167 11.6352 79.1167 11.9871C79.1167 12.5971 79.3982 12.9021 79.8674 13.3009L80.712 14.0516C81.4158 14.6615 82.0022 15.3887 82.0022 16.5382C82.0022 17.7346 81.1343 18.6026 79.844 18.6026C78.2722 18.6261 77.5215 17.805 77.4512 16.0221Z" fill="white"/>
<path d="M36.1865 23.7637H39.8227V24.9366H37.8756V27.1653H39.377V28.3617H37.8756V30.9891H39.8462V32.1386H36.1865V23.7637Z" fill="white"/>
<path d="M43.4123 23.7637H45.2186L46.2508 29.042L47.3534 23.7637H49.0894L49.2536 32.1386H48.0103L47.8695 26.4615L46.7904 32.1386H45.7347L44.6321 26.438L44.5148 32.1386H43.2715L43.4123 23.7637Z" fill="white"/>
<path d="M50.4731 23.7637H54.1093V24.9366H52.1622V27.1653H53.6636V28.3617H52.1622V30.9891H54.1327V32.1386H50.4731V23.7637Z" fill="white"/>
<path d="M55.0244 23.7637H56.7135V32.1386H55.0244V23.7637Z" fill="white"/>
<path d="M57.8628 29.5113V26.3912C57.8628 24.6787 58.4727 23.6699 60.326 23.6699C62.1558 23.6699 62.7892 24.6787 62.7892 26.3912V29.5113C62.7892 31.2238 62.1558 32.256 60.326 32.256C58.4727 32.256 57.8628 31.2238 57.8628 29.5113ZM61.0532 29.9335V25.9689C61.0532 25.3825 60.9594 24.8898 60.326 24.8898C59.6926 24.8898 59.5987 25.4059 59.5987 25.9689V29.9335C59.5987 30.4965 59.6692 31.0361 60.326 31.0361C60.9829 31.0361 61.0532 30.4965 61.0532 29.9335Z" fill="white"/>
<path d="M63.7275 29.652L65.2054 29.394C65.2289 30.4262 65.4869 30.9423 66.0265 30.9423C66.4488 30.9423 66.5895 30.6138 66.5895 30.2619C66.5895 29.5582 66.2376 29.1359 65.6746 28.6667L64.8066 27.916C64.1967 27.3999 63.751 26.79 63.751 25.8047C63.751 24.4206 64.6189 23.6699 66.0265 23.6699C67.7156 23.6699 68.044 24.9133 68.1144 25.9924L66.6365 26.2035C66.613 25.4294 66.5426 24.9133 65.9796 24.9133C65.5808 24.9133 65.3931 25.2652 65.3931 25.617C65.3931 26.227 65.6746 26.5319 66.1438 26.9308L66.9883 27.6814C67.6921 28.2914 68.2786 29.0186 68.2786 30.1681C68.2786 31.3645 67.4106 32.2325 66.1204 32.2325C64.5486 32.256 63.7979 31.4115 63.7275 29.652Z" fill="white"/>
<path d="M71.7271 23.7637H73.768C75.8793 23.7637 76.5128 24.5613 76.5128 26.3911V29.4408C76.5128 31.2941 75.8794 32.1386 73.815 32.1386H71.7271V23.7637ZM73.7915 30.9422C74.7298 30.9422 74.7767 30.4965 74.7767 29.6285V26.18C74.7767 25.3354 74.6829 24.9835 73.7915 24.9835H73.4396V30.9656H73.7915V30.9422Z" fill="white"/>
<path d="M77.6392 23.7637H81.2753V24.9366H79.3283V27.1653H80.8296V28.3617H79.3283V30.9891H81.2988V32.1386H77.6392V23.7637Z" fill="white"/>
<path d="M36.2104 37.3936H37.8995V45.7685H36.2104V37.3936Z" fill="white"/>
<path d="M39.2833 37.3936H41.0897L42.1219 42.6719L43.2245 37.3936H44.9605L45.1247 45.7685H43.8813L43.7405 40.0914L42.6615 45.7685H41.6058L40.5032 40.0679L40.3859 45.7685H39.1426L39.2833 37.3936Z" fill="white"/>
<path d="M46.3442 37.3936H48.9951C50.4965 37.3936 51.1534 38.2616 51.1534 39.8099C51.1534 41.6162 50.1681 42.1323 48.8075 42.1323H48.0333V45.7685H46.3442V37.3936ZM48.6432 40.9359C49.3939 40.9359 49.5581 40.584 49.5581 39.7629C49.5581 39.0122 49.4643 38.59 48.6198 38.59H48.0099V40.9359H48.6432Z" fill="white"/>
<path d="M52.0215 37.3936H53.7105V44.5955H55.6811V45.745H52.0215V37.3936Z" fill="white"/>
<path d="M56.5024 37.3936H60.1386V38.5665H58.1915V40.7951H59.6929V41.9915H58.1915V44.619H60.162V45.7685H56.5024V37.3936Z" fill="white"/>
<path d="M61.1471 37.3936H62.9535L63.9857 42.6719L65.0882 37.3936H66.8242L66.9884 45.7685H65.7451L65.6044 40.0914L64.5252 45.7685H63.4696L62.367 40.0679L62.2497 45.7685H61.0063L61.1471 37.3936Z" fill="white"/>
<path d="M68.2085 37.3936H71.8447V38.5665H69.8975V40.7951H71.399V41.9915H69.8975V44.619H71.8682V45.7685H68.2085V37.3936Z" fill="white"/>
<path d="M72.7358 37.3936H73.9323L75.7855 41.7335V37.3936H77.1931V45.7685H76.0436L74.1903 41.147V45.7685H72.7358V37.3936Z" fill="white"/>
<path d="M79.258 38.6604H77.9678V37.3936H82.2373V38.6604H80.9706V45.7685H79.258V38.6604Z" fill="white"/>
<path d="M83.9029 37.3936H85.803L87.4217 45.7685H85.8499L85.545 43.9387H84.2313L83.9029 45.7685H82.3076L83.9029 37.3936ZM85.3573 42.8596L84.8412 39.4814L84.3486 42.8596H85.3573Z" fill="white"/>
<path d="M91.2222 40.3964V39.6223C91.2222 39.0358 91.1987 38.4962 90.5418 38.4962C89.8615 38.4962 89.8146 39.0592 89.8146 39.6692V43.4696C89.8146 44.1734 89.9553 44.6425 90.5418 44.6425C91.1987 44.6425 91.2222 44.0795 91.2222 43.4696V42.6485H92.8643V43.3288C92.8643 44.7364 92.3951 45.7451 90.7295 45.839V46.3785C91.5506 46.3785 92.0901 46.7304 92.0901 47.4107C92.0901 48.1849 91.4098 48.4899 90.6122 48.4899C90.3542 48.4899 90.0961 48.4429 89.838 48.3726V47.6922C90.0023 47.7392 90.2134 47.7861 90.4245 47.7861C90.7764 47.7861 91.058 47.6922 91.058 47.4107C91.058 47.0354 90.5653 46.8946 90.1196 46.8712V45.839C88.5478 45.6982 88.0552 44.6191 88.0552 43.0708V40.0915C88.0552 38.3555 88.6182 37.2998 90.4949 37.2998C92.3013 37.2998 92.8408 38.2616 92.8408 39.7161V40.4199H91.2222V40.3964Z" fill="white"/>
<path d="M95.1392 37.3929H97.0394L98.6581 45.7678H97.0863L96.7813 43.938H95.4676L95.1392 45.7678H93.5439L95.1392 37.3929ZM95.6084 35.8915C95.3269 35.8915 95.233 36.0792 95.233 36.3138H94.4589C94.4589 35.5162 94.67 34.9297 95.3503 34.9297C95.8664 34.9297 96.1948 35.3989 96.6405 35.3989C96.8751 35.3989 96.969 35.2347 96.969 35.0001H97.6728C97.6728 35.6569 97.5789 36.3841 96.8986 36.3841C96.3825 36.3841 96.0072 35.8915 95.6084 35.8915ZM96.5936 42.8589L96.0775 39.4808L95.5849 42.8589H96.5936Z" fill="white"/>
<path d="M99.2451 43.1177V39.9976C99.2451 38.2851 99.8551 37.2764 101.708 37.2764C103.538 37.2764 104.172 38.2851 104.172 39.9976V43.1177C104.172 44.8302 103.538 45.8624 101.708 45.8624C99.8551 45.8624 99.2451 44.8302 99.2451 43.1177ZM102.436 43.54V39.5754C102.436 38.9889 102.342 38.4962 101.708 38.4962C101.075 38.4962 100.981 39.0124 100.981 39.5754V43.54C100.981 44.103 101.051 44.6426 101.708 44.6426C102.342 44.6426 102.436 44.103 102.436 43.54Z" fill="white"/>
</svg>
