<svg width="118" height="118" viewBox="0 0 118 118" fill="none" xmlns="http://www.w3.org/2000/svg">
<path d="M118 0.0820312H0.657227V117.425H118V0.0820312Z" fill="#BD8A2C"/>
<path d="M91.468 65.791C86.6824 62.014 80.9349 61.6152 78.7063 61.6152C77.5333 61.6152 76.4307 61.7091 75.6331 61.9202L75.3282 61.9906C72.3019 62.7178 67.2347 63.9142 61.323 71.2335L61.1588 71.4446C61.0649 71.5854 61.0181 71.7261 61.0181 71.8904C61.0181 72.0311 61.0415 72.1484 61.1119 72.2892L61.2527 72.5003C62.2379 74.119 63.0355 75.55 63.6924 76.7464C63.927 77.1921 64.5369 77.3329 64.9592 76.9341C65.0061 76.8872 65.053 76.8168 65.0765 76.7699C70.1671 69.7086 74.1786 68.7703 76.8295 68.1603L77.1579 68.09C77.5333 67.9961 78.1198 67.9492 78.7767 67.9492C79.9965 67.9492 84.2896 68.1603 87.6208 70.7878C90.5766 73.1337 92.1015 76.8637 92.1015 81.9074C92.1015 90.3527 88.0196 93.637 84.5945 94.9038C83.2808 95.3965 81.8733 95.6311 80.4188 95.6311C76.8999 95.6311 74.1786 94.2235 74.1317 94.2L73.8971 94.0827C70.9413 92.7925 66.5544 90.1416 62.4021 81.7901C53.8865 64.6649 46.7079 63.0462 41.9692 61.9671L41.7111 61.9202C41.3593 61.8264 40.3271 61.6387 38.6615 61.6387C35.9167 61.6387 30.6384 62.1783 26.1108 65.791C23.0142 68.2542 19.3311 73.0399 19.3311 81.8605C19.3311 87.2327 20.4336 90.775 23.2722 94.505C23.8118 95.2322 28.7382 101.613 38.2392 101.613C39.6467 101.613 41.1012 101.472 42.5791 101.191C44.3151 100.862 46.9895 99.9945 49.9688 97.8128L52.4555 100.065C52.737 100.323 53.2061 100.299 53.4642 100.018C53.5815 99.8772 53.6518 99.713 53.6518 99.5487L55.5755 87.6549V87.5142C55.5755 87.303 55.4817 87.1154 55.3409 86.9981C55.2236 86.8808 55.0594 86.8104 54.8483 86.8104L43.2829 90.0008L43.0718 90.0478C42.931 90.0712 42.7903 90.1651 42.6964 90.2589C42.5557 90.3996 42.5087 90.5873 42.5087 90.775C42.5087 90.9627 42.6026 91.1503 42.7433 91.2676L45.1362 93.4259C43.8694 94.2 42.626 94.7161 41.3827 94.9507C40.3505 95.1619 39.2949 95.2557 38.3096 95.2557C31.7645 95.2557 28.5271 90.9627 28.3863 90.775L28.3159 90.6812C26.3219 88.0537 25.6416 85.8251 25.6416 81.8371C25.6416 76.7933 27.1195 73.0399 30.0285 70.7174C33.2658 68.1369 37.4416 67.9257 38.6615 67.9257C39.3183 67.9257 39.9283 67.9727 40.3036 68.0665L40.5616 68.1134C44.3385 68.9814 49.5231 70.1544 56.725 84.5818C60.5254 92.206 65.2876 97.1794 71.2697 99.8068C71.9735 100.159 75.68 101.942 80.4422 101.942C82.6708 101.942 84.8056 101.566 86.8466 100.816C90.342 99.5018 98.4824 95.0446 98.4824 81.884C98.3416 73.0633 94.6116 68.2542 91.468 65.791Z" fill="white"/>
<path d="M11.9173 15.5639C11.2135 15.9392 9.19596 16.5023 8.49219 16.8541V13.4995C9.43055 13.1241 12.0345 11.8573 12.9025 10.8955H16.4449V34.5424H11.9173V15.5639Z" fill="white"/>
<path d="M19.4004 31.3522L25.1479 22.5081C26.4147 20.561 27.658 18.9188 27.658 16.7371C27.658 15.2123 27.0716 14.3912 25.9455 14.3912C24.233 14.3912 23.8107 15.963 23.8107 17.8866V18.9658H19.4004V17.7928C19.4004 13.6171 21.2067 10.5908 25.8517 10.5908C30.0039 10.5908 32.1387 12.8898 32.1387 16.8075C32.1387 19.693 30.6608 21.7105 29.0421 24.1268L24.491 30.9534H31.5054V34.5192H19.4239V31.3522H19.4004Z" fill="white"/>
<path d="M41.5938 17.0429V13.8055C41.5938 11.9523 42.2037 10.7793 44.2446 10.7793C46.1918 10.7793 46.7782 11.835 46.7782 13.3833V14.134H44.9953V13.2894C44.9953 12.656 44.9718 12.0696 44.2681 12.0696C43.5408 12.0696 43.4705 12.6795 43.4705 13.3364V17.4417C43.4705 18.2159 43.6112 18.7085 44.2681 18.7085C44.9718 18.7085 44.9953 18.0986 44.9953 17.4417V16.5502H46.7782V17.3009C46.7782 18.8727 46.2152 20.0222 44.2446 20.0222C42.2272 20.0457 41.5938 18.8493 41.5938 17.0429Z" fill="white"/>
<path d="M47.7637 17.0898V13.7117C47.7637 11.8584 48.444 10.7793 50.438 10.7793C52.432 10.7793 53.1123 11.8819 53.1123 13.7117V17.0898C53.1123 18.9196 52.432 20.0457 50.438 20.0457C48.444 20.0457 47.7637 18.9431 47.7637 17.0898ZM51.2356 17.5355V13.266C51.2356 12.6326 51.1418 12.093 50.438 12.093C49.7342 12.093 49.6404 12.6326 49.6404 13.266V17.5355C49.6404 18.1455 49.7108 18.732 50.438 18.732C51.1418 18.732 51.2356 18.1455 51.2356 17.5355Z" fill="white"/>
<path d="M54.332 10.8965H55.6223L57.6397 15.5883V10.8965H59.1646V19.9283H57.9212L55.9038 14.9315V19.9283H54.332V10.8965Z" fill="white"/>
<path d="M60.291 17.2306L61.8863 16.9725C61.9097 18.0986 62.1912 18.6381 62.7777 18.6381C63.2469 18.6381 63.3876 18.2862 63.3876 17.9109C63.3876 17.1367 62.9888 16.7145 62.4023 16.1749L61.464 15.3538C60.7837 14.7908 60.3145 14.134 60.3145 13.0783C60.3145 11.6004 61.2529 10.7793 62.7777 10.7793C64.6075 10.7793 64.9594 12.1399 65.0298 13.2894L63.4345 13.524C63.4111 12.703 63.3172 12.1399 62.7307 12.1399C62.3085 12.1399 62.0974 12.5153 62.0974 12.9141C62.0974 13.5709 62.4023 13.8994 62.9184 14.3451L63.8334 15.1427C64.5841 15.7996 65.2174 16.5972 65.2174 17.8171C65.2174 19.1073 64.3026 20.0691 62.895 20.0691C61.159 20.0457 60.3614 19.1542 60.291 17.2306Z" fill="white"/>
<path d="M66.085 17.0662V10.8965H67.8913V17.3243C67.8913 18.0046 67.9617 18.7084 68.689 18.7084C69.4162 18.7084 69.4865 18.0281 69.4865 17.3243V10.8965H71.3164V17.0662C71.3164 18.9664 70.7534 20.0456 68.689 20.0456C66.6245 20.0456 66.085 18.9664 66.085 17.0662Z" fill="white"/>
<path d="M72.7008 10.8965H74.6479L75.774 16.5971L76.947 10.8965H78.8237L78.9879 19.9283H77.6507L77.51 13.782L76.3605 19.9283H75.2344L74.038 13.7585L73.8973 19.9283H72.5366L72.7008 10.8965Z" fill="white"/>
<path d="M80.208 17.0898V13.7117C80.208 11.8584 80.8884 10.7793 82.8824 10.7793C84.8764 10.7793 85.5567 11.8819 85.5567 13.7117V17.0898C85.5567 18.9196 84.8764 20.0457 82.8824 20.0457C80.8884 20.0457 80.208 18.9431 80.208 17.0898ZM83.6566 17.5355V13.266C83.6566 12.6326 83.5627 12.093 82.8589 12.093C82.1551 12.093 82.0613 12.6326 82.0613 13.266V17.5355C82.0613 18.1455 82.1317 18.732 82.8589 18.732C83.5627 18.732 83.6566 18.1455 83.6566 17.5355Z" fill="white"/>
<path d="M89.5444 10.8965H93.4856V12.1633H91.3743V14.5561H92.9929V15.8464H91.3743V18.6849H93.5091V19.9283H89.5444V10.8965Z" fill="white"/>
<path d="M41.7349 25.6055H44.5969C46.2156 25.6055 46.9428 26.5438 46.9428 28.2094C46.9428 30.1565 45.8637 30.7196 44.4092 30.7196H43.5647V34.6373H41.7349V25.6055ZM44.2216 29.4293C45.0426 29.4293 45.2068 29.054 45.2068 28.1625C45.2068 27.3649 45.113 26.8957 44.1981 26.8957H43.5413V29.4293H44.2216Z" fill="white"/>
<path d="M47.8814 25.6055H50.2273C52.0571 25.6055 53.1597 26.145 53.1597 27.9983C53.1597 29.1009 52.9251 29.8516 52.0337 30.2504L53.277 34.6607H51.4003L50.368 30.5788H49.6877V34.6607H47.8579V25.6055H47.8814ZM50.2507 29.4528C51.1422 29.4528 51.4237 29.007 51.4237 28.1391C51.4237 27.2945 51.1891 26.8488 50.3446 26.8488H49.7112V29.4528H50.2507Z" fill="white"/>
<path d="M54.1914 31.7988V28.4207C54.1914 26.5674 54.8717 25.4883 56.8657 25.4883C58.8598 25.4883 59.5401 26.5909 59.5401 28.4207V31.7988C59.5401 33.6286 58.8598 34.7547 56.8657 34.7547C54.8482 34.7547 54.1914 33.6521 54.1914 31.7988ZM57.6399 32.2445V27.9749C57.6399 27.3416 57.5461 26.802 56.8423 26.802C56.1385 26.802 56.0447 27.3416 56.0447 27.9749V32.2445C56.0447 32.8545 56.1151 33.4409 56.8423 33.4409C57.5461 33.4409 57.6399 32.8545 57.6399 32.2445Z" fill="white"/>
<path d="M60.7368 25.6055H62.942C65.2175 25.6055 65.8978 26.4735 65.8978 28.444V31.7283C65.8978 33.7458 65.2175 34.6373 62.9654 34.6373H60.7134V25.6055H60.7368ZM62.9654 33.347C63.9742 33.347 64.0211 32.8778 64.0211 31.916V28.186C64.0211 27.2711 63.9273 26.8957 62.942 26.8957H62.5432V33.347H62.9654Z" fill="white"/>
<path d="M67.0703 31.7752V25.6055H68.8767V32.0333C68.8767 32.7136 68.9471 33.4174 69.6743 33.4174C70.4015 33.4174 70.4719 32.7371 70.4719 32.0333V25.6055H72.3017V31.7752C72.3017 33.6754 71.7387 34.7545 69.6743 34.7545C67.6334 34.7545 67.0703 33.6754 67.0703 31.7752Z" fill="white"/>
<path d="M76.8298 28.8664V28.0219C76.8298 27.3885 76.8063 26.802 76.1025 26.802C75.3753 26.802 75.3049 27.4119 75.3049 28.0688V32.1741C75.3049 32.9483 75.4456 33.4409 76.1025 33.4409C76.8063 33.4409 76.8298 32.831 76.8298 32.1741V31.2827H78.6127V32.0334C78.6127 33.5582 78.0966 34.6608 76.3137 34.7547V35.3411C77.2051 35.3411 77.7916 35.7165 77.7916 36.4672C77.7916 37.2882 77.0409 37.6167 76.1964 37.6167C75.9383 37.6167 75.6334 37.5698 75.3753 37.4994V36.7487C75.5395 36.7956 75.7741 36.8425 76.0087 36.8425C76.4075 36.8425 76.689 36.7252 76.689 36.4437C76.689 36.0215 76.1729 35.8807 75.6803 35.8572V34.7312C73.9912 34.567 73.4517 33.4175 73.4517 31.7519V28.5145C73.4517 26.6612 74.0616 25.4883 76.1025 25.4883C78.0496 25.4883 78.6361 26.5439 78.6361 28.0922V28.8429H76.8298V28.8664Z" fill="white"/>
<path d="M81.0524 25.605H83.0933L84.8294 34.6368H83.1403L82.8118 32.6428H81.3808L81.0289 34.6368H79.293L81.0524 25.605ZM81.5685 23.9863C81.2635 23.9863 81.1697 24.1975 81.1697 24.4321H80.3486C80.3486 23.5641 80.5832 22.9307 81.3105 22.9307C81.8735 22.9307 82.2254 23.4233 82.6946 23.4233C82.9526 23.4233 83.0464 23.2356 83.0464 22.9776H83.8206C83.8206 23.6814 83.7267 24.479 82.976 24.479C82.413 24.5259 82.0142 23.9863 81.5685 23.9863ZM82.6242 31.5167L82.0846 27.8806L81.5451 31.5167H82.6242Z" fill="white"/>
<path d="M85.4858 31.7988V28.4207C85.4858 26.5674 86.1662 25.4883 88.1602 25.4883C90.1543 25.4883 90.8345 26.5909 90.8345 28.4207V31.7988C90.8345 33.6286 90.1543 34.7547 88.1602 34.7547C86.1662 34.7547 85.4858 33.6521 85.4858 31.7988ZM88.9578 32.2445V27.9749C88.9578 27.3416 88.864 26.802 88.1602 26.802C87.4564 26.802 87.3626 27.3416 87.3626 27.9749V32.2445C87.3626 32.8545 87.433 33.4409 88.1602 33.4409C88.8405 33.4409 88.9578 32.8545 88.9578 32.2445Z" fill="white"/>
<path d="M41.7349 40.3145H44.0808C45.9106 40.3145 47.0132 40.854 47.0132 42.7073C47.0132 43.8099 46.7786 44.5606 45.8872 44.9594L47.1305 49.3697H45.2537L44.2215 45.2878H43.5413V49.3697H41.7114V40.3145H41.7349ZM44.1043 44.1618C44.9957 44.1618 45.2772 43.716 45.2772 42.848C45.2772 42.0035 45.0426 41.5578 44.1981 41.5578H43.5647V44.1618H44.1043Z" fill="white"/>
<path d="M48.2329 40.3145H52.174V41.5812H50.0627V43.9741H51.6814V45.2643H50.0627V48.1029H52.1975V49.3462H48.2329V40.3145Z" fill="white"/>
<path d="M52.9248 46.672L54.52 46.4139C54.5434 47.54 54.825 48.0795 55.4114 48.0795C55.8806 48.0795 56.0214 47.7276 56.0214 47.3523C56.0214 46.5781 55.6226 46.1559 55.0361 45.6163L54.0978 44.7952C53.4174 44.2322 52.9482 43.5754 52.9482 42.5197C52.9482 41.0418 53.8866 40.2207 55.4114 40.2207C57.2413 40.2207 57.5932 41.5813 57.6635 42.7308L56.0683 42.9654C56.0449 42.1444 55.951 41.5813 55.3645 41.5813C54.9423 41.5813 54.7312 41.9567 54.7312 42.3555C54.7312 43.0123 55.0361 43.3408 55.5522 43.7865L56.4671 44.5841C57.2178 45.241 57.8512 46.0386 57.8512 47.2585C57.8512 48.5487 56.9363 49.5105 55.5287 49.5105C53.7928 49.4871 52.9952 48.5722 52.9248 46.672Z" fill="white"/>
<path d="M58.7661 40.3145H61.6281C63.2468 40.3145 63.974 41.2528 63.974 42.9184C63.974 44.8655 62.8949 45.4286 61.4404 45.4286H60.5959V49.3462H58.7661V40.3145ZM61.2528 44.1383C62.0739 44.1383 62.2381 43.7629 62.2381 42.8715C62.2381 42.0739 62.1442 41.6047 61.2293 41.6047H60.5725V44.1383H61.2528Z" fill="white"/>
<path d="M64.7715 46.5078V43.1297C64.7715 41.2764 65.4518 40.1973 67.4458 40.1973C69.4398 40.1973 70.1201 41.2998 70.1201 43.1297V46.5078C70.1201 48.3376 69.4398 49.4636 67.4458 49.4636C65.4518 49.4871 64.7715 48.3611 64.7715 46.5078ZM68.2434 46.977V42.6839C68.2434 42.0505 68.1496 41.511 67.4458 41.511C66.742 41.511 66.6482 42.0505 66.6482 42.6839V46.9535C66.6482 47.5634 66.7186 48.1499 67.4458 48.1499C68.1496 48.1499 68.2434 47.5869 68.2434 46.977Z" fill="white"/>
<path d="M71.3403 40.3145H72.6306L74.648 45.0063V40.3145H76.1729V49.3462H74.9295L72.9121 44.3494V49.3462H71.3403V40.3145Z" fill="white"/>
<path d="M77.2988 46.672L78.8941 46.4139C78.9175 47.54 79.199 48.0795 79.7855 48.0795C80.2547 48.0795 80.3954 47.7276 80.3954 47.3523C80.3954 46.5781 79.9966 46.1559 79.4102 45.6163L78.4718 44.7952C77.7915 44.2322 77.3223 43.5754 77.3223 42.5197C77.3223 41.0418 78.2607 40.2207 79.7855 40.2207C81.6153 40.2207 81.9672 41.5813 82.0376 42.7308L80.4423 42.9654C80.4189 42.1444 80.325 41.5813 79.7386 41.5813C79.3163 41.5813 79.1052 41.9567 79.1052 42.3555C79.1052 43.0123 79.4101 43.3408 79.9262 43.7865L80.8412 44.5841C81.5919 45.241 82.2253 46.0386 82.2253 47.2585C82.2253 48.5487 81.3104 49.5105 79.9028 49.5105C78.1668 49.4871 77.3692 48.5722 77.2988 46.672Z" fill="white"/>
<path d="M84.3835 40.3142H86.4244L88.1604 49.346H86.4714L86.1429 47.352H84.7119L84.36 49.346H82.624L84.3835 40.3142ZM85.5564 37.4053H87.269L85.9083 39.6573H84.8761L85.5564 37.4053ZM85.9552 46.2259L85.4157 42.5897L84.8761 46.2259H85.9552Z" fill="white"/>
<path d="M88.3247 40.3145H89.9199L90.999 46.5546L92.0078 40.3145H93.6734L91.9609 49.3462H90.0607L88.3247 40.3145Z" fill="white"/>
<path d="M94.5649 40.3145H98.506V41.5812H96.3947V43.9741H98.0134V45.2643H96.3947V48.1029H98.5295V49.3462H94.5649V40.3145Z" fill="white"/>
<path d="M99.4912 40.3145H101.321V49.3462H99.4912V40.3145Z" fill="white"/>
<path d="M102.47 46.672L104.065 46.4139C104.089 47.54 104.37 48.0795 104.957 48.0795C105.426 48.0795 105.567 47.7276 105.567 47.3523C105.567 46.5781 105.168 46.1559 104.582 45.6163L103.643 44.7952C102.963 44.2322 102.494 43.5754 102.494 42.5197C102.494 41.0418 103.432 40.2207 104.957 40.2207C106.787 40.2207 107.139 41.5813 107.209 42.7308L105.614 42.9654C105.59 42.1444 105.496 41.5813 104.91 41.5813C104.488 41.5813 104.277 41.9567 104.277 42.3555C104.277 43.0123 104.582 43.3408 105.098 43.7865L106.013 44.5841C106.763 45.241 107.397 46.0386 107.397 47.2585C107.397 48.5487 106.482 49.5105 105.074 49.5105C103.338 49.4871 102.541 48.5722 102.47 46.672Z" fill="white"/>
</svg>
