<svg width="118" height="118" viewBox="0 0 118 118" fill="none" xmlns="http://www.w3.org/2000/svg">
<path d="M117.954 0.245117H0.634766V117.564H117.954V0.245117Z" fill="#DC1768"/>
<path d="M77.8154 65.415L88.5832 76.1828L77.8154 86.9506V65.415Z" fill="white"/>
<path d="M38.9201 65.415L28.1523 76.1828L38.9201 86.9506V65.415Z" fill="white"/>
<path d="M47.811 57.2511L58.5788 46.5068L69.3466 57.2511H47.811Z" fill="white"/>
<path d="M48.7495 95.748L59.4938 106.516L70.2616 95.748H48.7495Z" fill="white"/>
<path d="M70.2853 66.3291H46.9199V72.6631H70.2853V66.3291Z" fill="white"/>
<path d="M70.2853 80.124H46.9199V86.458H70.2853V80.124Z" fill="white"/>
<path d="M11.7785 15.6117C11.0747 15.987 9.10417 16.5266 8.40039 16.8785V13.5707C9.3153 13.1954 11.8958 11.952 12.7638 11.0137H16.2592V34.379H11.7785V15.6117Z" fill="white"/>
<path d="M19.5669 28.0209V17.5581C19.5669 13.4528 21.4905 10.6846 25.8305 10.6846C30.1001 10.6846 32.0706 13.4528 32.0706 17.5581V28.0209C32.0706 31.9621 29.9358 34.7772 25.8305 34.7772C21.6313 34.7537 19.5669 31.9855 19.5669 28.0209ZM27.5195 27.9271V17.6285C27.5195 16.3852 27.4023 14.6023 25.807 14.6023C24.1649 14.6023 24.071 16.3852 24.071 17.6285V27.9271C24.071 29.0766 24.2822 30.836 25.807 30.836C27.3084 30.836 27.5195 29.0766 27.5195 27.9271Z" fill="white"/>
<path d="M41.2422 10.9902H43.5647C45.371 10.9902 46.4736 11.5298 46.4736 13.3596C46.4736 14.4622 46.239 15.1894 45.371 15.5648L46.6143 19.9282H44.7611L43.7523 15.8932H43.0955V19.9282H41.2891V10.9902H41.2422ZM43.5881 14.7906C44.4561 14.7906 44.7376 14.3683 44.7376 13.5004C44.7376 12.6793 44.503 12.2336 43.6585 12.2336H43.0251V14.8141H43.5881V14.7906Z" fill="white"/>
<path d="M47.6465 10.9902H51.5407V12.257H49.4528V14.6264H51.0715V15.8932H49.4528V18.6848H51.5642V19.9282H47.6465V10.9902Z" fill="white"/>
<path d="M52.5029 10.9902H54.6846C56.9367 10.9902 57.617 11.8582 57.617 13.7819V17.0427C57.617 19.0367 56.9367 19.9282 54.7316 19.9282H52.5029V10.9902ZM54.7081 18.6614C55.6934 18.6614 55.7638 18.1922 55.7638 17.2538V13.5707C55.7638 12.6558 55.6699 12.2805 54.7081 12.2805H54.3328V18.6614H54.7081Z" fill="white"/>
<path d="M58.7427 17.0896V10.9902H60.5256V17.3477C60.5256 18.028 60.596 18.7083 61.3232 18.7083C62.0504 18.7083 62.1208 18.028 62.1208 17.3477V10.9902H63.9271V17.0896C63.9271 18.9664 63.3641 20.022 61.3466 20.022C59.3057 20.0455 58.7427 18.9664 58.7427 17.0896Z" fill="white"/>
<path d="M68.4079 14.2042V13.3831C68.4079 12.7497 68.3844 12.1867 67.6807 12.1867C66.9534 12.1867 66.9065 12.7732 66.9065 13.4535V17.512C66.9065 18.2627 67.0473 18.7553 67.6807 18.7553C68.3844 18.7553 68.4079 18.1688 68.4079 17.512V16.644H70.1673V17.3712C70.1673 18.8726 69.6512 19.9517 67.8918 20.0455V20.632C68.7833 20.632 69.3463 21.0074 69.3463 21.7346C69.3463 22.5557 68.619 22.8841 67.7745 22.8841C67.5165 22.8841 67.2349 22.8372 66.9534 22.7668V22.0396C67.1177 22.0865 67.3522 22.1334 67.5634 22.1334C67.9387 22.1334 68.2437 22.0161 68.2437 21.7346C68.2437 21.3358 67.7276 21.1951 67.2349 21.1481V20.0455C65.5693 19.8813 65.0532 18.7553 65.0532 17.0897V13.8992C65.0532 12.0694 65.6632 10.9199 67.6572 10.9199C69.5809 10.9199 70.1673 11.9521 70.1673 13.5004V14.2511H68.4079V14.2042Z" fill="white"/>
<path d="M72.5602 10.9907H74.5777L76.2902 19.9287H74.6246L74.2962 17.9581H72.8886L72.5367 19.9287H70.8242L72.5602 10.9907ZM73.0763 9.39548C72.7713 9.39548 72.6775 9.58316 72.6775 9.84121H71.8564C71.8564 8.97322 72.0676 8.36328 72.8182 8.36328C73.3578 8.36328 73.7331 8.85592 74.2023 8.85592C74.4604 8.85592 74.5542 8.66825 74.5542 8.43366H75.3049C75.3049 9.13743 75.2111 9.91158 74.4604 9.91158C73.8974 9.93504 73.4986 9.39548 73.0763 9.39548ZM74.1085 16.832L73.5689 13.2428L73.0294 16.832H74.1085Z" fill="white"/>
<path d="M76.9473 17.1132V13.782C76.9473 11.9522 77.6041 10.873 79.5747 10.873C81.5453 10.873 82.2021 11.9522 82.2021 13.782V17.1132C82.2021 18.943 81.5218 20.0456 79.5747 20.0456C77.6041 20.0456 76.9473 18.943 76.9473 17.1132ZM80.3723 17.5589V13.3363C80.3723 12.7263 80.2785 12.1868 79.5981 12.1868C78.9178 12.1868 78.824 12.7263 78.824 13.3363V17.5589C78.824 18.1689 78.8944 18.7319 79.5981 18.7319C80.2785 18.7319 80.3723 18.1689 80.3723 17.5589Z" fill="white"/>
<path d="M86.1899 10.9902H88.3716C90.6237 10.9902 91.304 11.8582 91.304 13.7819V17.0427C91.304 19.0367 90.6237 19.9282 88.4186 19.9282H86.1899V10.9902ZM88.3951 18.6614C89.3804 18.6614 89.4507 18.1922 89.4507 17.2538V13.5707C89.4507 12.6558 89.3569 12.2805 88.3951 12.2805H88.0197V18.6614H88.3951Z" fill="white"/>
<path d="M93.6969 10.9902H95.7144L97.4269 19.9282H95.7613L95.4329 17.9576H94.0253L93.6734 19.9282H91.9609L93.6969 10.9902ZM95.2452 16.8316L94.7057 13.2423L94.1661 16.8316H95.2452Z" fill="white"/>
<path d="M98.0371 17.2539L99.6089 16.9959C99.6323 18.0985 99.9138 18.638 100.5 18.638C100.97 18.638 101.11 18.2861 101.11 17.9108C101.11 17.1601 100.735 16.7144 100.125 16.1983L99.2101 15.4007C98.5532 14.8376 98.084 14.1808 98.084 13.1486C98.084 11.6941 99.0224 10.873 100.5 10.873C102.307 10.873 102.659 12.2102 102.729 13.3597L101.157 13.5943C101.134 12.7732 101.04 12.2102 100.453 12.2102C100.031 12.2102 99.82 12.5856 99.82 12.9609C99.82 13.5943 100.125 13.9462 100.618 14.3685L101.533 15.1661C102.283 15.8229 102.893 16.5971 102.893 17.817C102.893 19.1072 101.978 20.0221 100.594 20.0221C98.9051 20.0456 98.1309 19.1541 98.0371 17.2539Z" fill="white"/>
<path d="M41.2422 25.5361H43.4239C45.676 25.5361 46.3563 26.4041 46.3563 28.3278V31.5886C46.3563 33.5826 45.676 34.4741 43.4708 34.4741H41.2422V25.5361ZM43.4239 33.1838C44.4092 33.1838 44.4796 32.7146 44.4796 31.7763V28.0932C44.4796 27.1783 44.3857 26.8029 43.4239 26.8029H43.0486V33.1838H43.4239Z" fill="white"/>
<path d="M47.5527 25.5361H51.447V26.8029H49.3591V29.1723H50.9778V30.4391H49.3591V33.2307H51.4704V34.4741H47.5527V25.5361Z" fill="white"/>
<path d="M52.1743 31.7989L53.7461 31.5408C53.7695 32.6434 54.0511 33.183 54.6375 33.183C55.1067 33.183 55.2475 32.8311 55.2475 32.4557C55.2475 31.705 54.8721 31.2593 54.2622 30.7432L53.3473 29.9456C52.6904 29.3826 52.2212 28.7257 52.2212 27.6935C52.2212 26.239 53.1596 25.418 54.6375 25.418C56.4439 25.418 56.7958 26.7551 56.8662 27.9046L55.2944 28.1392C55.2709 27.3182 55.1771 26.7551 54.5906 26.7551C54.1683 26.7551 53.9572 27.1305 53.9572 27.5058C53.9572 28.1392 54.2622 28.4911 54.7548 28.9134L55.6697 29.711C56.4204 30.3679 57.0304 31.142 57.0304 32.3619C57.0304 33.6521 56.1154 34.567 54.7313 34.567C53.0423 34.5905 52.2447 33.699 52.1743 31.7989Z" fill="white"/>
<path d="M57.9688 25.5361H59.7751V34.4741H57.9688V25.5361Z" fill="white"/>
<path d="M60.9951 31.4939V28.5146C60.9951 26.6144 61.6051 25.418 63.5991 25.418C65.5227 25.418 66.1561 26.4267 66.1561 28.0219V28.538H64.3967V27.9046C64.3967 27.2009 64.3498 26.7082 63.646 26.7082C62.9188 26.7082 62.8719 27.3416 62.8719 27.9985V31.9631C62.8719 32.6903 63.0126 33.2533 63.7164 33.2533C64.3967 33.2533 64.5844 32.6669 64.5844 31.8927V30.9543H63.7164V29.8517H66.2265V34.4263H65.0301L64.9128 33.6287C64.6782 34.1682 64.2559 34.5436 63.4583 34.5436C61.6051 34.5905 60.9951 33.3706 60.9951 31.4939Z" fill="white"/>
<path d="M67.376 31.6355V25.5361H69.1589V31.8936C69.1589 32.5739 69.2293 33.2542 69.9565 33.2542C70.6837 33.2542 70.7541 32.5739 70.7541 31.8936V25.5361H72.5605V31.6355C72.5605 33.5123 71.9974 34.5679 69.9799 34.5679C67.9155 34.5914 67.376 33.5123 67.376 31.6355Z" fill="white"/>
<path d="M75.0236 25.5361H77.0411L78.7536 34.4741H77.088L76.7595 32.5035H75.352L75.0001 34.4741H73.2876L75.0236 25.5361ZM76.5953 31.3775L76.0558 27.7882L75.5162 31.3775H76.5953Z" fill="white"/>
<path d="M79.6685 25.5361H81.4748V33.2307H83.5861V34.4741H79.6685V25.5361Z" fill="white"/>
<path d="M84.4541 25.5361H86.6358C88.8879 25.5361 89.5682 26.4041 89.5682 28.3278V31.5886C89.5682 33.5826 88.8879 34.4741 86.6827 34.4741H84.4541V25.5361ZM86.6593 33.1838C87.6446 33.1838 87.7149 32.7146 87.7149 31.7763V28.0932C87.7149 27.1783 87.6211 26.8029 86.6593 26.8029H86.2839V33.1838H86.6593Z" fill="white"/>
<path d="M91.9376 25.5361H93.9551L95.6676 34.4741H94.002L93.6736 32.5035H92.2661L91.9142 34.4741H90.2017L91.9376 25.5361ZM93.5094 31.3775L92.9698 27.7882L92.4303 31.3775H93.5094Z" fill="white"/>
<path d="M96.5825 25.5361H98.7642C101.016 25.5361 101.697 26.4041 101.697 28.3278V31.5886C101.697 33.5826 101.016 34.4741 98.8111 34.4741H96.5825V25.5361ZM98.7877 33.1838C99.773 33.1838 99.8434 32.7146 99.8434 31.7763V28.0932C99.8434 27.1783 99.7495 26.8029 98.7877 26.8029H98.4123V33.1838H98.7877Z" fill="white"/>
<path d="M102.893 25.5361H106.787V26.8029H104.699V29.1723H106.318V30.4391H104.699V33.2307H106.81V34.4741H102.893V25.5361Z" fill="white"/>
<path d="M107.515 31.7989L109.086 31.5408C109.11 32.6434 109.391 33.183 109.978 33.183C110.447 33.183 110.588 32.8311 110.588 32.4557C110.588 31.705 110.212 31.2593 109.603 30.7432L108.688 29.9456C108.031 29.3826 107.562 28.7257 107.562 27.6935C107.562 26.239 108.5 25.418 109.978 25.418C111.784 25.418 112.136 26.7551 112.206 27.9046L110.635 28.1392C110.611 27.3182 110.517 26.7551 109.931 26.7551C109.509 26.7551 109.298 27.1305 109.298 27.5058C109.298 28.1392 109.603 28.4911 110.095 28.9134L111.01 29.711C111.761 30.3679 112.371 31.142 112.371 32.3619C112.371 33.6521 111.456 34.567 110.072 34.567C108.383 34.5905 107.608 33.699 107.515 31.7989Z" fill="white"/>
</svg>
