<svg width="118" height="118" viewBox="0 0 118 118" fill="none" xmlns="http://www.w3.org/2000/svg">
<path d="M117.296 0H0V117.296H117.296V0Z" fill="#E4243C"/>
<path d="M94.2119 56.8643C94.2119 55.058 95.6664 53.627 97.4727 53.627C99.2556 53.627 100.71 55.0814 100.71 56.8643C100.71 58.6472 99.2556 60.1017 97.4727 60.1017C95.6664 60.1017 94.2119 58.6472 94.2119 56.8643Z" fill="white"/>
<path d="M99.6078 61.3457C101.813 61.5334 103.549 63.3867 103.549 65.6622V66.7413V67.2105V74.6705C103.549 75.3509 102.986 75.9373 102.282 75.9373C101.578 75.9373 101.015 75.3743 101.015 74.6705V66.929C101.015 66.6475 100.922 66.2487 100.405 66.2487C100.03 66.2487 99.9597 66.6475 99.9597 66.8821V90.0598C99.9597 91.045 99.1621 91.8661 98.1533 91.8661C97.1446 91.8661 96.347 91.045 96.347 90.0598V76.7115C96.347 76.5707 96.3 76.1719 95.8309 76.1719C95.3617 76.1719 95.3148 76.5473 95.3148 76.7115V90.0598C95.3148 91.045 94.5171 91.8661 93.5084 91.8661C92.4997 91.8661 91.702 91.045 91.702 90.0598V66.8821C91.702 66.624 91.6082 66.2487 91.2563 66.2487C90.7168 66.2487 90.6464 66.6475 90.6464 66.929V74.6705C90.6464 75.3509 90.0834 75.9373 89.3796 75.9373C88.6758 75.9373 88.1128 75.3743 88.1128 74.6705V67.2105V66.7413V65.6622C88.1128 63.4101 89.8488 61.5569 92.0539 61.3457C92.1243 61.3457 92.1947 61.3223 92.2885 61.3223H95.8309H99.3732C99.467 61.3457 99.5374 61.3457 99.6078 61.3457Z" fill="white"/>
<path d="M73.263 58.5536C73.263 56.8646 71.8789 55.4805 70.1899 55.4805C68.5008 55.4805 67.1167 56.8646 67.1167 58.5536C67.1167 60.2427 68.5008 61.6268 70.1899 61.6268C71.9024 61.6268 73.263 60.2661 73.263 58.5536Z" fill="white"/>
<path d="M63.9967 65.5217L61.4397 73.8497C61.4397 73.8497 60.9939 75.3746 62.2842 75.7499C63.5744 76.1253 63.9732 74.6474 63.9732 74.6474L66.0377 67.7034C66.0377 67.7034 66.1549 67.1639 66.5538 67.2812C66.9526 67.3985 66.8118 67.9615 66.8118 67.9615L63.2225 80.9813H66.5538V90.3181C66.5538 91.2095 67.281 91.9133 68.149 91.9133C69.0404 91.9133 69.7442 91.1861 69.7442 90.3181V81.0048H70.2134H70.6591V90.3181C70.6591 91.2095 71.3629 91.9133 72.2543 91.9133C73.1458 91.9133 73.8496 91.1861 73.8496 90.3181V81.0048H77.1808L73.5915 67.985C73.5915 67.985 73.4508 67.4219 73.8496 67.3046C74.2484 67.1873 74.3657 67.7269 74.3657 67.7269L76.4301 74.6708C76.4301 74.6708 76.8289 76.1722 78.1191 75.7734C79.4094 75.3981 78.9637 73.8732 78.9637 73.8732L76.4066 65.5452C76.4066 65.5452 75.4917 63.1289 73.4742 63.1289H70.2134H66.9526C64.9116 63.1289 63.9967 65.5217 63.9967 65.5217Z" fill="white"/>
<path d="M54.848 58.5536C54.848 56.8646 53.4639 55.4805 51.7748 55.4805C50.0857 55.4805 48.7017 56.8646 48.7017 58.5536C48.7017 60.2427 50.0857 61.6268 51.7748 61.6268C53.4639 61.6268 54.848 60.2661 54.848 58.5536Z" fill="white"/>
<path d="M45.5812 65.5217L43.0241 73.8497C43.0241 73.8497 42.5784 75.3746 43.8687 75.7499C45.1589 76.1253 45.5343 74.6474 45.5343 74.6474L47.5987 67.7034C47.5987 67.7034 47.716 67.1639 48.1148 67.2812C48.5136 67.3985 48.3728 67.9615 48.3728 67.9615L44.7836 80.9813H48.1148V90.3181C48.1148 91.2095 48.842 91.9133 49.71 91.9133C50.6014 91.9133 51.3052 91.1861 51.3052 90.3181V81.0048H51.7744H52.2201V90.3181C52.2201 91.2095 52.9239 91.9133 53.8153 91.9133C54.7068 91.9133 55.4106 91.1861 55.4106 90.3181V81.0048H58.7418L55.1525 67.985C55.1525 67.985 55.0118 67.4219 55.4106 67.3046C55.8094 67.1873 55.9267 67.7269 55.9267 67.7269L57.9911 74.6708C57.9911 74.6708 58.3899 76.1722 59.6801 75.7734C60.9704 75.3981 60.5247 73.8732 60.5247 73.8732L57.9676 65.5452C57.9676 65.5452 57.0527 63.1289 55.0352 63.1289H51.7744H48.5136C46.4961 63.1289 45.5812 65.5217 45.5812 65.5217Z" fill="white"/>
<path d="M83.5854 75.7733C84.9929 75.7733 86.1424 74.6238 86.1424 73.2162C86.1424 71.8087 84.9929 70.6592 83.5854 70.6592C82.1778 70.6592 81.0283 71.8087 81.0283 73.2162C81.0283 74.6238 82.1778 75.7733 83.5854 75.7733Z" fill="white"/>
<path d="M77.4624 83.7258C77.3451 84.0308 77.2278 84.6642 77.8377 84.9457C78.5415 85.2741 78.9403 84.5938 78.9403 84.5938L80.3244 80.16C80.3244 80.16 80.559 79.855 80.559 80.16V90.5994C80.559 91.3266 81.1455 91.9131 81.8727 91.9131C82.5999 91.9131 83.1864 91.3266 83.1864 90.5994V86.4705C83.1864 86.4705 83.116 85.8841 83.5852 85.8841C84.0544 85.8841 83.984 86.4705 83.984 86.4705V90.5994C83.984 91.3266 84.5705 91.9131 85.2977 91.9131C86.025 91.9131 86.6115 91.3266 86.6115 90.5994V80.16C86.6115 79.855 86.7757 80.0662 86.7757 80.0662L87.8548 83.1159C87.8548 83.1159 88.324 84.4765 88.4647 84.5234C88.9574 84.7346 89.5204 84.5 89.7315 84.0073C89.8723 83.6789 89.8254 83.327 89.6377 83.069C89.6142 82.9751 88.019 79.0574 87.8313 78.4944C87.2449 76.8054 86.2127 76.8288 85.1804 76.8053C84.1717 76.7819 83.5618 76.8053 83.5618 76.8053C83.5618 76.8053 82.9049 76.7819 81.5912 76.8288C80.254 76.8757 79.8318 77.556 78.3538 81.333C78.1662 81.8491 77.4624 83.6085 77.4624 83.7258Z" fill="white"/>
<path d="M26.9313 55.9503C26.9313 54.1439 25.4768 52.7129 23.6705 52.7129C21.8876 52.7129 20.4331 54.1674 20.4331 55.9503C20.4331 57.7332 21.8876 59.1876 23.6705 59.1876C25.4768 59.2111 26.9313 57.7566 26.9313 55.9503Z" fill="white"/>
<path d="M20.3391 61.3457C18.1339 61.5334 16.3979 63.3867 16.3979 65.6622V66.7413V67.2105V74.6705C16.3979 75.3509 16.961 75.9373 17.6647 75.9373C18.3685 75.9373 18.9315 75.3743 18.9315 74.6705V66.929C18.9315 66.6475 19.0254 66.2487 19.5415 66.2487C19.9168 66.2487 19.9872 66.6475 20.0107 66.8821V90.0598C20.0107 91.045 20.8083 91.8661 21.817 91.8661C22.8258 91.8661 23.6234 91.045 23.6234 90.0598V76.7115C23.6234 76.5707 23.6703 76.1719 24.1395 76.1719C24.6087 76.1719 24.6556 76.5473 24.6556 76.7115V90.0598C24.6556 91.045 25.4532 91.8661 26.4619 91.8661C27.4707 91.8661 28.2683 91.045 28.2683 90.0598V66.8821C28.2683 66.624 28.3621 66.2487 28.714 66.2487C29.2536 66.2487 29.324 66.6475 29.324 66.929V74.6705C29.324 75.3509 29.887 75.9373 30.5908 75.9373C31.2945 75.9373 31.8576 75.3743 31.8576 74.6705V67.2105V66.7413V65.6622C31.8576 63.4101 30.1216 61.5569 27.9164 61.3457C27.846 61.3457 27.7757 61.3223 27.6818 61.3223H24.1395H20.5971C20.5033 61.3457 20.4329 61.3457 20.3391 61.3457Z" fill="white"/>
<path d="M17.9929 75.9844L15.1074 91.2563" stroke="white" stroke-width="1.307" stroke-miterlimit="10" stroke-linecap="round"/>
<path d="M33.4059 74.436C33.2417 74.1779 32.9602 73.9903 32.6083 73.9903C32.0922 73.9903 31.6699 74.4125 31.6699 74.9286C31.6699 75.0694 31.7638 75.3274 31.7638 75.3274L34.3443 79.9958C34.3443 79.9958 34.5085 80.3242 34.5085 80.6057V90.6228C34.5085 91.3266 35.0715 91.8896 35.7753 91.8896C36.4791 91.8896 37.0421 91.3266 37.0421 90.6228V86.6582C37.0421 86.6582 36.9717 86.0952 37.4174 86.0952C37.8631 86.0952 37.7928 86.6582 37.7928 86.6582V90.6228C37.7928 91.3266 38.3558 91.8896 39.0596 91.8896C39.7633 91.8896 40.3264 91.3266 40.3264 90.6228V80.6057C40.3264 80.3008 40.4906 79.9958 40.4906 79.9958L42.8834 75.6793C42.8834 75.6793 43.1649 75.0694 43.1649 74.9052C43.1649 74.3891 42.7427 73.9668 42.2266 73.9668C41.8981 73.9668 41.5932 74.131 41.4289 74.4125C41.3586 74.4829 40.1621 76.5942 39.7633 76.993C39.3411 77.4153 38.9657 77.3684 38.9657 77.3684H37.4174H35.8691C35.8691 77.3684 35.4938 77.4153 35.0715 76.993C34.6727 76.6177 33.4997 74.4829 33.4059 74.436Z" fill="white"/>
<path d="M37.4174 75.7733C38.825 75.7733 39.9745 74.6238 39.9745 73.2162C39.9745 71.8087 38.825 70.6592 37.4174 70.6592C36.0099 70.6592 34.8604 71.8087 34.8604 73.2162C34.8604 74.6238 36.0099 75.7733 37.4174 75.7733Z" fill="white"/>
<path d="M37.4175 79.3623L40.3265 81.4736L41.6871 86.5408H37.4175H33.1479L34.532 81.4736L37.4175 79.3623Z" fill="white"/>
<path d="M11.1202 14.6613C10.4633 15.0132 8.53967 15.5528 7.88281 15.8812V12.6908C8.77426 12.3389 11.214 11.1424 12.0585 10.2275H15.3898V32.6076H11.1202V14.6613Z" fill="white"/>
<path d="M23.8345 10.2285H27.5645V11.4249H25.5705V13.7005H27.1188V14.9204H25.5705V17.5947H27.5879V18.7677H23.8345V10.2285Z" fill="white"/>
<path d="M28.4561 10.2285H30.6612C32.3738 10.2285 33.4294 10.7446 33.4294 12.4806C33.4294 13.5363 33.1948 14.24 32.3738 14.5919L33.5467 18.7677H31.7638L30.802 14.8969H30.1686V18.7677H28.4326V10.2285H28.4561ZM30.7082 13.8881C31.5527 13.8881 31.8107 13.4659 31.8107 12.6448C31.8107 11.8472 31.5996 11.4249 30.7785 11.4249H30.1686V13.8881H30.7082Z" fill="white"/>
<path d="M34.6255 10.2285H36.8307C38.5432 10.2285 39.5989 10.7446 39.5989 12.4806C39.5989 13.5363 39.3643 14.24 38.5432 14.5919L39.7162 18.7677H37.9333L36.9714 14.8969H36.338V18.7677H34.6021V10.2285H34.6255ZM36.8541 13.8881C37.6987 13.8881 37.9567 13.4659 37.9567 12.6448C37.9567 11.8472 37.7456 11.4249 36.9245 11.4249H36.3146V13.8881H36.8541Z" fill="white"/>
<path d="M41.9923 10.2285H43.9159L45.5581 18.7677H43.9629L43.6344 16.8909H42.2738L41.9454 18.7677H40.3032L41.9923 10.2285ZM43.4937 15.8353L42.9776 12.3868L42.4615 15.8353H43.4937Z" fill="white"/>
<path d="M46.4492 10.2285H48.5371C50.6953 10.2285 51.3522 11.0496 51.3522 12.9029V16.0229C51.3522 17.9231 50.7188 18.7677 48.584 18.7677H46.4492V10.2285ZM48.5605 17.5712C49.4989 17.5712 49.5693 17.1255 49.5693 16.2106V12.6917C49.5693 11.8237 49.4755 11.4719 48.5605 11.4719H48.1852V17.5947H48.5605V17.5712Z" fill="white"/>
<path d="M52.5249 10.2285H54.2609V18.7677H52.5249V10.2285Z" fill="white"/>
<path d="M55.4106 16.0475V12.9978C55.4106 11.2383 55.9971 10.1357 57.9208 10.1357C59.7506 10.1357 60.3136 11.121 60.3136 12.599V13.3262H58.6246V12.5286C58.6246 11.9186 58.6011 11.3791 57.9208 11.3791C57.217 11.3791 57.1701 11.9421 57.1701 12.5755V16.4697C57.1701 17.197 57.3108 17.6661 57.9208 17.6661C58.5776 17.6661 58.6246 17.1031 58.6246 16.4697V15.6252H60.3136V16.329C60.3136 17.8069 59.7975 18.886 57.9208 18.886C55.9971 18.9095 55.4106 17.76 55.4106 16.0475Z" fill="white"/>
<path d="M62.6124 10.2285H64.5361L66.1782 18.7677H64.583L64.2545 16.8909H62.8939L62.5655 18.7677H60.9233L62.6124 10.2285ZM64.1138 15.8353L63.5977 12.3868L63.0816 15.8353H64.1138Z" fill="white"/>
<path d="M70.1197 13.3252V12.5276C70.1197 11.9176 70.0962 11.3781 69.4159 11.3781C68.7121 11.3781 68.6652 11.9411 68.6652 12.5745V16.4687C68.6652 17.196 68.806 17.6651 69.4159 17.6651C70.0727 17.6651 70.1197 17.1021 70.1197 16.4687V15.6242H71.8087V16.328C71.8087 17.759 71.3161 18.8146 69.627 18.885V19.4715C70.4716 19.4715 71.0111 19.8234 71.0111 20.5272C71.0111 21.3013 70.3073 21.6297 69.5097 21.6297C69.2517 21.6297 68.9936 21.5828 68.7356 21.5124V20.8087C68.8998 20.8556 69.1109 20.9025 69.3221 20.9025C69.6974 20.9025 69.9789 20.8087 69.9789 20.5272C69.9789 20.1284 69.4863 20.0111 69.0171 19.9641V18.9085C67.4219 18.7677 66.9058 17.6651 66.9058 16.0699V13.0202C66.9058 11.2608 67.4922 10.1582 69.4159 10.1582C71.2457 10.1582 71.8087 11.1435 71.8087 12.6214V13.3487H70.1197V13.3252Z" fill="white"/>
<path d="M74.1075 10.2289H76.0312L77.6733 18.768H76.0781L75.7497 16.8913H74.389L74.0606 18.768H72.4185L74.1075 10.2289ZM74.5767 8.72749C74.2717 8.72749 74.2013 8.91517 74.2013 9.14976H73.4272C73.4272 8.32869 73.6383 7.71875 74.3421 7.71875C74.8582 7.71875 75.2101 8.18793 75.6558 8.18793C75.8904 8.18793 75.9842 8.02372 75.9842 7.76567H76.7115C76.7115 8.44598 76.6176 9.19668 75.9139 9.19668C75.3743 9.22014 74.999 8.72749 74.5767 8.72749ZM75.5854 15.8356L75.0693 12.3871L74.5532 15.8356H75.5854Z" fill="white"/>
<path d="M78.3071 16.0944V12.9039C78.3071 11.1445 78.9405 10.1357 80.8407 10.1357C82.7175 10.1357 83.3743 11.1679 83.3743 12.9039V16.0944C83.3743 17.8304 82.7409 18.886 80.8407 18.886C78.9405 18.9095 78.3071 17.8538 78.3071 16.0944ZM81.568 16.5401V12.4817C81.568 11.8952 81.4741 11.3791 80.8173 11.3791C80.1604 11.3791 80.0666 11.8952 80.0666 12.4817V16.5166C80.0666 17.1031 80.1369 17.6427 80.8173 17.6427C81.4741 17.6661 81.568 17.1031 81.568 16.5401Z" fill="white"/>
<path d="M23.8345 24.1631H25.9223C28.0806 24.1631 28.7374 24.9842 28.7374 26.8374V29.9575C28.7374 31.8577 28.104 32.7022 25.9693 32.7022H23.8345V24.1631ZM25.9458 31.5058C26.8842 31.5058 26.9545 31.0601 26.9545 30.1452V26.6028C26.9545 25.7349 26.8607 25.383 25.9458 25.383H25.5705V31.5058H25.9458Z" fill="white"/>
<path d="M31.0133 24.1631H32.9369L34.5791 32.7022H32.9839L32.6554 30.8255H31.2948L30.9664 32.7022H29.3242L31.0133 24.1631ZM32.5147 29.7464L31.9986 26.2979L31.4825 29.7464H32.5147Z" fill="white"/>
<path d="M38.0977 24.1631H40.8189C42.3438 24.1631 43.0241 25.0545 43.0241 26.6263C43.0241 28.4561 42.0153 29.0191 40.6312 29.0191H39.8336V32.7257H38.0977V24.1631ZM40.4436 27.7758C41.2177 27.7758 41.3819 27.4239 41.3819 26.5794C41.3819 25.8287 41.2881 25.383 40.4436 25.383H39.8336V27.7758H40.4436Z" fill="white"/>
<path d="M43.7983 30.028V26.8375C43.7983 25.0781 44.4317 24.0693 46.3319 24.0693C48.2087 24.0693 48.8655 25.1015 48.8655 26.8375V30.028C48.8655 31.7639 48.2321 32.8196 46.3319 32.8196C44.4317 32.8196 43.7983 31.7639 43.7983 30.028ZM47.0592 30.4502V26.4153C47.0592 25.8288 46.9653 25.3127 46.3085 25.3127C45.6516 25.3127 45.5578 25.8288 45.5578 26.4153V30.4502C45.5578 31.0367 45.6282 31.5763 46.3085 31.5763C46.9653 31.5763 47.0592 31.0367 47.0592 30.4502Z" fill="white"/>
<path d="M49.9917 24.1631H52.1734C53.6513 24.1631 54.8008 24.5854 54.8008 26.3682C54.8008 27.4005 54.3551 27.9635 53.5575 28.1042C54.5662 28.245 55.0589 28.9722 55.0589 30.1921C55.0589 31.9046 54.1909 32.7022 52.5722 32.7022H50.0152V24.1631H49.9917ZM52.1734 27.6116C53.0648 27.6116 53.276 27.1893 53.276 26.4152C53.276 25.641 52.8772 25.3595 52.0561 25.3595H51.7277V27.6116H52.1734ZM52.2203 31.4823C53.0883 31.4823 53.3698 31.0601 53.3698 30.1686C53.3698 29.2068 53.0649 28.7845 52.1969 28.7845H51.7277V31.4823H52.2203Z" fill="white"/>
<path d="M56.0674 24.1631H58.2725C59.9851 24.1631 61.0407 24.6792 61.0407 26.4152C61.0407 27.4708 60.8061 28.1746 59.9851 28.5265L61.158 32.7022H59.3751L58.4133 28.8315H57.7799V32.7022H56.0674V24.1631ZM58.3195 27.7993C59.164 27.7993 59.422 27.377 59.422 26.5559C59.422 25.7583 59.2109 25.336 58.3898 25.336H57.7799V27.7993H58.3195Z" fill="white"/>
<path d="M62.2139 24.1631H65.9439V25.3595H63.9498V27.635H65.4982V28.8549H63.9498V31.5293H65.9673V32.7022H62.2139V24.1631Z" fill="white"/>
<path d="M66.5303 31.6231L68.712 25.336H66.6241V24.1631H70.4245V25.1015L68.1959 31.5293H70.448V32.7022H66.5303V31.6231Z" fill="white"/>
<path d="M72.6061 24.1631H74.5297L76.1719 32.7022H74.5766L74.2482 30.8255H72.8876L72.5591 32.7022H70.917L72.6061 24.1631ZM74.1074 29.7464L73.5913 26.2979L73.0752 29.7464H74.1074Z" fill="white"/>
</svg>
