<svg width="118" height="118" viewBox="0 0 118 118" fill="none" xmlns="http://www.w3.org/2000/svg">
<path d="M117.331 0.09375H0.034668V117.39H117.331V0.09375Z" fill="#DDA639"/>
<path d="M48.22 107.49V109.132C48.22 109.132 48.22 109.156 48.22 109.179C48.22 109.203 48.22 109.203 48.22 109.226C48.2434 109.625 48.5719 109.953 48.9707 109.977C48.9707 109.977 48.9707 109.977 48.9942 109.977H49.0176H68.3714C68.3714 109.977 68.3714 109.977 68.3949 109.977C68.3949 109.977 68.3949 109.977 68.4184 109.977C68.8406 109.977 69.1691 109.625 69.1691 109.203V107.326C80.0541 103.76 88.2179 94.9161 90.0243 84.1718C90.0243 84.1483 90.0243 84.1249 90.0243 84.1014C90.0243 84.0545 90.0243 84.031 90.0243 83.9841C90.0243 83.5618 89.6724 83.21 89.2501 83.21H27.9513H27.5759C27.1302 83.21 26.8018 83.5618 26.8018 83.9841L26.8487 84.336C28.7254 95.1741 37.1003 104.065 48.22 107.49Z" fill="white"/>
<path d="M69.1455 56.8651C68.8875 57.217 62.9288 65.803 69.2863 72.7469C72.1952 75.9374 71.9372 78.729 71.1161 80.6292H75.1745C75.9956 77.8376 75.6672 74.3187 72.3594 70.706C67.691 65.5919 72.4298 58.6949 72.5002 58.5776C73.0632 57.78 72.7582 56.7712 71.8433 56.302C70.905 55.8329 69.7085 56.0909 69.1455 56.8651Z" fill="white"/>
<path d="M58.8231 80.6292H62.905C63.7261 77.8376 63.3976 74.3187 60.0899 70.706C55.4215 65.5919 60.1368 58.6949 60.2306 58.5776C60.7936 57.8034 60.4887 56.7712 59.5738 56.302C58.6589 55.8329 57.4624 56.0909 56.8994 56.8651C56.6414 57.217 50.6827 65.803 57.0402 72.7469C59.9022 75.9139 59.6676 78.729 58.8231 80.6292Z" fill="white"/>
<path d="M44.6074 56.8651C44.3494 57.217 38.3908 65.803 44.7482 72.7469C47.6571 75.9374 47.3991 78.729 46.578 80.6292H50.6365C51.4575 77.8376 51.1291 74.3187 47.8214 70.706C43.153 65.5919 47.8683 58.6949 47.9621 58.5776C48.5251 57.8034 48.2202 56.7712 47.3052 56.302C46.3669 55.8329 45.147 56.0909 44.6074 56.8651Z" fill="white"/>
<path d="M8.05762 31.2943L13.7113 22.5909C14.9546 20.6673 16.1745 19.0486 16.1745 16.8904C16.1745 15.389 15.588 14.5914 14.4854 14.5914C12.7964 14.5914 12.3976 16.1397 12.3976 18.0399V19.0955H8.05762V17.946C8.05762 13.8407 9.84051 10.8379 14.415 10.8379C18.4969 10.8379 20.5848 13.1134 20.5848 16.9607C20.5848 19.7993 19.1303 21.7933 17.5351 24.1862L13.0544 30.919H19.9514V34.4144H8.05762V31.2943Z" fill="white"/>
<path d="M30.0161 11.1436H33.7696V12.3869H31.8225V14.7797H33.4881V16.0465H31.8225V20.0346H30.0161V11.1436Z" fill="white"/>
<path d="M34.5435 17.243V13.9353C34.5435 12.1055 35.2003 11.0498 37.1709 11.0498C39.118 11.0498 39.7983 12.1289 39.7983 13.9353V17.2665C39.7983 19.0728 39.118 20.1754 37.1709 20.1754C35.2003 20.152 34.5435 19.0728 34.5435 17.243ZM37.945 17.6888V13.4896C37.945 12.8796 37.8512 12.3401 37.1709 12.3401C36.4906 12.3401 36.3967 12.8796 36.3967 13.4896V17.6888C36.3967 18.2987 36.4671 18.8617 37.1709 18.8617C37.8512 18.8617 37.945 18.2987 37.945 17.6888Z" fill="white"/>
<path d="M41.1354 11.1436H43.0591L44.1616 16.7503L45.3346 11.1436H47.1879L47.3521 20.0346H46.0384L45.8976 14.0056L44.7481 20.0346H43.6221L42.4491 13.9587L42.3084 20.0346H40.9712L41.1354 11.1436Z" fill="white"/>
<path d="M48.6426 11.1436H52.5133V12.3869H50.4489V14.7563H52.0442V16.0231H50.4489V18.8147H52.5368V20.0346H48.6426V11.1436Z" fill="white"/>
<path d="M55.8677 18.932L58.1432 12.3869H55.985V11.1436H59.9496V12.1288L57.6271 18.8147H59.973V20.0346H55.8911V18.932H55.8677Z" fill="white"/>
<path d="M60.9116 11.1436H64.7824V12.3869H62.718V14.7563H64.3132V16.0231H62.718V18.8147H64.8058V20.0346H60.9116V11.1436Z" fill="white"/>
<path d="M65.7441 11.1436H68.0431C69.826 11.1436 70.9286 11.6597 70.9286 13.4895C70.9286 14.5686 70.694 15.3193 69.826 15.6946L71.0459 20.0346H69.1926L68.1839 15.9996H67.5505V20.0346H65.7441V11.1436ZM68.0666 14.9439C68.9346 14.9439 69.2161 14.5217 69.2161 13.6537C69.2161 12.8326 68.9815 12.3869 68.1604 12.3869H67.5505V14.9674H68.0666V14.9439Z" fill="white"/>
<path d="M71.9375 17.243V13.9353C71.9375 12.1055 72.5944 11.0498 74.5649 11.0498C76.512 11.0498 77.1923 12.1289 77.1923 13.9353V17.2665C77.1923 19.0728 76.512 20.1754 74.5649 20.1754C72.5944 20.152 71.9375 19.0728 71.9375 17.243ZM75.3391 17.6888V13.4896C75.3391 12.8796 75.2452 12.3401 74.5649 12.3401C73.8846 12.3401 73.7908 12.8796 73.7908 13.4896V17.6888C73.7908 18.2987 73.8612 18.8617 74.5649 18.8617C75.2452 18.8617 75.3391 18.2987 75.3391 17.6888Z" fill="white"/>
<path d="M30.0161 25.6406H33.8869V26.884H31.8225V29.2533H33.4177V30.5201H31.8225V33.3118H33.9103V34.5317H30.0161V25.6406Z" fill="white"/>
<path d="M38.8595 25.6406H40.877L42.5895 34.5317H40.9239L40.5955 32.5845H39.1879L38.8361 34.5317H37.1235L38.8595 25.6406ZM40.4078 31.4585L39.8683 27.8692L39.3522 31.4585H40.4078Z" fill="white"/>
<path d="M43.2231 31.6003V28.621C43.2231 26.7208 43.8331 25.5244 45.8271 25.5244C47.7273 25.5244 48.3607 26.5332 48.3607 28.1284V28.6445H46.6013V28.0111C46.6013 27.3308 46.5544 26.8147 45.8506 26.8147C45.1233 26.8147 45.0764 27.4481 45.0764 28.1049V32.0695C45.0764 32.7968 45.2172 33.3598 45.921 33.3598C46.6013 33.3598 46.7889 32.7733 46.7889 31.9991V31.0608H45.921V29.9582H48.4311V34.5327H47.2347L47.1174 33.7351C46.8828 34.2512 46.4605 34.65 45.6629 34.65C43.8331 34.6735 43.2231 33.4536 43.2231 31.6003Z" fill="white"/>
<path d="M49.6514 25.6406H51.9504C53.7333 25.6406 54.8359 26.1567 54.8359 27.9865C54.8359 29.0657 54.6013 29.8164 53.7333 30.1917L54.9532 34.5317H53.0999L52.0911 30.4967H51.4343V34.5317H49.6279V25.6406H49.6514ZM51.9973 29.4176C52.8653 29.4176 53.1468 28.9953 53.1468 28.1273C53.1468 27.3062 52.9122 26.8605 52.0911 26.8605H51.4578V29.441H51.9973V29.4176Z" fill="white"/>
<path d="M56.0791 25.6406H57.8855V34.5317H56.0791V25.6406Z" fill="white"/>
<path d="M59.0815 31.6942V28.5037C59.0815 26.6739 59.6915 25.5244 61.6855 25.5244C63.5857 25.5244 64.1722 26.5566 64.1722 28.1049V28.8556H62.4127V28.0345C62.4127 27.4011 62.3893 26.8381 61.6855 26.8381C60.9583 26.8381 60.9114 27.4246 60.9114 28.0815V32.1164C60.9114 32.8671 61.0521 33.3598 61.6855 33.3598C62.3658 33.3598 62.4127 32.7733 62.4127 32.1164V31.2485H64.1722V31.9757C64.1722 33.524 63.6326 34.65 61.6855 34.65C59.6915 34.65 59.0815 33.4771 59.0815 31.6942Z" fill="white"/>
<path d="M65.228 31.7166V25.6406H67.0109V31.9746C67.0109 32.6549 67.0813 33.3352 67.8085 33.3352C68.5358 33.3352 68.6062 32.6549 68.6062 31.9746V25.6406H70.389V31.7166C70.389 33.5933 69.826 34.6489 67.8085 34.6489C65.791 34.6489 65.228 33.5933 65.228 31.7166Z" fill="white"/>
<path d="M71.6562 25.6406H73.4626V33.3118H75.5505V34.5317H71.6562V25.6406Z" fill="white"/>
<path d="M76.6995 26.9778H75.3154V25.6406H79.8665V26.9778H78.5059V34.5317H76.6995V26.9778Z" fill="white"/>
<path d="M80.6172 31.7166V25.6406H82.4001V31.9746C82.4001 32.6549 82.4705 33.3352 83.1977 33.3352C83.9249 33.3352 83.9953 32.6549 83.9953 31.9746V25.6406H85.7782V31.7166C85.7782 33.5933 85.2152 34.6489 83.1977 34.6489C81.1802 34.6489 80.6172 33.5933 80.6172 31.7166Z" fill="white"/>
<path d="M87.022 25.6406H89.321C91.1039 25.6406 92.2064 26.1567 92.2064 27.9865C92.2064 29.0657 91.9719 29.8164 91.1039 30.1917L92.3237 34.5317H90.4705L89.4617 30.4967H88.8049V34.5317H87.022V25.6406ZM89.3679 29.4176C90.2359 29.4176 90.5174 28.9953 90.5174 28.1273C90.5174 27.3062 90.2828 26.8605 89.4617 26.8605H88.8283V29.441H89.3679V29.4176Z" fill="white"/>
<path d="M94.7164 25.6406H96.7339L98.4465 34.5317H96.7808L96.4524 32.5845H95.0449L94.693 34.5317H92.9805L94.7164 25.6406ZM96.2648 31.4585L95.7252 27.8692L95.2091 31.4585H96.2648Z" fill="white"/>
<path d="M29.7812 46.3789L31.3296 46.1209C31.353 47.2235 31.6345 47.763 32.1975 47.763C32.6667 47.763 32.8075 47.4111 32.8075 47.0358C32.8075 46.2851 32.4321 45.8394 31.8222 45.3233L30.9073 44.5256C30.2504 43.9626 29.7812 43.3058 29.7812 42.2736C29.7812 40.8191 30.7196 40.0215 32.1975 40.0215C33.9804 40.0215 34.3558 41.3587 34.4262 42.4847L32.8544 42.7193C32.8309 41.8982 32.7371 41.3352 32.1506 41.3352C31.7284 41.3352 31.5172 41.7105 31.5172 42.0859C31.5172 42.7193 31.8222 43.0712 32.3148 43.4934L33.2063 44.2911C33.957 44.9479 34.5669 45.7221 34.5669 46.9185C34.5669 48.1853 33.652 49.1236 32.2679 49.1236C30.6492 49.1471 29.8751 48.2557 29.7812 46.3789Z" fill="white"/>
<path d="M35.4814 46.2156V40.1162H37.2644V46.4502C37.2644 47.1305 37.3347 47.8108 38.062 47.8108C38.7892 47.8108 38.8596 47.1305 38.8596 46.4502V40.1162H40.6425V46.2156C40.6425 48.0923 40.0794 49.148 38.062 49.148C36.0445 49.148 35.4814 48.0689 35.4814 46.2156Z" fill="white"/>
<path d="M41.6753 46.3789L43.2236 46.1209C43.2471 47.2235 43.5286 47.763 44.0916 47.763C44.5608 47.763 44.7015 47.4111 44.7015 47.0358C44.7015 46.2851 44.3262 45.8394 43.7162 45.3233L42.8013 44.5256C42.1445 43.9626 41.6753 43.3058 41.6753 42.2736C41.6753 40.8191 42.6137 40.0215 44.0916 40.0215C45.8745 40.0215 46.2498 41.3587 46.3202 42.4847L44.7484 42.7193C44.725 41.8982 44.6311 41.3352 44.0447 41.3352C43.6224 41.3352 43.4113 41.7105 43.4113 42.0859C43.4113 42.7193 43.7162 43.0712 44.2089 43.4934L45.1003 44.2911C45.851 44.9479 46.461 45.7221 46.461 46.9185C46.461 48.1853 45.5461 49.1236 44.162 49.1236C42.5433 49.1471 41.7691 48.2557 41.6753 46.3789Z" fill="white"/>
<path d="M48.2908 41.4768H46.9067V40.1162H51.4578V41.4534H50.0972V49.0307H48.2674V41.4768H48.2908Z" fill="white"/>
<path d="M52.2554 40.1162H56.1261V41.3595H54.0617V43.7289H55.657V44.9957H54.0617V47.7874H56.1496V49.0072H52.2554V40.1162Z" fill="white"/>
<path d="M57.0879 40.1162H58.3547L60.3253 44.7377V40.1162H61.8266V49.0307H60.6068L58.6362 44.1043V49.0307H57.0879V40.1162Z" fill="white"/>
<path d="M64.0081 41.4768H62.624V40.1162H67.1751V41.4534H65.8145V49.0307H63.9847V41.4768H64.0081Z" fill="white"/>
<path d="M68.9347 40.1159H70.9522L72.6647 49.007H70.9991L70.6707 47.0598H69.2631L68.9112 49.007H67.1987L68.9347 40.1159ZM70.1077 37.2539H71.7967L70.4361 39.4591H69.4274L70.1077 37.2539ZM70.483 45.9573L69.9435 42.368L69.4274 45.9573H70.483Z" fill="white"/>
<path d="M72.8052 40.1162H74.3769L75.4326 46.2625L76.4179 40.1162H78.06L76.371 49.0072H74.4942L72.8052 40.1162Z" fill="white"/>
<path d="M78.9517 40.1162H82.8224V41.3595H80.758V43.7289H82.3532V44.9957H80.758V47.7874H82.8459V49.0072H78.9517V40.1162Z" fill="white"/>
<path d="M83.7842 40.1162H85.5905V47.7874H87.6784V49.0072H83.7842V40.1162Z" fill="white"/>
</svg>
