<svg width="118" height="118" viewBox="0 0 118 118" fill="none" xmlns="http://www.w3.org/2000/svg">
<path d="M117.919 0.09375H0.623535V117.39H117.919V0.09375Z" fill="#4D9F46"/>
<path d="M98.9178 77.2272C98.9178 73.9195 96.8064 71.2451 93.5925 71.2451C91.9973 71.2451 90.0502 73.0046 88.9945 74.0837C87.9388 73.0046 86.1325 71.2451 84.5373 71.2451C81.3234 71.2451 79.0713 73.9195 79.0713 77.2272C79.0713 78.8694 79.7281 80.3707 80.7838 81.4499L88.9945 89.684L97.2052 81.4499C98.2609 80.3707 98.9178 78.8694 98.9178 77.2272Z" fill="white"/>
<path d="M63.9164 103.127C63.8929 103.127 63.8694 103.127 63.8225 103.127C63.1891 103.08 62.673 102.634 62.5792 102.001L58.4034 77.6737L52.0695 89.4033C51.788 89.9194 51.2249 90.2009 50.6384 90.0836C50.0754 89.9898 49.6297 89.5206 49.5359 88.9576L46.8615 70.1902L41.9585 81.2395C41.7474 81.7321 41.2548 82.0371 40.7152 82.0371H21.6194C20.8687 82.0371 20.2588 81.4272 20.2588 80.6765C20.2588 79.9258 20.8687 79.3158 21.6194 79.3158H39.8472L46.322 64.7946C46.5566 64.255 47.143 63.9266 47.753 63.997C48.3394 64.0908 48.8086 64.5365 48.9025 65.1465L51.6706 84.5003L57.9108 72.9349C58.1923 72.4188 58.7553 72.1608 59.3183 72.2546C59.8814 72.3484 60.3271 72.7942 60.4209 73.3572L64.2917 95.878L78.3907 49.0535C78.5549 48.5139 79.0241 48.1386 79.5871 48.0917C80.1501 48.0447 80.6662 48.3497 80.9008 48.8423L88.3139 64.2081C88.6423 64.8884 88.3608 65.686 87.6805 66.0145C87.0002 66.3429 86.2026 66.0614 85.8741 65.3811L79.9624 53.1354L65.2066 102.118C65.0189 102.752 64.5028 103.127 63.9164 103.127Z" fill="white"/>
<path d="M8.74023 28.3392V27.5181H13.2444V28.3157C13.2679 30.6382 13.6901 31.7173 15.1681 31.7173C16.6929 31.7173 17.0213 30.5444 17.0213 28.2923C17.0213 25.9229 16.4583 24.5623 14.3939 24.5154C14.347 24.4919 13.9247 24.4919 13.5963 24.4919V21.1607H14.3001C16.4114 21.1607 17.0213 20.0816 17.0213 17.6418C17.0213 15.7416 16.5756 14.6625 15.0977 14.6625C13.5963 14.6625 13.2913 15.9528 13.2444 17.806V18.8617H8.74023V17.5714C8.74023 13.4192 11.0861 11.0732 15.0977 11.0732C19.1326 11.0732 21.4786 13.3019 21.4786 17.4307C21.4786 20.2223 20.1883 22.146 18.4992 22.6152C20.2352 23.2486 21.4786 24.8438 21.4786 28.2219C21.4786 32.5384 19.7426 35.5412 15.1211 35.5412C10.3824 35.5177 8.74023 32.6322 8.74023 28.3392Z" fill="white"/>
<path d="M30.9805 17.7345L32.5757 17.4764C32.5991 18.6025 32.8807 19.1655 33.4671 19.1655C33.9363 19.1655 34.0771 18.8136 34.0771 18.4148C34.0771 17.6407 33.6783 17.1949 33.0918 16.6788L32.1534 15.8578C31.4731 15.2947 31.0039 14.6144 31.0039 13.5588C31.0039 12.0808 31.9657 11.2598 33.4671 11.2598C35.297 11.2598 35.6723 12.6204 35.7192 13.7699L34.124 14.0045C34.1005 13.1834 34.0067 12.5969 33.3967 12.5969C32.9745 12.5969 32.7634 12.9723 32.7634 13.3711C32.7634 14.0279 33.0683 14.3564 33.5844 14.8021L34.4993 15.5997C35.25 16.2566 35.8834 17.0542 35.8834 18.2975C35.8834 19.5878 34.9451 20.5496 33.5375 20.5496C31.8719 20.5496 31.0508 19.6582 30.9805 17.7345Z" fill="white"/>
<path d="M38.0886 11.3545H40.1295L41.8655 20.4332H40.153L39.8245 18.4392H38.3935L38.0416 20.4332H36.3057L38.0886 11.3545ZM39.6838 17.2897L39.1442 13.63L38.6047 17.2897H39.6838Z" fill="white"/>
<path d="M42.6865 17.5709V11.3543H44.4929V17.829C44.4929 18.5328 44.5633 19.2131 45.2905 19.2131C46.0177 19.2131 46.0881 18.5093 46.0881 17.829V11.3543H47.9179V17.5709C47.9179 19.4711 47.3549 20.5503 45.2905 20.5503C43.2261 20.5503 42.6865 19.4711 42.6865 17.5709ZM45.4547 8.44531H47.1907L45.8066 10.6974H44.7744L45.4547 8.44531Z" fill="white"/>
<path d="M49.2319 11.3545H51.4606C53.7596 11.3545 54.4399 12.2225 54.4399 14.1931V17.5008C54.4399 19.5183 53.7596 20.4332 51.5075 20.4332H49.2554V11.3545H49.2319ZM51.4606 19.1429C52.4693 19.1429 52.5162 18.6503 52.5162 17.7119V13.9585C52.5162 13.0436 52.4224 12.6682 51.4371 12.6682H51.0383V19.1429H51.4606Z" fill="white"/>
<path d="M55.6362 11.3545H59.6008V12.6213H57.4895V15.0376H59.1317V16.3278H57.4895V19.1664H59.6243V20.4097H55.6362V11.3545Z" fill="white"/>
<path d="M63.354 11.3545H67.3186V12.6213H65.2073V15.0376H66.8494V16.3278H65.2073V19.1664H67.3421V20.4097H63.3775V11.3545H63.354Z" fill="white"/>
<path d="M31.1919 26.1338H33.4909C35.0627 26.1338 36.2591 26.5795 36.2591 28.4797C36.2591 29.5823 35.7665 30.1922 34.9454 30.333C36.0011 30.4972 36.5406 31.2479 36.5406 32.5381C36.5406 34.3445 35.6023 35.2125 33.8897 35.2125H31.1685V26.1338H31.1919ZM33.5144 29.7934C34.4527 29.7934 34.6873 29.3477 34.6873 28.5266C34.6873 27.7056 34.2651 27.4006 33.3971 27.4006H33.0452V29.7934H33.5144ZM33.5613 33.8988C34.4997 33.8988 34.7812 33.4296 34.7812 32.4912C34.7812 31.459 34.4528 31.0133 33.5379 31.0133H33.0452V33.8753H33.5613V33.8988Z" fill="white"/>
<path d="M37.6426 26.1338H41.6072V27.4006H39.4958V29.8169H41.138V31.1071H39.4958V33.9457H41.6306V35.189H37.666V26.1338H37.6426Z" fill="white"/>
<path d="M42.6862 26.1338H44.6567L45.7828 31.8578L46.9792 26.1338H48.8794L49.0436 35.2125H47.7064L47.5657 29.0427L46.3927 35.2125H45.2432L44.0468 29.0193L43.9061 35.2125H42.5454L42.6862 26.1338Z" fill="white"/>
<path d="M50.3345 30.8486H53.1496V31.9512H50.3345V30.8486Z" fill="white"/>
<path d="M54.5098 26.1338H58.4744V27.4006H56.363V29.8169H58.0052V31.1071H56.363V33.9457H58.4978V35.189H54.5332V26.1338H54.5098Z" fill="white"/>
<path d="M59.2021 32.5148L60.7974 32.2567C60.8208 33.3828 61.1024 33.9458 61.6888 33.9458C62.158 33.9458 62.2988 33.5939 62.2988 33.1951C62.2988 32.4209 61.9 31.9752 61.3135 31.4591L60.3751 30.638C59.6948 30.075 59.2256 29.3947 59.2256 28.339C59.2256 26.8611 60.1875 26.04 61.6888 26.04C63.5187 26.04 63.894 27.4007 63.9409 28.5502L62.3457 28.7848C62.3222 27.9637 62.2284 27.3772 61.6185 27.3772C61.1962 27.3772 60.9851 27.7526 60.9851 28.1514C60.9851 28.8082 61.29 29.1367 61.8061 29.5824L62.721 30.38C63.4717 31.0368 64.1051 31.8345 64.1051 33.0778C64.1051 34.368 63.1668 35.3299 61.7592 35.3299C60.0936 35.3299 59.2725 34.4384 59.2021 32.5148Z" fill="white"/>
<path d="M65.9349 27.4944H64.5273V26.1338H69.1722V27.4944H67.7882V35.189H65.9349V27.4944Z" fill="white"/>
<path d="M70.9782 26.1338H73.0191L74.7551 35.2125H73.0426L72.7142 33.2185H71.2832L70.9313 35.2125H69.1953L70.9782 26.1338ZM72.55 32.069L72.0104 28.4093L71.4708 32.069H72.55Z" fill="white"/>
<path d="M75.6934 26.1338H78.0393C79.8691 26.1338 80.9951 26.6733 80.9951 28.5266C80.9951 29.6292 80.7371 30.3799 79.8691 30.7787L81.1124 35.2125H79.2123L78.18 31.1071H77.4997V35.2125H75.6699V26.1338H75.6934ZM78.0627 30.0046C78.9542 30.0046 79.2357 29.5588 79.2357 28.6908C79.2357 27.8463 79.0011 27.4006 78.1566 27.4006H77.5232V30.028H78.0627V30.0046Z" fill="white"/>
</svg>
