<svg width="119" height="118" viewBox="0 0 119 118" fill="none" xmlns="http://www.w3.org/2000/svg">
<path d="M118.024 0.09375H0.728516V117.39H118.024V0.09375Z" fill="#C4202E"/>
<path d="M52.0106 64.4419L30.9912 52.29V91.5842L52.0106 97.9416V64.4419Z" fill="white"/>
<path d="M54.333 64.5123V97.9416L75.5167 91.5842V52.29L54.333 64.5123Z" fill="white"/>
<path d="M92.0085 51.305C92.0085 49.9209 90.8825 48.8184 89.5218 48.8184C88.1377 48.8184 87.0352 49.9209 87.0352 51.305V53.9794H92.0085V51.305Z" fill="white"/>
<path d="M87.6685 90.8809H87.0352L89.5218 99.5843L92.0085 90.8809H91.3986H92.0085V55.9268H91.3986H90.7886H90.1318H88.8884H88.2785H87.6685H87.0352V90.8809H87.6685Z" fill="white"/>
<path d="M80.0207 53.9792L77.7686 52.1963V92.6634L54.4032 100.194H53.3241H53.0895H52.0104L28.7389 93.6956V52.1963L26.4868 53.9792V95.2908L51.9165 102.329H53.0895H53.3241H54.4971L77.9562 94.8685L80.0207 94.2586V53.9792Z" fill="white"/>
<path d="M15.2733 29.5356H7.97754V25.9698L14.2411 11.1436H19.5429V26.0636H21.8888V29.5356H19.5429V35.1658H15.2733V29.5356ZM15.2733 26.0636V15.8823L11.5903 26.0871H15.2733V26.0636Z" fill="white"/>
<path d="M29.4658 11.166H33.4539V12.4563H31.3191V14.896H32.9847V16.1863H31.3191V19.0718H33.4773V20.3386H29.4658V11.166Z" fill="white"/>
<path d="M34.439 11.166H36.6911C39.0135 11.166 39.6938 12.0575 39.6938 14.0515V17.3827C39.6938 19.4236 39.0135 20.3386 36.7145 20.3386H34.4155V11.166H34.439ZM36.6911 19.0248C37.6998 19.0248 37.7702 18.5322 37.7702 17.5704V13.7934C37.7702 12.8551 37.6764 12.4797 36.6911 12.4797H36.2923V19.0483H36.6911V19.0248Z" fill="white"/>
<path d="M40.8672 17.4296V11.166H42.697V17.7111C42.697 18.4149 42.7674 19.1187 43.5181 19.1187C44.2453 19.1187 44.3392 18.4149 44.3392 17.7111V11.166H46.1924V17.4531C46.1924 19.3767 45.6059 20.4793 43.5415 20.4793C41.4302 20.4559 40.8672 19.3533 40.8672 17.4296Z" fill="white"/>
<path d="M47.3418 17.4063V14.122C47.3418 12.2218 47.9752 11.0488 50.0161 11.0488C51.9867 11.0488 52.5967 12.1045 52.5967 13.6997V14.4739H50.7903V13.6059C50.7903 12.949 50.7668 12.3625 50.0396 12.3625C49.2889 12.3625 49.242 12.9725 49.242 13.6528V17.8285C49.242 18.6027 49.3827 19.1188 50.0396 19.1188C50.7434 19.1188 50.7903 18.5088 50.7903 17.8285V16.9371H52.5967V17.6878C52.5967 19.283 52.0336 20.4325 50.0161 20.4325C47.9517 20.456 47.3418 19.2361 47.3418 17.4063Z" fill="white"/>
<path d="M55.0597 11.166H57.1242L58.8836 20.3386H57.1711L56.8426 18.3211H55.3882L55.0363 20.3386H53.2769L55.0597 11.166ZM56.655 17.1716L56.092 13.4885L55.5524 17.1716H56.655Z" fill="white"/>
<path d="M63.1062 14.4739V13.6059C63.1062 12.949 63.0828 12.3625 62.3555 12.3625C61.6048 12.3625 61.5579 12.9725 61.5579 13.6528V17.8285C61.5579 18.6027 61.6987 19.1188 62.3555 19.1188C63.0593 19.1188 63.1062 18.5088 63.1062 17.8285V16.9371H64.9126V17.6878C64.9126 19.2361 64.3965 20.3387 62.5667 20.4325V21.0424C63.4816 21.0424 64.0681 21.4178 64.0681 22.1685C64.0681 23.013 63.3174 23.3414 62.4494 23.3414C62.1679 23.3414 61.8863 23.2945 61.6048 23.2241V22.4735C61.7691 22.5204 62.0036 22.5673 62.2382 22.5673C62.637 22.5673 62.942 22.45 62.942 22.1685C62.942 21.7462 62.4025 21.6055 61.9098 21.5585V20.4325C60.1973 20.2683 59.6577 19.0953 59.6577 17.4063V14.122C59.6577 12.2218 60.2911 11.0488 62.3321 11.0488C64.3026 11.0488 64.9126 12.1045 64.9126 13.6997V14.4739H63.1062Z" fill="white"/>
<path d="M67.3991 11.1666H69.4635L71.223 20.3391H69.5104L69.182 18.3216H67.7275L67.3756 20.3391H65.6162L67.3991 11.1666ZM67.9152 9.52441C67.5868 9.52441 67.5164 9.73555 67.5164 9.9936H66.6719C66.6719 9.10215 66.9065 8.46875 67.6572 8.46875C68.2202 8.46875 68.5955 8.98485 69.0647 8.98485C69.3228 8.98485 69.4166 8.79718 69.4166 8.53913H70.1908C70.1908 9.26636 70.0969 10.064 69.3228 10.064C68.7598 10.064 68.3609 9.52441 67.9152 9.52441ZM68.9943 17.1721L68.4313 13.489L67.8918 17.1721H68.9943Z" fill="white"/>
<path d="M71.9033 17.4532V14.0281C71.9033 12.1514 72.5836 11.0488 74.6011 11.0488C76.6186 11.0488 77.2989 12.1514 77.2989 14.0281V17.4532C77.2989 19.3299 76.6186 20.456 74.6011 20.456C72.5836 20.456 71.9033 19.3299 71.9033 17.4532ZM75.4222 17.8989V13.559C75.4222 12.9256 75.3284 12.3625 74.6246 12.3625C73.9208 12.3625 73.827 12.9256 73.827 13.559V17.8989C73.827 18.5323 73.8973 19.1188 74.6246 19.1188C75.3049 19.1188 75.4222 18.5323 75.4222 17.8989Z" fill="white"/>
<path d="M81.4043 11.166H83.6564C85.9788 11.166 86.6592 12.0575 86.6592 14.0515V17.3827C86.6592 19.4236 85.9788 20.3386 83.6798 20.3386H81.3809V11.166H81.4043ZM83.6564 19.0248C84.6651 19.0248 84.7355 18.5322 84.7355 17.5704V13.7934C84.7355 12.8551 84.6417 12.4797 83.6564 12.4797H83.2576V19.0483H83.6564V19.0248Z" fill="white"/>
<path d="M87.8789 11.166H91.867V12.4563H89.7322V14.896H91.3978V16.1863H89.7322V19.0718H91.8904V20.3386H87.8789V11.166Z" fill="white"/>
<path d="M32.2341 35.4003C32.1637 35.4003 32.0934 35.4003 32.0464 35.4003C30.0289 35.4003 29.3486 34.2743 29.3486 32.3975V28.9725C29.3486 27.0957 30.0289 25.9932 32.0464 25.9932C34.0639 25.9932 34.7442 27.0957 34.7442 28.9725V32.3975C34.7442 33.7112 34.4158 34.6496 33.5009 35.0953C33.7824 35.4238 34.1343 35.7522 34.4393 35.9399L34.0639 37.0894C33.5244 36.8548 32.6798 36.1041 32.2341 35.4003ZM32.8441 32.8432V28.5033C32.8441 27.8699 32.7502 27.3069 32.0464 27.3069C31.3192 27.3069 31.2488 27.8699 31.2488 28.5033V32.8432C31.2488 33.4766 31.3192 34.0631 32.0464 34.0631C32.7502 34.0631 32.8441 33.4766 32.8441 32.8432Z" fill="white"/>
<path d="M35.917 32.374V26.0869H37.7468V32.632C37.7468 33.3358 37.8172 34.0396 38.5679 34.0396C39.3186 34.0396 39.389 33.3358 39.389 32.632V26.0869H41.2422V32.374C41.2422 34.2976 40.6558 35.4002 38.5913 35.4002C36.5269 35.4002 35.917 34.2976 35.917 32.374Z" fill="white"/>
<path d="M43.7995 26.1104H45.8639L47.6234 35.2829H45.9108L45.5824 33.2654H44.1279L43.776 35.2829H42.0166L43.7995 26.1104ZM45.3947 32.1159L44.8317 28.4328L44.2921 32.1159H45.3947Z" fill="white"/>
<path d="M48.5615 26.1104H50.4148V34.0161H52.573V35.2829H48.5615V26.1104Z" fill="white"/>
<path d="M53.4883 26.1104H55.3416V35.2829H53.4883V26.1104Z" fill="white"/>
<path d="M56.7491 26.1104H59.0011C61.3236 26.1104 62.0039 27.0018 62.0039 28.9958V32.327C62.0039 34.368 61.3236 35.2829 59.0246 35.2829H56.7256V26.1104H56.7491ZM59.0011 33.9692C60.0099 33.9692 60.0803 33.4765 60.0803 32.5147V28.7143C60.0803 27.776 59.9864 27.4006 59.0011 27.4006H58.6023V33.9692H59.0011Z" fill="white"/>
<path d="M64.467 26.1104H66.5314L68.2908 35.2829H66.5783L66.2499 33.2654H64.7954L64.4435 35.2829H62.6841L64.467 26.1104ZM66.0622 32.1159L65.4992 28.4328L64.9596 32.1159H66.0622Z" fill="white"/>
<path d="M69.229 26.1104H71.4811C73.8036 26.1104 74.4839 27.0018 74.4839 28.9958V32.327C74.4839 34.368 73.8035 35.2829 71.5045 35.2829H69.2056V26.1104H69.229ZM71.5045 33.9692C72.5133 33.9692 72.5837 33.4765 72.5837 32.5147V28.7143C72.5837 27.776 72.4898 27.4006 71.5045 27.4006H71.1058V33.9692H71.5045Z" fill="white"/>
<path d="M75.7271 26.1104H79.7151V27.4006H77.5803V29.8404H79.2459V31.1541H77.5803V34.0161H79.7386V35.2829H75.7271V26.1104Z" fill="white"/>
</svg>
