<svg width="118" height="118" viewBox="0 0 118 118" fill="none" xmlns="http://www.w3.org/2000/svg">
<path d="M117.778 0.140625H0.505859V117.413H117.778V0.140625Z" fill="#EE402B"/>
<path d="M82.0729 44.5254H67.5047C67.4109 44.5254 67.317 44.6192 67.317 44.7131V49.5457C67.317 49.6395 67.4109 49.7333 67.5047 49.7333H73.2991L66.8478 56.1846C63.6105 53.6276 59.5286 52.1027 55.0713 52.1027C44.5382 52.1027 35.9756 60.6653 35.9756 71.1985C35.9756 80.8871 43.2479 88.9102 52.6081 90.13V95.7133H46.8606C46.7433 95.7133 46.6729 95.8072 46.6729 95.901V101.085C46.6729 101.179 46.7433 101.273 46.8606 101.273H52.6081V106.763C52.6081 106.856 52.702 106.95 52.7958 106.95H57.9803C58.0741 106.95 58.1679 106.856 58.1679 106.763V101.273H63.9154C64.0093 101.273 64.1031 101.179 64.1031 101.085V95.901C64.1031 95.8072 64.0093 95.7133 63.9154 95.7133H58.1914V90.0362C67.2467 88.5583 74.1906 80.676 74.1906 71.1985C74.1906 67.1166 72.9003 63.3162 70.6952 60.2196L77.0526 53.8621V59.2812C77.0526 59.3751 77.1464 59.4689 77.2403 59.4689H82.0729C82.1667 59.4689 82.2606 59.3751 82.2606 59.2812V44.7131C82.284 44.6192 82.1902 44.5254 82.0729 44.5254ZM55.0948 85.2505C47.3533 85.2505 41.0427 78.94 41.0427 71.1985C41.0427 63.4569 47.3533 57.1464 55.0948 57.1464C62.8364 57.1464 69.1468 63.4569 69.1468 71.1985C69.1468 78.9635 62.8364 85.2505 55.0948 85.2505Z" fill="white"/>
<path d="M63.9153 65.4277H46.8605C46.7667 65.4277 46.6729 65.4981 46.6729 65.592V69.7208C46.6729 69.8146 46.7667 69.885 46.8605 69.885H63.9153C64.0326 69.885 64.103 69.8146 64.103 69.7208V65.592C64.103 65.5216 64.0092 65.4277 63.9153 65.4277Z" fill="white"/>
<path d="M63.9153 72.7939H46.8605C46.7667 72.7939 46.6729 72.8643 46.6729 72.9582V77.087C46.6729 77.1808 46.7667 77.2512 46.8605 77.2512H63.9153C64.0326 77.2512 64.103 77.1808 64.103 77.087V72.9582C64.103 72.8878 64.0092 72.7939 63.9153 72.7939Z" fill="white"/>
<path d="M8.85645 27.4939H13.1964C13.1964 30.0744 13.5248 31.3881 15.1435 31.3412C16.856 31.2943 16.9264 29.3706 16.9264 26.3209C16.9264 23.8342 16.6684 22.0748 14.9324 22.0748C13.9002 22.0748 13.2199 22.802 12.9384 24.1861H9.09104L9.4195 10.8848H20.1638V14.7321H13.0557L12.8211 19.9166C13.2903 19.3301 14.4632 18.8843 15.7769 18.7905C19.3896 18.4621 21.1491 21.3241 21.1491 26.1332C21.1491 31.1066 20.1872 34.6958 14.8854 34.6958C9.9121 34.6489 8.85645 31.8338 8.85645 27.4939Z" fill="white"/>
<path d="M29.6885 10.8613H31.4948V19.7993H29.6885V10.8613Z" fill="white"/>
<path d="M32.7378 16.8435V13.8642C32.7378 11.964 33.3477 10.7676 35.3652 10.7676C37.2889 10.7676 37.9223 11.7763 37.9223 13.395V13.9111H36.1629V13.2777C36.1629 12.5739 36.1159 12.0813 35.4121 12.0813C34.6614 12.0813 34.638 12.7147 34.638 13.3715V17.3596C34.638 18.1103 34.7787 18.6733 35.4825 18.6733C36.1628 18.6733 36.3505 18.0868 36.3505 17.3127V16.3743H35.4825V15.2717H37.9926V19.8697H36.7962L36.6789 19.0721C36.4444 19.6117 36.0221 20.0105 35.201 20.0105C33.3243 19.9401 32.7378 18.7202 32.7378 16.8435Z" fill="white"/>
<path d="M39.1191 16.9842V10.8613H40.9021V17.2422C40.9021 17.9225 40.9724 18.6029 41.6997 18.6029C42.4269 18.6029 42.4973 17.9225 42.4973 17.2422V10.8613H44.3036V16.9842C44.3036 18.8609 43.7406 19.94 41.6997 19.94C39.6587 19.94 39.1191 18.8609 39.1191 16.9842Z" fill="white"/>
<path d="M46.7902 10.8613H48.8077L50.5202 19.7993H48.8312L48.5027 17.8287H47.0952L46.7433 19.7993H45.0308L46.7902 10.8613ZM48.3385 16.7261L47.799 13.1134L47.2594 16.7261H48.3385Z" fill="white"/>
<path d="M51.4351 10.8613H53.2414V18.5794H55.3527V19.8227H51.4351V10.8613Z" fill="white"/>
<path d="M56.2212 10.8613H58.4028C60.6784 10.8613 61.3352 11.7293 61.3352 13.6764V16.9373C61.3352 18.9313 60.655 19.8227 58.4498 19.8227H56.2212V10.8613ZM58.4263 18.5325C59.4116 18.5325 59.482 18.0633 59.482 17.1249V13.4184C59.482 12.5035 59.3882 12.1281 58.4263 12.1281H58.051V18.5325H58.4263Z" fill="white"/>
<path d="M63.7511 10.8613H65.7687L67.4812 19.7993H65.7921L65.4637 17.8287H64.0561L63.7042 19.7993H61.9917L63.7511 10.8613ZM65.2995 16.7261L64.7599 13.1134L64.2203 16.7261H65.2995Z" fill="white"/>
<path d="M68.396 10.8613H70.5777C72.8533 10.8613 73.5101 11.7293 73.5101 13.6764V16.9373C73.5101 18.9313 72.8298 19.8227 70.6246 19.8227H68.396V10.8613ZM70.6011 18.5325C71.5864 18.5325 71.6568 18.0633 71.6568 17.1249V13.4184C71.6568 12.5035 71.563 12.1281 70.6011 12.1281H70.2258V18.5325H70.6011Z" fill="white"/>
<path d="M74.73 10.8613H78.6242V12.1281H76.5363V14.4975H78.155V15.7643H76.5363V18.5794H78.6477V19.8227H74.73V10.8613Z" fill="white"/>
<path d="M29.665 25.4297H31.8468C34.1223 25.4297 34.7792 26.2977 34.7792 28.2448V31.5056C34.7792 33.4996 34.0988 34.3911 31.8937 34.3911H29.665V25.4297ZM31.8702 33.1243C32.8555 33.1243 32.9259 32.6551 32.9259 31.7167V28.0102C32.9259 27.0953 32.8321 26.7199 31.8702 26.7199H31.4949V33.1243H31.8702Z" fill="white"/>
<path d="M35.999 25.4297H39.8933V26.6965H37.8054V29.0659H39.4241V30.3327H37.8054V33.1478H39.9168V34.3911H35.999V25.4297Z" fill="white"/>
<path d="M43.4824 31.4119V28.4091C43.4824 26.5089 44.0923 25.3125 46.1098 25.3125C48.0335 25.3125 48.6669 26.3212 48.6669 27.9399V28.456H46.9074V27.8226C46.9074 27.1189 46.8605 26.6262 46.1567 26.6262C45.4061 26.6262 45.3826 27.2596 45.3826 27.9165V31.9045C45.3826 32.6552 45.5234 33.2182 46.2271 33.2182C46.9075 33.2182 47.0951 32.6318 47.0951 31.8576V30.9192H46.2271V29.7932H48.7373V34.3912H47.5409L47.4236 33.5936C47.189 34.1332 46.7667 34.532 45.9456 34.532C44.0689 34.5085 43.4824 33.2886 43.4824 31.4119Z" fill="white"/>
<path d="M49.9336 25.4294H53.8278V26.6962H51.7399V29.0655H53.3586V30.3323H51.7399V33.1474H53.8513V34.3908H49.9336V25.4294ZM51.1769 22.6143H52.5845L53.6402 24.7021H52.4202L51.8807 23.365L51.3646 24.7021H50.1447L51.1769 22.6143Z" fill="white"/>
<path d="M54.7661 25.4297H56.0329L58.027 30.0746V25.4297H59.5518V34.3676H58.332L56.3379 29.4177V34.3676H54.7896V25.4297H54.7661Z" fill="white"/>
<path d="M60.8892 25.4297H64.7834V26.6965H62.6955V29.0659H64.3142V30.3327H62.6955V33.1478H64.8068V34.3911H60.8892V25.4297Z" fill="white"/>
<path d="M65.7451 25.4297H68.0676C69.874 25.4297 70.9765 25.9692 70.9765 27.7991C70.9765 28.9016 70.7419 29.6289 69.874 30.0277L71.1173 34.3911H69.2406L68.2318 30.3327H67.5749V34.3911H65.7686V25.4297H65.7451ZM68.091 29.2535C68.959 29.2535 69.2406 28.8313 69.2406 27.9398C69.2406 27.1187 69.006 26.6496 68.1614 26.6496H67.528V29.2301H68.091V29.2535Z" fill="white"/>
<path d="M71.9854 31.5761V28.2449C71.9854 26.4151 72.6422 25.3359 74.6363 25.3359C76.6068 25.3359 77.2871 26.4151 77.2871 28.2449V31.5995C77.2871 33.4294 76.6068 34.5319 74.6363 34.5319C72.6422 34.5085 71.9854 33.4059 71.9854 31.5761ZM75.4104 32.0218V27.7992C75.4104 27.1892 75.3166 26.6497 74.6363 26.6497C73.9559 26.6497 73.8621 27.1892 73.8621 27.7992V32.0218C73.8621 32.6317 73.9325 33.1948 74.6363 33.1948C75.3166 33.1948 75.4104 32.6317 75.4104 32.0218Z" fill="white"/>
</svg>
