<svg width="118" height="118" viewBox="0 0 118 118" fill="none" xmlns="http://www.w3.org/2000/svg">
<path d="M117.953 0.1875H0.750977V117.413H117.953V0.1875Z" fill="#25BDE2"/>
<path d="M81.1691 46.215C81.0753 46.0977 80.9345 46.0508 80.7938 46.0508H38.2623C38.1216 46.0508 37.9808 46.1212 37.8869 46.215C37.7931 46.3323 37.7462 46.473 37.7697 46.6138L44.9247 89.8256C44.9716 90.0602 45.1828 90.2479 45.4174 90.2479H54.1911L54.801 97.2856H51.1179L59.704 105.872L68.3135 97.2622H64.6304L65.2404 90.2244H74.1549C74.3895 90.2244 74.6006 90.0367 74.6475 89.8022L81.3333 46.5903C81.2864 46.473 81.263 46.3323 81.1691 46.215ZM64.7242 80.8173C64.7242 80.8173 62.8006 82.8113 59.6571 82.5767C56.5135 82.7879 54.5664 80.8173 54.5664 80.8173C51.376 77.6268 52.5255 73.6857 53.6281 71.6213C54.3084 70.331 59.2113 62.9883 59.6336 62.3549V62.308C59.6336 62.308 59.6336 62.308 59.6571 62.3315L59.6805 62.308V62.3549C60.0793 62.9883 64.9823 70.331 65.6861 71.6213C66.7887 73.6622 67.9147 77.6268 64.7242 80.8173ZM78.2133 55.3172C77.0638 54.8011 75.6093 54.9887 74.2018 55.5518C68.9235 57.6865 65.3342 58.4607 59.7744 56.7247C56.279 55.6221 53.0181 53.3466 49.1474 54.7307C46.5903 55.6456 44.1975 56.537 41.2885 56.5136L39.6229 47.9275H79.4097L78.2133 55.3172Z" fill="white"/>
<path d="M8.60938 26.2509V18.2044C8.60938 13.7941 9.82929 10.4863 14.6853 10.4863C18.8376 10.4863 20.3859 12.5273 20.4094 16.2104V16.6092H16.3275C16.3275 14.709 16.1398 13.7941 14.7088 13.7941C13.3481 13.7941 12.9728 14.8732 12.9728 18.3686V20.6442C13.442 19.8465 14.5445 19.3539 15.8817 19.3304C19.471 19.2835 20.7612 22.0986 20.7612 25.8286C20.7612 30.4266 19.3068 33.664 14.7088 33.664C10.3923 33.664 8.60938 30.5205 8.60938 26.2509ZM16.4448 26.5559C16.4448 24.2569 16.3978 22.6147 14.7088 22.6147C13.9112 22.6147 13.2309 23.1777 12.9728 23.6469V27.2362C12.9728 28.9487 13.3247 30.4501 14.7322 30.4501C16.1633 30.4501 16.4448 29.0425 16.4448 26.5559Z" fill="white"/>
<path d="M31.0367 10.7682H32.9838L34.6494 19.4012H33.0307L32.7023 17.501H31.3417L31.0132 19.4012H29.3711L31.0367 10.7682ZM32.1628 7.97656H33.8049L32.4912 10.1113H31.5059L32.1628 7.97656ZM32.5381 16.4219L32.022 12.9499L31.5059 16.4219H32.5381Z" fill="white"/>
<path d="M35.2827 16.5396V13.6541C35.2827 11.8009 35.8692 10.6514 37.8163 10.6514C39.6696 10.6514 40.2795 11.6367 40.2795 13.185V13.6776H38.567V13.0677C38.567 12.3873 38.5201 11.8947 37.8398 11.8947C37.136 11.8947 37.0891 12.5046 37.0891 13.138V16.9853C37.0891 17.6891 37.2299 18.2521 37.9102 18.2521C38.567 18.2521 38.7313 17.6891 38.7313 16.9384V16.0235H37.8867V14.9679H40.3264V19.4016H39.177L39.0597 18.6275C38.8251 19.1436 38.4263 19.5189 37.6521 19.5189C35.8692 19.5189 35.2827 18.346 35.2827 16.5396Z" fill="white"/>
<path d="M41.4526 16.6803V10.7686H43.1887V16.9149C43.1887 17.5717 43.259 18.2286 43.9628 18.2286C44.6665 18.2286 44.7369 17.5717 44.7369 16.9149V10.7686H46.4729V16.6803C46.4729 18.4866 45.9333 19.5188 43.9628 19.5188C41.9922 19.5188 41.4526 18.4866 41.4526 16.6803Z" fill="white"/>
<path d="M48.8658 10.7686H50.8129L52.4785 19.4015H50.8599L50.5314 17.5013H49.1708L48.8423 19.4015H47.2002L48.8658 10.7686ZM50.3672 16.4222L49.8511 12.9503L49.335 16.4222H50.3672Z" fill="white"/>
<path d="M56.021 10.7686H58.7658C60.3141 10.7686 60.9944 11.66 60.9944 13.2552C60.9944 15.1085 59.9622 15.6715 58.5781 15.6715H57.757V19.4015H55.9976V10.7686H56.021ZM58.3904 14.4282C59.1645 14.4282 59.3288 14.0763 59.3288 13.2318C59.3288 12.4576 59.2349 12.0119 58.367 12.0119H57.757V14.4282H58.3904Z" fill="white"/>
<path d="M61.7446 16.6804V13.4665C61.7446 11.707 62.3781 10.6514 64.3017 10.6514C66.2019 10.6514 66.8587 11.707 66.8587 13.4665V16.7038C66.8587 18.4633 66.2019 19.5189 64.3017 19.5189C62.4015 19.5189 61.7446 18.4398 61.7446 16.6804ZM65.0524 17.1261V13.0442C65.0524 12.4577 64.9586 11.9182 64.3017 11.9182C63.6449 11.9182 63.551 12.4343 63.551 13.0442V17.1261C63.551 17.7126 63.6214 18.2756 64.3017 18.2756C64.9586 18.2521 65.0524 17.7126 65.0524 17.1261Z" fill="white"/>
<path d="M68.7596 12.0588H67.4224V10.7686H71.8327V12.0588H70.519V19.4015H68.7596V12.0588Z" fill="white"/>
<path d="M73.568 10.7682H75.515L77.1807 19.4012H75.562L75.2335 17.501H73.8729L73.5445 19.4012H71.9023L73.568 10.7682ZM74.694 7.97656H76.3361L75.0224 10.1113H74.0372L74.694 7.97656ZM75.0693 16.4219L74.5532 12.9499L74.0372 16.4219H75.0693Z" fill="white"/>
<path d="M77.3218 10.7686H78.8466L79.8788 16.7272L80.8407 10.7686H82.4358L80.7937 19.4015H78.9873L77.3218 10.7686Z" fill="white"/>
<path d="M83.2803 10.7686H87.0337V11.9884H85.0162V14.2874H86.5646V15.5073H85.0162V18.2051H87.0572V19.4015H83.2803V10.7686Z" fill="white"/>
<path d="M87.9722 10.7686H89.7316V18.2051H91.7725V19.4015H87.9722V10.7686Z" fill="white"/>
<path d="M29.7935 24.8203H33.5469V26.0402H31.5294V28.3392H33.0777V29.5591H31.5294V32.2569H33.5704V33.4533H29.7935V24.8203Z" fill="white"/>
<path d="M36.9253 30.8963L38.4501 30.6383C38.4736 31.7174 38.7317 32.2335 39.2947 32.2335C39.7404 32.2335 39.8812 31.9051 39.8812 31.5297C39.8812 30.8025 39.5058 30.3802 38.9428 29.8876L38.0513 29.1134C37.4179 28.5739 36.9488 27.9405 36.9488 26.9317C36.9488 25.5242 37.8637 24.7266 39.2947 24.7266C41.0307 24.7266 41.3825 26.0168 41.4529 27.1194L39.9281 27.354C39.9046 26.5564 39.8108 26.0168 39.2478 26.0168C38.849 26.0168 38.6378 26.3687 38.6378 26.7441C38.6378 27.354 38.9428 27.6824 39.412 28.1047L40.28 28.8788C41.0072 29.5122 41.5937 30.2629 41.5937 31.4359C41.5937 32.6792 40.7023 33.5707 39.3651 33.5707C37.7699 33.5707 36.9957 32.7261 36.9253 30.8963Z" fill="white"/>
<path d="M43.7047 24.8203H45.6518L47.3174 33.4533H45.6987L45.3703 31.5531H44.0097L43.6812 33.4533H42.0391L43.7047 24.8203ZM45.2061 30.474L44.69 27.002L44.1739 30.474H45.2061Z" fill="white"/>
<path d="M48.1855 24.8203H49.4055L51.3291 29.301V24.8203H52.7836V33.4533H51.6106L49.687 28.6676V33.4533H48.1855V24.8203Z" fill="white"/>
<path d="M54.0972 24.8203H57.8506V26.0402H55.8331V28.3392H57.3815V29.5591H55.8331V32.2569H57.8741V33.4533H54.0972V24.8203Z" fill="white"/>
<path d="M60.0323 24.8203H61.9794L63.645 33.4533H62.0263L61.6979 31.5531H60.3372L60.0088 33.4533H58.3667L60.0323 24.8203ZM61.5337 30.474L61.0176 27.002L60.5015 30.474H61.5337Z" fill="white"/>
<path d="M64.6305 24.8203H66.5073L67.5629 30.2628L68.689 24.8203H70.4953L70.6595 33.4533H69.3693L69.2285 27.5885L68.1259 33.4533H67.0468L65.8973 27.565L65.78 33.4533H64.4897L64.6305 24.8203Z" fill="white"/>
<path d="M71.9263 24.8203H75.6797V26.0402H73.6622V28.3392H75.2106V29.5591H73.6622V32.2569H75.7032V33.4533H71.9263V24.8203Z" fill="white"/>
<path d="M76.5947 24.8203H77.8146L79.7382 29.301V24.8203H81.1927V33.4533H80.0198L78.0961 28.6676V33.4533H76.5947V24.8203Z" fill="white"/>
<path d="M83.3274 26.134H81.9902V24.8438H86.4006V26.134H85.0868V33.4767H83.3274V26.134Z" fill="white"/>
<path d="M86.9873 30.7556V27.5417C86.9873 25.7822 87.6207 24.7266 89.5443 24.7266C91.4445 24.7266 92.1014 25.7822 92.1014 27.5417V30.779C92.1014 32.5385 91.4445 33.5941 89.5443 33.5941C87.6207 33.5707 86.9873 32.515 86.9873 30.7556ZM90.295 31.1778V27.0959C90.295 26.5095 90.2012 25.9699 89.5443 25.9699C88.8875 25.9699 88.7937 26.486 88.7937 27.0959V31.1778C88.7937 31.7643 88.864 32.3273 89.5443 32.3273C90.2012 32.3273 90.295 31.7643 90.295 31.1778Z" fill="white"/>
</svg>
