<svg width="118" height="118" viewBox="0 0 118 118" fill="none" xmlns="http://www.w3.org/2000/svg">
<path d="M117.53 0.104492H0.09375V117.541H117.53V0.104492Z" fill="#F9C213"/>
<path d="M58.8123 58.8945C49.3113 58.8945 41.5933 66.6126 41.5933 76.1136C41.5933 85.6145 49.2879 93.3326 58.8123 93.3326C68.3133 93.3326 76.0313 85.638 76.0313 76.1136C76.0079 66.6126 68.3133 58.8945 58.8123 58.8945ZM57.522 65.6977C57.522 65.1347 58.1085 64.5013 58.8123 64.5013C59.5161 64.5013 60.0791 65.1347 60.0791 65.6977V71.6094C60.0791 72.1724 59.5161 72.8058 58.8123 72.8058C58.1085 72.8058 57.522 72.1724 57.522 71.6094V65.6977ZM58.8123 84.9342C53.8624 84.9342 49.8509 80.9227 49.8509 75.9728C49.8509 71.9613 52.5018 68.5597 56.138 67.4102V70.7414C54.2378 71.7032 52.9475 73.6738 52.9475 75.9494C52.9475 79.1867 55.5749 81.8142 58.8123 81.8142C62.0497 81.8142 64.6771 79.1867 64.6771 75.9494C64.6771 73.6738 63.3634 71.6798 61.4632 70.718V67.3868C65.1228 68.5128 67.7737 71.9144 67.7737 75.9494C67.7502 80.9227 63.7622 84.9342 58.8123 84.9342Z" fill="white"/>
<path d="M39.0363 75.972C39.0363 75.1979 38.3559 74.5645 37.7226 74.5645H30.1922C29.5588 74.5645 28.855 75.1979 28.855 75.972C28.855 76.7462 29.5588 77.3796 30.1922 77.3796H37.7226C38.3559 77.3796 39.0363 76.7462 39.0363 75.972Z" fill="white"/>
<path d="M88.7692 75.972C88.7692 75.1979 88.0889 74.5645 87.4555 74.5645H79.9251C79.2917 74.5645 78.5879 75.1979 78.5879 75.972C78.5879 76.7462 79.2917 77.3796 79.9251 77.3796H87.4555C88.0654 77.3796 88.7692 76.7462 88.7692 75.972Z" fill="white"/>
<path d="M58.8125 56.1959C59.5866 56.1959 60.22 55.5156 60.22 54.8822V47.3518C60.22 46.7184 59.5866 46.0146 58.8125 46.0146C58.0383 46.0146 57.4049 46.7184 57.4049 47.3518V54.8822C57.3814 55.5156 58.0383 56.1959 58.8125 56.1959Z" fill="white"/>
<path d="M58.8125 105.929C59.5866 105.929 60.22 105.249 60.22 104.616V97.0852C60.22 96.4518 59.5866 95.748 58.8125 95.748C58.0383 95.748 57.4049 96.4518 57.4049 97.0852V104.616C57.3814 105.226 58.0383 105.929 58.8125 105.929Z" fill="white"/>
<path d="M41.6639 66.1429C42.0627 65.4626 41.7577 64.5711 41.2181 64.2662L34.673 60.5127C34.11 60.2077 33.1951 60.3954 32.8197 61.0757C32.4209 61.756 32.7259 62.6475 33.2655 62.9759L39.8106 66.7294C40.3501 67.0343 41.265 66.8232 41.6639 66.1429Z" fill="white"/>
<path d="M84.805 90.845C85.1803 90.1647 84.8988 89.2733 84.3592 88.9683L77.8141 85.2148C77.2511 84.9099 76.3362 85.0975 75.9609 85.7779C75.562 86.4582 75.867 87.3496 76.4066 87.678L82.9517 91.4315C83.5147 91.7365 84.4296 91.5254 84.805 90.845Z" fill="white"/>
<path d="M68.6178 58.823C69.2981 59.1984 70.1896 58.9169 70.4945 58.3773L74.248 51.8322C74.553 51.2692 74.3653 50.3543 73.685 49.9789C73.0047 49.5801 72.1132 49.8851 71.7848 50.4246L68.0313 56.9698C67.7498 57.5093 67.9375 58.4242 68.6178 58.823Z" fill="white"/>
<path d="M43.9392 101.965C44.6195 102.34 45.5109 102.058 45.8159 101.519L49.5694 94.9738C49.8744 94.4108 49.6867 93.4959 49.0064 93.1205C48.326 92.7217 47.4346 93.0267 47.1062 93.5663L43.3527 100.111C43.0477 100.651 43.2589 101.566 43.9392 101.965Z" fill="white"/>
<path d="M48.9594 58.823C49.6398 58.4242 49.8509 57.5093 49.5225 56.9698L45.769 50.4246C45.4406 49.8851 44.5491 49.5801 43.8688 49.9789C43.1885 50.3777 42.9774 51.2926 43.3058 51.8322L47.0593 58.3773C47.3877 58.9403 48.2791 59.2218 48.9594 58.823Z" fill="white"/>
<path d="M73.7324 101.941C74.4127 101.542 74.6239 100.627 74.2954 100.088L70.542 93.5428C70.2135 93.0032 69.3221 92.6983 68.6418 93.0971C67.9614 93.4959 67.7503 94.4108 68.0787 94.9504L71.8322 101.495C72.1606 102.035 73.0755 102.317 73.7324 101.941Z" fill="white"/>
<path d="M75.9375 66.1201C76.3363 66.8004 77.2512 66.9881 77.7908 66.6831L84.3124 62.9296C84.8755 62.6012 85.157 61.7098 84.7582 61.0295C84.3594 60.3491 83.4445 60.138 82.9049 60.4664L76.3598 64.2199C75.8437 64.5483 75.5622 65.4398 75.9375 66.1201Z" fill="white"/>
<path d="M32.843 90.8916C33.2418 91.5719 34.1567 91.7596 34.6963 91.4546L41.218 87.7011C41.781 87.3962 42.0625 86.4812 41.6637 85.8009C41.2649 85.1206 40.35 84.9095 39.8104 85.2379L33.2653 88.9914C32.7257 89.3198 32.4442 90.2113 32.843 90.8916Z" fill="white"/>
<path d="M14.7325 14.5559H8.28125V11.084H19.1898V14.0633L14.1695 34.8951H9.73572L14.7325 14.5559Z" fill="white"/>
<path d="M28.9019 11.083H32.8665V12.3733H30.7551V14.7896H32.3973V16.0798H30.7551V18.9418H32.8899V20.2086H28.9019V11.083Z" fill="white"/>
<path d="M33.8281 11.083H35.1184L37.1359 15.7983V11.083H38.6842V20.1852H37.4408L35.4234 15.1649V20.1852H33.8516V11.083H33.8281Z" fill="white"/>
<path d="M40.0449 11.083H44.0095V12.3733H41.8982V14.7896H43.5403V16.0798H41.8982V18.9418H44.033V20.2086H40.0449V11.083Z" fill="white"/>
<path d="M44.9712 11.083H47.3171C49.1469 11.083 50.273 11.6226 50.273 13.4758C50.273 14.5784 50.0149 15.3291 49.1469 15.7279L50.4137 20.1617H48.5135L47.4813 16.0329H46.801V20.1617H44.9712V11.083ZM47.364 14.9538C48.2555 14.9538 48.537 14.5081 48.537 13.6401C48.537 12.7955 48.3024 12.3263 47.4579 12.3263H46.8245V14.9538H47.364Z" fill="white"/>
<path d="M51.3291 17.1591V14.1094C51.3291 12.1622 51.939 10.9658 53.98 10.9658C55.9271 10.9658 56.584 11.998 56.584 13.6167V14.1328H54.7776V13.4994C54.7776 12.7956 54.7307 12.2795 54.0034 12.2795C53.2528 12.2795 53.2058 12.9129 53.2058 13.5933V17.6282C53.2058 18.3789 53.3466 18.9419 54.0504 18.9419C54.7541 18.9419 54.9184 18.3555 54.9184 17.5579V16.596H54.0269V15.47H56.584V20.1384H55.3641L55.2468 19.3408C55.0122 19.8803 54.5665 20.2791 53.7454 20.2791C51.939 20.3026 51.3291 19.0592 51.3291 17.1591Z" fill="white"/>
<path d="M57.8975 11.083H59.7273V20.1852H57.8975V11.083Z" fill="white"/>
<path d="M62.4249 11.083H64.4893L66.2488 20.1852H64.5363L64.2078 18.1911H62.7768L62.4249 20.1852H60.689L62.4249 11.083ZM64.0202 17.0416L63.4806 13.382L62.941 17.0416H64.0202Z" fill="white"/>
<path d="M69.979 11.083H71.8088V18.9184H73.9436V20.1852H69.9556V11.083H69.979Z" fill="white"/>
<path d="M74.8584 11.083H76.6882V20.1852H74.8584V11.083Z" fill="white"/>
<path d="M78.1896 11.083H80.1602L81.2862 16.8305L82.4826 11.083H84.3828L84.547 20.1852H83.2098L83.0691 14.0154L81.8961 20.1852H80.7466L79.5502 13.9685L79.4095 20.1852H78.0488L78.1896 11.083Z" fill="white"/>
<path d="M85.8843 11.083H88.7698C90.3884 11.083 91.1157 12.0214 91.1157 13.687C91.1157 15.6341 90.0366 16.2206 88.5586 16.2206H87.7141V20.1617H85.8843V11.083ZM88.371 14.9303C89.192 14.9303 89.3797 14.555 89.3797 13.6635C89.3797 12.8659 89.2859 12.3733 88.371 12.3733H87.7141V14.9303H88.371Z" fill="white"/>
<path d="M92.8751 11.083H94.9396L96.699 20.1852H94.9865L94.658 18.1911H93.227L92.8751 20.1852H91.1392L92.8751 11.083ZM94.4469 17.0416L93.9073 13.382L93.3678 17.0416H94.4469Z" fill="white"/>
<path d="M28.9019 25.8857H32.8665V27.176H30.7551V29.5923H32.3973V30.8825H30.7551V33.7446H32.8899V35.0114H28.9019V25.8857Z" fill="white"/>
<path d="M37.9567 25.8857H40.0211L41.7805 34.9879H40.068L39.7396 32.9939H38.3086L37.9567 34.9879H36.2207L37.9567 25.8857ZM39.5284 31.8444L38.9889 28.1847L38.4493 31.8444H39.5284Z" fill="white"/>
<path d="M42.4141 32.0791V28.8182C42.4141 26.9415 43.024 25.7686 45.065 25.7686C47.0121 25.7686 47.622 26.8242 47.622 28.396V29.1701H45.8156V28.3256C45.8156 27.6922 45.7922 27.1057 45.065 27.1057C44.3143 27.1057 44.2673 27.7157 44.2673 28.396V32.5248C44.2673 33.2989 44.4081 33.7916 45.065 33.7916C45.7687 33.7916 45.8156 33.1817 45.8156 32.5248V31.6334H47.622V32.384C47.622 33.9558 47.059 35.1053 45.065 35.1053C43.0475 35.1053 42.4141 33.9089 42.4141 32.0791Z" fill="white"/>
<path d="M48.772 25.8857H52.7366V27.176H50.6253V29.5923H52.2674V30.8825H50.6253V33.7446H52.76V35.0114H48.772V25.8857Z" fill="white"/>
<path d="M53.4634 32.2902L55.0586 32.0321C55.0821 33.1582 55.3636 33.7212 55.9501 33.7212C56.4192 33.7212 56.56 33.3693 56.56 32.9705C56.56 32.1963 56.1612 31.7506 55.5512 31.2345L54.6129 30.4135C53.9326 29.8504 53.4634 29.1701 53.4634 28.1145C53.4634 26.6131 54.4252 25.792 55.9266 25.792C57.7564 25.792 58.1318 27.1526 58.2021 28.3256L56.6069 28.5602C56.5835 27.7391 56.4896 27.1526 55.8797 27.1526C55.4574 27.1526 55.2463 27.528 55.2463 27.9268C55.2463 28.5836 55.5512 28.9355 56.0673 29.3578L56.9823 30.1554C57.7564 30.8123 58.3664 31.6099 58.3664 32.8532C58.3664 34.1669 57.428 35.1053 56.0204 35.1053C54.3548 35.1053 53.5572 34.2138 53.4634 32.2902Z" fill="white"/>
<path d="M59 32.2902L60.5952 32.0321C60.6187 33.1582 60.9002 33.7212 61.4867 33.7212C61.9559 33.7212 62.0966 33.3693 62.0966 32.9705C62.0966 32.1963 61.6978 31.7506 61.0879 31.2345L60.1495 30.4135C59.4692 29.8504 59 29.1701 59 28.1145C59 26.6131 59.9618 25.792 61.4632 25.792C63.293 25.792 63.6684 27.1526 63.7388 28.3256L62.1435 28.5602C62.1201 27.7391 62.0262 27.1526 61.4163 27.1526C60.994 27.1526 60.7829 27.528 60.7829 27.9268C60.7829 28.5836 61.0879 28.9355 61.604 29.3578L62.5189 30.1554C63.293 30.8123 63.903 31.6099 63.903 32.8532C63.903 34.1669 62.9646 35.1053 61.557 35.1053C59.8914 35.1053 59.0704 34.2138 59 32.2902Z" fill="white"/>
<path d="M64.9116 25.8855H66.7414V34.9877H64.9116V25.8855ZM65.9907 22.9531H67.7267L66.3426 25.2052H65.3104L65.9907 22.9531Z" fill="white"/>
<path d="M67.7031 25.8857H69.2983L70.3775 32.1728L71.3862 25.8857H73.0518L71.3158 34.9879H69.4391L67.7031 25.8857Z" fill="white"/>
<path d="M73.9902 25.8857H77.9548V27.176H75.8435V29.5923H77.4857V30.8825H75.8435V33.7446H77.9783V35.0114H73.9902V25.8857Z" fill="white"/>
<path d="M78.9165 25.8857H80.7463V33.7211H82.8811V34.9879H78.8931V25.8857H78.9165Z" fill="white"/>
</svg>
