<svg width="118" height="118" viewBox="0 0 118 118" fill="none" xmlns="http://www.w3.org/2000/svg">
<path d="M117.284 0.152344H0.151855V117.284H117.284V0.152344Z" fill="#A11C44"/>
<path d="M80.2415 67.5267L68.9576 78.2476C68.5354 78.6698 68.3242 78.9748 68.3242 79.8663V109.917C68.3242 110.269 68.6057 110.551 68.9576 110.551H80.5934C80.9453 110.551 81.2268 110.269 81.2268 109.917V67.8082C81.2737 67.4563 80.9922 66.7995 80.2415 67.5267Z" fill="white"/>
<path d="M47.7742 81.5084L36.4903 92.2293C36.0681 92.6516 35.8569 92.9565 35.8569 93.848V109.941C35.8569 110.293 36.1384 110.574 36.4903 110.574H48.1261C48.478 110.574 48.7595 110.293 48.7595 109.941V81.79C48.7829 81.4146 48.5014 80.7812 47.7742 81.5084Z" fill="white"/>
<path d="M85.3794 54.5296C85.3794 54.4358 85.3559 54.3419 85.2855 54.295C85.2151 54.2481 85.1448 54.2012 85.0744 54.2012H85.004H84.9102L76.2772 56.1483L76.113 56.1717C76.0426 56.1952 75.9957 56.2187 75.9488 56.2656C75.8315 56.3829 75.8315 56.594 75.9488 56.7348L76.0426 56.8286L78.0132 58.7992L58.4717 78.3407L49.4399 69.3089C49.3461 69.2151 49.1818 69.2151 49.0646 69.3089L46.6013 71.7721L32.127 86.2464C32.0332 86.3403 32.0332 86.5045 32.127 86.6218L34.5902 89.085C34.6841 89.1788 34.8483 89.1788 34.9656 89.085L49.2757 74.7749L55.8442 81.3434C55.8442 81.3434 55.8443 81.3669 55.8677 81.3669L58.3309 83.8067C58.4248 83.9005 58.589 83.9005 58.7063 83.8067L80.8987 61.6143L82.9631 63.6787C83.0804 63.8194 83.2915 63.8194 83.4323 63.6787C83.5026 63.6083 83.5261 63.5379 83.5261 63.4675V63.4441L85.4263 54.6234L85.3794 54.5296Z" fill="white"/>
<path d="M64.0784 83.3853L58.6124 88.8982C58.5185 88.992 58.3543 88.992 58.2605 88.8747L53.3106 83.831C52.3957 82.9395 52.208 83.6668 52.208 84.0187V109.918C52.208 110.269 52.4895 110.551 52.8414 110.551H64.5006C64.8525 110.551 65.134 110.269 65.134 109.918V83.5964C65.1575 83.2445 64.876 82.5877 64.0784 83.3853Z" fill="white"/>
<path d="M8.29198 26.9899C8.31544 24.5032 9.20688 22.5561 10.9898 21.6412C9.74645 20.7263 8.69077 19.1311 8.6204 16.574C8.57348 12.7502 10.5675 10.4277 14.4617 10.4277C18.356 10.4277 20.3265 12.7971 20.2327 16.574C20.1858 19.1546 19.177 20.7498 17.9337 21.6412C19.6931 22.5561 20.608 24.5267 20.6315 26.9899C20.7253 31.2126 19.0363 34.0981 14.4617 34.0981C9.91066 34.0981 8.24506 31.2126 8.29198 26.9899ZM16.315 27.2714C16.3385 25.4181 16.1273 23.5649 14.4617 23.5649C12.8431 23.5649 12.585 25.4181 12.585 27.2714C12.585 28.8432 12.7727 30.8372 14.4617 30.8372C16.1508 30.8372 16.315 28.8197 16.315 27.2714ZM16.0804 16.4333C16.0804 14.8381 15.5643 13.7355 14.4617 13.7355C13.3122 13.7355 12.7727 14.8381 12.7727 16.4333C12.7727 18.6619 13.2653 19.9991 14.4617 19.9991C15.6347 19.9991 16.0804 18.6384 16.0804 16.4333Z" fill="white"/>
<path d="M30.1565 12.0217H28.7959V10.6846H33.3001V12.0217H31.9629V19.5052H30.1565V12.0217Z" fill="white"/>
<path d="M33.9805 10.708H36.256C38.0389 10.708 39.118 11.2241 39.118 13.0305C39.118 14.1096 38.8834 14.8368 38.0389 15.2122L39.2588 19.5052H37.429L36.4202 15.5171H35.7634V19.5052H33.9805V10.708ZM36.3029 14.4615C37.1709 14.4615 37.4524 14.0392 37.4524 13.1712C37.4524 12.3502 37.2178 11.9044 36.3968 11.9044H35.7868V14.4615H36.3029Z" fill="white"/>
<path d="M41.4874 10.708H43.4814L45.1705 19.5287H43.5283L43.1999 17.5815H41.8158L41.4874 19.5287H39.7983L41.4874 10.708ZM43.0357 16.479L42.4961 12.9366L41.98 16.479H43.0357Z" fill="white"/>
<path d="M45.9683 10.708H48.2203C49.7452 10.708 50.9181 11.1303 50.9181 12.9836C50.9181 14.0392 50.449 14.6257 49.6279 14.7899C50.6601 14.9307 51.1762 15.6814 51.1762 16.9247C51.1762 18.6841 50.2847 19.5052 48.6191 19.5052H45.9683V10.708ZM48.1969 14.2738C49.1118 14.2738 49.3229 13.8515 49.3229 13.0539C49.3229 12.2563 48.9007 11.9513 48.0796 11.9513H47.7512V14.2738H48.1969ZM48.2673 18.2619C49.1587 18.2619 49.4637 17.8161 49.4637 16.9012C49.4637 15.8925 49.1587 15.4702 48.2438 15.4702H47.7746V18.2619H48.2673Z" fill="white"/>
<path d="M53.3575 10.708H55.3516L57.0406 19.5287H55.3985L55.07 17.5815H53.686L53.3575 19.5287H51.6685L53.3575 10.708ZM54.9058 16.479L54.3663 12.9366L53.8502 16.479H54.9058Z" fill="white"/>
<path d="M57.8384 10.708H59.6213V18.3088H61.7091V19.5287H57.8384V10.708Z" fill="white"/>
<path d="M62.4595 10.708H64.2658V14.3207H65.8141V10.708H67.6205V19.5287H65.8141V15.6344H64.2658V19.5287H62.4595V10.708Z" fill="white"/>
<path d="M68.7236 16.7371V13.4528C68.7236 11.6465 69.3805 10.5908 71.3276 10.5908C73.2747 10.5908 73.9316 11.6465 73.9316 13.4528V16.7606C73.9316 18.5669 73.2747 19.6461 71.3276 19.6461C69.3805 19.6461 68.7236 18.5435 68.7236 16.7371ZM72.1018 17.1828V13.0071C72.1018 12.3972 72.0079 11.8576 71.3276 11.8576C70.6473 11.8576 70.5534 12.3972 70.5534 13.0071V17.1828C70.5534 17.7928 70.6238 18.3558 71.3276 18.3558C71.9845 18.3558 72.1018 17.7928 72.1018 17.1828Z" fill="white"/>
<path d="M77.6143 10.708H79.7725C82.0011 10.708 82.658 11.5525 82.658 13.4762V16.6901C82.658 18.6372 82.0011 19.5287 79.8194 19.5287H77.6143V10.708ZM79.796 18.2619C80.7812 18.2619 80.8282 17.7927 80.8282 16.8778V13.2416C80.8282 12.3501 80.7343 11.9748 79.7725 11.9748H79.3971V18.2619H79.796Z" fill="white"/>
<path d="M83.7373 10.708H87.5846V11.9513H85.5202V14.2973H87.1154V15.5406H85.5202V18.3088H87.6081V19.5287H83.7373V10.708Z" fill="white"/>
<path d="M88.2651 16.6902V13.5467C88.2651 11.7403 88.8751 10.5908 90.8456 10.5908C92.7458 10.5908 93.3089 11.623 93.3089 13.1479V13.8986H91.5729V13.0775C91.5729 12.4675 91.5494 11.8811 90.8456 11.8811C90.1184 11.8811 90.0715 12.4676 90.0715 13.1244V17.1359C90.0715 17.8866 90.2122 18.3558 90.8456 18.3558C91.526 18.3558 91.5729 17.7693 91.5729 17.1359V16.2679H93.3089V16.9952C93.3089 18.52 92.7693 19.6461 90.8456 19.6461C88.8751 19.6461 88.2651 18.4731 88.2651 16.6902Z" fill="white"/>
<path d="M94.3174 10.708H98.1647V11.9513H96.1003V14.2973H97.6955V15.5406H96.1003V18.3088H98.1881V19.5287H94.3174V10.708Z" fill="white"/>
<path d="M98.9858 10.708H100.229L102.176 15.2825V10.708H103.678V19.5287H102.481L100.534 14.6491V19.5287H98.9858V10.708Z" fill="white"/>
<path d="M105.719 12.0217H104.358V10.6846H108.862V12.0217H107.525V19.5052H105.719V12.0217Z" fill="white"/>
<path d="M109.542 10.708H113.39V11.9513H111.325V14.2973H112.921V15.5406H111.325V18.3088H113.413V19.5287H109.542V10.708Z" fill="white"/>
<path d="M29.3354 25.0654H33.1828V26.3088H31.1184V28.6547H32.7136V29.898H31.1184V32.6662H33.2062V33.8861H29.3354V25.0654Z" fill="white"/>
<path d="M36.4673 31.0476V27.9041C36.4673 26.0977 37.0772 24.9482 39.0478 24.9482C40.948 24.9482 41.511 25.9804 41.511 27.5053V28.256H39.775V27.4349C39.775 26.825 39.7516 26.2385 39.0478 26.2385C38.3206 26.2385 38.2736 26.825 38.2736 27.4818V31.4933C38.2736 32.244 38.4144 32.7132 39.0478 32.7132C39.7281 32.7132 39.775 32.1267 39.775 31.4933V30.6254H41.511V31.3526C41.511 32.8774 40.9714 34.0035 39.0478 34.0035C37.0772 33.98 36.4673 32.8071 36.4673 31.0476Z" fill="white"/>
<path d="M42.5195 25.0654H44.7951C46.578 25.0654 47.6571 25.5815 47.6571 27.3879C47.6571 28.467 47.4225 29.1942 46.578 29.5696L47.7978 33.8626H45.968L44.9593 29.8746H44.3024V33.8626H42.5195V25.0654ZM44.8185 28.8189C45.6865 28.8189 45.968 28.3966 45.968 27.5286C45.968 26.7076 45.7334 26.2618 44.9124 26.2618H44.3024V28.8189H44.8185Z" fill="white"/>
<path d="M48.7363 25.0654H52.5836V26.3088H50.5192V28.6547H52.1145V29.898H50.5192V32.6662H52.6071V33.8861H48.7363V25.0654Z" fill="white"/>
<path d="M53.1934 31.2353L54.7417 30.9773C54.7651 32.0799 55.0466 32.6194 55.6097 32.6194C56.0554 32.6194 56.2196 32.291 56.2196 31.8922C56.2196 31.1415 55.8442 30.7192 55.2578 30.2031L54.3429 29.4055C53.686 28.8425 53.2168 28.2091 53.2168 27.1769C53.2168 25.7224 54.1317 24.9248 55.6097 24.9248C57.3925 24.9248 57.7444 26.2385 57.8148 27.3646L56.2665 27.5992C56.2431 26.8015 56.1492 26.2385 55.5627 26.2385C55.1405 26.2385 54.9528 26.6139 54.9528 26.9892C54.9528 27.6226 55.2578 27.951 55.7504 28.3733L56.6419 29.1475C57.3926 29.7809 58.0025 30.555 58.0025 31.7514C58.0025 33.0182 57.111 33.9331 55.7269 33.9331C54.0613 33.9801 53.2637 33.1121 53.1934 31.2353Z" fill="white"/>
<path d="M58.6597 31.0476V27.9041C58.6597 26.0977 59.2696 24.9482 61.2402 24.9482C63.1404 24.9482 63.7034 25.9804 63.7034 27.5053V28.256H61.9674V27.4349C61.9674 26.825 61.944 26.2385 61.2402 26.2385C60.5129 26.2385 60.466 26.825 60.466 27.4818V31.4933C60.466 32.244 60.6068 32.7132 61.2402 32.7132C61.9205 32.7132 61.9674 32.1267 61.9674 31.4933V30.6254H63.7034V31.3526C63.7034 32.8774 63.1638 34.0035 61.2402 34.0035C59.2696 33.98 58.6597 32.8071 58.6597 31.0476Z" fill="white"/>
<path d="M64.7354 25.0654H66.5182V33.8861H64.7354V25.0654Z" fill="white"/>
<path d="M67.8552 25.0654H69.7554L70.8345 30.6252L71.984 25.0654H73.8138L73.978 33.8861H72.6643L72.5235 27.904L71.3975 33.8861H70.2949L69.122 27.8805L68.9812 33.8861H67.6675L67.8552 25.0654Z" fill="white"/>
<path d="M75.1978 25.0654H79.0451V26.3088H76.9807V28.6547H78.5759V29.898H76.9807V32.6662H79.0685V33.8861H75.1978V25.0654Z" fill="white"/>
<path d="M79.8667 25.0654H81.11L83.0571 29.64V25.0654H84.5585V33.8861H83.3621L81.415 29.0066V33.8861H79.8902V25.0654H79.8667Z" fill="white"/>
<path d="M86.5994 26.3792H85.2388V25.042H89.7429V26.3792H88.4058V33.8627H86.5994V26.3792Z" fill="white"/>
<path d="M90.2358 31.0945V27.8103C90.2358 26.0039 90.8927 24.9482 92.8398 24.9482C94.7869 24.9482 95.4438 26.0039 95.4438 27.8103V31.118C95.4438 32.9244 94.7869 34.0035 92.8398 34.0035C90.8927 33.98 90.2358 32.9009 90.2358 31.0945ZM93.614 31.5403V27.3645C93.614 26.7546 93.5201 26.215 92.8398 26.215C92.1595 26.215 92.0657 26.7546 92.0657 27.3645V31.5403C92.0657 32.1502 92.136 32.7132 92.8398 32.7132C93.5201 32.7132 93.614 32.1267 93.614 31.5403Z" fill="white"/>
<path d="M29.3354 39.3984H33.1828V40.6418H31.1184V42.9877H32.7136V44.231H31.1184V46.9992H33.2062V48.2191H29.3354V39.3984Z" fill="white"/>
<path d="M33.8633 45.4041V42.2606C33.8633 40.4542 34.4732 39.3047 36.4438 39.3047C38.344 39.3047 38.907 40.3369 38.907 41.8617V42.6124H37.171V41.7914C37.171 41.1814 37.1476 40.5949 36.4438 40.5949C35.7166 40.5949 35.6696 41.1814 35.6696 41.8383V45.8498C35.6696 46.6005 35.8104 47.0697 36.4438 47.0697C37.1241 47.0697 37.171 46.4832 37.171 45.8498V44.9818H38.907V45.7091C38.907 47.2339 38.3674 48.3599 36.4438 48.3599C34.4732 48.3365 33.8633 47.1635 33.8633 45.4041Z" fill="white"/>
<path d="M39.7749 45.451V42.1667C39.7749 40.3604 40.4318 39.3047 42.3789 39.3047C44.326 39.3047 44.9828 40.3604 44.9828 42.1667V45.4745C44.9828 47.2808 44.326 48.3599 42.3789 48.3599C40.4318 48.3365 39.7749 47.2574 39.7749 45.451ZM43.153 45.8967V41.721C43.153 41.1111 43.0592 40.5715 42.3789 40.5715C41.6986 40.5715 41.6047 41.1111 41.6047 41.721V45.8967C41.6047 46.5067 41.6751 47.0697 42.3789 47.0697C43.0357 47.0462 43.153 46.4832 43.153 45.8967Z" fill="white"/>
<path d="M46.062 39.3984H47.3053L49.2525 43.973V39.3984H50.7538V48.2191H49.5574L47.6103 43.3396V48.2191H46.0855V39.3984H46.062Z" fill="white"/>
<path d="M51.8564 45.4515V42.1672C51.8564 40.3609 52.5133 39.3052 54.4604 39.3052C56.4075 39.3052 57.0644 40.3609 57.0644 42.1672V45.475C57.0644 47.2813 56.4075 48.3605 54.4604 48.3605C52.4899 48.337 51.8564 47.2579 51.8564 45.4515ZM53.7332 36.6309H55.1173L56.1495 38.6718H54.9531L54.437 37.3581L53.9209 38.6718H52.7244L53.7332 36.6309ZM55.2111 45.8972V41.7215C55.2111 41.1116 55.1173 40.572 54.437 40.572C53.7566 40.572 53.6628 41.1116 53.6628 41.7215V45.8972C53.6628 46.5072 53.7332 47.0702 54.437 47.0702C55.1173 47.0467 55.2111 46.4837 55.2111 45.8972Z" fill="white"/>
<path d="M58.2604 39.3984H60.1606L61.2397 44.9583L62.3892 39.3984H64.219L64.3832 48.2191H63.093L62.9522 42.237L61.8262 48.2191H60.7236L59.5507 42.2135L59.4099 48.2191H58.0962L58.2604 39.3984Z" fill="white"/>
<path d="M65.6035 39.3984H67.3864V48.2191H65.6035V39.3984Z" fill="white"/>
<path d="M68.4888 45.4041V42.2606C68.4888 40.4542 69.0987 39.3047 71.0693 39.3047C72.9695 39.3047 73.5325 40.3369 73.5325 41.8617V42.6124H71.7965V41.7914C71.7965 41.1814 71.7731 40.5949 71.0693 40.5949C70.342 40.5949 70.2951 41.1814 70.2951 41.8383V45.8498C70.2951 46.6005 70.4359 47.0697 71.0693 47.0697C71.7496 47.0697 71.7965 46.4832 71.7965 45.8498V44.9818H73.5325V45.7091C73.5325 47.2339 72.9929 48.3599 71.0693 48.3599C69.0987 48.3365 68.4888 47.1635 68.4888 45.4041Z" fill="white"/>
<path d="M74.4004 45.451V42.1667C74.4004 40.3604 75.0572 39.3047 77.0044 39.3047C78.9515 39.3047 79.6083 40.3604 79.6083 42.1667V45.4745C79.6083 47.2808 78.9515 48.3599 77.0044 48.3599C75.0572 48.3365 74.4004 47.2574 74.4004 45.451ZM77.7785 45.8967V41.721C77.7785 41.1111 77.6847 40.5715 77.0044 40.5715C76.324 40.5715 76.2302 41.1111 76.2302 41.721V45.8967C76.2302 46.5067 76.3006 47.0697 77.0044 47.0697C77.6612 47.0462 77.7785 46.4832 77.7785 45.8967Z" fill="white"/>
</svg>
