<svg width="118" height="118" viewBox="0 0 118 118" fill="none" xmlns="http://www.w3.org/2000/svg">
<path d="M117.849 0.199219H0.952148V117.096H117.849V0.199219Z" fill="#F16A2B"/>
<path d="M87.188 85.7783L73.957 78.1541V62.8587C73.957 62.5303 73.7928 62.2488 73.5113 62.0846L59.8346 54.1788C59.5531 54.0146 59.2012 54.0146 58.9432 54.1788L45.2665 62.0846C44.985 62.2488 44.8208 62.5538 44.8208 62.8587V78.1306L31.5898 85.7549C31.3083 85.9191 31.144 86.2241 31.144 86.529V102.317C31.144 102.645 31.3083 102.927 31.5898 103.091L45.2665 110.997C45.4072 111.067 45.5714 111.114 45.7122 111.114C45.8764 111.114 46.0172 111.067 46.1579 110.997L59.3889 103.349L72.6199 110.997C72.7606 111.067 72.9249 111.114 73.0656 111.114C73.2298 111.114 73.3706 111.067 73.5113 110.997L87.188 103.091C87.4695 102.927 87.6338 102.622 87.6338 102.317V86.5525C87.6572 86.2241 87.4695 85.9191 87.188 85.7783ZM58.474 100.792L47.4951 94.4582L58.474 88.1243V100.792ZM71.2592 78.6467L60.2804 84.9807V72.3128L71.2592 78.6467ZM58.474 84.9807L47.4951 78.6467L58.474 72.3128V84.9807ZM61.1952 86.5525L73.0656 79.7024L84.936 86.5525L73.0656 93.4026L61.1952 86.5525ZM72.1742 77.0984L61.1952 70.7645L72.1742 64.4305V77.0984ZM57.5826 70.7645L46.6036 77.0984V64.4305L57.5826 70.7645ZM44.7973 108.675L32.9269 101.824V88.1008L44.7973 94.9509V108.675ZM46.6036 108.675V96.0065L57.5826 102.341L46.6036 108.675ZM85.8509 101.824L73.9805 108.675V94.9743L85.8509 88.1243V101.824Z" fill="white"/>
<path d="M9.56139 28.4912V28.1393H13.7371C13.7371 30.0864 13.9717 31.0248 15.4262 31.0248C16.8337 31.0248 17.1387 29.8987 17.1387 26.3329V23.987C16.6461 24.8081 15.567 25.3007 14.2063 25.3242C10.4529 25.3711 9.1626 22.251 9.1626 18.4037C9.1626 13.7119 10.8516 10.5684 15.4262 10.5684C19.8365 10.5684 21.6898 13.5711 21.6898 18.0049V26.4737C21.6898 31.0013 20.3995 34.4263 15.4027 34.4263C11.1332 34.4263 9.56139 32.3385 9.56139 28.4912ZM17.1622 20.8904V17.1839C17.1622 15.4244 16.8807 13.8761 15.4496 13.8761C13.9952 13.8761 13.7371 15.3775 13.7371 17.8876C13.7371 20.257 13.7606 21.9226 15.4966 21.9226C16.3411 21.9461 16.8572 21.383 17.1622 20.8904Z" fill="white"/>
<path d="M30.9097 10.8711H32.716V19.7387H30.9097V10.8711Z" fill="white"/>
<path d="M34.0532 10.8711H35.32L37.2906 15.4925V10.8711H38.792V19.7387H37.5721L35.6015 14.8357V19.7387H34.0532V10.8711Z" fill="white"/>
<path d="M40.1055 10.8711H42.2637C44.5158 10.8711 45.1726 11.7156 45.1726 13.6627V16.9001C45.1726 18.8707 44.5158 19.7621 42.3106 19.7621H40.1055V10.8711ZM42.3106 18.4953C43.2959 18.4953 43.3428 18.0261 43.3428 17.0878V13.4281C43.3428 12.5367 43.249 12.1613 42.2872 12.1613H41.9118V18.4953H42.3106Z" fill="white"/>
<path d="M46.3223 16.9477V10.8718H48.1052V17.2058C48.1052 17.8861 48.1755 18.5664 48.9028 18.5664C49.6066 18.5664 49.7004 17.8861 49.7004 17.2058V10.8718H51.4833V16.9477C51.4833 18.801 50.9203 19.8801 48.9028 19.8801C46.8853 19.8801 46.3223 18.801 46.3223 16.9477ZM49.0435 8.00977H50.7326L49.3954 10.2149H48.3867L49.0435 8.00977Z" fill="white"/>
<path d="M52.5156 17.1113L54.064 16.8533C54.0874 17.9559 54.3689 18.4954 54.9319 18.4954C55.4011 18.4954 55.5419 18.167 55.5419 17.7682C55.5419 17.0175 55.1665 16.5952 54.5566 16.0791L53.6417 15.2815C52.9848 14.7185 52.5156 14.0851 52.5156 13.0294C52.5156 11.575 53.454 10.7773 54.9319 10.7773C56.7148 10.7773 57.0902 12.1145 57.1371 13.2406L55.5653 13.4751C55.5419 12.6541 55.448 12.1145 54.8615 12.1145C54.4393 12.1145 54.2282 12.4899 54.2282 12.8652C54.2282 13.4986 54.5331 13.8505 55.0258 14.2728L55.9172 15.0704C56.6679 15.7272 57.2779 16.5014 57.2779 17.6978C57.2779 18.9646 56.3629 19.903 54.9788 19.903C53.3836 19.8795 52.586 18.9881 52.5156 17.1113Z" fill="white"/>
<path d="M59.0842 12.2083H57.7236V10.8711H62.2512V12.2083H60.9141V19.7387H59.0842V12.2083Z" fill="white"/>
<path d="M63.0488 10.8711H65.3479C67.1308 10.8711 68.2333 11.3872 68.2333 13.217C68.2333 14.2961 67.9987 15.0468 67.1307 15.4222L68.3506 19.7387H66.4974L65.4886 15.7271H64.8317V19.7387H63.0254V10.8711H63.0488ZM65.3948 14.648C66.2628 14.648 66.5443 14.2258 66.5443 13.3578C66.5443 12.5367 66.3097 12.091 65.4886 12.091H64.8552V14.648H65.3948Z" fill="white"/>
<path d="M69.4766 10.8711H71.2829V19.7387H69.4766V10.8711Z" fill="white"/>
<path d="M73.8868 10.8711H75.8809L77.5934 19.7387H75.9278L75.5994 17.7916H74.1918L73.8634 19.7387H72.1743L73.8868 10.8711ZM75.4351 16.689L74.8956 13.1232L74.3795 16.689H75.4351Z" fill="white"/>
<path d="M78.4381 20.7016C78.8134 20.5843 79.1888 20.3497 79.1888 19.7398H78.3208V18.1445H79.916V19.5521C79.916 20.5608 79.4703 21.1473 78.5789 21.2411L78.4381 20.7016Z" fill="white"/>
<path d="M30.9097 25.3232H32.716V34.1908H30.9097V25.3232Z" fill="white"/>
<path d="M34.0532 25.3232H35.32L37.2906 29.9447V25.3232H38.792V34.1908H37.5721L35.6015 29.2878V34.1908H34.0532V25.3232Z" fill="white"/>
<path d="M39.9883 31.4227V28.115C39.9883 26.2852 40.6451 25.2295 42.6157 25.2295C44.5628 25.2295 45.2431 26.3086 45.2431 28.115V31.4227C45.2431 33.2291 44.5863 34.3317 42.6157 34.3317C40.6451 34.3317 39.9883 33.2291 39.9883 31.4227ZM43.3899 31.8685V27.6693C43.3899 27.0593 43.296 26.5197 42.6157 26.5197C41.9354 26.5197 41.8415 27.0593 41.8415 27.6693V31.8685C41.8415 32.4784 41.9119 33.0414 42.6157 33.0414C43.2726 33.0414 43.3899 32.4784 43.3899 31.8685Z" fill="white"/>
<path d="M45.9233 25.3232H47.4951L48.5508 31.4696L49.5361 25.3232H51.1782L49.4892 34.1908H47.6359L45.9233 25.3232Z" fill="white"/>
<path d="M53.0319 25.3232H55.0259L56.7384 34.1908H55.0728L54.7444 32.2437H53.3368L53.0084 34.1908H51.3193L53.0319 25.3232ZM54.5567 31.1411L54.0171 27.5753L53.5011 31.1411H54.5567Z" fill="white"/>
<path d="M60.797 28.5372V27.7162C60.797 27.0828 60.7736 26.5197 60.0698 26.5197C59.3425 26.5197 59.2956 27.1062 59.2956 27.7631V31.7981C59.2956 32.5488 59.4364 33.0414 60.0698 33.0414C60.7501 33.0414 60.797 32.4549 60.797 31.7981V30.9301H62.5565V31.6573C62.5565 33.1587 62.0638 34.2378 60.2809 34.3082V34.8947C61.1489 34.8947 61.7354 35.2466 61.7354 35.9973C61.7354 36.8183 61.0082 37.1468 60.1636 37.1468C59.9056 37.1468 59.6241 37.0999 59.3426 37.0295V36.3022C59.5068 36.3491 59.7414 36.3961 59.9525 36.3961C60.3278 36.3961 60.6328 36.2788 60.6328 35.9973C60.6328 35.5985 60.1167 35.4577 59.6475 35.4108V34.3082C57.9819 34.144 57.4658 33.0179 57.4658 31.3758V28.2088C57.4658 26.379 58.0758 25.2295 60.0698 25.2295C61.97 25.2295 62.5565 26.2617 62.5565 27.7865V28.5372H60.797Z" fill="white"/>
<path d="M64.9488 25.3227H66.9429L68.6554 34.1903H66.9898L66.6614 32.2432H65.2538L64.9254 34.1903H63.2363L64.9488 25.3227ZM65.4415 23.7509C65.1365 23.7509 65.0427 23.9386 65.0427 24.1967H64.2216C64.2216 23.3521 64.4327 22.7188 65.1834 22.7188C65.723 22.7188 66.0749 23.2114 66.5441 23.2114C66.8021 23.2114 66.8725 23.0472 66.8725 22.7891H67.6232C67.6232 23.4929 67.5293 24.2671 66.8021 24.2671C66.2626 24.2671 65.8872 23.7509 65.4415 23.7509ZM66.4972 31.1406L65.9576 27.5748L65.4415 31.1406H66.4972Z" fill="white"/>
<path d="M69.3125 31.4227V28.115C69.3125 26.2852 69.9693 25.2295 71.9399 25.2295C73.887 25.2295 74.5673 26.3086 74.5673 28.115V31.4227C74.5673 33.2291 73.9105 34.3317 71.9399 34.3317C69.9693 34.3317 69.3125 33.2291 69.3125 31.4227ZM72.7141 31.8685V27.6693C72.7141 27.0593 72.6202 26.5197 71.9399 26.5197C71.2596 26.5197 71.1658 27.0593 71.1658 27.6693V31.8685C71.1658 32.4784 71.2361 33.0414 71.9399 33.0414C72.5968 33.0414 72.7141 32.4784 72.7141 31.8685Z" fill="white"/>
<path d="M78.4849 25.3232H82.3556V26.5666H80.2912V28.9125H81.8864V30.1793H80.2912V32.9709H82.3791V34.1908H78.4849V25.3232Z" fill="white"/>
<path d="M30.9097 39.7969H32.716V48.6644H30.9097V39.7969Z" fill="white"/>
<path d="M34.0532 39.7969H35.32L37.2906 44.4183V39.7969H38.792V48.6644H37.5721L35.6015 43.7615V48.6644H34.0532V39.7969Z" fill="white"/>
<path d="M40.1055 39.7969H43.8589V41.0402H41.9118V43.433H43.5774V44.6998H41.9118V48.6879H40.1055V39.7969Z" fill="white"/>
<path d="M44.7739 39.7969H47.073C48.8559 39.7969 49.9584 40.313 49.9584 42.1428C49.9584 43.2219 49.7238 43.9726 48.8558 44.3479L50.0757 48.6644H48.2225L47.2137 44.6529H46.5569V48.6644H44.7505V39.7969H44.7739ZM47.0964 43.5738C47.9644 43.5738 48.2459 43.1515 48.2459 42.2835C48.2459 41.4625 48.0113 41.0168 47.1902 41.0168H46.5569V43.5738H47.0964Z" fill="white"/>
<path d="M52.4454 39.7969H54.4395L56.152 48.6644H54.4864L54.1579 46.7173H52.7504L52.422 48.6644H50.7329L52.4454 39.7969ZM53.9937 45.5913L53.4542 42.0255L52.9381 45.5913H53.9937Z" fill="white"/>
<path d="M57.0664 39.7969H60.9372V41.0402H58.8728V43.3861H60.468V44.6529H58.8728V47.4446H60.9606V48.6644H57.0664V39.7969Z" fill="white"/>
<path d="M61.6411 46.0137L63.1894 45.7556C63.2129 46.8582 63.4944 47.3978 64.0574 47.3978C64.5266 47.3978 64.6674 47.0693 64.6674 46.6705C64.6674 45.9198 64.292 45.4976 63.6821 44.9815L62.7672 44.1839C62.1103 43.6208 61.6411 42.9874 61.6411 41.9318C61.6411 40.4773 62.5795 39.6797 64.0574 39.6797C65.8403 39.6797 66.2157 41.0169 66.2626 42.1429L64.6908 42.3775C64.6673 41.5564 64.5735 41.0169 63.987 41.0169C63.5648 41.0169 63.3536 41.3922 63.3536 41.7675C63.3536 42.4009 63.6586 42.7528 64.1513 43.1751L65.0427 43.9727C65.7934 44.6296 66.4033 45.4037 66.4033 46.6001C66.4033 47.8669 65.4884 48.8053 64.1043 48.8053C62.5091 48.7818 61.735 47.9139 61.6411 46.0137Z" fill="white"/>
<path d="M68.2337 41.1341H66.873V39.7969H71.4007V41.1341H70.0635V48.6644H68.2337V41.1341Z" fill="white"/>
<path d="M72.1978 39.7969H74.4968C76.2797 39.7969 77.3822 40.313 77.3822 42.1428C77.3822 43.2219 77.1477 43.9726 76.2797 44.3479L77.4995 48.6644H75.6463L74.6375 44.6529H73.9807V48.6644H72.1743V39.7969H72.1978ZM74.5437 43.5738C75.4117 43.5738 75.6932 43.1515 75.6932 42.2835C75.6932 41.4625 75.4586 41.0168 74.6375 41.0168H74.0041V43.5738H74.5437Z" fill="white"/>
<path d="M78.4849 45.8494V39.7734H80.2678V46.1074C80.2678 46.7877 80.3381 47.4681 81.0654 47.4681C81.7691 47.4681 81.863 46.7877 81.863 46.1074V39.7734H83.6459V45.8494C83.6459 47.7026 83.0829 48.7818 81.0654 48.7818C79.0244 48.7818 78.4849 47.7261 78.4849 45.8494Z" fill="white"/>
<path d="M85.7102 41.1341H84.3496V39.7969H88.8772V41.1341H87.5401V48.6644H85.7102V41.1341Z" fill="white"/>
<path d="M89.6045 45.8494V39.7734H91.3874V46.1074C91.3874 46.7877 91.4578 47.4681 92.185 47.4681C92.8888 47.4681 92.9826 46.7877 92.9826 46.1074V39.7734H94.7655V45.8494C94.7655 47.7026 94.2025 48.7818 92.185 48.7818C90.1675 48.7818 89.6045 47.7261 89.6045 45.8494Z" fill="white"/>
<path d="M96.0088 39.7969H98.3078C100.091 39.7969 101.193 40.313 101.193 42.1428C101.193 43.2219 100.959 43.9726 100.091 44.3479L101.311 48.6644H99.4573L98.4486 44.6529H97.7917V48.6644H95.9854V39.7969H96.0088ZM98.3547 43.5738C99.2227 43.5738 99.5042 43.1515 99.5042 42.2835C99.5042 41.4625 99.2696 41.0168 98.4486 41.0168H97.8152V43.5738H98.3547Z" fill="white"/>
<path d="M103.68 39.7969H105.674L107.386 48.6644H105.721L105.392 46.7173H103.985L103.656 48.6644H101.967L103.68 39.7969ZM105.228 45.5913L104.689 42.0255L104.172 45.5913H105.228Z" fill="white"/>
</svg>
