<svg width="72" height="72" viewBox="0 0 72 72" fill="none" xmlns="http://www.w3.org/2000/svg">
<circle cx="36" cy="36" r="36" fill="#F0F0F0"/>
<path d="M44.6314 26.7845C43.6169 26.6913 42.7121 27.1464 42.1637 27.8868V27.3219C42.1637 27.0203 41.9169 26.7735 41.6153 26.7735C41.3137 26.7735 41.0669 27.0203 41.0669 27.3219V29.85C40.4418 28.9177 39.334 28.3145 38.0947 28.4352C37.7218 30.3764 39.164 32.1423 41.0669 32.2519V33.9081H40.5185C40.2169 33.9081 39.9701 34.1548 39.9701 34.4564C39.9701 34.7581 40.2169 35.0048 40.5185 35.0048H42.7121C43.0137 35.0048 43.2605 34.7581 43.2605 34.4564C43.2605 34.1548 43.0137 33.9081 42.7121 33.9081H42.1637V30.0529C43.754 29.9213 44.9495 28.4297 44.6314 26.79V26.7845Z" fill="#00A85A"/>
<path d="M32.0677 30.8871C32.0677 29.8287 31.2067 28.9678 30.1484 28.9678C29.09 28.9678 28.229 29.8287 28.229 30.8871C28.229 31.7536 28.8103 32.4829 29.6 32.7187V33.6291H29.0516C28.75 33.6291 28.5032 33.8758 28.5032 34.1775C28.5032 34.4791 28.75 34.7258 29.0516 34.7258H31.2451C31.5467 34.7258 31.7935 34.4791 31.7935 34.1775C31.7935 33.8758 31.5467 33.6291 31.2451 33.6291H30.6967V32.7187C31.4864 32.4829 32.0677 31.7591 32.0677 30.8871Z" fill="#00A85A"/>
<path d="M26.0577 27.3229C27.1655 27.3229 28.0593 26.4236 28.0593 25.3213C28.0593 24.6852 27.7632 24.1203 27.3026 23.7529C27.5658 23.4568 27.7248 23.0729 27.7248 22.6507C27.7248 21.8062 27.0942 21.1152 26.2826 21.0055C26.0138 20.2158 25.268 19.6455 24.3851 19.6455C23.5022 19.6455 22.7564 20.2158 22.4877 21.0055C21.6761 21.1152 21.0455 21.8062 21.0455 22.6507C21.0455 23.0729 21.21 23.4568 21.4677 23.7529C21.0071 24.1203 20.7109 24.6852 20.7109 25.3213C20.7109 26.4291 21.6103 27.3229 22.7126 27.3229C23.1293 27.3229 23.5132 27.1913 23.8313 26.9774V28.9681H23.2829C22.9813 28.9681 22.7345 29.2149 22.7345 29.5165C22.7345 29.8181 22.9813 30.0649 23.2829 30.0649H25.4764C25.778 30.0649 26.0248 29.8181 26.0248 29.5165C26.0248 29.2149 25.778 28.9681 25.4764 28.9681H24.928V26.9774C25.2461 27.1968 25.63 27.3229 26.0467 27.3229H26.0577Z" fill="#00A85A"/>
<path d="M36.7621 23.8513C36.5099 21.8003 35.7586 19.8261 34.5741 18.0603L34.5357 18L34.4973 18.0603C33.3128 19.8261 32.567 21.8003 32.3092 23.8513C32.1941 24.7781 32.9673 25.5897 33.9873 25.661V27.3226H33.4389C33.1373 27.3226 32.8905 27.5694 32.8905 27.871C32.8905 28.1726 33.1373 28.4194 33.4389 28.4194H35.6325C35.9341 28.4194 36.1808 28.1726 36.1808 27.871C36.1808 27.5694 35.9341 27.3226 35.6325 27.3226H35.0841V25.661C36.1041 25.5842 36.8773 24.7781 36.7621 23.8513Z" fill="#00A85A"/>
<path d="M23.31 35.7356L21.7142 32.2588L20.1184 35.7356C19.751 36.5417 20.2774 37.3972 21.1658 37.6549V38.8394H20.8916C20.59 38.8394 20.3432 39.0862 20.3432 39.3878C20.3432 39.6894 20.59 39.9362 20.8916 39.9362H22.5368C22.8384 39.9362 23.0851 39.6894 23.0851 39.3878C23.0851 39.0862 22.8384 38.8394 22.5368 38.8394H22.2626V37.6549C23.151 37.3972 23.6774 36.5417 23.31 35.7356Z" fill="#00A85A"/>
<path d="M52.0839 31.1611C51.0255 31.1611 50.1646 32.6363 50.1646 34.4515C50.1646 35.9431 50.7404 37.1989 51.5355 37.6047V38.8386H51.2613C50.9597 38.8386 50.7129 39.0853 50.7129 39.3869C50.7129 39.6886 50.9597 39.9353 51.2613 39.9353H52.9065C53.2081 39.9353 53.4549 39.6886 53.4549 39.3869C53.4549 39.0853 53.2081 38.8386 52.9065 38.8386H52.6323V37.6047C53.4275 37.1989 54.0033 35.9431 54.0033 34.4515C54.0033 32.6363 53.1423 31.1611 52.0839 31.1611Z" fill="#00A85A"/>
<path d="M45.7773 23.5989C45.7773 24.7451 46.578 25.6773 47.5596 25.6773H48.7935V28.4193H48.2451C47.9435 28.4193 47.6967 28.666 47.6967 28.9676C47.6967 29.2693 47.9435 29.516 48.2451 29.516H50.4386C50.7402 29.516 50.987 29.2693 50.987 28.9676C50.987 28.666 50.7402 28.4193 50.4386 28.4193H49.8902V25.6773H51.1241C52.1057 25.6773 52.9064 24.7451 52.9064 23.5989C52.9064 22.568 52.2648 21.718 51.4202 21.5535C51.4202 21.5425 51.4202 21.5315 51.4202 21.5206C51.4202 20.1825 50.488 19.0967 49.3419 19.0967C48.1957 19.0967 47.2635 20.1825 47.2635 21.5206V21.5535C46.419 21.718 45.7773 22.568 45.7773 23.5989Z" fill="#00A85A"/>
<path d="M37.0031 36.0967C27.8285 36.0967 20.3321 42.9296 20.014 51.4351C20.003 51.7422 20.2553 51.9999 20.5679 51.9999H53.4437C53.7508 51.9999 54.0085 51.7476 53.9976 51.4351C53.6795 42.9241 46.1831 36.0967 37.0085 36.0967H37.0031ZM29.2708 42.3483C29.364 42.8857 29.7808 43.3025 30.3182 43.4615C30.4663 43.5054 30.6253 43.5218 30.7953 43.5164L34.6943 43.4341L37.2937 43.2805C37.8147 43.2586 38.2698 43.5931 38.3576 44.0757C38.385 44.2238 38.374 44.3718 38.3301 44.5144C38.226 44.816 37.9682 45.0683 37.6118 45.1505L35.9282 45.5673C35.1495 45.7647 34.3543 45.9238 33.5592 46.0554L32.1005 46.2802C31.4753 46.3789 30.9105 46.697 30.5321 47.1796L28.6785 49.4883C27.9492 50.4041 26.6824 50.7935 25.5198 50.4535C25.1579 50.3493 24.8453 50.1518 24.604 49.8776C24.3737 49.6199 24.2201 49.2964 24.1763 48.9344C24.116 48.408 23.8966 47.9254 23.5511 47.5305C23.2001 47.1357 22.7395 46.8396 22.1856 46.6805H22.1692C22.1692 46.6805 22.1801 46.6531 22.1856 46.6422C24.4943 41.1199 30.2689 37.1935 37.0085 37.1935C37.6666 37.1935 38.3137 37.2373 38.9498 37.3086C38.566 37.9776 38.0121 38.5535 37.3595 38.8222C36.3066 39.2609 33.5208 40.1493 32.3911 40.3631L30.4608 40.7306C29.6656 40.8841 29.1447 41.5915 29.2763 42.3483H29.2708ZM50.5811 45.2931L48.7111 46.8231C47.3676 47.9309 44.845 49.2196 43.1285 49.7022L43.0024 49.7351C42.1798 49.9709 41.2914 49.5705 40.9679 48.8138C40.8911 48.6218 40.8472 48.4244 40.8472 48.2325C40.8472 47.6238 41.2256 47.0589 41.8453 46.8012L43.6879 46.0335C44.9437 45.5125 45.9089 44.5528 46.386 43.3518C46.715 42.5457 47.1976 41.8109 47.8063 41.1857C47.8118 41.1747 47.8227 41.1693 47.8337 41.1583C49.1169 42.266 50.2027 43.5712 51.0363 45.0189C50.8772 45.0847 50.7237 45.1725 50.5866 45.2876L50.5811 45.2931Z" fill="#3C5280"/>
</svg>
