<svg width="72" height="72" viewBox="0 0 72 72" fill="none" xmlns="http://www.w3.org/2000/svg">
<circle cx="36" cy="36" r="36" fill="#F0F0F0"/>
<path d="M52.1579 35.8239C51.9152 35.8239 51.6801 35.6941 51.5564 35.4658C50.4362 33.3993 47.9738 32.4798 45.8282 33.3263C45.4772 33.465 45.0799 33.2926 44.9415 32.9413C44.8028 32.5903 44.9752 32.1929 45.3263 32.0546C48.1142 30.9542 51.3093 32.1404 52.7583 34.8142C52.9382 35.1461 52.8152 35.5612 52.483 35.7411C52.3797 35.797 52.2679 35.8239 52.1579 35.8239Z" fill="#3A3D51"/>
<path d="M44.39 31.182C44.176 31.182 43.9654 31.0818 43.8318 30.8941C43.6133 30.5863 43.6856 30.1593 43.9933 29.9409C45.8741 28.6054 46.4473 26.04 45.3271 23.9735C45.1472 23.6416 45.2702 23.2265 45.6025 23.0466C45.9344 22.8667 46.3491 22.99 46.5294 23.3219C47.9784 25.9954 47.2287 29.3203 44.7853 31.0556C44.6653 31.1411 44.527 31.182 44.39 31.182Z" fill="#3A3D51"/>
<path d="M43.6582 42.0868C43.4067 42.0868 43.1563 42.062 42.9109 42.0115L41.5157 41.7236C41.146 41.6472 40.9081 41.2857 40.9845 40.9159C41.0608 40.5458 41.4224 40.3083 41.7921 40.3843L43.1873 40.6723C43.9278 40.8253 44.7835 40.5935 45.4211 40.0674C46.3845 39.2727 47.6484 38.9401 48.8013 39.1779L49.1042 39.2406C49.474 39.3166 49.7118 39.6785 49.6355 40.0483C49.5592 40.418 49.1973 40.6559 48.8279 40.5796L48.5252 40.5172C47.7844 40.3642 46.9287 40.5963 46.2911 41.1221C45.5329 41.7478 44.5886 42.0868 43.6582 42.0868Z" fill="#3A3D51"/>
<path d="M31.192 50.4206C31.1828 50.4206 31.1739 50.4206 31.1647 50.4199C30.7875 50.4052 30.4934 50.0876 30.5084 49.71C30.569 48.1557 31.4121 46.7674 32.764 45.9969C33.2216 45.7362 33.6084 45.3603 33.8824 44.9105C34.0474 44.6386 34.1694 44.3424 34.2454 44.0316C34.3346 43.665 34.7044 43.44 35.0714 43.5293C35.4384 43.6189 35.6633 43.9887 35.5737 44.3557C35.465 44.8021 35.2892 45.2278 35.051 45.6203C34.6563 46.2688 34.0998 46.8097 33.4411 47.1849C32.5026 47.7199 31.9168 48.684 31.8745 49.7635C31.8602 50.1319 31.5573 50.4206 31.192 50.4206Z" fill="#3A3D51"/>
<path d="M36.3343 50.1798C36.0443 50.1798 35.7751 49.9934 35.6827 49.7024C35.2131 48.2193 35.5359 46.6275 36.5463 45.444C36.8888 45.0436 37.1249 44.559 37.2302 44.0431C37.2929 43.7312 37.3079 43.4113 37.2738 43.0933C37.2336 42.7178 37.5052 42.3811 37.8808 42.3409C38.2563 42.3006 38.593 42.5723 38.6332 42.9478C38.6823 43.4051 38.6612 43.8648 38.5702 44.315C38.4185 45.0589 38.0784 45.7562 37.5857 46.3324C36.8843 47.154 36.6601 48.2595 36.9862 49.2894C37.1004 49.6496 36.901 50.0336 36.5412 50.1478C36.4723 50.1693 36.4028 50.1798 36.3343 50.1798Z" fill="#3A3D51"/>
<path d="M31.5442 31.6167C31.3445 31.6167 31.1465 31.5298 31.0115 31.3622C30.8105 31.1131 30.574 30.8973 30.3082 30.7208C29.8696 30.4308 29.3601 30.2557 28.835 30.2144C27.2834 30.0921 25.9295 29.1948 25.2132 27.814C25.0394 27.479 25.1699 27.0663 25.5052 26.8922C25.8402 26.7187 26.2529 26.8492 26.4267 27.1842C26.9242 28.1432 27.8648 28.7664 28.942 28.8513C29.6972 28.9106 30.4308 29.1628 31.0633 29.5812C31.4467 29.8358 31.7872 30.1459 32.0758 30.5041C32.313 30.7978 32.2666 31.2282 31.9729 31.4654C31.8464 31.5673 31.6945 31.6167 31.5442 31.6167Z" fill="#3A3D51"/>
<path d="M35.1876 29.8077C35.1045 29.8077 35.02 29.7927 34.9382 29.7603C34.5865 29.6223 34.4134 29.2256 34.5514 28.8743L35.0714 27.5483C35.5015 26.452 36.47 25.5745 37.6617 25.201C38.4502 24.954 39.1117 24.3634 39.3877 23.6597L39.5005 23.3717C39.6385 23.0204 40.0345 22.8469 40.3869 22.9849C40.7382 23.123 40.9114 23.5196 40.7737 23.8713L40.6609 24.1589C40.2308 25.2552 39.2623 26.1327 38.0706 26.5062C37.2821 26.7529 36.6206 27.3438 36.3442 28.0476L35.8242 29.3735C35.7186 29.6431 35.4606 29.8077 35.1876 29.8077Z" fill="#3A3D51"/>
<path d="M24.217 34.1267C23.4243 34.1267 22.6341 33.9137 21.9246 33.4901C21.6005 33.2966 21.4945 32.8767 21.6881 32.5527C21.8816 32.2282 22.3018 32.1226 22.6255 32.3162C23.5532 32.8699 24.6808 32.9057 25.6418 32.4109C26.3152 32.064 27.072 31.8933 27.8296 31.9161C28.29 31.9307 28.7425 32.0156 29.176 32.1683C29.5321 32.2937 29.7192 32.6839 29.5942 33.04C29.4687 33.3964 29.0782 33.5835 28.7224 33.4581C28.4205 33.3521 28.106 33.2928 27.787 33.2826C27.2622 33.2659 26.7357 33.3855 26.2678 33.6268C25.6186 33.9604 24.917 34.1267 24.217 34.1267Z" fill="#3A3D51"/>
<path d="M38.5809 43.1519C33.325 46.0012 27.6504 45.84 25.4326 42.9066C25.2949 42.7253 25.1708 42.5327 25.0608 42.3303C24.9504 42.1282 24.8573 41.9193 24.781 41.705C23.5331 38.2457 26.4965 33.4036 31.7523 30.554C37.3329 27.5285 43.3869 27.8959 45.2717 31.3742C47.158 34.8539 44.1625 40.1261 38.5809 43.1519Z" fill="#71C799"/>
<path d="M25.0612 42.3307C23.1754 38.852 26.1715 33.5791 31.7528 30.5537C37.3344 27.5282 43.387 27.8962 45.2725 31.3749C44.5947 30.1243 39.5209 31.5624 33.9396 34.5878C28.3579 37.6132 24.3831 41.08 25.0612 42.3307Z" fill="#33A39D"/>
<path d="M42.7738 40.0046C42.8981 37.8369 42.434 35.5915 41.3125 33.5223C40.1906 31.4531 38.5624 29.8385 36.6782 28.7596C40.5321 28.0139 43.9413 28.9194 45.2727 31.3754C46.6041 33.8314 45.502 37.1826 42.7738 40.0046Z" fill="#65687F"/>
<path d="M36.6782 28.7594C37.996 29.5139 39.1877 30.5311 40.1692 31.7818C42.8883 30.8416 44.8668 30.6272 45.2723 31.3756C45.2696 31.3708 45.2669 31.366 45.2642 31.3613C43.9276 28.9162 40.5246 28.0155 36.6782 28.7594Z" fill="#3A3D51"/>
<path d="M43.0487 33.3578L25.4328 42.9065C25.2951 42.7252 25.1711 42.5327 25.061 42.3302C24.9506 42.1281 24.8576 41.9193 24.7812 41.7049L42.3972 32.1563C42.7298 31.976 43.1445 32.099 43.3241 32.4316C43.5047 32.7635 43.3807 33.1783 43.0487 33.3578Z" fill="#65687F"/>
<path d="M36.3333 14C23.9988 14 14 23.9988 14 36.3333C14 48.6679 23.9988 58.6667 36.3333 58.6667C48.6679 58.6667 58.6667 48.6679 58.6667 36.3333C58.6667 23.9988 48.6679 14 36.3333 14ZM18.0171 36.3333C18.0171 30.1257 21.1059 24.6405 25.8295 21.3278L43.3139 53.2708C41.1622 54.1585 38.8054 54.6492 36.3333 54.6492C26.2176 54.6496 18.0171 46.4491 18.0171 36.3333ZM46.8365 51.3392L29.3525 19.3959C31.5038 18.5082 33.8613 18.0171 36.3333 18.0171C46.4491 18.0171 54.6486 26.2176 54.6486 36.3333C54.6486 42.541 51.5601 48.0265 46.8365 51.3392Z" fill="#FF5A73"/>
</svg>
