<svg width="72" height="72" viewBox="0 0 72 72" fill="none" xmlns="http://www.w3.org/2000/svg">
<circle cx="36" cy="36" r="36" fill="#F0F0F0"/>
<path d="M49 22.007C48.9706 20.9229 48.3002 19.8909 46.9574 19.1159C43.9265 17.366 38.632 17.5855 35.1321 19.6064C33.1927 20.7257 32.2158 22.1637 32.242 23.521L32.2388 23.5213V41.6567H32.2414C32.2663 42.745 32.936 43.7812 34.283 44.5587C37.3142 46.309 42.6087 46.0892 46.1087 44.0686C48.0522 42.9466 49.0298 41.5055 48.9994 40.1456H49.0026V22.0067L49 22.007Z" fill="#B6C5CE"/>
<path d="M46.1091 25.9434C42.6092 27.9643 37.3147 28.1838 34.2835 26.4338C31.2526 24.6839 31.6326 21.6268 35.1326 19.6062C38.6325 17.5856 43.927 17.3658 46.9582 19.1161C49.9891 20.8661 49.6091 23.9228 46.1091 25.9434Z" fill="#D6E5E5"/>
<path d="M44.5208 14.7673C44.5072 14.2607 44.2104 13.7771 43.5827 13.4145C42.1658 12.5965 39.6911 12.6991 38.0554 13.6437C37.1487 14.1668 36.7078 14.8375 36.7198 15.472L36.7026 15.4733V20.1871H36.7043C36.7156 20.696 37.0289 21.1803 37.6585 21.5438C39.0754 22.3618 41.5498 22.2595 43.1858 21.3149C44.0945 20.7902 44.5512 20.1169 44.537 19.4811H44.5386V14.766L44.5208 14.7673Z" fill="#FFB82B"/>
<path d="M43.186 16.6056C41.55 17.5502 39.0752 17.6528 37.6587 16.8348C36.2418 16.0171 36.4195 14.5883 38.0555 13.6437C39.6912 12.6991 42.166 12.5965 43.5828 13.4145C44.9997 14.2325 44.822 15.6614 43.186 16.6056Z" fill="#FFE14D"/>
<path d="M35.7666 29.6113C35.7372 28.5272 35.0668 27.4956 33.7243 26.7206C30.6931 24.9703 25.3986 25.1901 21.899 27.2107C19.9593 28.3301 18.9824 29.768 19.0086 31.1253L19.0054 31.1256V49.261H19.008C19.0329 50.3496 19.7026 51.3855 21.0499 52.1634C24.0811 53.9133 29.3753 53.6938 32.8753 51.6729C34.8188 50.551 35.7964 49.1098 35.766 47.7499H35.7695V29.611L35.7666 29.6113Z" fill="#B6C5CE"/>
<path d="M32.8753 33.5481C29.3753 35.5687 24.0808 35.7882 21.0496 34.0382C18.0187 32.2882 18.3987 29.2315 21.8987 27.2106C25.3989 25.19 30.6931 24.9705 33.7243 26.7205C36.7555 28.4704 36.3752 31.5272 32.8753 33.5481Z" fill="#D6E5E5"/>
<path d="M31.2871 22.372C31.2735 21.8651 30.9767 21.3814 30.349 21.0189C28.9324 20.2009 26.4577 20.3038 24.8217 21.2484C23.9153 21.7715 23.4741 22.4422 23.4864 23.0764L23.4692 23.078V27.7918H23.4705C23.4822 28.3007 23.7952 28.7849 24.4248 29.1485C25.8417 29.9662 28.3161 29.8642 29.9521 28.9193C30.8608 28.3949 31.3175 27.7212 31.3033 27.0855H31.3049V22.3707L31.2871 22.372Z" fill="#2B5D99"/>
<path d="M29.9521 24.2101C28.3164 25.1547 25.8417 25.2573 24.4248 24.4393C23.0079 23.6213 23.1856 22.1925 24.8216 21.2482C26.4577 20.3036 28.9324 20.201 30.349 21.019C31.7658 21.8367 31.5881 23.2656 29.9521 24.2101Z" fill="#2C92BF"/>
<path d="M34.2551 36.1064C33.868 36.4548 33.4096 36.7875 32.8755 37.096C29.5798 38.9988 24.6938 39.304 21.604 37.8719V47.9299C24.6938 49.3616 29.5798 49.0564 32.8755 47.1539C33.4096 46.8454 33.868 46.5123 34.2551 46.1644V36.1064Z" fill="#2B5D99"/>
<path d="M31.8196 40.301C29.99 39.7494 27.9248 40.1598 26.4309 41.5615C24.937 42.9628 24.3954 44.9976 24.8288 46.8586C26.6588 47.4099 28.7237 46.9994 30.2176 45.5981C31.7118 44.1968 32.2534 42.162 31.8196 40.301Z" fill="#2C92BF"/>
<path d="M51.9961 31.5578C51.9666 30.4737 51.2962 29.4417 49.9535 28.6667C46.9226 26.9168 41.6281 27.1362 38.1282 29.1571C36.1888 30.2765 35.2119 31.7144 35.2378 33.0717L35.2349 33.0721V51.2074H35.2375C35.2624 52.2957 35.9321 53.3319 37.2791 54.1095C40.3103 55.8598 45.6048 55.64 49.1047 53.6194C51.0483 52.4971 52.0256 51.0563 51.9955 49.6964H51.9987V31.5574L51.9961 31.5578Z" fill="#B1CEC8"/>
<path d="M49.1044 35.4942C45.6041 37.5151 40.3099 37.7346 37.2787 35.9846C34.2475 34.2347 34.6279 31.1776 38.1278 29.157C41.6277 27.1364 46.9223 26.9166 49.9535 28.6669C52.9843 30.4169 52.6043 33.4736 49.1044 35.4942Z" fill="#D6E5E5"/>
<path d="M47.5164 24.3181C47.5025 23.8115 47.2057 23.3279 46.5783 22.9653C45.1615 22.1473 42.6867 22.2499 41.051 23.1945C40.1443 23.7176 39.7031 24.3883 39.7154 25.0228L39.6982 25.0241V29.7379H39.6995C39.7112 30.2468 40.0242 30.731 40.6541 31.0946C42.0707 31.9126 44.5454 31.8103 46.1815 30.8657C47.0898 30.341 47.5468 29.6677 47.5326 29.0319H47.5342V24.3168L47.5164 24.3181Z" fill="#5B9617"/>
<path d="M46.1821 26.1564C44.5461 27.101 42.0713 27.2036 40.6548 26.3856C39.2379 25.5679 39.4156 24.1391 41.0516 23.1945C42.6873 22.2499 45.1621 22.1473 46.5789 22.9653C47.9958 23.7833 47.8181 25.2122 46.1821 26.1564Z" fill="#A2BF26"/>
<path d="M50.4846 38.0527C50.0975 38.4007 49.6391 38.7338 49.105 39.042C45.8093 40.9447 40.9233 41.25 37.8335 39.8182V49.8758C40.9233 51.3079 45.8093 51.0026 49.105 49.0999C49.6391 48.7917 50.0975 48.4586 50.4846 48.1103V38.0527Z" fill="#5B9617"/>
<path d="M48.0491 42.2471C46.2195 41.6958 44.1543 42.1062 42.6604 43.5076C41.1665 44.9089 40.6249 46.9437 41.0583 48.805C42.8879 49.3563 44.9532 48.9459 46.4471 47.5442C47.941 46.1429 48.4826 44.108 48.0491 42.2471Z" fill="#A2BF26"/>
</svg>
