<svg width="72" height="72" viewBox="0 0 72 72" fill="none" xmlns="http://www.w3.org/2000/svg">
<circle cx="36" cy="36" r="36" fill="#F0F0F0"/>
<path d="M55.4803 53.9801H20.2936L18.4893 50.1889L19.4556 45.9095L36.9998 44.9541L55.9998 46.6823V53.4605C55.9998 53.7475 55.7672 53.9801 55.4803 53.9801Z" fill="#D98F61"/>
<path d="M38.1469 45.0584L37 44.9541L18 46.6823V53.4605C18 53.7475 18.2326 53.9801 18.5195 53.9801H20.2938V46.6823L38.1469 45.0584Z" fill="#D37F50"/>
<path d="M56.0002 33.792L37.0002 35.5513L19.0576 34.5772L18.8604 32.7854C18.8604 32.4985 20.2939 31.417 20.2939 31.417H55.4806C55.7676 31.417 56.0002 31.6496 56.0002 31.9365V33.792Z" fill="#B2E59F"/>
<path d="M20.2938 33.792V31.417H18.5195C18.2326 31.417 18 31.6496 18 31.9365V33.792L37 35.5513L38.1469 35.4451L20.2938 33.792Z" fill="#95D6A4"/>
<path d="M20.2938 46.6822L18.7256 39.1543L19.9376 35.99L36.9999 35.5518L54.1238 35.99L56 37.1775V46.6822H20.2938Z" fill="#BD6629"/>
<path d="M22.2314 35.9307L19.9376 35.9896L18 37.1774V46.6818H20.2938V37.1774L22.2314 35.9307Z" fill="#A45924"/>
<path d="M18.6719 36.4692L20.2938 37.8397C20.6379 37.9681 21.1343 38.0946 21.7445 38.0946C23.6445 38.0946 23.6445 37.1771 25.5445 37.1771C27.4444 37.1771 27.4444 38.0946 29.3443 38.0946C31.2443 38.0946 31.2443 37.1771 33.1443 37.1771C35.0442 37.1771 35.0442 38.0946 36.9441 38.0946C38.844 38.0946 38.844 37.1771 40.7439 37.1771C42.6439 37.1771 42.6439 38.0946 44.5439 38.0946C46.4439 38.0946 46.4439 37.1771 48.3439 37.1771C50.2441 37.1771 50.2441 38.0946 52.1443 38.0946C54.0445 38.0946 54.0445 37.1771 55.9448 37.1771H56V33.792H20.2938L18.6719 36.4692Z" fill="#D98F61"/>
<path d="M20.2938 33.792H18V37.1773C19.1573 37.1884 19.5959 37.5465 20.2266 37.812L20.2938 37.8397V33.792Z" fill="#D37F50"/>
<path d="M25.125 51.6045C25.7808 51.6045 26.3125 51.0728 26.3125 50.417C26.3125 49.7612 25.7808 49.2295 25.125 49.2295C24.4692 49.2295 23.9375 49.7612 23.9375 50.417C23.9375 51.0728 24.4692 51.6045 25.125 51.6045Z" fill="#F3CBB1"/>
<path d="M42.9375 51.6045C43.5933 51.6045 44.125 51.0728 44.125 50.417C44.125 49.7612 43.5933 49.2295 42.9375 49.2295C42.2817 49.2295 41.75 49.7612 41.75 50.417C41.75 51.0728 42.2817 51.6045 42.9375 51.6045Z" fill="#F3CBB1"/>
<path d="M43.7018 27.0025C43.5712 27.0376 43.4084 27.0749 43.2819 27.1012C43.2819 27.1012 39.7128 27.2255 38.9154 24.3733C38.289 22.1332 39.2275 20.4077 41.4019 19.5815C43.351 18.8409 45.8541 18.0379 47.1396 18.046C47.6602 18.0492 47.9669 18.046 47.9669 18.046C49.015 18.1321 49.8856 18.3245 50.51 18.5084C50.9227 18.63 51.0192 19.1774 50.6681 19.4261C48.2681 21.1254 47.5505 25.9676 43.7018 27.0025Z" fill="#95D6A4"/>
<path d="M40.6405 24.532C39.9634 22.1068 41.5215 19.7519 43.8978 18.9197C45.3789 18.4012 46.747 18.1423 47.9667 18.0459C46.2812 17.909 44.1034 18.0446 41.604 18.9197C39.2276 19.7519 37.6696 22.1068 38.3467 24.532C38.9728 26.775 41.0378 27.5564 43.2818 27.1011C42.0322 26.8041 41.0413 25.9679 40.6405 24.532Z" fill="#85C691"/>
<path d="M29.7822 28.2461C30.7777 28.7035 32.4796 28.7395 32.4796 28.7395C33.7322 28.4387 34.7285 27.5912 35.1238 26.1374C35.7339 23.8927 34.4908 21.5596 32.3197 20.7245C30.6516 20.0828 29.1029 19.7736 27.7515 19.6653C27.7515 19.6653 27.5381 19.6579 27.2132 19.6788C26.2506 19.7409 24.2418 20.1006 23.4656 20.3257C23.0525 20.4456 22.9158 20.7919 23.2659 21.0419C25.6591 22.7512 26.1607 26.5822 29.7822 28.2461Z" fill="#95D6A4"/>
<path d="M32.0392 28.6352C28.4899 27.6653 27.6226 23.4611 25.6272 21.4763C25.1024 20.9542 25.3798 20.0574 26.104 19.9043C26.5798 19.8038 27.132 19.7165 27.7517 19.666C25.6553 19.5001 24.0008 19.8153 22.9736 20.113C22.5596 20.2329 22.4594 20.7799 22.8101 21.0304C25.2031 22.7397 25.901 27.5846 29.7453 28.6352C30.7066 28.8979 31.6502 28.9383 32.4797 28.7402C32.3335 28.7105 32.1866 28.6755 32.0392 28.6352Z" fill="#85C691"/>
<path d="M20.3679 51.0322C20.1572 51.0322 19.9465 51.1426 19.8459 51.3855C19.8154 51.4579 19.8013 51.5319 19.8013 51.6043C19.8013 51.906 20.0472 52.1784 20.3759 52.1784C20.6902 52.1784 20.9493 51.9206 20.9493 51.605C20.9492 51.2426 20.6586 51.0322 20.3679 51.0322Z" fill="#F3CBB1"/>
<path d="M31.0627 48.6562C30.742 48.6562 30.4893 48.9204 30.4893 49.2297C30.4893 49.5387 30.7403 49.8031 31.0627 49.8031C31.3851 49.8031 31.6368 49.5406 31.6368 49.2297C31.6369 48.9199 31.384 48.6562 31.0627 48.6562Z" fill="#F3CBB1"/>
<path d="M37.3186 50.3893C36.9034 50.109 36.3355 50.474 36.4386 50.9788C36.4965 51.282 36.7996 51.4924 37.1129 51.4284C37.3736 51.3786 37.5741 51.1422 37.5741 50.8683C37.5741 50.6756 37.415 50.455 37.3186 50.3893Z" fill="#F3CBB1"/>
<path d="M48.8753 51.0312C48.5564 51.0312 48.3018 51.2915 48.3018 51.6049C48.3018 51.9197 48.56 52.1783 48.8752 52.1783C49.1812 52.1783 49.4486 51.9298 49.4486 51.6049C49.4487 51.2895 49.1936 51.0312 48.8753 51.0312Z" fill="#F3CBB1"/>
<path d="M53.6253 49.3242C53.3064 49.3242 53.0522 49.584 53.0522 49.8976C53.0522 50.2125 53.3071 50.471 53.6257 50.471C53.9405 50.471 54.1991 50.213 54.1991 49.8976C54.1991 49.5895 53.9487 49.3242 53.6253 49.3242Z" fill="#F3CBB1"/>
<path d="M43.9677 22.0959C43.8914 21.7676 43.5655 21.5811 43.2422 21.6762C39.9094 22.6565 38.284 24.9777 37.4551 27.0388C37.3174 27.3814 36.8751 27.4721 36.6114 27.2135C35.4675 26.0923 34.1185 25.1898 32.6341 24.5633L29.9631 23.4359C29.8913 23.4055 29.8166 23.3914 29.7431 23.3914C29.4454 23.3914 29.1665 23.6246 29.1665 23.964C29.1665 24.1876 29.2981 24.4001 29.5171 24.4925L32.1881 25.62C33.9286 26.3546 35.4649 27.5055 36.6606 28.963C36.759 29.083 36.7945 29.2417 36.764 29.3939C36.5308 30.5561 36.4131 31.8299 36.4131 33.209V39.8218C36.4131 40.0486 36.2661 40.2491 36.0499 40.3173L33.1204 41.2414C32.9868 41.2836 32.8413 41.2697 32.7179 41.2034C30.6258 40.0797 30.6754 40.0263 30.4237 40.0263C30.0663 40.0263 29.8501 40.3161 29.8501 40.608C29.8501 40.7988 29.9425 40.9906 30.148 41.1029L31.6587 41.9292C31.9024 42.0625 31.9979 42.3642 31.8759 42.6136C31.0801 44.2418 31.0366 44.2204 31.0366 44.4382C31.0366 44.7983 31.3264 45.0114 31.6177 45.0114C31.8164 45.0114 32.0158 44.9122 32.1243 44.6927L33.1586 42.5996C33.2213 42.4727 33.3331 42.3769 33.4681 42.3343L35.7374 41.6184C36.0722 41.5128 36.4132 41.7628 36.4132 42.1139V43.0911C36.4132 43.4051 36.6552 43.6789 36.969 43.6883C37.2938 43.6981 37.5601 43.4377 37.5601 43.1151V42.1286C37.5601 41.7776 37.9012 41.5275 38.236 41.6331L40.4587 42.3344C40.5937 42.377 40.7054 42.4728 40.7682 42.5997L41.8024 44.6927C41.9024 44.895 42.1057 45.0122 42.317 45.0122C42.6507 45.0122 42.8903 44.7377 42.8903 44.4376C42.8903 44.3535 42.8714 44.2673 42.8306 44.1847L42.0544 42.6137C41.931 42.364 42.0265 42.0615 42.2709 41.9278L43.7788 41.1031C43.9839 40.9909 44.0761 40.7991 44.0761 40.6082C44.0761 40.3163 43.8604 40.0264 43.5031 40.0264C43.2517 40.0264 43.3016 40.0794 41.2089 41.2036C41.0855 41.2698 40.94 41.2837 40.8064 41.2416L37.9235 40.3322C37.7073 40.264 37.5603 40.0634 37.5603 39.8367V33.2092C37.5603 26.2884 40.5652 23.6653 43.5702 22.7762C43.8617 22.6895 44.0365 22.3924 43.9677 22.0959Z" fill="#A45924"/>
</svg>
