<svg width="72" height="72" viewBox="0 0 72 72" fill="none" xmlns="http://www.w3.org/2000/svg">
<circle cx="36" cy="36" r="36" fill="#F0F0F0"/>
<path d="M49.9998 41.2981C49.9998 49.0758 43.6958 55.298 35.9999 55.298C28.304 55.298 22 49.0758 22 41.2981C22 33.5204 35.9999 16 35.9999 16C35.9999 16 49.9998 33.6022 49.9998 41.2981Z" fill="#84DBFF"/>
<path d="M35.9998 51.6141C30.3507 51.6141 25.6841 47.0294 25.6841 41.2984C25.6841 40.6434 26.2572 40.0703 26.9121 40.0703C27.5671 40.0703 28.1402 40.6434 28.1402 41.2984C28.1402 45.6375 31.6607 49.158 35.9998 49.158C36.6547 49.158 37.2279 49.7311 37.2279 50.386C37.2279 51.041 36.6547 51.6141 35.9998 51.6141Z" fill="white"/>
</svg>
