<svg width="72" height="72" viewBox="0 0 72 72" fill="none" xmlns="http://www.w3.org/2000/svg">
<circle cx="36" cy="36" r="36" fill="#F0F0F0"/>
<path d="M26.7854 21.6248V21.6423H23.8748C22.3167 21.6423 20.8224 21.0234 19.7207 19.9217C18.619 18.8199 18 17.3257 18 15.7676V15.75H20.9107C22.4688 15.75 23.963 16.369 25.0647 17.4707C26.1665 18.5724 26.7854 20.0667 26.7854 21.6248Z" fill="#8BC932"/>
<path d="M25.4816 21.6426H23.8745C22.3165 21.6426 20.8224 21.0236 19.7207 19.922C18.619 18.8203 18.0001 17.3262 18 15.7682V15.75H19.6072V15.7682C19.6073 17.3262 20.2262 18.8203 21.3279 19.922C22.4295 21.0236 23.9236 21.6425 25.4816 21.6426Z" fill="#80B524"/>
<path d="M28.8684 15.75C28.7086 15.7493 28.5516 15.7925 28.4146 15.875C28.2776 15.9575 28.166 16.0761 28.0919 16.2177C27.1938 17.9602 26.7253 19.8921 26.7253 21.8523V25.4825H29.361V21.8523C29.3609 20.1731 29.7048 18.5117 30.3713 16.9705C30.4281 16.837 30.4509 16.6914 30.4377 16.5469C30.4244 16.4024 30.3755 16.2634 30.2954 16.1425C30.2152 16.0215 30.1062 15.9223 29.9783 15.8538C29.8504 15.7853 29.7074 15.7497 29.5623 15.75H28.8684Z" fill="#9E653B"/>
<path d="M38.2063 39.2728C38.2063 33.8874 35.0564 28.7743 32.3534 25.378C31.8705 24.77 31.5245 24.0649 31.3389 23.3109C31.2435 22.9321 31.0242 22.5962 30.7158 22.3565C30.4074 22.1168 30.0276 21.9872 29.637 21.9883H26.5693C26.1787 21.9872 25.799 22.1168 25.4906 22.3565C25.1822 22.5962 24.9628 22.9321 24.8674 23.3109C24.6819 24.0649 24.3359 24.77 23.853 25.378C21.1499 28.7742 18 33.887 18 39.2728C18 47.1402 22.1085 52.4443 25.6521 53.989C25.7989 54.2947 25.946 54.5952 26.0618 54.8169C27.0589 56.7293 29.1481 56.7293 30.1453 54.8169C30.287 54.5452 30.4274 54.266 30.5655 53.9845C34.1061 52.4338 38.2063 47.132 38.2063 39.2728Z" fill="#C1773D"/>
<path d="M33.8136 39.2728C33.8136 33.8874 32.0332 28.7743 30.5053 25.378C30.2183 24.7193 30.0253 24.0234 29.932 23.3109C29.823 22.5314 29.4239 21.9883 28.97 21.9883H27.2361C26.7822 21.9883 26.3832 22.5314 26.2741 23.3109C26.1809 24.0234 25.9879 24.7193 25.7008 25.378C24.1729 28.7742 22.3926 33.887 22.3926 39.2728C22.3926 47.1402 26.8836 54.5945 26.949 54.8169C27.5127 56.7293 28.6935 56.7293 29.2571 54.8169C29.3372 54.5451 33.8136 47.132 33.8136 39.2728Z" fill="#9E653B"/>
<path d="M30.739 39.2728C30.739 33.8874 29.9173 28.7743 29.2121 25.378C29.0766 24.6959 28.9882 24.0052 28.9475 23.3109C28.8972 22.5314 28.713 21.9883 28.5036 21.9883H27.7032C27.4938 21.9883 27.3095 22.5314 27.2593 23.3109C27.2186 24.0052 27.1302 24.6959 26.9947 25.378C26.2895 28.7742 25.4678 33.887 25.4678 39.2728C25.4678 47.1402 27.5406 54.5945 27.5707 54.8169C27.8309 56.7293 28.3759 56.7293 28.636 54.8169C28.673 54.5451 30.739 47.132 30.739 39.2728Z" fill="#C1773D"/>
<path d="M19.7571 39.2721C19.7571 33.8867 24.3378 24.7683 23.8528 25.3772C21.1496 28.7736 18 33.8867 18 39.2721C18 47.1394 22.108 52.444 25.6521 53.9885C25.7988 54.2942 19.7571 47.1394 19.7571 39.2721Z" fill="#AA6F3D"/>
<path d="M51.8213 50.653C55.6296 46.8446 57.0176 41.002 57.5077 36.6891C57.5963 35.9178 57.8502 35.1747 58.2521 34.5104C58.4525 34.1751 58.5349 33.7824 58.4863 33.3949C58.4377 33.0073 58.2608 32.6472 57.9839 32.3718L55.8147 30.2021C55.5393 29.9251 55.1791 29.7482 54.7916 29.6996C54.404 29.651 54.0113 29.7335 53.676 29.9339C53.0118 30.3358 52.2686 30.5897 51.4973 30.6783C47.1843 31.1685 41.3416 32.5566 37.5333 36.3649C31.9702 41.928 31.1247 48.5837 32.5379 52.1814C32.4255 52.5014 32.3173 52.8178 32.2422 53.0566C31.595 55.114 33.0723 56.5913 35.1298 55.9439C35.4221 55.8521 35.7188 55.7538 36.0155 55.6525C39.6158 57.0599 46.2637 56.2105 51.8213 50.653Z" fill="#F19B40"/>
<path d="M54.8892 36.3923C54.9718 35.6724 55.1515 34.967 55.4234 34.2954C55.488 34.1356 55.5042 33.9604 55.4699 33.7915C55.4356 33.6226 55.3524 33.4676 55.2306 33.3457L54.841 32.956C54.7191 32.8343 54.564 32.751 54.3951 32.7168C54.2263 32.6825 54.051 32.6987 53.8913 32.7633C53.2196 33.0352 52.5142 33.2149 51.7943 33.2974C44.8329 34.0889 41.21 36.4162 39.3972 38.2287C34.5255 43.1004 34.7673 49.0478 35.1481 51.569C35.2041 51.9387 35.377 52.2808 35.6414 52.5452C35.9058 52.8096 36.2479 52.9825 36.6177 53.0384C39.1391 53.4195 45.0862 53.6611 49.9579 48.7895C51.771 46.9767 54.0977 43.354 54.8892 36.3923Z" fill="#AA6F3D"/>
<path d="M49.9415 40.7291L47.4567 38.2443C47.1136 37.9012 46.5573 37.9012 46.2142 38.2443L44.9718 39.4867C44.6287 39.8298 44.6287 40.3861 44.9718 40.7291L47.4567 43.214C47.7998 43.5571 48.356 43.5571 48.6991 43.214L49.9415 41.9716C50.2846 41.6285 50.2846 41.0722 49.9415 40.7291Z" fill="#F3EADE"/>
<path d="M48.5173 43.3534C48.35 43.4504 48.1553 43.4893 47.9635 43.4642C47.7718 43.4391 47.5937 43.3513 47.4569 43.2145L44.9716 40.7291C44.807 40.5643 44.7146 40.341 44.7146 40.1081C44.7146 39.8752 44.807 39.6518 44.9716 39.487L46.2147 38.2447C46.3512 38.1077 46.5293 38.0196 46.7211 37.9943C46.9129 37.9691 47.1077 38.0079 47.2751 38.105C47.2083 38.1429 47.1471 38.1899 47.0932 38.2447L46.4712 38.8658C46.1418 39.1953 45.9567 39.6421 45.9567 40.1081C45.9567 40.574 46.1418 41.0209 46.4712 41.3504L48.3355 43.2145C48.3896 43.2688 48.4508 43.3155 48.5173 43.3534Z" fill="#F1DDC8"/>
<path d="M46.2145 46.9415L48.0781 48.8052C48.2429 48.9699 48.3355 49.1934 48.3355 49.4264C48.3355 49.6594 48.2429 49.8829 48.0781 50.0476L47.4569 50.6688C47.1274 50.9984 46.6805 51.1835 46.2145 51.1835C45.7485 51.1835 45.3016 50.9984 44.972 50.6688L43.7296 49.4264C43.5648 49.2617 43.4723 49.0382 43.4723 48.8052C43.4723 48.5722 43.5648 48.3487 43.7296 48.184L44.972 46.9415C45.1368 46.7768 45.3603 46.6842 45.5933 46.6842C45.8263 46.6842 46.0497 46.7768 46.2145 46.9415Z" fill="#F3EADE"/>
<path d="M44.3507 50.0475L43.7295 49.4262C43.5647 49.2615 43.4722 49.038 43.4722 48.805C43.4722 48.572 43.5647 48.3486 43.7295 48.1838L44.9719 46.9414C45.1367 46.7766 45.3601 46.6841 45.5931 46.6841C45.8261 46.6841 46.0496 46.7766 46.2143 46.9414L44.3507 48.805C44.1859 48.9698 44.0934 49.1932 44.0934 49.4262C44.0934 49.6592 44.1859 49.8827 44.3507 50.0475Z" fill="#F1DDC8"/>
<path d="M38.7599 44.4569L37.5174 43.2145C37.1879 42.885 37.0028 42.438 37.0028 41.972C37.0028 41.506 37.1879 41.0591 37.5174 40.7296L38.1387 40.1084C38.3034 39.9436 38.5269 39.8511 38.7599 39.8511C38.9929 39.8511 39.2163 39.9436 39.3811 40.1084L41.2448 41.972C41.4095 42.1368 41.5021 42.3602 41.5021 42.5932C41.5021 42.8263 41.4095 43.0497 41.2448 43.2145L40.0023 44.4569C39.8376 44.6217 39.6141 44.7142 39.3811 44.7142C39.1481 44.7142 38.9246 44.6217 38.7599 44.4569Z" fill="#F3EADE"/>
<path d="M38.1386 43.8356L37.5174 43.2144C37.3542 43.0512 37.2248 42.8575 37.1364 42.6444C37.0481 42.4312 37.0027 42.2027 37.0027 41.9719C37.0027 41.7412 37.0481 41.5127 37.1364 41.2995C37.2248 41.0863 37.3542 40.8926 37.5174 40.7295L38.1386 40.1082C38.3034 39.9436 38.5268 39.8511 38.7598 39.8511C38.9928 39.8511 39.2163 39.9436 39.3811 40.1082L40.0023 40.7295C39.8375 40.5647 39.6141 40.4721 39.3811 40.4721C39.1481 40.4721 38.9246 40.5647 38.7599 40.7295L38.1386 41.3507C37.9754 41.5138 37.846 41.7075 37.7577 41.9207C37.6693 42.1339 37.6239 42.3624 37.6239 42.5931C37.6239 42.8239 37.6693 43.0524 37.7577 43.2656C37.846 43.4788 37.9754 43.6725 38.1386 43.8356Z" fill="#F1DDC8"/>
<path d="M37.5175 48.1837L40.0023 50.6686C40.1671 50.8334 40.2597 51.0568 40.2597 51.2898C40.2597 51.5228 40.1671 51.7463 40.0023 51.911L39.3811 52.5323C39.0516 52.8618 38.6047 53.0469 38.1387 53.0469C37.6727 53.0469 37.2258 52.8618 36.8962 52.5323L35.6538 51.2898C35.3243 50.9603 35.1392 50.5134 35.1392 50.0474C35.1392 49.5814 35.3243 49.1345 35.6538 48.8049L36.275 48.1837C36.4398 48.019 36.6632 47.9264 36.8962 47.9264C37.1292 47.9264 37.3527 48.019 37.5175 48.1837Z" fill="#F3EADE"/>
<path d="M38.5776 52.9919C38.2816 53.0682 37.9707 53.066 37.6758 52.9854C37.3809 52.9049 37.1122 52.7487 36.8961 52.5325L35.6538 51.2902C35.3244 50.9607 35.1394 50.5139 35.1394 50.048C35.1394 49.5821 35.3244 49.1353 35.6538 48.8058L36.2749 48.1846C36.4115 48.0476 36.5895 47.9596 36.7813 47.9343C36.9731 47.909 37.1679 47.9479 37.3353 48.0449C37.2685 48.0828 37.2073 48.1298 37.1535 48.1846L36.5323 48.8058C36.203 49.1353 36.0179 49.5821 36.0179 50.048C36.0179 50.5139 36.203 50.9607 36.5323 51.2902L37.7746 52.5325C37.9959 52.7553 38.2734 52.914 38.5776 52.9919Z" fill="#F1DDC8"/>
<path d="M49.3204 46.3199L48.078 47.5624C47.7349 47.9055 47.7349 48.4617 48.078 48.8048L48.2644 48.9912C48.6075 49.3343 49.1637 49.3343 49.5068 48.9912L50.7492 47.7487C51.0923 47.4057 51.0923 46.8494 50.7492 46.5063L50.5629 46.3199C50.2198 45.9768 49.6635 45.9768 49.3204 46.3199Z" fill="#F3EADE"/>
<path d="M48.521 49.1698C48.4255 49.1263 48.3386 49.0659 48.2645 48.9916L48.0781 48.8052C47.9134 48.6404 47.8208 48.4169 47.8208 48.1839C47.8208 47.9509 47.9134 47.7275 48.0781 47.5627L49.3205 46.3203C49.4853 46.1555 49.7088 46.063 49.9418 46.063C50.1748 46.063 50.3982 46.1555 50.563 46.3203L50.7493 46.5066C50.8237 46.5807 50.8841 46.6677 50.9276 46.7633C50.7647 46.6892 50.583 46.6665 50.4069 46.6984C50.2307 46.7302 50.0684 46.815 49.9418 46.9415L48.6993 48.1839C48.5728 48.3106 48.488 48.4729 48.4561 48.649C48.4243 48.8252 48.4469 49.0069 48.521 49.1698Z" fill="#F1DDC8"/>
<path d="M40.4371 37.4371L39.1947 38.6796C38.8516 39.0227 38.8516 39.5789 39.1947 39.922L39.3811 40.1084C39.7242 40.4515 40.2804 40.4515 40.6235 40.1084L41.8659 38.8659C42.209 38.5228 42.209 37.9666 41.8659 37.6235L41.6796 37.4371C41.3365 37.094 40.7802 37.094 40.4371 37.4371Z" fill="#F3EADE"/>
<path d="M39.6378 40.2859C39.5422 40.2424 39.4553 40.182 39.3812 40.1076L39.1948 39.9212C39.0301 39.7565 38.9375 39.533 38.9375 39.3C38.9375 39.067 39.0301 38.8436 39.1948 38.6788L40.4372 37.4364C40.6021 37.2717 40.8255 37.1792 41.0585 37.1792C41.2915 37.1792 41.5149 37.2717 41.6798 37.4364L41.8661 37.6227C41.9405 37.6968 42.0009 37.7837 42.0443 37.8792C41.8814 37.8051 41.6997 37.7825 41.5236 37.8144C41.3474 37.8462 41.1852 37.9311 41.0585 38.0576L39.816 39.3C39.6896 39.4267 39.6047 39.589 39.5729 39.7651C39.541 39.9413 39.5637 40.1229 39.6378 40.2859Z" fill="#F1DDC8"/>
<path d="M41.8658 47.5626L44.5992 50.296C44.764 50.4607 44.8565 50.6842 44.8565 50.9172C44.8565 51.1502 44.764 51.3737 44.5992 51.5384L43.978 52.1596C43.8148 52.3228 43.6211 52.4522 43.408 52.5405C43.1948 52.6288 42.9663 52.6743 42.7356 52.6743C42.5048 52.6743 42.2763 52.6288 42.0632 52.5405C41.85 52.4522 41.6563 52.3228 41.4931 52.1596L39.381 50.0475C39.2162 49.8827 39.1237 49.6593 39.1237 49.4263C39.1237 49.1933 39.2162 48.9698 39.381 48.8051L40.6234 47.5626C40.7882 47.3979 41.0116 47.3053 41.2446 47.3053C41.4776 47.3053 41.7011 47.3979 41.8658 47.5626Z" fill="#F3EADE"/>
<path d="M43.1752 52.6196C42.8791 52.6959 42.5683 52.6937 42.2734 52.6131C41.9785 52.5325 41.7097 52.3764 41.4936 52.1601L39.3808 50.0481C39.2162 49.8833 39.1238 49.6599 39.1238 49.427C39.1238 49.1941 39.2162 48.9707 39.3808 48.8059L40.6239 47.5627C40.7606 47.426 40.9387 47.3382 41.1305 47.3131C41.3223 47.288 41.5169 47.327 41.6843 47.4239C41.6177 47.4618 41.5565 47.5085 41.5024 47.5627L40.8804 48.1847C40.551 48.5142 40.366 48.9611 40.366 49.427C40.366 49.8929 40.551 50.3398 40.8804 50.6693L42.3722 52.1601C42.5936 52.3827 42.871 52.5414 43.1752 52.6196Z" fill="#F1DDC8"/>
<path d="M38.1388 48.8051L36.0266 46.6929C35.6971 46.3634 35.512 45.9165 35.512 45.4505C35.512 44.9845 35.6971 44.5375 36.0266 44.208L36.6479 43.5868C36.8126 43.4221 37.0361 43.3295 37.2691 43.3295C37.5021 43.3295 37.7255 43.4221 37.8903 43.5868L40.6237 46.3202C40.7884 46.4849 40.881 46.7084 40.881 46.9414C40.881 47.1744 40.7884 47.3979 40.6237 47.5626L39.3812 48.8051C39.2165 48.9698 38.993 49.0624 38.76 49.0624C38.527 49.0624 38.3035 48.9698 38.1388 48.8051Z" fill="#F3EADE"/>
<path d="M39.199 48.944C39.0316 49.0409 38.8369 49.0798 38.6452 49.0547C38.4534 49.0296 38.2753 48.9419 38.1386 48.8052L36.0266 46.6932C35.6971 46.3636 35.512 45.9166 35.512 45.4505C35.512 44.9845 35.6971 44.5375 36.0266 44.2078L36.6477 43.5867C36.7842 43.4496 36.9624 43.3616 37.1542 43.3365C37.3461 43.3114 37.5408 43.3506 37.7081 43.4479C37.6415 43.4858 37.5803 43.5325 37.5262 43.5867L36.9051 44.2078C36.5756 44.5375 36.3905 44.9845 36.3905 45.4505C36.3905 45.9166 36.5756 46.3636 36.9051 46.6932L39.0171 48.8052C39.0712 48.8594 39.1324 48.9061 39.199 48.944Z" fill="#F1DDC8"/>
<path d="M51.1842 41.9723L52.1782 42.9662C52.5077 43.2958 52.6928 43.7427 52.6928 44.2087C52.6928 44.6747 52.5077 45.1216 52.1782 45.4511L51.5569 46.0723C51.3922 46.2371 51.1687 46.3297 50.9357 46.3297C50.7027 46.3297 50.4793 46.2371 50.3145 46.0723L48.6993 44.4572C48.5346 44.2924 48.442 44.069 48.442 43.836C48.442 43.6029 48.5346 43.3795 48.6993 43.2147L49.9418 41.9723C50.1065 41.8075 50.33 41.715 50.563 41.715C50.796 41.715 51.0194 41.8075 51.1842 41.9723Z" fill="#F3EADE"/>
<path d="M51.3744 46.2109C51.207 46.3077 51.0122 46.3465 50.8205 46.3212C50.6287 46.2959 50.4507 46.208 50.314 46.0711L48.6993 44.4564C48.6176 44.3749 48.5528 44.2781 48.5086 44.1715C48.4644 44.0649 48.4417 43.9507 48.4417 43.8353C48.4417 43.7199 48.4644 43.6056 48.5086 43.499C48.5528 43.3925 48.6176 43.2956 48.6993 43.2141L49.9415 41.9719C50.0781 41.8349 50.2562 41.7469 50.4481 41.7218C50.6399 41.6966 50.8347 41.7358 51.0019 41.8331C50.9353 41.871 50.8742 41.9177 50.8201 41.9719L49.5778 43.2141C49.4962 43.2956 49.4314 43.3925 49.3871 43.499C49.3429 43.6056 49.3202 43.7199 49.3202 43.8353C49.3202 43.9507 49.3429 44.0649 49.3871 44.1715C49.4314 44.2781 49.4962 44.3749 49.5778 44.4564L51.1926 46.0711C51.2469 46.1254 51.308 46.1723 51.3744 46.2109Z" fill="#F1DDC8"/>
<path d="M43.7294 39.4872L42.1142 37.872C41.9494 37.7073 41.8569 37.4838 41.8569 37.2508C41.8569 37.0178 41.9494 36.7943 42.1142 36.6296L42.7354 36.0084C43.0649 35.6788 43.5118 35.4937 43.9779 35.4937C44.4439 35.4937 44.8908 35.6788 45.2203 36.0084L46.2142 37.0023C46.379 37.1671 46.4716 37.3905 46.4716 37.6235C46.4716 37.8565 46.379 38.08 46.2142 38.2447L44.9718 39.4872C44.807 39.6519 44.5836 39.7445 44.3506 39.7445C44.1176 39.7445 43.8941 39.6519 43.7294 39.4872Z" fill="#F3EADE"/>
<path d="M42.7356 38.4933L42.1144 37.872C41.9497 37.7072 41.8572 37.4838 41.8572 37.2508C41.8572 37.0178 41.9497 36.7944 42.1144 36.6295L42.7356 36.0083C42.8987 35.8452 43.0924 35.7157 43.3056 35.6274C43.5188 35.5391 43.7473 35.4937 43.978 35.4937C44.2088 35.4937 44.4373 35.5391 44.6505 35.6274C44.8636 35.7157 45.0573 35.8452 45.2205 36.0083L45.8417 36.6295C45.6786 36.4664 45.4849 36.3369 45.2717 36.2486C45.0585 36.1603 44.83 36.1149 44.5992 36.1149C44.3685 36.1149 44.14 36.1603 43.9268 36.2486C43.7136 36.3369 43.5199 36.4664 43.3568 36.6295L42.7356 37.2507C42.5709 37.4156 42.4784 37.639 42.4784 37.872C42.4784 38.105 42.5709 38.3284 42.7356 38.4933Z" fill="#F1DDC8"/>
<path d="M49.3205 45.0783L46.8356 42.5934C46.4925 42.2503 45.9362 42.2503 45.5931 42.5934L44.3507 43.8358C44.0076 44.1789 44.0076 44.7352 44.3507 45.0783L46.8356 47.5631C47.1787 47.9062 47.7349 47.9062 48.078 47.5631L49.3205 46.3207C49.6635 45.9776 49.6635 45.4214 49.3205 45.0783Z" fill="#F3EADE"/>
<path d="M47.8967 47.7025C47.7294 47.7995 47.5347 47.8384 47.343 47.8133C47.1512 47.7882 46.9731 47.7004 46.8363 47.5637L44.351 45.0783C44.1864 44.9135 44.094 44.6901 44.094 44.4572C44.094 44.2243 44.1864 44.0009 44.351 43.8361L45.5941 42.5938C45.7306 42.4567 45.9087 42.3687 46.1005 42.3434C46.2923 42.3182 46.487 42.3571 46.6544 42.4541C46.5876 42.4921 46.5265 42.5391 46.4726 42.5938L45.8506 43.2149C45.5212 43.5444 45.3362 43.9913 45.3362 44.4572C45.3362 44.9231 45.5212 45.3699 45.8506 45.6994L47.7149 47.5637C47.769 47.6179 47.8302 47.6646 47.8967 47.7025Z" fill="#F1DDC8"/>
<path d="M45.5932 41.3507L43.1083 38.8658C42.7652 38.5228 42.2089 38.5228 41.8658 38.8658L40.6234 40.1083C40.2803 40.4514 40.2803 41.0076 40.6234 41.3507L43.1083 43.8356C43.4514 44.1787 44.0076 44.1787 44.3507 43.8356L45.5932 42.5932C45.9362 42.2501 45.9362 41.6938 45.5932 41.3507Z" fill="#F3EADE"/>
<path d="M44.169 43.975C44.0016 44.072 43.8069 44.1109 43.6152 44.0858C43.4234 44.0607 43.2453 43.973 43.1086 43.8362L40.6232 41.3508C40.4586 41.186 40.3662 40.9626 40.3662 40.7297C40.3662 40.4968 40.4586 40.2734 40.6232 40.1086L41.8663 38.8663C42.0028 38.7292 42.1809 38.6412 42.3727 38.6159C42.5645 38.5906 42.7593 38.6295 42.9267 38.7265C42.8599 38.7645 42.7987 38.8116 42.7448 38.8663L42.1228 39.4874C41.7934 39.8169 41.6084 40.2638 41.6084 40.7297C41.6084 41.1956 41.7934 41.6424 42.1228 41.9719L43.9871 43.8362C44.0412 43.8904 44.1024 43.9371 44.169 43.975Z" fill="#F1DDC8"/>
<path d="M44.9721 45.6994L42.4872 43.2145C42.1441 42.8714 41.5878 42.8714 41.2447 43.2145L40.0023 44.4569C39.6592 44.8 39.6592 45.3563 40.0023 45.6994L42.4872 48.1842C42.8303 48.5273 43.3865 48.5273 43.7296 48.1842L44.9721 46.9418C45.3152 46.5987 45.3152 46.0424 44.9721 45.6994Z" fill="#F3EADE"/>
<path d="M43.5479 48.3231C43.3805 48.4201 43.1858 48.4591 42.9941 48.434C42.8023 48.4088 42.6242 48.3211 42.4875 48.1843L40.0021 45.699C39.8375 45.5341 39.7451 45.3107 39.7451 45.0778C39.7451 44.8449 39.8375 44.6215 40.0021 44.4567L41.2452 43.2145C41.3818 43.0774 41.5598 42.9893 41.7516 42.9641C41.9434 42.9388 42.1382 42.9777 42.3056 43.0747C42.2388 43.1127 42.1776 43.1597 42.1238 43.2145L41.5017 43.8356C41.1723 44.1651 40.9873 44.6119 40.9873 45.0778C40.9873 45.5437 41.1723 45.9906 41.5017 46.3201L43.366 48.1843C43.4201 48.2385 43.4813 48.2852 43.5479 48.3231Z" fill="#F1DDC8"/>
<path d="M48.078 38.8651L45.7174 36.5045C45.5526 36.3397 45.46 36.1163 45.46 35.8833C45.46 35.6503 45.5526 35.4268 45.7174 35.262L46.3386 34.6408C46.6681 34.3113 47.115 34.1262 47.581 34.1262C48.047 34.1262 48.4939 34.3113 48.8235 34.6408L50.5629 36.3802C50.7276 36.545 50.8202 36.7684 50.8202 37.0015C50.8202 37.2345 50.7276 37.4579 50.5629 37.6227L49.3204 38.8651C49.1557 39.0299 48.9322 39.1224 48.6992 39.1224C48.4662 39.1224 48.2428 39.0299 48.078 38.8651Z" fill="#F3EADE"/>
<path d="M49.1388 39.0053C48.9715 39.1022 48.7768 39.1411 48.585 39.116C48.3933 39.0909 48.2152 39.0032 48.0784 38.8664L45.7181 36.5054C45.6364 36.4239 45.5716 36.3271 45.5274 36.2205C45.4832 36.114 45.4604 35.9997 45.4604 35.8843C45.4604 35.769 45.4832 35.6547 45.5274 35.5482C45.5716 35.4416 45.6364 35.3448 45.7181 35.2633L46.3392 34.6421C46.5553 34.4258 46.8241 34.2697 47.119 34.1891C47.4139 34.1085 47.7247 34.1063 48.0207 34.1826C47.7207 34.26 47.4465 34.4154 47.2259 34.633C47.0054 34.8506 46.8462 35.1226 46.7647 35.4215C46.6832 35.7205 46.6821 36.0356 46.7617 36.3351C46.8413 36.6345 46.9986 36.9076 47.2177 37.1266L48.9572 38.8661C49.0112 38.9205 49.0723 38.9673 49.1388 39.0053Z" fill="#F1DDC8"/>
<path d="M51.8053 37.6232L53.5447 39.3626C53.8742 39.6921 54.0594 40.139 54.0594 40.605C54.0594 41.071 53.8742 41.5179 53.5447 41.8475L52.9235 42.4687C52.8419 42.5503 52.7451 42.615 52.6385 42.6591C52.5319 42.7033 52.4176 42.726 52.3023 42.726C52.1869 42.726 52.0727 42.7033 51.9661 42.6591C51.8595 42.615 51.7626 42.5503 51.6811 42.4687L49.3204 40.108C49.2388 40.0265 49.1741 39.9296 49.13 39.823C49.0858 39.7164 49.0631 39.6022 49.0631 39.4868C49.0631 39.3715 49.0858 39.2572 49.13 39.1506C49.1741 39.044 49.2388 38.9472 49.3204 38.8656L50.5629 37.6232C50.7276 37.4584 50.9511 37.3659 51.1841 37.3659C51.4171 37.3659 51.6405 37.4584 51.8053 37.6232Z" fill="#F3EADE"/>
<path d="M52.7412 42.6084C52.5738 42.7053 52.3791 42.7442 52.1873 42.7189C51.9955 42.6937 51.8174 42.6057 51.6808 42.4687L49.3202 40.1081C49.1557 39.9432 49.0632 39.7198 49.0632 39.4869C49.0632 39.254 49.1557 39.0306 49.3202 38.8657L50.5625 37.6236C50.6992 37.4865 50.8774 37.3985 51.0693 37.3732C51.2613 37.348 51.4562 37.3868 51.6237 37.4838C51.557 37.5222 51.4956 37.5692 51.441 37.6236L50.8199 38.2447C50.4905 38.5742 50.3055 39.021 50.3055 39.4869C50.3055 39.9528 50.4905 40.3996 50.8199 40.7291L52.5594 42.4686C52.6133 42.5234 52.6745 42.5704 52.7412 42.6084Z" fill="#F1DDC8"/>
<path d="M53.0476 33.8958L54.2901 35.1382C54.6196 35.4677 54.8047 35.9146 54.8047 36.3806C54.8047 36.8466 54.6196 37.2936 54.2901 37.6231L53.6688 38.2443C53.5041 38.4091 53.2806 38.5016 53.0476 38.5016C52.8146 38.5016 52.5912 38.4091 52.4264 38.2443L49.9415 35.7594C49.7768 35.5947 49.6842 35.3712 49.6842 35.1382C49.6842 34.9052 49.7768 34.6817 49.9415 34.517L50.5627 33.8958C50.8923 33.5662 51.3392 33.3811 51.8052 33.3811C52.2712 33.3811 52.7181 33.5662 53.0476 33.8958Z" fill="#F3EADE"/>
<path d="M53.4873 38.3837C53.32 38.4806 53.1253 38.5196 52.9335 38.4945C52.7418 38.4694 52.5637 38.3816 52.4269 38.2449L49.9415 35.7595C49.777 35.5947 49.6846 35.3713 49.6846 35.1383C49.6846 34.9054 49.777 34.682 49.9415 34.5172L50.5627 33.8961C50.7787 33.6798 51.0475 33.5236 51.3424 33.4432C51.6374 33.3627 51.9482 33.3607 52.2442 33.4374C51.9442 33.5149 51.67 33.6703 51.4494 33.8879C51.2288 34.1054 51.0697 34.3775 50.9882 34.6764C50.9067 34.9753 50.9056 35.2905 50.9852 35.5899C51.0647 35.8894 51.2221 36.1625 51.4412 36.3815L53.3055 38.2449C53.3596 38.2991 53.4208 38.3458 53.4873 38.3837Z" fill="#F1DDC8"/>
</svg>
