<svg width="72" height="72" viewBox="0 0 72 72" fill="none" xmlns="http://www.w3.org/2000/svg">
<circle cx="36" cy="36" r="36" fill="#F0F0F0"/>
<path d="M30.6405 48.3148C35.9649 48.3148 40.2811 42.2002 40.2811 34.6574C40.2811 27.1146 35.9649 21 30.6405 21C25.3162 21 21 27.1146 21 34.6574C21 42.2002 25.3162 48.3148 30.6405 48.3148Z" fill="#986B54"/>
<path d="M23.9521 44.4919C25.6857 46.8586 28.043 48.3146 30.6407 48.3146C35.965 48.3146 40.2812 42.2 40.2812 34.6572C40.2812 29.2988 38.1026 24.662 34.9321 22.4253C35.8759 23.7138 36.6344 25.2726 37.1462 27.0135C37.2933 27.5138 37.1219 28.0528 36.7121 28.3754C36.0645 28.8851 35.442 29.436 34.854 30.024C31.9954 32.8825 30.0887 36.3846 29.4852 39.8851C29.2103 41.4794 29.2154 42.9958 29.4873 44.3874C29.6403 45.1712 29.0585 45.9155 28.2599 45.9175C28.2545 45.9175 28.249 45.9175 28.2435 45.9175C26.7017 45.9175 25.2446 45.4038 23.9521 44.4919Z" fill="#845C47"/>
<path d="M31.4422 44.1647C31.1174 42.6388 30.836 41.0495 30.42 39.56C30.0259 38.1102 29.5433 36.7263 28.9583 35.3679C27.5541 32.1211 27.3094 28.2318 28.9358 25.0315C29.0406 24.8352 29.2887 24.7591 29.4899 24.8614C29.9121 25.1875 29.9494 26.6592 30.1561 27.2365C30.6627 29.5525 31.3551 31.8159 32.323 33.9491C33.0563 35.5875 33.4913 37.3704 33.5373 39.1542C33.5775 40.9256 33.2806 42.7144 32.4823 44.3039C32.3446 44.5708 32.0112 44.6781 31.7376 44.5438C31.5779 44.4653 31.4768 44.3244 31.4422 44.1647Z" fill="#664545"/>
<path d="M31.7378 44.5436C32.0113 44.6779 32.3447 44.5705 32.4825 44.3037C33.2807 42.7142 33.5776 40.9254 33.5375 39.154C33.4914 37.3701 33.0564 35.5873 32.3232 33.9489C32.2444 33.7751 32.168 33.6002 32.0927 33.4248C31.1491 34.8787 30.4224 36.4137 29.9443 37.9721C30.1155 38.4937 30.274 39.0222 30.4201 39.5598C30.8361 41.0493 31.1175 42.6386 31.4423 44.1645C31.4769 44.3242 31.578 44.4651 31.7378 44.5436Z" fill="#523838"/>
<path d="M49.8456 45.0204C55.1784 39.6876 56.4499 32.313 52.6856 28.5487C48.9213 24.7844 41.5467 26.0559 36.2139 31.3886C30.8812 36.7214 29.6097 44.096 33.374 47.8603C37.1383 51.6246 44.5129 50.3531 49.8456 45.0204Z" fill="#986B54"/>
<path d="M54.718 32.5894C54.248 35.6327 52.5825 38.8995 49.8511 41.6309C44.5176 46.9645 37.1419 48.2361 33.377 44.4713C32.2866 43.381 31.6196 41.9875 31.3505 40.4289C30.9027 43.3282 31.5402 46.0246 33.377 47.8614C37.1419 51.6263 44.5176 50.3546 49.8511 45.021C53.6401 41.2321 55.3782 36.4128 54.718 32.5894Z" fill="#845C47"/>
<path d="M36.8781 45.4937C37.7274 44.185 38.6523 42.8623 39.4113 41.5149C40.1579 40.211 40.7951 38.8913 41.342 37.517C42.6448 34.2283 45.2219 31.3051 48.635 30.1921C48.8479 30.1275 49.0772 30.2491 49.1471 30.4637C49.215 30.9928 48.2008 32.0598 47.9387 32.6142C46.6592 34.6101 45.5484 36.7003 44.7244 38.893C44.0844 40.57 43.1313 42.1383 41.9025 43.4322C40.6783 44.7132 39.2035 45.7681 37.5151 46.3276C37.229 46.4189 36.9174 46.2591 36.819 45.9706C36.7616 45.8022 36.7897 45.6311 36.8781 45.4937Z" fill="#523838"/>
</svg>
