<svg width="72" height="72" viewBox="0 0 72 72" fill="none" xmlns="http://www.w3.org/2000/svg">
<circle cx="36" cy="36" r="36" fill="#F0F0F0"/>
<path d="M25.8352 24.9771C23.0063 23.7496 21.9358 19.9363 21.9358 19.9363C21.9358 19.9363 25.452 18.1133 28.281 19.3409C31.11 20.5685 30.7634 23.7668 30.7634 23.7668C30.7634 23.7668 28.6642 26.2047 25.8352 24.9771Z" fill="#57A633"/>
<path d="M21.9363 19.937C21.9363 19.937 23.0064 23.7502 25.8353 24.9779C28.6643 26.2057 30.7635 23.7679 30.7635 23.7679L21.9363 19.937Z" fill="#407A26"/>
<path d="M37.379 23.743C40.6324 21.5035 41.039 16.4472 41.039 16.4472C41.039 16.4472 36.1707 15.0216 32.9172 17.2611C29.6638 19.5005 30.8869 23.4351 30.8869 23.4351C30.8869 23.4351 34.1255 25.9824 37.379 23.743Z" fill="#57A633"/>
<path d="M30.8872 23.436C30.8872 23.436 34.1257 25.9831 37.3791 23.7435C40.6324 21.5039 41.0386 16.4478 41.0386 16.4478L30.8872 23.436Z" fill="#407A26"/>
<path d="M32.9368 52.6416C41.2371 52.6416 47.9658 45.9129 47.9658 37.6126C47.9658 29.3122 41.2371 22.5835 32.9368 22.5835C24.6365 22.5835 17.9077 29.3122 17.9077 37.6126C17.9077 45.9129 24.6365 52.6416 32.9368 52.6416Z" fill="#FAA237"/>
<path d="M32.9368 52.6416C41.2371 52.6416 47.9658 45.9129 47.9658 37.6126C47.9658 29.3122 41.2371 22.5835 32.9368 22.5835C24.6365 22.5835 17.9077 29.3122 17.9077 37.6126C17.9077 45.9129 24.6365 52.6416 32.9368 52.6416Z" fill="#FAA237"/>
<path d="M26.2273 29.3458C26.9084 29.3458 27.4605 28.7937 27.4605 28.1126C27.4605 27.4315 26.9084 26.8794 26.2273 26.8794C25.5463 26.8794 24.9941 27.4315 24.9941 28.1126C24.9941 28.7937 25.5463 29.3458 26.2273 29.3458Z" fill="#ED851C"/>
<path d="M27.2156 36.2387C28.0281 36.2387 28.6867 35.5801 28.6867 34.7676C28.6867 33.9551 28.0281 33.2964 27.2156 33.2964C26.4031 33.2964 25.7444 33.9551 25.7444 34.7676C25.7444 35.5801 26.4031 36.2387 27.2156 36.2387Z" fill="#ED851C"/>
<path d="M23.7641 35.8612C24.12 35.8612 24.4085 35.5726 24.4085 35.2167C24.4085 34.8608 24.12 34.5723 23.7641 34.5723C23.4082 34.5723 23.1196 34.8608 23.1196 35.2167C23.1196 35.5726 23.4082 35.8612 23.7641 35.8612Z" fill="#ED851C"/>
<path d="M29.4667 27.3151C29.8828 27.3151 30.2202 26.9778 30.2202 26.5616C30.2202 26.1455 29.8828 25.8081 29.4667 25.8081C29.0505 25.8081 28.7131 26.1455 28.7131 26.5616C28.7131 26.9778 29.0505 27.3151 29.4667 27.3151Z" fill="#ED851C"/>
<path d="M29.7494 33.1766C31.0871 33.1766 32.1715 32.0922 32.1715 30.7546C32.1715 29.4169 31.0871 28.3325 29.7494 28.3325C28.4118 28.3325 27.3274 29.4169 27.3274 30.7546C27.3274 32.0922 28.4118 33.1766 29.7494 33.1766Z" fill="#ED851C"/>
<path d="M24.0204 33.0998C25.0708 33.0998 25.9223 32.2483 25.9223 31.1979C25.9223 30.1474 25.0708 29.2959 24.0204 29.2959C22.9699 29.2959 22.1184 30.1474 22.1184 31.1979C22.1184 32.2483 22.9699 33.0998 24.0204 33.0998Z" fill="#ED851C"/>
<path opacity="0.2" d="M47.6588 40.6495L27.3521 45.4605C27.016 45.5401 26.8092 45.8835 26.9035 46.2158C27.3121 47.6556 27.934 48.982 28.7241 50.1715C24.2275 47.574 21.2013 42.7148 21.2013 37.1487C21.2013 30.1432 25.9944 24.2572 32.4801 22.5913C24.3912 22.8328 17.9077 29.4654 17.9077 37.6129C17.9077 45.7239 24.3262 52.2596 32.234 52.6251C39.4732 52.9596 46.2158 47.8369 47.6588 40.6495Z" fill="black"/>
<path d="M45.7808 55.6156C53.1834 53.8618 57.8391 46.5925 56.4255 39.193C56.3607 38.8537 56.0218 38.6396 55.6857 38.7193L29.3482 44.9591C29.0121 45.0387 28.8053 45.3821 28.8996 45.7144C30.9561 52.9616 38.3782 57.3694 45.7808 55.6156Z" fill="#FAA237"/>
<path d="M45.4233 54.1065C51.9878 52.5512 56.1264 46.1251 54.9174 39.5644C54.8538 39.2193 54.516 38.9962 54.1746 39.0772L30.8594 44.6009C30.518 44.6818 30.3162 45.0327 30.4142 45.3696C32.277 51.7754 38.8588 55.6617 45.4233 54.1065Z" fill="#FAE2A0"/>
<path d="M40.7844 43.8493L37.1448 49.749C36.9372 50.0854 36.4818 50.1715 36.1706 49.9277C35.4153 49.3359 34.749 48.6425 34.1817 47.8567C33.6143 47.0709 33.1659 46.2202 32.8419 45.317C32.7084 44.9449 32.9334 44.5397 33.3181 44.4486L40.0634 42.8506C40.6413 42.7137 41.0963 43.3438 40.7844 43.8493Z" fill="#FAB523"/>
<path d="M42.7134 44.4859L44.3115 51.2312C44.4026 51.6159 44.1414 51.9987 43.749 52.0464C42.7965 52.1621 41.835 52.1429 40.8782 51.9884C39.9213 51.8339 39.0027 51.5496 38.135 51.14C37.7775 50.9712 37.6501 50.5256 37.8577 50.1892L41.4973 44.2895C41.8092 43.7841 42.5766 43.908 42.7134 44.4859Z" fill="#FAB523"/>
<path d="M44.5275 43.5716L50.4272 47.2112C50.7636 47.4187 50.8497 47.8741 50.6059 48.1853C50.0142 48.9406 49.3207 49.6069 48.535 50.1742C47.7491 50.7416 46.8985 51.1901 45.9953 51.5141C45.6232 51.6475 45.2179 51.4225 45.1268 51.0379L43.5288 44.2926C43.3918 43.7148 44.022 43.2598 44.5275 43.5716Z" fill="#FAB523"/>
<path d="M45.1637 41.6426L51.909 40.0445C52.2937 39.9535 52.6765 40.2146 52.7242 40.607C52.8399 41.5595 52.8207 42.521 52.6662 43.4778C52.5117 44.4347 52.2274 45.3533 51.8178 46.221C51.649 46.5785 51.2034 46.706 50.867 46.4984L44.9673 42.8588C44.4618 42.5469 44.5857 41.7795 45.1637 41.6426Z" fill="#FAB523"/>
<path d="M38.8493 43.8836C39.0669 43.7268 39.8439 43.4348 40.0008 43.6525C40.1577 43.8702 39.6351 44.515 39.4175 44.672C39.1998 44.8289 38.8961 44.7796 38.7392 44.5619C38.5823 44.3442 38.6316 44.0405 38.8493 43.8836Z" fill="#FADE91"/>
<path d="M41.3694 45.8779C41.4123 45.6131 41.7553 44.8572 42.0202 44.9002C42.2851 44.9432 42.3716 45.7686 42.3286 46.0336C42.2856 46.2984 42.0361 46.4783 41.7712 46.4354C41.5063 46.3924 41.3264 46.1429 41.3694 45.8779Z" fill="#FADE91"/>
<path d="M44.5616 45.5066C44.4047 45.289 44.1128 44.512 44.3305 44.3551C44.5482 44.1982 45.193 44.7208 45.35 44.9384C45.5068 45.1561 45.4576 45.4598 45.2399 45.6167C45.0222 45.7736 44.7186 45.7243 44.5616 45.5066Z" fill="#FADE91"/>
<path d="M46.5562 42.9868C46.2913 42.9438 45.5355 42.6009 45.5784 42.3359C45.6214 42.071 46.4469 41.9846 46.7118 42.0276C46.9766 42.0705 47.1565 42.3202 47.1136 42.585C47.0706 42.8498 46.821 43.0298 46.5562 42.9868Z" fill="#FADE91"/>
<path d="M42.7781 42.9409C43.3867 42.7967 43.7633 42.1863 43.6191 41.5776L41.4148 42.0999C41.559 42.7086 42.1693 43.0851 42.7781 42.9409Z" fill="#FAB523"/>
</svg>
