<svg width="72" height="72" viewBox="0 0 72 72" fill="none" xmlns="http://www.w3.org/2000/svg">
<circle cx="36" cy="36" r="36" fill="#F0F0F0"/>
<path d="M45.7435 53.7103H26.6758L24.6261 44.3192C24.263 42.6557 24.263 40.9335 24.6261 39.27L24.6428 39.1935C25.8296 33.7557 30.6439 29.8789 36.2096 29.8789C41.7753 29.8789 46.5896 33.7557 47.7764 39.1935L47.7932 39.27C48.1562 40.9335 48.1562 42.6557 47.7932 44.3192L45.7435 53.7103Z" fill="#66BB6A"/>
<path d="M24.6261 41.2206L24.6428 41.144C25.8297 35.7063 30.6439 31.8294 36.2097 31.8294C41.7754 31.8294 46.5897 35.7063 47.7765 41.144L47.7932 41.2206C47.9049 41.7324 47.9702 42.2504 48.0131 42.7699C48.1098 41.6009 48.0446 40.4217 47.7932 39.27L47.7765 39.1934C46.5897 33.7557 41.7754 29.8789 36.2097 29.8789C30.644 29.8789 25.8297 33.7557 24.6428 39.1934L24.6261 39.27C24.3748 40.4217 24.3095 41.6009 24.4062 42.7699C24.4492 42.2504 24.5144 41.7324 24.6261 41.2206Z" fill="#42A047"/>
<path d="M26.576 34.8491C28.7992 31.7271 32.5419 29.7368 36.563 29.8942C36.8915 26.1396 33.8522 22.8621 30.087 22.8804C26.4962 22.8804 23.5852 25.7914 23.5852 29.3823C23.5852 31.6785 24.7787 33.6923 26.576 34.8491Z" fill="#66BB6A"/>
<path d="M30.087 24.831C33.1787 24.8159 35.7769 27.0245 36.427 29.8933C36.4725 29.8946 36.5175 29.8924 36.563 29.8942C36.8915 26.1396 33.8521 22.8621 30.087 22.8804C26.4962 22.8804 23.5852 25.7914 23.5852 29.3823C23.5852 29.7156 23.6173 30.0405 23.6658 30.3601C24.1363 27.2319 26.8276 24.831 30.087 24.831Z" fill="#42A047"/>
<path d="M49.2326 32.8516C47.7745 32.8516 46.5054 33.653 45.8359 34.838C46.749 36.1145 47.425 37.5829 47.7765 39.1933L47.7932 39.2699C47.8782 39.6591 47.9392 40.052 47.9844 40.4461C48.3767 40.5787 48.7955 40.6537 49.2326 40.6537C51.3871 40.6537 53.1337 38.9071 53.1337 36.7527C53.1337 34.5982 51.3871 32.8516 49.2326 32.8516Z" fill="#66BB6A"/>
<path d="M49.2326 34.8021C51.0497 34.8021 52.5722 36.0462 53.0059 37.7279C53.0864 37.4156 53.1337 37.09 53.1337 36.7526C53.1337 34.5981 51.3871 32.8516 49.2326 32.8516C47.7745 32.8516 46.5054 33.653 45.8359 34.838C46.0819 35.1818 46.3071 35.5419 46.5169 35.9126C47.219 35.228 48.1743 34.8021 49.2326 34.8021Z" fill="#42A047"/>
<path d="M35.0457 16C32.173 16 29.8442 18.3288 29.8442 21.2014C29.8442 21.7906 29.9468 22.3547 30.1273 22.8827C32.6003 22.8979 34.744 24.2931 35.8302 26.3375C38.3297 25.9583 40.2471 23.8067 40.2471 21.2015C40.2471 18.3288 37.9184 16 35.0457 16Z" fill="#66BB6A"/>
<path d="M35.0455 16C33.2769 16 31.7169 16.8845 30.7771 18.2334C31.6191 17.6467 32.6411 17.3004 33.7451 17.3004C36.6178 17.3004 38.9466 19.6291 38.9466 22.5018C38.9466 23.6045 38.6003 24.6238 38.0146 25.464C39.3628 24.5259 40.2469 22.9691 40.2469 21.2014C40.2469 18.3288 37.9182 16 35.0455 16Z" fill="#42A047"/>
<path d="M44.3616 28.8688L42.9491 29.7782L43.4041 28.2926C43.5095 27.9491 43.3165 27.5855 42.973 27.4805C42.6289 27.3751 42.2657 27.5687 42.1609 27.9116L41.684 29.4689L40.8377 27.6363C40.6872 27.3106 40.3024 27.1671 39.9748 27.3189C39.6484 27.4694 39.5062 27.8557 39.6567 28.1818L41.2167 31.5593C41.3835 31.9086 41.8299 32.0443 42.159 31.8333L45.0651 29.9621C45.3674 29.7678 45.4543 29.3653 45.2601 29.0634C45.0658 28.7621 44.6632 28.6745 44.3616 28.8688Z" fill="#42A047"/>
<path d="M24.933 43.7459L22.5215 42.4573C22.204 42.2877 21.8104 42.4081 21.6415 42.7243C21.4719 43.0408 21.5919 43.4348 21.9081 43.604L23.373 44.3865L20.284 46.4907C19.9874 46.693 19.9106 47.0974 20.1132 47.3943C20.2389 47.579 20.4433 47.6784 20.651 47.6784C20.7767 47.6784 20.9043 47.6419 21.0167 47.5654L24.9927 44.8564C25.1806 44.7285 25.2879 44.5116 25.2759 44.2843C25.2632 44.0573 25.1336 43.8529 24.933 43.7459Z" fill="#42A047"/>
<path d="M20.5113 27.3081L23.7603 28.018C24.1766 28.1216 24.6041 27.7407 24.5457 27.3139L24.2314 24.3636C24.194 24.0068 23.8683 23.7499 23.5165 23.7861C23.159 23.8239 22.9006 24.1442 22.9387 24.5014L23.1571 26.5551L20.7894 26.0376C20.4358 25.9614 20.0916 26.1837 20.0154 26.5341C19.9386 26.8849 20.1608 27.2313 20.5113 27.3081Z" fill="#42A047"/>
<path d="M40.2471 21.8513C40.2795 21.8513 43.2276 21.4062 43.2276 21.4062C43.5825 21.3523 43.8263 21.0208 43.7723 20.6656C43.7184 20.3107 43.3882 20.0643 43.032 20.1205L41.8561 20.2992L42.1856 19.9075C42.4174 19.6325 42.3818 19.2224 42.1069 18.9912C41.832 18.7601 41.4218 18.7963 41.1913 19.07L39.75 20.7824C39.5754 20.9897 39.5475 21.2831 39.6802 21.5189C39.7963 21.7263 40.0141 21.8513 40.2471 21.8513Z" fill="#42A047"/>
<path d="M52.9904 30.5339C52.6907 30.3355 52.2875 30.418 52.0894 30.7174L50.589 32.9864C50.3909 33.286 50.4728 33.6892 50.7725 33.8873C50.883 33.9604 51.0074 33.9953 51.1306 33.9953C51.3414 33.9953 51.5484 33.8927 51.6735 33.7038L53.1739 31.4349C53.372 31.1352 53.29 30.732 52.9904 30.5339Z" fill="#42A047"/>
<path d="M35.0887 39.498C34.8303 39.2481 34.4194 39.2551 34.1693 39.5126C33.9197 39.7707 33.9261 40.1824 34.1845 40.432L35.0023 41.2237C35.1287 41.346 35.2912 41.4069 35.4544 41.4069C35.6246 41.4069 35.7941 41.3406 35.9217 41.2091C36.1712 40.951 36.1649 40.5393 35.9065 40.2897L35.0887 39.498Z" fill="#378E43"/>
<path d="M32.5318 48.4213C32.274 48.1715 31.8626 48.1784 31.6124 48.4359C31.3629 48.694 31.3692 49.1058 31.6276 49.3553L32.4454 50.1471C32.5718 50.2693 32.7343 50.3303 32.8975 50.3303C33.0677 50.3303 33.2372 50.2639 33.3648 50.1325C33.6144 49.8744 33.608 49.4626 33.3496 49.2131L32.5318 48.4213Z" fill="#378E43"/>
<path d="M30.3114 38.2647L31.1032 37.4473C31.3527 37.1892 31.3464 36.7777 31.088 36.5279C30.8314 36.2786 30.4187 36.284 30.1686 36.5425L29.3768 37.3599C29.1273 37.6181 29.1336 38.0295 29.392 38.2793C29.5178 38.4016 29.6809 38.4625 29.8441 38.4625C30.0136 38.4625 30.1838 38.3965 30.3114 38.2647Z" fill="#378E43"/>
<path d="M27.7501 27.4566L26.9583 28.2741C26.7088 28.5322 26.7152 28.9437 26.9736 29.1935C27.0993 29.3158 27.2625 29.3767 27.4257 29.3767C27.5952 29.3767 27.7654 29.3107 27.893 29.1789L28.6847 28.3614C28.9343 28.1033 28.9279 27.6919 28.6695 27.442C28.4136 27.1928 28.0003 27.1979 27.7501 27.4566Z" fill="#378E43"/>
<path d="M31.7222 27.341C31.8486 27.4633 32.0118 27.5242 32.1749 27.5242C32.3445 27.5242 32.5146 27.4582 32.6416 27.3264C32.8918 27.0686 32.8854 26.6569 32.6277 26.407L31.8105 25.6153C31.5527 25.366 31.14 25.3714 30.8911 25.6299C30.6409 25.8877 30.6473 26.2994 30.9051 26.5493L31.7222 27.341Z" fill="#378E43"/>
<path d="M35.21 19.4764C34.9516 19.2268 34.5408 19.2335 34.2906 19.491C34.0411 19.7491 34.0474 20.1608 34.3059 20.4104L35.1237 21.2021C35.25 21.3244 35.4126 21.3853 35.5757 21.3853C35.7459 21.3853 35.9154 21.319 36.0431 21.1875C36.2926 20.9294 36.2862 20.5177 36.0278 20.2681L35.21 19.4764Z" fill="#378E43"/>
<path d="M40.6558 36.961C40.826 36.961 40.9955 36.8946 41.1231 36.7632C41.3727 36.5051 41.3663 36.0934 41.1079 35.8438L40.2901 35.052C40.0323 34.8025 39.6209 34.8092 39.3707 35.0667C39.1212 35.3248 39.1275 35.7365 39.3859 35.986L40.2037 36.7778C40.3301 36.9 40.4926 36.961 40.6558 36.961Z" fill="#378E43"/>
<path d="M42.4088 40.5987L41.617 41.4162C41.3675 41.6743 41.3739 42.0858 41.6323 42.3356C41.758 42.4578 41.9212 42.5188 42.0843 42.5188C42.2539 42.5188 42.424 42.4528 42.5517 42.321L43.3434 41.5035C43.593 41.2454 43.5866 40.834 43.3282 40.5841C43.0717 40.3349 42.659 40.34 42.4088 40.5987Z" fill="#378E43"/>
<path d="M50.7286 35.7104C50.4702 35.4605 50.0587 35.4675 49.8092 35.725L49.0174 36.5428C48.7679 36.8009 48.7742 37.2126 49.0327 37.4622C49.159 37.5844 49.3216 37.6454 49.4847 37.6454C49.6543 37.6454 49.8244 37.579 49.9521 37.4476L50.7438 36.6298C50.9934 36.3717 50.987 35.9599 50.7286 35.7104Z" fill="#378E43"/>
<path d="M31.3299 43.192C31.074 42.9428 30.6607 42.9479 30.4105 43.2066L29.6187 44.0241C29.3692 44.2822 29.3756 44.6937 29.634 44.9435C29.7597 45.0658 29.9229 45.1267 30.0861 45.1267C30.2556 45.1267 30.4258 45.0607 30.5534 44.9289L31.3451 44.1114C31.5947 43.8533 31.5883 43.4419 31.3299 43.192Z" fill="#378E43"/>
<path d="M40.9803 46.626L40.1886 47.4434C39.939 47.7015 39.9454 48.113 40.2038 48.3628C40.3295 48.4851 40.4927 48.546 40.6559 48.546C40.8254 48.546 40.9956 48.48 41.1232 48.3482L41.915 47.5308C42.1645 47.2727 42.1582 46.8612 41.8997 46.6114C41.6432 46.3621 41.2305 46.3675 40.9803 46.626Z" fill="#378E43"/>
</svg>
