<svg width="72" height="72" viewBox="0 0 72 72" fill="none" xmlns="http://www.w3.org/2000/svg">
<circle cx="36" cy="36" r="36" fill="#F0F0F0"/>
<path d="M49.6799 24.0894C49.6799 24.0894 48.6293 24.3759 47.0069 25.8773C46.0912 26.7246 44.9384 27.2718 43.703 27.4455C42.1722 27.6614 39.9833 28.4296 38.3234 30.8785C37.9909 31.3659 37.5412 31.7619 37.0155 32.0299C36.4899 32.2979 35.9052 32.4294 35.3154 32.4121C33.1598 32.3334 31.0438 33.0054 29.3285 34.3133C28.8663 34.6703 28.3084 34.8818 27.7257 34.921C27.143 34.9603 26.5617 34.8255 26.0558 34.5338C24.4735 33.6109 21.9388 32.639 19.0354 33.4361C18.6982 33.5282 18.4074 33.7427 18.2197 34.0376C18.0321 34.3325 17.961 34.6868 18.0205 35.0312C18.261 36.4279 19.0752 38.7061 21.7816 40.0442C24.7464 41.5108 26.9352 40.4895 28.0997 39.6456C28.4365 39.3956 28.8292 39.2313 29.2437 39.167C29.6582 39.1027 30.0821 39.1402 30.4789 39.2764C32.2306 39.9007 35.4136 40.3131 38.1566 36.7651C39.1183 35.5149 40.4767 34.6289 42.0086 34.2526C44.4512 33.6608 48.1131 32.0012 50.2703 27.355L49.6799 24.0894Z" fill="#719B56"/>
<path d="M25.4078 35.4097C24.702 35.0197 23.4958 34.4782 22.1625 34.421C21.8104 34.4058 21.4599 34.4751 21.14 34.623C21.14 34.623 18.6309 37.4076 22.8281 38.4413C27.0252 39.475 26.408 36.5689 26.408 36.5689C26.2247 36.0749 25.8697 35.6634 25.4078 35.4097Z" fill="#F4F7D0"/>
<path d="M35.0656 33.8139C33.5573 33.6142 32.03 34.0033 30.8012 34.9004C30.7594 34.9301 30.719 34.9614 30.6801 34.9942C30.6801 34.9942 29.5609 37.9699 33.4859 37.4066C37.4109 36.8433 36.0685 34.281 36.0685 34.281C35.7901 34.026 35.4399 33.8629 35.0656 33.8139Z" fill="#F4F7D0"/>
<path d="M44.9913 28.6621C44.2819 28.5451 43.5559 28.5786 42.8603 28.7606C42.1647 28.9425 41.5152 29.2688 40.954 29.7182C40.6018 29.9944 40.3602 30.3877 40.2731 30.8267C40.186 31.2657 40.2591 31.7214 40.4791 32.1111C40.4933 32.1365 40.508 32.1616 40.5233 32.1862C40.5233 32.1862 41.6618 33.0443 43.5704 31.5549C45.4789 30.0654 44.9913 28.6621 44.9913 28.6621Z" fill="#F4F7D0"/>
<path d="M40.5244 32.1855C40.7052 32.4793 40.9638 32.7172 41.2715 32.8729C41.5793 33.0286 41.9242 33.096 42.2679 33.0676C43.3167 32.9753 44.8371 32.6221 46.0833 31.4568L46.639 29.1945C46.1228 28.9274 45.5659 28.7475 44.991 28.6621C44.7065 29.398 43.2912 32.6211 40.5244 32.1855Z" fill="#D3D398"/>
<path d="M31.5999 38.2325C32.6804 38.395 34.6323 38.4261 36.1218 36.976C36.4209 36.6829 36.6075 36.2939 36.6489 35.8771C36.6534 35.8317 36.6574 35.7842 36.6605 35.7362C36.6769 35.465 36.6322 35.1935 36.5295 34.9419C36.4269 34.6904 36.269 34.4651 36.0676 34.2827C36.0923 34.996 35.9472 36.3766 34.524 36.7912C33.7602 37.0279 32.9564 37.1081 32.1608 37.0271C31.8098 36.9907 31.4786 36.8466 31.2127 36.6147C30.9467 36.3827 30.759 36.0741 30.6753 35.7313C30.6215 35.4885 30.6233 35.2367 30.6807 34.9947C30.4442 35.1932 30.2621 35.4485 30.1516 35.7367C30.041 36.0249 30.0055 36.3364 30.0485 36.6421C30.0578 36.7056 30.0694 36.7699 30.0833 36.8351C30.1656 37.1939 30.3545 37.5193 30.6251 37.7688C30.8958 38.0182 31.2356 38.1798 31.5999 38.2325Z" fill="#D3D398"/>
<path d="M24.3154 39.5735C24.8793 39.5838 25.4252 39.3755 25.8389 38.9923C26.2527 38.609 26.502 38.0806 26.5349 37.5176C26.5415 37.3883 26.5399 37.2588 26.5303 37.1297C26.5155 36.9379 26.4742 36.749 26.4076 36.5685C26.1705 37.298 25.5865 38.3135 24.1762 38.2409C22.6042 38.1596 21.6269 37.2045 21.2021 36.6741C20.9196 36.3341 20.78 35.8977 20.8128 35.4568C20.842 35.1538 20.9558 34.865 21.1411 34.6235C20.853 34.7547 20.5975 34.948 20.3929 35.1894C20.1882 35.4309 20.0395 35.7147 19.9573 36.0204C19.9528 36.0375 19.9484 36.0546 19.9441 36.0719C19.8329 36.5274 19.8701 37.0065 20.0503 37.4394C20.2305 37.8723 20.5441 38.2363 20.9457 38.4784C21.7654 38.9788 22.9888 39.5515 24.3154 39.5735Z" fill="#D3D398"/>
<path d="M48.6134 20.2963C46.0436 18.6312 40.6488 16.2145 34.7449 20.051C34.7449 20.051 38.5661 25.6999 44.9199 24.5622C47.6951 23.4824 49.4261 22.1713 48.6134 20.2963Z" fill="#A9DB89"/>
<path d="M44.9193 24.5607C46.45 24.2868 48.1268 23.6206 49.9329 22.3854L50.193 21.4858C49.6992 21.0476 49.1709 20.6498 48.6133 20.2963C48.5605 20.4596 48.4935 20.6432 48.4085 20.8418C48.3442 20.9904 48.2287 21.1109 48.0831 21.1815C47.9374 21.2522 47.7713 21.2682 47.6148 21.2266C46.3759 20.8998 45.1193 20.6441 43.8511 20.4607C43.5962 19.8767 43.2397 19.3426 42.7984 18.883C42.7581 18.8408 42.7091 18.808 42.6548 18.7869C42.6005 18.7657 42.5421 18.7568 42.484 18.7606C42.4258 18.7645 42.3692 18.7811 42.3181 18.8093C42.2671 18.8375 42.2228 18.8765 42.1885 18.9236C42.1355 19.0012 42.1108 19.0946 42.1187 19.1882C42.1265 19.2819 42.1664 19.3699 42.2316 19.4375C42.4909 19.7107 42.7174 20.0132 42.9063 20.339C41.1887 20.1407 37.3143 19.967 37.3143 19.967C37.2103 19.9639 37.1092 20.0018 37.0329 20.0726C36.9566 20.1433 36.9112 20.2413 36.9064 20.3452C36.9017 20.4492 36.938 20.5509 37.0075 20.6283C37.0771 20.7058 37.1742 20.7527 37.2781 20.7592C37.2781 20.7592 39.6303 20.8647 40.5097 20.9227L40.4966 20.9301C40.2466 21.0717 40.0484 21.1839 39.8742 21.2667C39.8155 21.2929 39.7642 21.3331 39.7245 21.3836C39.6848 21.4341 39.658 21.4936 39.6464 21.5568C39.6348 21.62 39.6388 21.685 39.6579 21.7464C39.6771 21.8077 39.7109 21.8634 39.7564 21.9088C39.8142 21.9666 39.8886 22.0052 39.9692 22.0191C40.0498 22.033 40.1327 22.0217 40.2067 21.9867C40.4087 21.8909 40.6199 21.7713 40.8876 21.6198C40.9929 21.5601 41.1064 21.4956 41.2303 21.4268C41.8621 21.0749 42.769 21.1273 43.0981 21.1609C43.8615 21.2549 44.646 21.3751 45.4656 21.533C45.1132 21.9565 44.6168 22.2349 44.0718 22.3148C43.9652 22.3248 43.8668 22.3757 43.797 22.4568C43.7272 22.5379 43.6917 22.6429 43.6977 22.7497C43.7028 22.802 43.7182 22.8527 43.743 22.899C43.7678 22.9452 43.8015 22.9861 43.8423 23.0192C43.883 23.0523 43.9299 23.0771 43.9803 23.0919C44.0306 23.1068 44.0834 23.1115 44.1356 23.1058C44.5062 23.0741 44.8664 22.9668 45.194 22.7905C45.5216 22.6143 45.8095 22.3728 46.0402 22.0809C46.1184 21.9777 46.2228 21.8972 46.3426 21.8478C46.4623 21.7984 46.5931 21.7818 46.7214 21.7998L46.9113 21.8518C47.003 21.8767 47.087 21.9244 47.1552 21.9905C47.2235 22.0566 47.2739 22.139 47.3017 22.2299C47.3294 22.3208 47.3337 22.4172 47.314 22.5102C47.2944 22.6032 47.2514 22.6897 47.1892 22.7616C46.5423 23.488 45.7743 24.0967 44.9193 24.5607Z" fill="#719B56"/>
<path d="M47.1205 27.9624C45.4166 29.649 43.1041 32.5582 42.8871 36.0779C42.8422 36.7594 42.6296 37.4192 42.2683 37.9987C41.9071 38.5783 41.4083 39.0597 40.8162 39.4001C39.4343 40.2041 37.7988 41.5734 37.1052 43.7585C36.9283 44.2991 36.6016 44.7784 36.163 45.1405C35.7244 45.5027 35.192 45.7329 34.6277 45.8043C32.9643 46.0258 30.6361 46.6571 28.7734 48.3979C28.7734 48.3979 27.2486 50.2917 28.4569 52.0456C29.2273 53.1636 34.0392 54.3195 37.6502 49.1159C38.1433 48.4051 40.3427 47.0078 40.8577 46.3124C44.6179 41.2315 47.7064 35.5126 48.4845 33.988C49.0662 31.386 48.259 29.3121 47.1205 27.9624Z" fill="#A9DB89"/>
<path d="M45.6781 40.0974C45.6999 39.446 45.9766 38.8292 46.4487 38.3798C47.4542 37.4254 48.2933 36.3098 48.9312 35.0789V35.0771C50.0341 32.9622 50.3429 30.5221 49.8016 28.1991L48.947 26.3789C48.289 26.8708 47.6684 27.4108 47.0901 27.9943C47.0487 28.846 49.0016 32.6289 45.4842 37.2991C44.7556 38.2664 44.1346 39.3078 43.8756 40.4906C43.4714 42.3374 42.3503 45.0748 39.2429 46.352C38.1282 46.8112 37.1488 47.5469 36.3971 48.4895C34.8242 50.4575 31.8695 53.252 28.9442 51.187C28.9442 51.187 27.7668 50.1383 28.7757 48.3992C28.0595 49.0696 27.4612 49.8558 27.0061 50.7248C26.9121 50.8998 26.8565 51.0929 26.8429 51.2911C26.8293 51.4893 26.858 51.6881 26.9272 51.8743C26.9963 52.0606 27.1043 52.23 27.244 52.3713C27.3837 52.5125 27.5518 52.6225 27.7372 52.6938C30.0235 53.5578 34.8226 54.5 38.443 49.2842C38.9315 48.5697 39.6198 48.0151 40.4218 47.6895C42.2511 46.961 45.5086 44.983 45.6781 40.0974Z" fill="#719B56"/>
<path d="M49.1153 22.6518C48.0834 25.7875 47.4783 32.0338 54.3464 39.6526C54.3464 39.6526 58.7538 27.344 52.1947 21.7963C51.9547 21.5914 51.668 21.4486 51.3599 21.3805C51.0517 21.3123 50.7316 21.3208 50.4275 21.4053C50.1235 21.4898 49.8448 21.6476 49.616 21.865C49.3872 22.0823 49.2153 22.3525 49.1153 22.6518Z" fill="#A9DB89"/>
<path d="M53.8522 35.6358C53.7345 33.9762 53.5417 32.4303 53.308 31.0168C53.5551 31.2353 53.7595 31.4977 53.9106 31.7909C53.935 31.8385 53.9686 31.8807 54.0097 31.915C54.0508 31.9492 54.0983 31.9748 54.1495 31.9902C54.2007 32.0056 54.2545 32.0104 54.3077 32.0044C54.3608 31.9984 54.4122 31.9817 54.4587 31.9554C54.5489 31.9003 54.6144 31.8126 54.6417 31.7104C54.6689 31.6083 54.6557 31.4996 54.6048 31.4069C54.3785 30.9757 54.0642 30.5969 53.6821 30.295C53.3043 29.9935 53.0457 29.5676 52.9526 29.0932C52.9506 29.0832 52.9467 29.0744 52.944 29.0649C52.7558 28.1571 52.1897 25.9535 52.1134 25.6877C52.5471 26.0998 53.026 26.4616 53.5409 26.7662C53.5857 26.7932 53.6354 26.8111 53.6872 26.8188C53.7389 26.8265 53.7917 26.8239 53.8425 26.8111C53.8932 26.7984 53.9409 26.7757 53.9829 26.7444C54.0248 26.7131 54.0601 26.6738 54.0868 26.6288C54.1135 26.5837 54.131 26.5339 54.1383 26.4821C54.1456 26.4303 54.1426 26.3775 54.1295 26.3269C54.1163 26.2762 54.0932 26.2287 54.0616 26.187C54.03 26.1453 53.9904 26.1103 53.9452 26.0839C52.9752 25.4935 52.1441 24.7007 51.5087 23.7596C51.4263 23.5186 51.3481 23.2974 51.2742 23.096C51.2437 23.0088 51.1842 22.9348 51.1055 22.8863C51.0269 22.8379 50.934 22.8181 50.8424 22.8301C50.7839 22.8385 50.7281 22.8598 50.6789 22.8925C50.6298 22.9253 50.5885 22.9686 50.5582 23.0192C50.5279 23.0699 50.5093 23.1267 50.5037 23.1855C50.4982 23.2443 50.5058 23.3036 50.526 23.3591C50.7833 24.0629 51.1063 25.0239 51.4364 26.2083C51.5433 26.5875 51.5696 26.9849 51.5134 27.3749C51.4124 28.1204 51.148 28.8345 50.7391 29.466C50.6876 29.5422 50.6642 29.634 50.673 29.7256C50.6817 29.8171 50.722 29.9028 50.787 29.9679C50.8092 29.9901 50.834 30.0096 50.8607 30.026C50.9524 30.078 51.0605 30.0928 51.1628 30.0673C51.2651 30.0418 51.3536 29.978 51.4101 29.889C51.6739 29.4898 51.8837 29.0576 52.0343 28.6035C52.551 30.9448 52.8946 33.321 53.0624 35.7128C53.0661 35.7659 53.0805 35.8177 53.1047 35.8651C53.1289 35.9125 53.1624 35.9545 53.2032 35.9887C53.244 36.0229 53.2912 36.0485 53.3421 36.0641C53.393 36.0796 53.4465 36.0847 53.4995 36.0792C53.6039 36.0646 53.6988 36.0105 53.7644 35.928C53.8301 35.8455 53.8615 35.7409 53.8522 35.6358Z" fill="#719B56"/>
<path d="M42.0296 31.3019C42.4436 31.3019 42.7792 30.9663 42.7792 30.5523C42.7792 30.1383 42.4436 29.8027 42.0296 29.8027C41.6156 29.8027 41.28 30.1383 41.28 30.5523C41.28 30.9663 41.6156 31.3019 42.0296 31.3019Z" fill="#FFFFF3"/>
<path d="M33.3031 36.0046C33.7171 36.0046 34.0527 35.669 34.0527 35.255C34.0527 34.841 33.7171 34.5054 33.3031 34.5054C32.8891 34.5054 32.5535 34.841 32.5535 35.255C32.5535 35.669 32.8891 36.0046 33.3031 36.0046Z" fill="#FFFFF3"/>
<path d="M23.4906 36.821C23.9046 36.821 24.2402 36.4854 24.2402 36.0714C24.2402 35.6574 23.9046 35.3218 23.4906 35.3218C23.0766 35.3218 22.741 35.6574 22.741 36.0714C22.741 36.4854 23.0766 36.821 23.4906 36.821Z" fill="#FFFFF3"/>
</svg>
