<svg width="72" height="72" viewBox="0 0 72 72" fill="none" xmlns="http://www.w3.org/2000/svg">
<circle cx="36" cy="36" r="36" fill="#F0F0F0"/>
<path d="M49.1652 49.2723L41.0045 47.8332C40.655 47.7717 40.4748 47.3793 40.6565 47.0739C41.0072 46.4838 41.2481 45.8352 41.3673 45.1592L42.522 38.6102C42.6412 37.9341 42.6367 37.2421 42.5091 36.5678C42.443 36.2189 42.746 35.9117 43.0958 35.9732L51.2565 37.4123C51.606 37.4738 51.7858 37.8662 51.6044 38.1716C51.2537 38.7617 51.0129 39.4103 50.8937 40.0863L49.7389 46.6353C49.6197 47.3114 49.624 48.0035 49.7519 48.678C49.8183 49.0266 49.515 49.3338 49.1652 49.2723Z" fill="#B4DE87"/>
<path d="M45.2523 36.3535L43.0958 35.9732C42.7463 35.9117 42.443 36.2189 42.5091 36.5678C42.6368 37.2421 42.6413 37.9341 42.5221 38.6102L41.3673 45.1592C41.2481 45.8352 41.0073 46.4838 40.6566 47.0739C40.4749 47.3793 40.6548 47.7717 41.0046 47.8332L47.6662 49.0079C45.9579 44.9751 45.0754 41.2957 45.2523 36.3535Z" fill="#92D18A"/>
<path d="M51.2564 37.4121L43.0957 35.9734C42.7462 35.9115 42.5663 35.5191 42.7477 35.214C43.0984 34.624 43.3393 33.9754 43.4585 33.2993L44.6132 26.7503C44.7324 26.0742 44.7282 25.3822 44.6002 24.7076C44.5341 24.3591 44.8372 24.0518 45.187 24.1134L53.3476 25.5524C53.6974 25.614 53.8773 26.0063 53.6956 26.3115C53.3449 26.9015 53.1041 27.5504 52.9849 28.2265L51.8301 34.7755C51.7109 35.4515 51.7154 36.1436 51.8431 36.8178C51.9092 37.1667 51.6062 37.4737 51.2564 37.4121Z" fill="#8EC15D"/>
<path d="M47.4183 24.5069L45.187 24.1134C44.8372 24.0518 44.5342 24.3591 44.6003 24.7076C44.728 25.3822 44.7325 26.0742 44.6133 26.7503L43.4585 33.2993C43.3393 33.9754 43.0985 34.624 42.7475 35.214C42.5661 35.5191 42.746 35.9115 43.0958 35.9734L47.3386 36.7216C46.3511 33.9748 46.7785 27.9065 47.4183 24.5069Z" fill="#57B33B"/>
<path d="M53.9345 24.9581C53.8068 24.2836 53.8023 23.5915 53.9215 22.9155L54.3627 20.4131L46.5775 15.6113L45.5498 21.4396C45.4306 22.1154 45.1898 22.7643 44.8388 23.3543C44.6574 23.6594 44.8373 24.0518 45.1871 24.1134L53.3477 25.5524C53.6972 25.614 54.0006 25.307 53.9345 24.9581Z" fill="#B4DE87"/>
<path d="M48.8655 17.0226L46.5775 15.6113L45.5498 21.4396C45.4306 22.1154 45.1898 22.7643 44.8388 23.3543C44.6574 23.6594 44.8373 24.0518 45.1871 24.1134L48.6718 24.7278C47.6266 22.4163 48.2459 19.3327 48.8655 17.0226Z" fill="#92D18A"/>
<path d="M46.0996 51.2524L37.9389 52.6915C37.5894 52.753 37.2861 52.4458 37.3522 52.0972C37.4801 51.4227 37.4847 50.7306 37.3655 50.0545L36.2104 43.5055C36.0912 42.8298 35.8504 42.1809 35.4997 41.5908C35.3183 41.2857 35.4982 40.8934 35.848 40.8318L44.0086 39.3927C44.3581 39.3309 44.6615 39.6381 44.5954 39.987C44.4674 40.6616 44.4629 41.3533 44.5821 42.0294L45.7371 48.5784C45.8563 49.2544 46.0972 49.9033 46.4479 50.4934C46.6293 50.7985 46.4494 51.1909 46.0996 51.2524Z" fill="#8EC15D"/>
<path d="M38.7438 40.3213L35.8477 40.832C35.4982 40.8935 35.3183 41.2859 35.4997 41.591C35.8504 42.1811 36.0912 42.8299 36.2104 43.506L37.3652 50.055C37.4844 50.7308 37.4802 51.4228 37.3522 52.0974C37.2861 52.4463 37.5894 52.7535 37.9389 52.6916L42.6758 51.8565C39.9387 49.6898 38.8911 44.0689 38.7438 40.3213Z" fill="#57B33B"/>
<path d="M44.0085 39.3931L35.8478 40.8321C35.4983 40.8937 35.195 40.5864 35.2611 40.2378C35.3891 39.5633 35.3936 38.8712 35.2744 38.1952L34.1194 31.6462C34.0001 30.9701 33.7593 30.3215 33.4086 29.7315C33.2272 29.4263 33.4071 29.034 33.7569 28.9721L41.9176 27.5334C42.2671 27.4715 42.5704 27.7787 42.5043 28.1276C42.3763 28.8019 42.3721 29.4939 42.4913 30.17L43.646 36.719C43.7653 37.3951 44.0061 38.0437 44.3568 38.634C44.5382 38.9391 44.3583 39.3315 44.0085 39.3931Z" fill="#B4DE87"/>
<path d="M36.6528 28.4614L33.7569 28.9721C33.4071 29.0337 33.2272 29.426 33.4086 29.7311C33.7593 30.3212 34.0001 30.9701 34.1194 31.6458L35.2741 38.1951C35.3933 38.8709 35.3891 39.563 35.2611 40.2375C35.195 40.5861 35.4983 40.8933 35.8478 40.8318L40.5848 39.9967C37.8476 37.8297 36.8001 32.209 36.6528 28.4614Z" fill="#92D18A"/>
<path d="M42.2658 26.7738C41.9151 26.1838 41.6742 25.5352 41.555 24.8591L40.5533 19.1787L32.7681 23.9802L33.1831 26.3353C33.3023 27.0113 33.298 27.7031 33.1701 28.3776C33.104 28.7265 33.4073 29.0338 33.7568 28.9719L41.9175 27.5332C42.2673 27.4713 42.4472 27.0792 42.2658 26.7738Z" fill="#8EC15D"/>
<path d="M32.7681 23.9802L33.1834 26.335C33.3026 27.011 33.298 27.7031 33.1701 28.3773C33.104 28.7262 33.4073 29.0335 33.7571 28.9719L38.4937 28.1365C36.9986 26.9531 36.0083 24.7381 35.3929 22.3613L32.7681 23.9802Z" fill="#57B33B"/>
<path d="M30.1336 35.6333C28.9801 35.6333 27.8897 36.1606 27.1735 37.0648L24.5912 40.3247C22.0804 43.4946 19.9538 46.9506 18.2559 50.6204L17.0942 53.1308C16.7857 53.7972 17.2726 54.559 18.0072 54.559H42.2598C42.9944 54.559 43.4813 53.7972 43.1728 53.1308L42.0114 50.6204C40.3131 46.9506 38.1866 43.4946 35.6758 40.3247L33.0935 37.0648C32.3773 36.1606 31.2869 35.6333 30.1336 35.6333Z" fill="#F8EED1"/>
<path d="M28.126 36.2109C27.7665 36.4367 27.4433 36.7237 27.1735 37.0645L24.5912 40.3243C22.0804 43.4943 19.9535 46.9503 18.2556 50.62L17.0942 53.1305C16.7857 53.7969 17.2726 54.5587 18.0072 54.5587H37.1764C26.744 50.8551 25.6765 40.9059 28.126 36.2109Z" fill="#EDD8A4"/>
<path d="M54.3626 20.413C54.1854 21.4175 52.2991 21.1567 50.1493 19.8308C47.9995 18.5047 46.4002 16.6156 46.5774 15.6112C46.7542 14.6068 48.6409 14.8675 50.7907 16.1934C52.9405 17.5196 54.5398 19.4086 54.3626 20.413Z" fill="#F8EED1"/>
<path d="M32.7678 23.9804C32.945 24.9845 34.8313 24.7241 36.9811 23.3979C39.1309 22.0721 40.7302 20.183 40.553 19.1786C40.3762 18.1742 38.4895 18.4349 36.3397 19.7608C34.1899 21.0869 32.5906 22.976 32.7678 23.9804Z" fill="#F8EED1"/>
<path d="M22.5092 51.9425C22.5092 52.2597 22.2524 52.5166 21.9352 52.5166C21.618 52.5166 21.3608 52.2597 21.3608 51.9425C21.3608 51.6253 21.618 51.3682 21.9352 51.3682C22.2524 51.3682 22.5092 51.6253 22.5092 51.9425Z" fill="#F8EED1"/>
<path d="M24.6726 46.616C24.6726 46.9332 24.4157 47.1904 24.0985 47.1904C23.7813 47.1904 23.5242 46.9332 23.5242 46.616C23.5242 46.2988 23.7813 46.042 24.0985 46.042C24.4157 46.042 24.6726 46.2988 24.6726 46.616Z" fill="#F8EED1"/>
<path d="M27.0881 50.1481C27.0881 50.465 26.831 50.7221 26.5138 50.7221C26.1966 50.7221 25.9395 50.465 25.9395 50.1481C25.9395 49.8309 26.1966 49.5737 26.5138 49.5737C26.831 49.5737 27.0881 49.8309 27.0881 50.1481Z" fill="#F8EED1"/>
<path d="M35.8166 50.7215C35.8166 51.0387 35.5595 51.2959 35.2423 51.2959C34.9251 51.2959 34.6682 51.0387 34.6682 50.7215C34.6682 50.4046 34.9251 50.1475 35.2423 50.1475C35.5595 50.1475 35.8166 50.4046 35.8166 50.7215Z" fill="#EDD8A4"/>
<path d="M30.133 40.1961C30.133 40.5133 29.8762 40.7705 29.559 40.7705C29.2418 40.7705 28.9846 40.5133 28.9846 40.1961C28.9846 39.8792 29.2418 39.6221 29.559 39.6221C29.8762 39.6221 30.133 39.8792 30.133 40.1961Z" fill="#EDD8A4"/>
<path d="M33.0869 43.68C33.0869 43.9972 32.8297 44.2543 32.5125 44.2543C32.1956 44.2543 31.9385 43.9972 31.9385 43.68C31.9385 43.3628 32.1956 43.106 32.5125 43.106C32.8297 43.106 33.0869 43.3628 33.0869 43.68Z" fill="#EDD8A4"/>
<path d="M37.8932 19.8823C37.8011 19.7229 37.5038 19.722 37.2292 19.8807C36.9545 20.0392 36.8066 20.2972 36.8987 20.4566C36.9907 20.616 37.288 20.6169 37.5627 20.4584C37.8373 20.2997 37.9852 20.0419 37.8932 19.8823Z" fill="#EDD8A4"/>
<path d="M35.0975 22.749C35.0052 22.5896 34.7079 22.5887 34.4335 22.7474C34.1589 22.9059 34.0107 23.1636 34.1028 23.3233C34.1948 23.4827 34.4921 23.4836 34.7667 23.3248C35.0414 23.1664 35.1896 22.9086 35.0975 22.749Z" fill="#EDD8A4"/>
<path d="M48.2501 15.7309C48.1578 15.8905 48.306 16.1483 48.5806 16.3067C48.8553 16.4655 49.1525 16.4646 49.2446 16.3052C49.3366 16.1456 49.1888 15.8878 48.9141 15.7294C48.6395 15.5706 48.3422 15.5715 48.2501 15.7309Z" fill="#EDD8A4"/>
<path d="M52.5608 19.3355C52.4687 19.4949 52.6166 19.7526 52.8913 19.9114C53.1659 20.0698 53.4632 20.0692 53.5553 19.9096C53.6476 19.7502 53.4994 19.4922 53.2248 19.3337C52.9501 19.1753 52.6528 19.1759 52.5608 19.3355Z" fill="#EDD8A4"/>
<path d="M49.6316 18.2255C49.5395 18.3852 49.6874 18.6429 49.9621 18.8014C50.2367 18.9601 50.534 18.9592 50.6261 18.7999C50.7181 18.6402 50.5702 18.3825 50.2956 18.224C50.0209 18.0653 49.7236 18.0662 49.6316 18.2255Z" fill="#EDD8A4"/>
</svg>
