<svg width="61" height="61" viewBox="0 0 61 61" fill="none" xmlns="http://www.w3.org/2000/svg">
<path d="M30.5 61C47.3447 61 61 47.3447 61 30.5C61 13.6553 47.3447 0 30.5 0C13.6553 0 0 13.6553 0 30.5C0 47.3447 13.6553 61 30.5 61Z" fill="#F0F0F0"/>
<path d="M30.5 0C18.4079 0 7.95974 7.03704 3.02637 17.2392H57.9734C53.0402 7.03704 42.5919 0 30.5 0Z" fill="#338AF3"/>
<path d="M30.5 60.9999C42.5919 60.9999 53.0402 53.9629 57.9735 43.7607H3.02637C7.95974 53.9629 18.4079 60.9999 30.5 60.9999Z" fill="#338AF3"/>
<path d="M39.6161 30.4995L35.8912 32.2517L37.8748 35.8592L33.8299 35.0854L33.3174 39.1714L30.5001 36.1662L27.6826 39.1714L27.1702 35.0854L23.1254 35.8591L25.1088 32.2516L21.384 30.4995L25.109 28.7473L23.1254 25.14L27.1701 25.9137L27.6828 21.8276L30.5001 24.8328L33.3175 21.8276L33.8299 25.9137L37.8749 25.14L35.8913 28.7474L39.6161 30.4995Z" fill="#FFDA44"/>
</svg>
