<svg width="61" height="61" viewBox="0 0 61 61" fill="none" xmlns="http://www.w3.org/2000/svg">
<path d="M61 30.5002C61 26.7695 60.329 23.1956 59.1029 19.8916L30.5 18.5654L1.89708 19.8915C0.671 23.1956 0 26.7695 0 30.5002C0 34.231 0.671 37.8049 1.89708 41.1089L30.5 42.435L59.1029 41.109C60.329 37.8049 61 34.231 61 30.5002Z" fill="#FFDA44"/>
<path d="M30.4999 60.9998C43.6138 60.9998 54.7934 52.7228 59.1028 41.1084H1.89697C6.20641 52.7228 17.386 60.9998 30.4999 60.9998Z" fill="#6DA544"/>
<path d="M1.89697 19.8914H59.1029C54.7934 8.27694 43.6138 0 30.4999 0C17.386 0 6.20641 8.27694 1.89697 19.8914Z" fill="#D80027"/>
</svg>
