<svg width="61" height="61" viewBox="0 0 61 61" fill="none" xmlns="http://www.w3.org/2000/svg">
<path d="M30.5 61C47.3447 61 61 47.3447 61 30.5C61 13.6553 47.3447 0 30.5 0C13.6553 0 0 13.6553 0 30.5C0 47.3447 13.6553 61 30.5 61Z" fill="#6DA544"/>
<path d="M30.5001 11.9351L55.6957 30.5003L30.5001 49.0655L5.30444 30.5003L30.5001 11.9351Z" fill="#FFDA44"/>
<path d="M30.5 41.1084C36.359 41.1084 41.1086 36.3587 41.1086 30.4998C41.1086 24.6408 36.359 19.8911 30.5 19.8911C24.641 19.8911 19.8914 24.6408 19.8914 30.4998C19.8914 36.3587 24.641 41.1084 30.5 41.1084Z" fill="#F0F0F0"/>
<path d="M25.1957 29.8369C23.3509 29.8369 21.5706 30.1175 19.8948 30.6381C19.969 36.4331 24.6874 41.1087 30.5001 41.1087C34.0943 41.1087 37.2687 39.3196 39.1877 36.5852C35.9045 32.4752 30.8529 29.8369 25.1957 29.8369Z" fill="#0052B4"/>
<path d="M40.9122 32.5323C41.0399 31.8742 41.1089 31.1952 41.1089 30.4998C41.1089 24.6407 36.3592 19.8911 30.5003 19.8911C26.1285 19.8911 22.3756 22.5362 20.7515 26.3127C22.1871 26.0152 23.6735 25.8585 25.196 25.8585C31.3576 25.8584 36.9317 28.4197 40.9122 32.5323Z" fill="#0052B4"/>
</svg>
