<svg width="62" height="62" viewBox="0 0 62 62" fill="none" xmlns="http://www.w3.org/2000/svg">
<path d="M0 31C0 13.8793 13.8793 0 31 0C48.1207 0 62 13.8793 62 31L31 33.6957L0 31Z" fill="#FFDA44"/>
<path d="M4.14819 46.5003C9.50841 55.7659 19.5258 62.0003 31 62.0003C42.4742 62.0003 52.4916 55.7659 57.8518 46.5003L31 44.4785L4.14819 46.5003Z" fill="#D80027"/>
<path d="M57.8518 46.5C60.4895 41.9403 62 36.6467 62 31H0C0 36.6467 1.51052 41.9403 4.14819 46.5H57.8518Z" fill="#0052B4"/>
<path d="M31.0001 41.7824C36.9551 41.7824 41.7826 36.9549 41.7826 30.9998C41.7826 25.0448 36.9551 20.2173 31.0001 20.2173C25.045 20.2173 20.2175 25.0448 20.2175 30.9998C20.2175 36.9549 25.045 41.7824 31.0001 41.7824Z" fill="#FFDA44"/>
<path d="M30.9999 37.7389C27.2838 37.7389 24.2607 34.7157 24.2607 30.9998V26.9564C24.2607 23.2404 27.284 20.2173 30.9999 20.2173C34.7157 20.2173 37.739 23.2405 37.739 26.9564V30.9998C37.739 34.7158 34.7159 37.7389 30.9999 37.7389Z" fill="#338AF3"/>
<path d="M41.7826 14.826H33.6956C33.6956 13.3373 32.4887 12.1304 31 12.1304C29.5112 12.1304 28.3043 13.3373 28.3043 14.826H20.2173C20.2173 16.3149 21.5141 17.5217 23.0027 17.5217H22.913C22.913 19.0106 24.1198 20.2174 25.6086 20.2174C25.6086 21.7062 26.8154 22.913 28.3043 22.913H33.6956C35.1845 22.913 36.3913 21.7062 36.3913 20.2174C37.8801 20.2174 39.087 19.0106 39.087 17.5217H38.9972C40.486 17.5217 41.7826 16.3148 41.7826 14.826Z" fill="black"/>
</svg>
