<svg width="61" height="61" viewBox="0 0 61 61" fill="none" xmlns="http://www.w3.org/2000/svg">
<path d="M30.5 61C47.3447 61 61 47.3447 61 30.5C61 13.6553 47.3447 0 30.5 0C13.6553 0 0 13.6553 0 30.5C0 47.3447 13.6553 61 30.5 61Z" fill="#F0F0F0"/>
<path d="M30.5002 0C18.4081 0 7.95999 7.03704 3.02661 17.2392H57.9737C53.0404 7.03704 42.5921 0 30.5002 0Z" fill="#D80027"/>
<path d="M30.5002 61.0004C42.5921 61.0004 53.0404 53.9634 57.9738 43.7612H3.02661C7.95999 53.9634 18.4081 61.0004 30.5002 61.0004Z" fill="#0052B4"/>
<path d="M38.0013 21.6729L35.1883 24.4859C36.3882 25.6857 37.1304 27.3433 37.1304 29.1743C37.1304 32.8362 34.1618 35.8047 30.5 35.8047C26.8382 35.8047 23.8696 32.8361 23.8696 29.1743C23.8696 27.3433 24.6118 25.6857 25.8117 24.4859L22.9987 21.6729C21.0787 23.5924 19.8914 26.2446 19.8914 29.1743C19.8914 35.0334 24.641 39.7829 30.5 39.7829C36.359 39.7829 41.1086 35.0333 41.1086 29.1743C41.1085 26.2446 39.9212 23.5924 38.0013 21.6729Z" fill="#6DA544"/>
<path d="M30.4999 25.1953L31.4875 28.2346H34.6829L32.0977 30.1127L33.0853 33.1519L30.4999 31.2736L27.9146 33.1519L28.9021 30.1127L26.3169 28.2346H29.5124L30.4999 25.1953Z" fill="#FFDA44"/>
</svg>
