<svg width="62" height="62" viewBox="0 0 62 62" fill="none" xmlns="http://www.w3.org/2000/svg">
<path d="M31 62C48.1208 62 62 48.1208 62 31C62 13.8792 48.1208 0 31 0C13.8792 0 0 13.8792 0 31C0 48.1208 13.8792 62 31 62Z" fill="#F0F0F0"/>
<path d="M31 22.9132H60.9321C60.1548 20.0294 58.9734 17.312 57.45 14.8262H31V22.9132Z" fill="#338AF3"/>
<path d="M11.7029 55.2608H50.2971C53.1262 53.0075 55.5524 50.2706 57.45 47.1738H4.55005C6.44771 50.2704 8.87394 53.0075 11.7029 55.2608Z" fill="#338AF3"/>
<path d="M31 0V6.73911H50.2971C45.0017 2.52166 38.2958 0 31 0Z" fill="#338AF3"/>
<path d="M31 22.9132H60.9321C60.1548 20.0294 58.9734 17.312 57.45 14.8262H31V22.9132Z" fill="#338AF3"/>
<path d="M0 31C0 33.7981 0.372969 36.5084 1.06793 39.087H60.9322C61.627 36.5084 62 33.7981 62 31H0Z" fill="#338AF3"/>
<path d="M26.9565 18.1425L23.1704 19.9235L25.1865 23.5902L21.0754 22.8038L20.5544 26.9567L17.691 23.9022L14.8274 26.9567L14.3066 22.8038L10.1954 23.5899L12.2114 19.9233L8.42554 18.1425L12.2115 16.3619L10.1954 12.6951L14.3065 13.4815L14.8275 9.32861L17.691 12.3831L20.5545 9.32861L21.0754 13.4815L25.1866 12.6951L23.1705 16.362L26.9565 18.1425Z" fill="#FFDA44"/>
</svg>
