<svg width="20" height="23" viewBox="0 0 20 23" fill="none" xmlns="http://www.w3.org/2000/svg">
<g opacity="1">
<path d="M15.5556 0V2.22222H18.8967C19.5056 2.22222 20 2.71667 20 3.32556V21.1189C19.9997 21.4114 19.8834 21.6919 19.6765 21.8987C19.4697 22.1056 19.1892 22.2219 18.8967 22.2222H1.10333C0.810711 22.2222 0.530074 22.106 0.323159 21.8991C0.116244 21.6921 0 21.4115 0 21.1189V3.32556C0 2.71667 0.494445 2.22222 1.10333 2.22222H4.44444V0H15.5556ZM4.44444 4.44444H2.22222V20H17.7778V4.44444H15.5556V6.66667H4.44444V4.44444ZM6.66667 15.5556V17.7778H4.44444V15.5556H6.66667ZM6.66667 12.2222V14.4444H4.44444V12.2222H6.66667ZM6.66667 8.88889V11.1111H4.44444V8.88889H6.66667ZM13.3333 2.22222H6.66667V4.44444H13.3333V2.22222Z" fill="white"/>
</g>
</svg>
