<svg width="21" height="23" viewBox="0 0 21 23" fill="none" xmlns="http://www.w3.org/2000/svg">
<path d="M0.301232 2.29707C0.2073 2.37849 0.131836 2.47903 0.0798865 2.59196C0.0279375 2.70489 0.00070143 2.82762 0 2.95192V21.2878C0 21.5194 0.0919912 21.7415 0.255736 21.9052C0.419481 22.069 0.641567 22.161 0.873138 22.161C1.10471 22.161 1.32679 22.069 1.49054 21.9052C1.65428 21.7415 1.74628 21.5194 1.74628 21.2878V16.4605C4.6702 14.151 7.1892 15.3963 10.0902 16.8326C11.8801 17.7178 13.8076 18.6717 15.8747 18.6717C17.3951 18.6717 18.9897 18.1533 20.6574 16.7071C20.7513 16.6257 20.8267 16.5252 20.8787 16.4122C20.9306 16.2993 20.9579 16.1766 20.9586 16.0523V2.95192C20.9582 2.78433 20.9096 2.62039 20.8185 2.47968C20.7275 2.33897 20.5979 2.22744 20.4452 2.15839C20.2925 2.08934 20.1231 2.0657 19.9573 2.09029C19.7916 2.11488 19.6364 2.18667 19.5103 2.29707C16.4543 4.94158 13.8654 3.66025 10.8651 2.17483C7.75674 0.63374 4.23254 -1.10926 0.301232 2.29707ZM19.209 15.6397C16.2851 17.9492 13.7661 16.7028 10.8651 15.2675C8.13655 13.9196 5.10131 12.4156 1.74628 14.3507V3.36557C4.6702 1.05612 7.1892 2.30143 10.0902 3.73665C12.8188 5.08456 15.8551 6.58854 19.209 4.65345V15.6397Z" fill="white"/>
</svg>
