<svg width="27" height="27" viewBox="0 0 27 27" fill="none" xmlns="http://www.w3.org/2000/svg">
<g opacity="1">
<path d="M13.5 2.25C13.7984 2.25 14.0845 2.36853 14.2955 2.5795C14.5065 2.79048 14.625 3.07663 14.625 3.375V3.43688C16.9075 3.69271 19.0352 4.71664 20.6593 6.3407C22.2834 7.96476 23.3073 10.0925 23.5631 12.375H23.625C23.9234 12.375 24.2095 12.4935 24.4205 12.7045C24.6315 12.9155 24.75 13.2016 24.75 13.5C24.75 13.7984 24.6315 14.0845 24.4205 14.2955C24.2095 14.5065 23.9234 14.625 23.625 14.625H23.5631C23.3073 16.9075 22.2834 19.0352 20.6593 20.6593C19.0352 22.2834 16.9075 23.3073 14.625 23.5631V23.625C14.625 23.9234 14.5065 24.2095 14.2955 24.4205C14.0845 24.6315 13.7984 24.75 13.5 24.75C13.2016 24.75 12.9155 24.6315 12.7045 24.4205C12.4935 24.2095 12.375 23.9234 12.375 23.625V23.5631C10.0925 23.3073 7.96476 22.2834 6.3407 20.6593C4.71664 19.0352 3.69271 16.9075 3.43688 14.625H3.375C3.07663 14.625 2.79048 14.5065 2.5795 14.2955C2.36853 14.0845 2.25 13.7984 2.25 13.5C2.25 13.2016 2.36853 12.9155 2.5795 12.7045C2.79048 12.4935 3.07663 12.375 3.375 12.375H3.43688C3.69271 10.0925 4.71664 7.96476 6.3407 6.3407C7.96476 4.71664 10.0925 3.69271 12.375 3.43688V3.375C12.375 3.07663 12.4935 2.79048 12.7045 2.5795C12.9155 2.36853 13.2016 2.25 13.5 2.25ZM14.625 5.70375V6.75C14.6247 7.03674 14.5149 7.31254 14.318 7.52104C14.1212 7.72954 13.8522 7.85501 13.5659 7.87182C13.2797 7.88862 12.9978 7.79549 12.7779 7.61145C12.5581 7.42741 12.4167 7.16636 12.3829 6.88163L12.375 6.75V5.70375C10.7413 5.94036 9.22305 6.68397 8.03457 7.82966C6.84609 8.97535 6.04734 10.4653 5.751 12.0893L5.70487 12.375H6.75C7.03674 12.3753 7.31254 12.4851 7.52104 12.682C7.72954 12.8788 7.85501 13.1478 7.87182 13.4341C7.88862 13.7203 7.79549 14.0022 7.61145 14.2221C7.42741 14.4419 7.16636 14.5833 6.88163 14.6171L6.75 14.625H5.70375C5.94036 16.2587 6.68397 17.7769 7.82966 18.9654C8.97535 20.1539 10.4653 20.9527 12.0893 21.249L12.375 21.2951V20.25C12.3753 19.9633 12.4851 19.6875 12.682 19.479C12.8788 19.2705 13.1478 19.145 13.4341 19.1282C13.7203 19.1114 14.0022 19.2045 14.2221 19.3885C14.4419 19.5726 14.5833 19.8336 14.6171 20.1184L14.625 20.25V21.2962C16.2587 21.0596 17.7769 20.316 18.9654 19.1703C20.1539 18.0247 20.9527 16.5347 21.249 14.9107L21.2951 14.625H20.25C19.9633 14.6247 19.6875 14.5149 19.479 14.318C19.2705 14.1212 19.145 13.8522 19.1282 13.5659C19.1114 13.2797 19.2045 12.9978 19.3885 12.7779C19.5726 12.5581 19.8336 12.4167 20.1184 12.3829L20.25 12.375H21.2962C21.0596 10.7413 20.316 9.22305 19.1703 8.03457C18.0247 6.84609 16.5347 6.04734 14.9107 5.751L14.625 5.70375ZM13.5 11.8125C13.9476 11.8125 14.3768 11.9903 14.6932 12.3068C15.0097 12.6232 15.1875 13.0524 15.1875 13.5C15.1875 13.9476 15.0097 14.3768 14.6932 14.6932C14.3768 15.0097 13.9476 15.1875 13.5 15.1875C13.0524 15.1875 12.6232 15.0097 12.3068 14.6932C11.9903 14.3768 11.8125 13.9476 11.8125 13.5C11.8125 13.0524 11.9903 12.6232 12.3068 12.3068C12.6232 11.9903 13.0524 11.8125 13.5 11.8125Z" fill="white"/>
</g>
</svg>
