<svg width="20" height="20" viewBox="0 0 20 20" fill="none" xmlns="http://www.w3.org/2000/svg">
<path d="M11.1745 19.5074L19.501 11.1809C19.6526 11.0226 19.7714 10.8358 19.8507 10.6314C20.0172 10.226 20.0172 9.7712 19.8507 9.36577C19.7714 9.16135 19.6526 8.9746 19.501 8.81622L11.1745 0.489749C11.0192 0.334479 10.8349 0.211313 10.632 0.127282C10.4291 0.0432504 10.2117 -4.26793e-07 9.99212 -4.36391e-07C9.54865 -4.55776e-07 9.12335 0.176168 8.80977 0.489749C8.49618 0.80333 8.32002 1.22864 8.32002 1.67211C8.32002 2.11558 8.49618 2.54089 8.80977 2.85447L14.3052 8.33328L1.66565 8.33328C1.22399 8.33328 0.800416 8.50873 0.488112 8.82104C0.175809 9.13334 0.000359354 9.55691 0.000359335 9.99858C0.000359316 10.4402 0.175809 10.8638 0.488112 11.1761C0.800416 11.4884 1.22399 11.6639 1.66565 11.6639L14.3052 11.6639L8.80976 17.1427C8.65368 17.2975 8.52979 17.4817 8.44525 17.6846C8.3607 17.8875 8.31717 18.1052 8.31717 18.325C8.31717 18.5449 8.3607 18.7626 8.44525 18.9655C8.52979 19.1684 8.65368 19.3526 8.80976 19.5074C8.96458 19.6635 9.14876 19.7874 9.35169 19.8719C9.55462 19.9565 9.77229 20 9.99212 20C10.212 20 10.4296 19.9565 10.6326 19.8719C10.8355 19.7874 11.0197 19.6635 11.1745 19.5074Z" fill="white"/>
</svg>
