<svg width="20" height="20" viewBox="0 0 20 20" fill="none" xmlns="http://www.w3.org/2000/svg">
<path d="M8.82552 0.492593L0.499045 8.81906C0.347436 8.97744 0.228592 9.16419 0.149333 9.36861C-0.0172262 9.77404 -0.0172262 10.2288 0.149333 10.6342C0.228592 10.8387 0.347436 11.0254 0.499045 11.1838L8.82552 19.5103C8.98079 19.6655 9.16512 19.7887 9.36799 19.8727C9.57086 19.9567 9.78829 20 10.0079 20C10.4513 20 10.8767 19.8238 11.1902 19.5103C11.5038 19.1967 11.68 18.7714 11.68 18.3279C11.68 17.8844 11.5038 17.4591 11.1902 17.1455L5.69476 11.6667L18.3343 11.6667C18.776 11.6667 19.1996 11.4913 19.5119 11.179C19.8242 10.8667 19.9996 10.4431 19.9996 10.0014C19.9996 9.55976 19.8242 9.13618 19.5119 8.82388C19.1996 8.51158 18.776 8.33613 18.3343 8.33613L5.69476 8.33613L11.1902 2.85731C11.3463 2.7025 11.4702 2.51831 11.5548 2.31538C11.6393 2.11245 11.6828 1.89479 11.6828 1.67495C11.6828 1.45511 11.6393 1.23745 11.5548 1.03452C11.4702 0.831586 11.3463 0.647404 11.1902 0.492593C11.0354 0.336507 10.8512 0.212617 10.6483 0.128072C10.4454 0.0435264 10.2277 7.46093e-07 10.0079 7.55702e-07C9.78804 7.65311e-07 9.57037 0.0435265 9.36744 0.128072C9.16451 0.212617 8.98033 0.336507 8.82552 0.492593Z" fill="white"/>
</svg>
