<svg width="17" height="25" viewBox="0 0 17 25" fill="none" xmlns="http://www.w3.org/2000/svg">
<g opacity="1">
<path fill-rule="evenodd" clip-rule="evenodd" d="M1.88889 2.83333C1.88889 2.58285 1.98839 2.34263 2.16551 2.16551C2.34263 1.98839 2.58285 1.88889 2.83333 1.88889H14.1667C14.4171 1.88889 14.6574 1.98839 14.8345 2.16551C15.0116 2.34263 15.1111 2.58285 15.1111 2.83333V21.7222C15.1111 21.9727 15.0116 22.2129 14.8345 22.39C14.6574 22.5672 14.4171 22.6667 14.1667 22.6667H2.83333C2.58285 22.6667 2.34263 22.5672 2.16551 22.39C1.98839 22.2129 1.88889 21.9727 1.88889 21.7222V2.83333ZM2.83333 0C2.08189 0 1.36122 0.298511 0.829864 0.829864C0.298511 1.36122 0 2.08189 0 2.83333V21.7222C0 22.4737 0.298511 23.1943 0.829864 23.7257C1.36122 24.257 2.08189 24.5556 2.83333 24.5556H14.1667C14.9181 24.5556 15.6388 24.257 16.1701 23.7257C16.7015 23.1943 17 22.4737 17 21.7222V2.83333C17 2.08189 16.7015 1.36122 16.1701 0.829864C15.6388 0.298511 14.9181 0 14.1667 0H2.83333ZM5.66667 20.1167C5.49133 20.1167 5.32317 20.1863 5.19919 20.3103C5.07521 20.4343 5.00556 20.6024 5.00556 20.7778C5.00556 20.9531 5.07521 21.1213 5.19919 21.2453C5.32317 21.3692 5.49133 21.4389 5.66667 21.4389H11.3333C11.5087 21.4389 11.6768 21.3692 11.8008 21.2453C11.9248 21.1213 11.9944 20.9531 11.9944 20.7778C11.9944 20.6024 11.9248 20.4343 11.8008 20.3103C11.6768 20.1863 11.5087 20.1167 11.3333 20.1167H5.66667Z" fill="white"/>
</g>
</svg>
