<svg width="72" height="72" viewBox="0 0 72 72" fill="none" xmlns="http://www.w3.org/2000/svg">
<circle cx="36" cy="36" r="36" fill="#F0F0F0"/>
<path d="M51.9508 34.1674C52.8221 33.0751 53.3431 31.6912 53.3431 30.1856C53.3431 26.656 50.4818 23.7947 46.9522 23.7947C46.5327 23.7947 46.1228 23.8356 45.7259 23.9128C43.902 20.4 40.2315 18 36 18C31.7685 18 28.098 20.4 26.2741 23.9128C25.8772 23.8357 25.4673 23.7947 25.0478 23.7947C21.5182 23.7947 18.6569 26.656 18.6569 30.1856C18.6569 31.6913 19.1779 33.0751 20.0492 34.1674C18.7607 35.9373 18 38.116 18 40.4727C18 46.3961 22.8019 51.198 28.7253 51.198C29.1031 51.198 29.4764 51.1782 29.8442 51.1401C31.322 52.889 33.531 54 36 54C38.469 54 40.678 52.889 42.1558 51.1401C42.5236 51.1782 42.8968 51.198 43.2747 51.198C49.1981 51.198 54 46.3961 54 40.4727C54 38.116 53.2393 35.9373 51.9508 34.1674Z" fill="#495560"/>
<path d="M32.5494 40.4728C32.5494 40.4612 32.5494 40.4496 32.5495 40.4381C32.5515 39.8062 32.1794 39.2384 31.6008 38.9843C27.7426 37.2901 25.0478 33.4363 25.0478 28.9524C25.0478 27.1349 25.491 25.4211 26.2744 23.9124C26.2743 23.9126 26.2742 23.9128 26.2741 23.9129C25.8739 23.8351 25.4606 23.7942 25.0376 23.7949C21.4661 23.8006 18.6223 26.6782 18.6572 30.2495C18.6717 31.7305 19.1902 33.0907 20.0491 34.1675C18.7607 35.9374 18 38.1161 18 40.4728C18 46.3963 22.8019 51.1982 28.7253 51.1982C29.1031 51.1982 29.4764 51.1783 29.8442 51.1402C31.322 52.8891 33.531 54.0001 36 54.0001C38.469 54.0001 40.678 52.8891 42.1558 51.1402C36.7583 50.5806 32.5494 46.0184 32.5494 40.4728Z" fill="#3D4751"/>
<path d="M45.2792 28.1409C48.0795 28.1409 50.3496 25.8708 50.3496 23.0704C50.3496 20.2701 48.0795 18 45.2792 18C42.4789 18 40.2087 20.2701 40.2087 23.0704C40.2087 25.8708 42.4789 28.1409 45.2792 28.1409Z" fill="#5F7080"/>
<path d="M23.2243 22.346C24.4244 22.346 25.3973 21.3731 25.3973 20.173C25.3973 18.9729 24.4244 18 23.2243 18C22.0242 18 21.0513 18.9729 21.0513 20.173C21.0513 21.3731 22.0242 22.346 23.2243 22.346Z" fill="#5F7080"/>
<path d="M34.4091 41.5352C32.8547 41.5352 31.4828 42.3144 30.6608 43.5029C29.5239 42.2924 27.91 41.5352 26.1183 41.5352C22.6764 41.5352 19.8862 44.3254 19.8862 47.7672C19.8862 51.2091 22.6764 53.9993 26.1183 53.9993C28.7987 53.9993 31.0834 52.3069 31.9633 49.9326C32.67 50.3834 33.5087 50.6458 34.4091 50.6458C36.925 50.6458 38.9644 48.6063 38.9644 46.0905C38.9644 43.5746 36.9249 41.5352 34.4091 41.5352Z" fill="#5F7080"/>
<path d="M29.9045 38.2117C28.0161 38.2117 26.4797 36.6754 26.4797 34.787C26.4797 32.8986 28.0161 31.3623 29.9045 31.3623C30.5906 31.3623 31.2529 31.5647 31.8196 31.9474C32.061 32.1104 32.1244 32.4382 31.9614 32.6796C31.7984 32.9209 31.4707 32.9843 31.2293 32.8214C30.8376 32.5568 30.3795 32.417 29.9045 32.417C28.5976 32.417 27.5344 33.4802 27.5344 34.787C27.5344 36.0938 28.5976 37.157 29.9045 37.157C30.3978 37.157 30.8148 37.0085 31.1439 36.7153C31.2079 36.6583 31.2691 36.5952 31.3257 36.5276C31.5128 36.3045 31.8455 36.2752 32.0687 36.4624C32.2918 36.6495 32.321 36.9822 32.1339 37.2053C32.0445 37.3119 31.9474 37.4121 31.8454 37.5029C31.3248 37.9666 30.6536 38.2117 29.9045 38.2117Z" fill="white"/>
<path d="M43.1831 38.2128C42.0799 38.2128 41.9989 38.1857 41.9299 38.1627C41.7537 38.104 41.6221 37.9709 41.5688 37.7977C41.4766 37.4981 41.608 37.3261 41.9588 36.8667C42.2479 36.4882 42.7861 35.7835 43.6877 34.4953C43.9572 34.1103 44.1309 33.7651 44.2045 33.4687L44.2242 33.3141C44.2084 32.8168 43.7989 32.417 43.2977 32.417C42.8557 32.417 42.4731 32.731 42.3882 33.1637C42.3321 33.4494 42.0553 33.636 41.7691 33.5795C41.4833 33.5234 41.2971 33.2463 41.3532 32.9604C41.5351 32.0344 42.3528 31.3623 43.2977 31.3623C44.3903 31.3623 45.2793 32.2513 45.2793 33.344C45.2793 33.3663 45.2779 33.3886 45.2751 33.4108L45.247 33.6307C45.2448 33.6482 45.2417 33.6657 45.2376 33.683C45.137 34.1167 44.9062 34.5935 44.5517 35.1C43.8635 36.0833 43.3834 36.7322 43.0628 37.157C43.6049 37.1556 44.3182 37.1524 44.9862 37.144C44.9885 37.1439 44.9907 37.1439 44.993 37.1439C45.2812 37.1439 45.5165 37.3756 45.5202 37.6646C45.5239 37.9559 45.2907 38.1949 44.9996 38.1985C44.1989 38.2086 43.6132 38.2128 43.1831 38.2128Z" fill="white"/>
<path d="M36.8002 38.2117C34.9118 38.2117 33.3755 36.6754 33.3755 34.787C33.3755 32.8986 34.9118 31.3623 36.8002 31.3623C38.6886 31.3623 40.225 32.8986 40.225 34.787C40.225 36.6754 38.6886 38.2117 36.8002 38.2117ZM36.8002 32.417C35.4934 32.417 34.4302 33.4802 34.4302 34.787C34.4302 36.0938 35.4934 37.157 36.8002 37.157C38.1071 37.157 39.1703 36.0938 39.1703 34.787C39.1703 33.4802 38.1071 32.417 36.8002 32.417Z" fill="white"/>
</svg>
