<svg width="72" height="72" viewBox="0 0 72 72" fill="none" xmlns="http://www.w3.org/2000/svg">
<circle cx="36" cy="36" r="36" fill="#F0F0F0"/>
<path d="M51.4725 31.6617C51.4725 33.4562 53.2237 35.5042 52.7 37.122C52.153 38.7964 49.5146 39.4235 48.5006 40.8178C48.4105 40.9478 48.3271 41.0813 48.2537 41.228C47.4999 42.699 47.5633 45.0205 46.2791 45.9545C44.8848 46.9685 42.3898 45.9378 40.7121 46.4815C40.3385 46.6016 39.9816 46.8184 39.628 47.0752C38.4305 47.9492 37.2798 49.3234 35.8989 49.3234C34.518 49.3234 33.3639 47.9458 32.1697 47.0752C31.8162 46.8184 31.4559 46.6016 31.0857 46.4815C29.4112 45.9345 26.9129 46.9685 25.5187 45.9545C24.2345 45.0239 24.2979 42.699 23.544 41.228C23.4706 41.0813 23.3873 40.9478 23.2972 40.8178C22.2832 39.4235 19.6414 38.7964 19.0977 37.122C18.5741 35.5042 20.3252 33.4562 20.3252 31.6617C20.3252 29.8672 18.5741 27.8192 19.0977 26.2014C19.6448 24.527 22.2832 23.8999 23.2972 22.5056C24.3245 21.0947 24.1077 18.3962 25.5187 17.3689C26.9129 16.3549 29.4079 17.3856 31.0857 16.8419C32.6968 16.3182 34.101 14 35.8955 14C37.6901 14 39.0943 16.3182 40.7121 16.8452C42.3865 17.3922 44.8848 16.3582 46.2791 17.3722C47.69 18.3962 47.4765 21.0947 48.5006 22.509C49.5146 23.9032 52.1563 24.5303 52.7 26.2047C53.2237 27.8192 51.4725 29.8672 51.4725 31.6617Z" fill="#FFE36E"/>
<path d="M35.8956 43.779C42.5882 43.779 48.0136 38.3536 48.0136 31.661C48.0136 24.9684 42.5882 19.543 35.8956 19.543C29.203 19.543 23.7776 24.9684 23.7776 31.661C23.7776 38.3536 29.203 43.779 35.8956 43.779Z" fill="#FFAA39"/>
<path d="M36.8396 24.9707L38.2105 27.7492C38.3639 28.0594 38.6608 28.2762 39.001 28.3263L42.0697 28.7732C42.9336 28.9 43.2772 29.9573 42.6534 30.5677L40.4353 32.7325C40.1884 32.9727 40.075 33.3229 40.1317 33.6631L40.6554 36.7185C40.8022 37.5791 39.9016 38.2328 39.1277 37.8259L36.3859 36.3849C36.0791 36.2248 35.7121 36.2248 35.4086 36.3849L32.6668 37.8259C31.8963 38.2328 30.9923 37.5757 31.1391 36.7185L31.6628 33.6631C31.7228 33.3229 31.6094 32.9727 31.3593 32.7325L29.1411 30.5677C28.5174 29.9607 28.8609 28.9 29.7248 28.7732L32.7935 28.3263C33.1371 28.2762 33.4306 28.0627 33.5841 27.7492L34.955 24.9707C35.3386 24.1868 36.4526 24.1868 36.8396 24.9707Z" fill="#FFFEEB"/>
<path d="M32.1665 47.0757L29.0011 55.1944L24.8317 51.9023L19.5315 51.5053L23.5375 41.2285C24.2913 42.6995 24.2279 45.021 25.5121 45.955C26.9064 46.969 29.4014 45.9383 31.0791 46.482C31.4527 46.6021 31.8096 46.8189 32.1665 47.0757Z" fill="#3980E5"/>
<path d="M52.2566 51.5053L46.9564 51.9023L42.787 55.1944L39.6216 47.0757C39.9751 46.8189 40.3354 46.6021 40.7056 46.482C42.3801 45.935 44.8784 46.969 46.2727 45.955C47.5568 45.0244 47.4935 42.6995 48.2473 41.2285L52.2566 51.5053Z" fill="#3980E5"/>
</svg>
