<svg width="72" height="72" viewBox="0 0 72 72" fill="none" xmlns="http://www.w3.org/2000/svg">
<circle cx="36" cy="36" r="36" fill="#F0F0F0"/>
<path d="M35.1693 17.4832C35.8714 17.9487 37.0202 17.9487 37.7212 17.4832L39.575 16.2514C40.2767 15.7853 41.2196 15.9865 41.6708 16.6979L42.8632 18.5785C43.3144 19.2896 44.3632 19.7565 45.1936 19.6161L47.3884 19.2442C48.2191 19.1035 48.9996 19.67 49.1219 20.5033L49.4474 22.7021C49.5708 23.5356 50.3383 24.3901 51.1545 24.6003L53.3083 25.1558C54.1246 25.3668 54.6065 26.2033 54.3797 27.0146L53.7832 29.1522C53.5567 29.9634 53.911 31.0562 54.5711 31.5799L56.3194 32.9669C56.9794 33.4907 57.0795 34.4497 56.5425 35.0992L55.1231 36.8126C54.5862 37.4614 54.4662 38.6035 54.8561 39.3501L55.8869 41.3207C56.2769 42.0677 55.9796 42.9853 55.225 43.3598L53.231 44.3495C52.4764 44.7242 51.9028 45.719 51.9554 46.5596L52.0931 48.7793C52.1465 49.6195 51.5002 50.3373 50.6581 50.3732L48.4355 50.4673C47.594 50.5033 46.6652 51.1788 46.371 51.9688L45.5978 54.0518C45.3036 54.8419 44.4226 55.2349 43.6393 54.925L41.5685 54.1064C40.7858 53.7962 39.6624 54.0349 39.0728 54.6369L37.5176 56.2254C36.9278 56.8271 35.9635 56.8271 35.3732 56.2262L33.8156 54.6367C33.2256 54.0352 32.1022 53.7966 31.3189 54.1066L29.2492 54.9251C28.466 55.2353 27.5849 54.8423 27.2913 54.052L26.5163 51.9689C26.2225 51.1792 25.2937 50.5035 24.4518 50.4675L22.23 50.3734C21.3879 50.3374 20.7424 49.6196 20.795 48.7794L20.934 46.5598C20.9863 45.7194 20.4119 44.7243 19.6575 44.3496L17.6642 43.3599C16.9098 42.9854 16.6115 42.068 17.0018 41.3209L18.0326 39.3503C18.4227 38.6037 18.3027 37.4617 17.765 36.8134L16.3455 35.0978C15.8082 34.4493 15.9089 33.4903 16.5686 32.9665L18.3173 31.5795C18.9771 31.0558 19.3318 29.9637 19.1055 29.1521L18.5075 27.0136C18.281 26.2024 18.763 25.3664 19.5786 25.1567L21.734 24.6C22.5495 24.3901 23.318 23.5355 23.441 22.702L23.7663 20.5032C23.8896 19.6699 24.6698 19.1034 25.5001 19.2441L27.6952 19.616C28.5258 19.7565 29.5745 19.2895 30.025 18.5785L31.2169 16.6978C31.6675 15.9864 32.611 15.7852 33.3132 16.2514L35.1693 17.4832Z" fill="#90DEA9"/>
<path d="M49.6726 36.3604C49.6726 43.6665 43.7493 49.5891 36.4439 49.5891C29.1388 49.5891 23.2156 43.6665 23.2156 36.3604C23.2156 29.0566 29.1386 23.1338 36.4439 23.1338C43.7493 23.1338 49.6726 29.0566 49.6726 36.3604Z" fill="#71BF8C"/>
<path d="M34.2384 42.5404L28.9434 37.2451L30.7075 35.4802L34.2384 39.0105L42.1804 31.0674L43.9445 32.8329L34.2384 42.5404Z" fill="white"/>
</svg>
