<svg width="72" height="72" viewBox="0 0 72 72" fill="none" xmlns="http://www.w3.org/2000/svg">
<circle cx="36" cy="36" r="36" fill="#F0F0F0"/>
<path d="M47.3134 42.9791L55.7279 47.1697C55.8292 47.2198 55.8678 47.344 55.8135 47.4422C54.7609 49.3605 53.4337 51.1064 51.8851 52.629C51.8047 52.7073 51.6752 52.7041 51.5989 52.6206L45.2687 45.6764C45.1988 45.5991 45.1998 45.4811 45.2719 45.4059C45.9538 44.6979 46.5521 43.9106 47.0534 43.0574C47.1077 42.9676 47.2204 42.9332 47.3134 42.9791Z" fill="#279B48"/>
<path d="M56.3045 46.0191L47.891 41.8296C47.7981 41.7826 47.7563 41.6719 47.796 41.5758C48.1729 40.6788 48.4476 39.7286 48.6074 38.7397C48.6241 38.6363 48.717 38.5632 48.8214 38.5726L58.1799 39.4393C58.2917 39.4498 58.3731 39.551 58.3585 39.6628C58.0692 41.8672 57.4584 43.9703 56.5739 45.923C56.5279 46.0264 56.4058 46.0692 56.3045 46.0191Z" fill="#C31F33"/>
<path d="M48.767 36.7402C48.767 35.8516 48.6741 34.9838 48.4976 34.1474C48.4757 34.045 48.5373 33.9437 48.6375 33.9145L57.6796 31.3415C57.7882 31.3102 57.9 31.376 57.9271 31.4856C58.3344 33.17 58.5505 34.9295 58.5505 36.7402C58.5505 37.1537 58.539 37.5641 58.5171 37.9714C58.5108 38.0842 58.4127 38.1688 58.3009 38.1583L48.9435 37.2916C48.8391 37.2822 48.7607 37.1934 48.7639 37.089C48.7649 36.9731 48.767 36.8561 48.767 36.7402Z" fill="#EF402B"/>
<path d="M41.5428 48.0707C42.4408 47.652 43.2804 47.1298 44.0479 46.52C44.1294 46.4553 44.2474 46.4647 44.3173 46.5419L50.6486 53.4872C50.7248 53.5707 50.7165 53.7002 50.6298 53.7723C48.9757 55.1684 47.1149 56.3275 45.1005 57.1974C44.9971 57.2423 44.8771 57.1922 44.8374 57.0867L41.4415 48.3224C41.4039 48.2242 41.4488 48.1146 41.5428 48.0707Z" fill="#D3A029"/>
<path d="M25.494 43.0574C25.9952 43.9106 26.5936 44.6979 27.2755 45.4059C27.3475 45.4811 27.3486 45.6002 27.2786 45.6764L20.9484 52.6206C20.8722 52.7041 20.7427 52.7073 20.6623 52.629C19.1137 51.1075 17.7864 49.3605 16.7338 47.4422C16.6795 47.343 16.7182 47.2198 16.8195 47.1697L25.234 42.9791C25.328 42.9332 25.4407 42.9676 25.494 43.0574Z" fill="#5DBB46"/>
<path d="M45.7346 28.5816C45.0892 27.8339 44.3562 27.1624 43.5511 26.585C43.4665 26.5244 43.4425 26.4085 43.4978 26.3197L48.4454 18.3281C48.505 18.2321 48.6313 18.2049 48.7253 18.2676C50.5371 19.4914 52.1588 20.9743 53.5372 22.6628C53.6082 22.7495 53.5925 22.879 53.5027 22.9468L46.004 28.6098C45.9205 28.6735 45.8025 28.6609 45.7346 28.5816Z" fill="#FDB713"/>
<path d="M23.7814 36.7402C23.7814 36.8572 23.7835 36.9731 23.7866 37.089C23.7898 37.1934 23.7104 37.2822 23.607 37.2916L14.2496 38.1583C14.1378 38.1688 14.0397 38.0842 14.0334 37.9714C14.0115 37.5641 14 37.1527 14 36.7402C14 34.9306 14.2162 33.171 14.6234 31.4856C14.6495 31.376 14.7623 31.3112 14.8709 31.3415L23.913 33.9145C24.0132 33.9427 24.0738 34.045 24.0529 34.1474C23.8744 34.9838 23.7814 35.8505 23.7814 36.7402Z" fill="#48773E"/>
<path d="M26.5435 28.6098L19.0448 22.9468C18.955 22.879 18.9393 22.7505 19.0104 22.6628C20.3888 20.9743 22.0115 19.4914 23.8222 18.2676C23.9152 18.2049 24.0426 18.2321 24.1021 18.3281L29.0497 26.3197C29.105 26.4085 29.081 26.5244 28.9964 26.585C28.1924 27.1624 27.4593 27.8328 26.8129 28.5816C26.7451 28.6609 26.6271 28.6735 26.5435 28.6098Z" fill="#F99D26"/>
<path d="M37.1039 49.2059C38.1053 49.1401 39.0754 48.9563 39.9986 48.6681C40.0978 48.6368 40.2043 48.689 40.2419 48.7861L43.6377 57.5515C43.6785 57.6559 43.6242 57.7739 43.5177 57.8105C41.5012 58.5049 39.3543 58.9163 37.1227 58.9999C37.0099 59.004 36.917 58.9142 36.917 58.8015V49.4043C36.917 49.2999 36.9995 49.2132 37.1039 49.2059Z" fill="#EB1C2D"/>
<path d="M48.0476 32.5509C47.7135 31.611 47.2697 30.7234 46.7319 29.9037C46.6744 29.817 46.6953 29.7001 46.7789 29.6374L54.2786 23.9735C54.3684 23.9056 54.4969 23.9254 54.5606 24.0184C55.7969 25.7915 56.7817 27.7536 57.4635 29.8525C57.498 29.959 57.4374 30.0739 57.3288 30.1042L48.2888 32.6762C48.1875 32.7044 48.0821 32.6501 48.0476 32.5509Z" fill="#00AED9"/>
<path d="M47.353 17.6487L42.4054 25.6392C42.35 25.728 42.2362 25.7593 42.1443 25.7102C41.2797 25.2497 40.3555 24.8874 39.3844 24.6388C39.2831 24.6127 39.2184 24.5125 39.2382 24.4101L40.9654 15.1707C40.9863 15.06 41.0949 14.989 41.2045 15.013C43.3671 15.5017 45.4097 16.3047 47.283 17.372C47.3801 17.4273 47.4125 17.5526 47.353 17.6487Z" fill="#8F1838"/>
<path d="M37.9727 24.1737C37.9539 24.276 37.8589 24.347 37.7555 24.3345C37.27 24.2771 36.775 24.2478 36.2748 24.2478C35.7736 24.2478 35.2796 24.2771 34.7941 24.3345C34.6907 24.347 34.5957 24.276 34.5769 24.1737L32.8497 14.9353C32.8288 14.8246 32.904 14.7191 33.0157 14.7024C34.0798 14.5468 35.1679 14.4654 36.2758 14.4654C37.3827 14.4654 38.4719 14.5458 39.536 14.7024C39.6477 14.7191 39.7229 14.8246 39.702 14.9353L37.9727 24.1737Z" fill="#F36D25"/>
<path d="M33.1641 24.6388C32.194 24.8874 31.2688 25.2497 30.4041 25.7102C30.3122 25.7593 30.1974 25.728 30.1431 25.6392L25.1954 17.6487C25.1359 17.5526 25.1683 17.4273 25.2654 17.372C27.1388 16.3047 29.1824 15.5017 31.3439 15.013C31.4536 14.9879 31.5622 15.06 31.5831 15.1707L33.3102 24.4101C33.329 24.5135 33.2653 24.6127 33.1641 24.6388Z" fill="#E11484"/>
<path d="M25.8168 29.9037C25.279 30.7245 24.8352 31.6121 24.501 32.5509C24.4655 32.6501 24.3601 32.7044 24.2598 32.6762L15.2198 30.1042C15.1112 30.0739 15.0507 29.959 15.0851 29.8525C15.767 27.7536 16.7517 25.7925 17.9881 24.0184C18.0528 23.9265 18.1802 23.9056 18.2701 23.9735L25.7698 29.6374C25.8533 29.7001 25.8732 29.816 25.8168 29.9037Z" fill="#CF8D2A"/>
<path d="M28.5004 46.5191C29.2669 47.1289 30.1075 47.6511 31.0055 48.0698C31.1005 48.1137 31.1454 48.2233 31.1068 48.3215L27.7109 57.0868C27.6702 57.1913 27.5501 57.2424 27.4478 57.1975C25.4334 56.3266 23.5726 55.1675 21.9185 53.7724C21.8329 53.7004 21.8245 53.5698 21.8997 53.4873L28.231 46.5421C28.2999 46.4648 28.4179 46.4544 28.5004 46.5191Z" fill="#02558B"/>
<path d="M23.9401 38.7396C24.0988 39.7285 24.3745 40.6788 24.7515 41.5758C24.7922 41.6719 24.7504 41.7836 24.6564 41.8296L16.243 46.0191C16.1427 46.0692 16.0206 46.0264 15.9736 45.924C15.0891 43.9713 14.4772 41.8682 14.189 39.6638C14.1743 39.5521 14.2558 39.4508 14.3675 39.4403L23.726 38.5736C23.8304 38.5632 23.9234 38.6363 23.9401 38.7396Z" fill="#007DBC"/>
<path d="M32.5499 48.6692C33.4731 48.9574 34.4432 49.1412 35.4446 49.207C35.549 49.2143 35.6305 49.2999 35.6305 49.4054V58.8015C35.6305 58.9142 35.5375 59.004 35.4247 58.9999C33.1942 58.9163 31.0473 58.5049 29.0309 57.8115C28.9243 57.775 28.87 57.657 28.9108 57.5525L32.3066 48.7872C32.3442 48.6901 32.4507 48.6378 32.5499 48.6692Z" fill="#183668"/>
</svg>
