<svg width="72" height="72" viewBox="0 0 72 72" fill="none" xmlns="http://www.w3.org/2000/svg">
<circle cx="36" cy="36" r="36" fill="#F0F0F0"/>
<path d="M36.8593 17.4441V55.4963C36.8593 56.7894 35.8111 57.8375 34.5194 57.8375H15.3425C14.0481 57.8375 13 56.7894 13 55.4963V17.4441C13 16.1497 14.0481 15.1016 15.3425 15.1016H34.5194C35.8111 15.1016 36.8593 16.1497 36.8593 17.4441Z" fill="#382F93"/>
<path d="M35.7197 19.6814V51.2403C35.7197 51.813 35.3168 52.295 34.7772 52.413C34.6938 52.4317 34.6075 52.4417 34.5182 52.4417H15.3416C14.7804 52.4417 14.3085 52.0547 14.1761 51.5338C14.1531 51.4403 14.1401 51.341 14.1401 51.2403V19.6814C14.1401 19.0181 14.6797 18.4785 15.3416 18.4785H34.5182C34.5384 18.4785 34.56 18.4785 34.5801 18.48C35.2146 18.513 35.7197 19.0382 35.7197 19.6814Z" fill="white"/>
<path d="M27.701 16.9785C27.701 17.0518 27.6709 17.1198 27.6225 17.1682C27.5728 17.2179 27.506 17.248 27.4314 17.248H22.4269C22.2791 17.248 22.1587 17.1264 22.1587 16.9785C22.1587 16.9039 22.1888 16.8372 22.2372 16.7875C22.2856 16.7391 22.3523 16.709 22.4269 16.709H27.4314C27.5806 16.709 27.701 16.8294 27.701 16.9785Z" fill="white"/>
<path d="M26.7171 55.0288C26.7171 55.2643 26.6218 55.4779 26.4674 55.6312C26.3129 55.7856 26.0994 55.8809 25.865 55.8809H23.9955C23.5246 55.8809 23.1423 55.4998 23.1423 55.0288C23.1423 54.7934 23.2376 54.5798 23.392 54.4265C23.5465 54.272 23.76 54.1768 23.9955 54.1768H25.865C26.3348 54.1768 26.7171 54.5579 26.7171 55.0288Z" fill="white"/>
<path d="M33.3869 21.0238V24.5998C33.3869 25.066 33.0072 25.4457 32.5409 25.4457H17.314C16.8526 25.4457 16.4729 25.066 16.4729 24.6046V21.0238C16.4729 20.5623 16.8526 20.1826 17.314 20.1826H32.5457C33.0072 20.1826 33.3869 20.5623 33.3869 21.0238Z" fill="#FDDF8C"/>
<path d="M54.9028 48.3643L53.8598 58.0012H45.5398V48.3643H54.9028Z" fill="#6675E9"/>
<g opacity="0.1">
<path d="M54.7826 48.3652L53.7396 58.0022H49.7647L48.7217 48.3652H54.7826Z" fill="black"/>
</g>
<path d="M37.9941 34.4878C36.1976 33.852 33.9147 32.978 32.8117 32.5518C32.4483 32.4114 32.0412 32.5904 31.8969 32.9522C31.752 33.3158 31.9281 33.7281 32.2908 33.8746L34.0371 34.5802C33.1843 37.3536 36.0871 37.9739 36.893 38.0916L37.9941 34.4878Z" fill="#FDC7B4"/>
<path d="M58.6129 58.0014L58.6148 48.3633H49.2502L50.2931 58.0014H58.6129Z" fill="#98A2F5"/>
<path d="M35.9084 37.839L43.7412 40.5149C44.9505 40.9403 46.2936 40.5053 47.0249 39.449L48.3525 28.0498L45.8172 28.1534C44.8422 28.1932 44.0042 28.8572 43.7426 29.7972L42.234 35.2178L36.8749 34.0846L35.9084 37.839Z" fill="#FDDF8C"/>
<path d="M58.9208 30.7963V48.2774H45.5396V31.0655C45.5396 29.4024 46.8854 28.0566 48.5484 28.0566H56.1715C57.6951 28.0566 58.9208 29.2775 58.9208 30.7963Z" fill="#FDDF8C"/>
<path d="M58.9208 36.9581V48.2773H45.5396V41.1012C46.746 41.034 47.938 40.7744 49.1204 40.5149C51.3458 40.0342 53.5952 39.5439 55.6331 38.5346C56.1715 38.2654 56.705 37.9578 57.1087 37.5156C57.2914 37.3137 57.4452 37.0878 57.5509 36.8427C57.6423 36.636 57.6182 36.3236 57.8778 36.3332C58.0652 36.338 58.3632 36.6601 58.5314 36.7514C58.6564 36.8235 58.791 36.8908 58.9208 36.9581Z" fill="#F2CF77"/>
<path d="M45.719 37.443H45.3585V35.6356C45.3585 35.4814 45.2909 35.335 45.1684 35.2216C44.8283 34.9069 44.6326 34.4626 44.6326 34.0014C44.6326 33.5269 44.8255 33.0883 45.1747 32.7658C45.2965 32.6539 45.3634 32.5074 45.3634 32.3532V30.8965H45.7239V32.3532C45.7239 32.6053 45.6126 32.8524 45.4197 33.0305C45.1444 33.284 44.9931 33.629 44.9931 34.0014C44.9931 34.3676 45.1423 34.7069 45.4134 34.9569C45.6077 35.1357 45.719 35.3835 45.719 35.6356V37.443Z" fill="#F2CF77"/>
<path d="M45.5393 47.082H58.9227V48.4483H45.5393V47.082Z" fill="black"/>
<path d="M50.8873 48.8697H48.2252C47.9865 48.8697 47.7922 48.6752 47.7922 48.4365V47.1417C47.7922 46.903 47.9865 46.709 48.2252 46.709H50.8873C51.126 46.709 51.3202 46.903 51.3202 47.1417V48.4365C51.3202 48.6752 51.126 48.8697 50.8873 48.8697ZM48.2252 47.1228L48.2061 48.4365L50.8873 48.4559C50.8978 48.4559 50.9064 48.4473 50.9064 48.4365V47.1417L48.2252 47.1228Z" fill="white"/>
<path d="M47.7097 40.618L49.2915 40.4037L48.8322 37.2606L47.7924 37.1382L45.781 36.832L45.9851 37.8933L46.8117 38.2199" fill="#FDC7B4"/>
<path d="M53.8507 36.7542C53.8507 36.7542 55.0752 30.6991 56.4314 28.053L56.4413 28.0526C57.943 27.9837 59.1858 29.207 59.1407 30.7096L58.9229 35.4925L58.049 38.6558C57.7075 39.8917 56.5827 40.7475 55.3004 40.7467L48.5112 40.7428V36.9951L53.8507 36.7542Z" fill="#FDDF8C"/>
<path d="M48.5198 37.1757L48.5029 36.8152L53.7067 36.5807L54.7312 32.3281L55.0818 32.4126L53.994 36.9285L48.5198 37.1757Z" fill="#F2CF77"/>
<path d="M41.5448 42.1446H47.0464C47.5686 42.1446 47.9289 41.6215 47.7427 41.1337L46.1987 37.0888C46.0885 36.8001 45.8115 36.6094 45.5025 36.6094H40.0008C39.4786 36.6094 39.1184 37.1325 39.3046 37.6203L40.8485 41.6652C40.9587 41.9539 41.2357 42.1446 41.5448 42.1446Z" fill="#4B39A8"/>
<path d="M39.2569 37.3587C39.3047 37.3492 39.3525 37.3445 39.4051 37.3445H44.9066C45.2173 37.3445 45.4945 37.5356 45.6045 37.8272L47.1483 41.871C47.1818 41.957 47.1961 42.043 47.1961 42.129C47.6359 42.0382 47.9083 41.5745 47.741 41.1348L46.1972 37.0912C46.0872 36.7995 45.81 36.6084 45.5041 36.6084H40.0025C39.5723 36.6084 39.2521 36.9621 39.2569 37.3587Z" fill="#382F93"/>
<path d="M44.4046 39.7138C44.5731 40.3036 45.1124 40.7024 45.7191 40.7024H45.7808L47.7075 40.6013L46.6571 37.7871L45.4719 38.0005C44.6799 38.1409 44.1855 38.9387 44.4046 39.7138Z" fill="#FDC7B4"/>
<path d="M45.9737 17.8682C45.9644 17.9342 45.7375 22.4937 45.126 23.7689C44.5145 25.044 49.5453 28.0647 50.9786 26.871C52.4118 25.6774 51.9746 21.0379 51.9746 21.0379L50.5913 19.0788L45.9737 17.8682Z" fill="#34324C"/>
<path d="M49.7769 23.0098H53.9325V28.0551H49.7769V23.0098Z" fill="#FDC7B4"/>
<path d="M49.7769 22.1533V26.0279C49.7769 26.0279 51.6142 26.9779 53.9327 26.6216V22.1533H49.7769Z" fill="#EFB5A3"/>
<path d="M46.6606 20.2297V22.7306C46.6606 24.7371 48.2842 26.3655 50.2956 26.3655C52.3021 26.3655 53.9306 24.7371 53.9306 22.7306V20.2297C53.9306 18.2232 52.3021 16.5947 50.2956 16.5947C49.2924 16.5947 48.3812 17.0019 47.7221 17.661C47.0677 18.3201 46.6606 19.2265 46.6606 20.2297Z" fill="#FDC7B4"/>
<path d="M50.4695 21.8872C50.657 21.8872 50.809 21.687 50.809 21.4402C50.809 21.1933 50.657 20.9932 50.4695 20.9932C50.2819 20.9932 50.1299 21.1933 50.1299 21.4402C50.1299 21.687 50.2819 21.8872 50.4695 21.8872Z" fill="#34324C"/>
<path d="M48.0566 21.8872C48.2442 21.8872 48.3962 21.687 48.3962 21.4402C48.3962 21.1933 48.2442 20.9932 48.0566 20.9932C47.8691 20.9932 47.717 21.1933 47.717 21.4402C47.717 21.687 47.8691 21.8872 48.0566 21.8872Z" fill="#34324C"/>
<path d="M50.7009 23.4844C50.7017 23.5044 50.7068 23.5232 50.7068 23.5435C50.7068 24.305 50.0895 24.9223 49.328 24.9223C48.5665 24.9223 47.9492 24.305 47.9492 23.5435C47.9492 23.5232 47.9543 23.5044 47.9552 23.4844H50.7009Z" fill="white"/>
<path d="M57.6665 25.3232C56.7677 27.9667 53.9319 27.1448 53.9319 27.1448V20.943C49.832 18.9435 49.0966 17.9438 48.9668 17.6313C50.029 16.8815 52.6341 14.9205 52.6341 14.9205C56.5947 13.8487 56.9888 18.0783 56.734 19.2127C56.4793 20.347 57.6665 25.3232 57.6665 25.3232Z" fill="#34324C"/>
<path d="M49.5258 20.023C52.0403 20.023 54.0788 18.6747 54.0788 17.0115C54.0788 15.3483 52.0403 14 49.5258 14C47.0113 14 44.9729 15.3483 44.9729 17.0115C44.9729 18.6747 47.0113 20.023 49.5258 20.023Z" fill="#34324C"/>
<path d="M53.9329 20.9385C54.6012 20.9418 55.1422 21.484 55.1422 22.1532C55.1422 22.8223 54.6012 23.3646 53.9329 23.3678V20.9385Z" fill="#FDC7B4"/>
<path d="M49.7781 28.0566L49.6667 30.7452L53.9309 28.0566H49.7781Z" fill="#FDC7B4"/>
<path d="M22.1622 27.4183V33.0342C22.1622 33.34 21.912 33.5902 21.6062 33.5902H15.9903C15.6845 33.5902 15.4343 33.34 15.4343 33.0342V27.4183C15.4343 27.1126 15.6845 26.8623 15.9903 26.8623H21.6062C21.912 26.8623 22.1622 27.1126 22.1622 27.4183Z" fill="#BDC8FF"/>
<path d="M34.4011 28.4421C34.4011 28.6873 34.1992 28.8892 33.9541 28.8892H23.6394C23.3942 28.8892 23.1924 28.6873 23.1924 28.4421C23.1924 28.1971 23.3942 27.9951 23.6394 27.9951H33.9541C34.1992 27.9951 34.4011 28.1971 34.4011 28.4421Z" fill="#E8EFFF"/>
<path d="M34.4011 30.2263C34.4011 30.4715 34.1992 30.6734 33.9541 30.6734H23.6394C23.3942 30.6734 23.1924 30.4715 23.1924 30.2263C23.1924 29.9812 23.3942 29.7793 23.6394 29.7793H33.9541C34.1992 29.7793 34.4011 29.9812 34.4011 30.2263Z" fill="#E8EFFF"/>
<path d="M30.1888 32.0115C30.1888 32.2566 29.9869 32.4585 29.7417 32.4585H23.6394C23.3942 32.4585 23.1924 32.2566 23.1924 32.0115C23.1924 31.7664 23.3942 31.5645 23.6394 31.5645H29.7417C29.9869 31.5645 30.1888 31.7664 30.1888 32.0115Z" fill="#E8EFFF"/>
<path d="M22.1622 35.7308V41.3467C22.1622 41.6524 21.912 41.9027 21.6062 41.9027H15.9903C15.6845 41.9027 15.4343 41.6524 15.4343 41.3467V35.7308C15.4343 35.4251 15.6845 35.1748 15.9903 35.1748H21.6062C21.912 35.1748 22.1622 35.4251 22.1622 35.7308Z" fill="#FF7581"/>
<path d="M34.4011 36.7546C34.4011 36.9998 34.1992 37.2017 33.9541 37.2017H23.6394C23.3942 37.2017 23.1924 36.9998 23.1924 36.7546C23.1924 36.5096 23.3942 36.3076 23.6394 36.3076H33.9541C34.1992 36.3076 34.4011 36.5096 34.4011 36.7546Z" fill="#E8EFFF"/>
<path d="M34.4011 38.5388C34.4011 38.784 34.1992 38.9859 33.9541 38.9859H23.6394C23.3942 38.9859 23.1924 38.784 23.1924 38.5388C23.1924 38.2938 23.3942 38.0918 23.6394 38.0918H33.9541C34.1992 38.0918 34.4011 38.2938 34.4011 38.5388Z" fill="#E8EFFF"/>
<path d="M30.1888 40.323C30.1888 40.5681 29.9869 40.77 29.7417 40.77H23.6394C23.3942 40.77 23.1924 40.5681 23.1924 40.323C23.1924 40.0779 23.3942 39.876 23.6394 39.876H29.7417C29.9869 39.876 30.1888 40.0779 30.1888 40.323Z" fill="#E8EFFF"/>
<path d="M22.1622 44.0433V49.6592C22.1622 49.9649 21.912 50.2152 21.6062 50.2152H15.9903C15.6845 50.2152 15.4343 49.9649 15.4343 49.6592V44.0433C15.4343 43.7376 15.6845 43.4873 15.9903 43.4873H21.6062C21.912 43.4873 22.1622 43.7376 22.1622 44.0433Z" fill="#BDC8FF"/>
<path d="M17.996 48.2544C17.9169 48.2544 17.8412 48.223 17.7854 48.1671L17.1456 47.5271C17.0293 47.4108 17.0293 47.2223 17.1456 47.1059C17.262 46.9896 17.4505 46.9896 17.5668 47.1059L17.996 47.5353L20.0561 45.475C20.1725 45.3586 20.361 45.3586 20.4774 45.475C20.5937 45.5913 20.5937 45.7798 20.4774 45.8962L18.2066 48.1671C18.1508 48.223 18.0749 48.2544 17.996 48.2544Z" fill="white"/>
<path d="M17.996 31.6597C17.9169 31.6597 17.8412 31.6282 17.7854 31.5724L17.1456 30.9324C17.0293 30.8161 17.0293 30.6276 17.1456 30.5112C17.262 30.3948 17.4505 30.3948 17.5668 30.5112L17.996 30.9406L20.0561 28.8802C20.1725 28.7639 20.361 28.7639 20.4774 28.8802C20.5937 28.9966 20.5937 29.1851 20.4774 29.3015L18.2066 31.5724C18.1508 31.6282 18.0749 31.6597 17.996 31.6597Z" fill="white"/>
<path d="M34.4011 45.0662C34.4011 45.3113 34.1992 45.5132 33.9541 45.5132H23.6394C23.3942 45.5132 23.1924 45.3113 23.1924 45.0662C23.1924 44.8211 23.3942 44.6191 23.6394 44.6191H33.9541C34.1992 44.6191 34.4011 44.8211 34.4011 45.0662Z" fill="#E8EFFF"/>
<path d="M34.4011 46.8503C34.4011 47.0955 34.1992 47.2974 33.9541 47.2974H23.6394C23.3942 47.2974 23.1924 47.0955 23.1924 46.8503C23.1924 46.6053 23.3942 46.4033 23.6394 46.4033H33.9541C34.1992 46.4033 34.4011 46.6053 34.4011 46.8503Z" fill="#E8EFFF"/>
<path d="M30.1888 48.6345C30.1888 48.8797 29.9869 49.0816 29.7417 49.0816H23.6394C23.3942 49.0816 23.1924 48.8797 23.1924 48.6345C23.1924 48.3895 23.3942 48.1875 23.6394 48.1875H29.7417C29.9869 48.1875 30.1888 48.3895 30.1888 48.6345Z" fill="#E8EFFF"/>
<path d="M20.4937 39.7931C20.6136 39.9172 20.6136 40.1116 20.4937 40.2315C20.4316 40.2936 20.3531 40.3225 20.2745 40.3225C20.1959 40.3225 20.1173 40.2936 20.0552 40.2315L18.8019 38.9782L17.5445 40.2315C17.4824 40.2936 17.4038 40.3225 17.3252 40.3225C17.2425 40.3225 17.1639 40.2936 17.106 40.2315C16.9819 40.1116 16.9819 39.9172 17.106 39.7931L18.3634 38.5398L17.106 37.2823C16.9819 37.1624 16.9819 36.9638 17.106 36.8439C17.2259 36.7239 17.4204 36.7239 17.5445 36.8439L18.8019 38.1013L20.0552 36.8439C20.1752 36.7239 20.3737 36.7239 20.4937 36.8439C20.6136 36.9638 20.6136 37.1624 20.4937 37.2823L19.2404 38.5398L20.4937 39.7931Z" fill="white"/>
</svg>
