<svg width="72" height="72" viewBox="0 0 72 72" fill="none" xmlns="http://www.w3.org/2000/svg">
<circle cx="36" cy="36" r="36" fill="#F0F0F0"/>
<path d="M45.3516 12C45.075 12 27.6239 12 24.169 12C22.9762 12 22 12.9759 22 14.169V56.4972C22 57.6899 22.9759 58.6662 24.169 58.6662H45.3516C46.5443 58.6662 47.5206 57.6903 47.5206 56.4972C47.5206 55.4131 47.5206 14.5068 47.5206 14.169C47.5206 12.9759 46.5443 12 45.3516 12Z" fill="#576574"/>
<path d="M24.8426 56.4972C24.8426 55.4751 24.8426 14.5841 24.8426 14.169C24.8426 12.9762 25.8185 12 27.0115 12C25.759 12 24.7596 12 24.169 12C22.9762 12 22 12.9762 22 14.169V56.4972C22 57.6899 22.9759 58.6662 24.169 58.6662H27.0112C25.8181 58.6662 24.8426 57.6899 24.8426 56.4972Z" fill="#3E4B5A"/>
<path d="M24.8425 20.7422V49.9281C24.8425 50.3369 25.1736 50.6683 25.5824 50.6683H43.9381C44.3468 50.6683 44.6779 50.3369 44.6779 49.9281V20.7422H24.8425Z" fill="#E4EAF8"/>
<path d="M27.6438 49.9281V20.7422H24.8425V49.9281C24.8425 50.3369 25.1736 50.6683 25.5824 50.6683H28.384C27.9753 50.668 27.6438 50.3369 27.6438 49.9281Z" fill="#C7D2E5"/>
<path d="M36.3393 54.5448C36.3393 55.4171 35.6322 56.1242 34.7603 56.1242C33.888 56.1242 33.1809 55.4171 33.1809 54.5448C33.1809 53.6729 33.888 52.9658 34.7603 52.9658C35.6322 52.9658 36.3393 53.6729 36.3393 54.5448Z" fill="#3E4B5A"/>
<path d="M35.3719 54.5448C35.3719 54.0987 35.5582 53.6964 35.8558 53.4091C35.5717 53.1349 35.1861 52.9658 34.7603 52.9658C33.888 52.9658 33.1809 53.6729 33.1809 54.5448C33.1809 55.4171 33.888 56.1242 34.7603 56.1242C35.1861 56.1242 35.5717 55.9547 35.8558 55.6806C35.5582 55.3936 35.3719 54.9913 35.3719 54.5448Z" fill="#374451"/>
<path d="M37.1314 15.5012H32.3891C32.0003 15.5012 31.6848 15.1862 31.6848 14.797C31.6848 14.4079 31.9999 14.0928 32.3891 14.0928H37.1314C37.5202 14.0928 37.8357 14.4079 37.8357 14.797C37.8357 15.1862 37.5202 15.5012 37.1314 15.5012Z" fill="#3E4B5A"/>
<path d="M44.2284 17.7158C43.6181 17.7158 25.8951 17.7158 25.2923 17.7158C25.0438 17.7158 24.8423 17.917 24.8423 18.1655V20.9301H44.6781C44.6781 19.3372 44.6781 18.3154 44.6781 18.1655C44.6781 17.9173 44.4769 17.7158 44.2284 17.7158Z" fill="#54A0FF"/>
<path d="M28.2185 17.7158C26.5711 17.7158 25.4371 17.7158 25.2922 17.7158C25.0437 17.7158 24.8425 17.917 24.8425 18.1655V20.9301H28.2185V17.7158Z" fill="#FF6B6B"/>
<path d="M28.0778 17.7158C26.507 17.7158 25.4328 17.7158 25.2922 17.7158C25.0437 17.7158 24.8425 17.917 24.8425 18.1655V20.9301H27.6281C27.6281 19.3429 27.6281 18.3221 27.6281 18.1655C27.6281 17.9173 27.8297 17.7158 28.0778 17.7158Z" fill="#EE5253"/>
<path d="M61.267 50.237C61.267 50.237 59.9112 48.8823 59.9101 48.8812C58.1784 47.1516 60.0504 45.5957 57.896 43.4453L52.8549 38.4042C52.4768 38.0257 51.3831 36.9323 50.9918 36.541C50.3328 35.882 49.2643 35.882 48.6053 36.541C47.9463 37.2001 47.9463 38.2685 48.6053 38.9275L48.3639 38.6861C47.7045 38.0271 46.6361 38.0271 45.9771 38.6861C45.318 39.3452 45.318 40.4136 45.9771 41.0726L45.6552 40.7508C44.9962 40.0918 43.9277 40.0918 43.2687 40.7508C42.6196 41.3998 42.5865 42.4566 43.2142 43.1181C36.1024 36.0063 36.9989 36.9024 35.9572 35.8621C35.2967 35.2027 34.2268 35.2038 33.5675 35.8639C32.9081 36.5243 32.9124 37.5906 33.5728 38.25L44.5429 49.2201C44.7918 49.469 44.5825 49.8913 44.2339 49.8443L40.0644 49.2803C37.6936 48.8855 37.1381 51.8598 38.9849 52.5412L46.7269 55.5747C46.7397 55.5793 47.7896 55.956 48.8342 55.9506L48.8346 55.951C48.8463 55.9506 50.347 55.9435 50.347 55.9435C51.1381 55.9399 51.8755 56.5327 52.6801 57.3235C53.4545 58.0982 54.4208 59.4106 55.7032 58.1281C56.3398 57.4919 60.7521 53.0792 61.4966 52.3347C61.8263 51.9214 62.1759 51.1456 61.267 50.237Z" fill="#FFCDBF"/>
<path d="M54.12 56.1341H54.1204C53.3157 55.3433 52.578 54.7502 51.7869 54.7541C51.7869 54.7541 50.2862 54.7612 50.2745 54.7616L50.2741 54.7612C49.2295 54.7666 48.1796 54.3899 48.1667 54.3849L40.4251 51.3518C39.4784 51.0026 39.1644 50.0512 39.4012 49.2598C37.6068 49.4663 37.3255 51.929 38.9853 52.5413L46.7269 55.5744C46.7398 55.5794 47.7897 55.9557 48.8347 55.9507V55.9511C48.8464 55.9507 50.3475 55.9436 50.3475 55.9436C51.1386 55.9397 51.8759 56.5328 52.6806 57.3232L52.6802 57.3236C53.4549 58.098 54.4212 59.4103 55.7036 58.1282C55.8229 58.0086 56.0753 57.7565 56.4114 57.4204C55.4822 57.7163 54.7399 56.7536 54.12 56.1341Z" fill="#FFBEAB"/>
<path d="M49.4436 43.543C49.7184 43.2678 49.7184 42.822 49.4436 42.5468L45.7978 38.9014C45.3282 39.5586 45.3855 40.4761 45.9726 41.0678L48.4474 43.543C48.7226 43.8179 49.1684 43.8179 49.4436 43.543Z" fill="#FFBEAB"/>
<path d="M47.0392 44.9509L43.0741 40.9854C42.6226 41.6323 42.6575 42.5277 43.2111 43.1144L46.0434 45.9467C46.3183 46.2219 46.7644 46.2219 47.0392 45.9467C47.3144 45.6718 47.3144 45.2257 47.0392 44.9509Z" fill="#FFBEAB"/>
<path d="M51.83 41.1561C52.1052 40.8812 52.1052 40.4351 51.83 40.1603L48.4259 36.7559C47.9563 37.4135 48.0137 38.331 48.6008 38.923L50.8342 41.1564C51.109 41.4313 51.5551 41.4313 51.83 41.1561Z" fill="#FFBEAB"/>
<path d="M39.3215 28.1315C39.3215 30.638 37.2896 32.6699 34.7831 32.6699C32.2766 32.6699 30.2444 30.638 30.2444 28.1315C30.2444 25.625 32.2766 23.5928 34.7831 23.5928C37.2896 23.5928 39.3215 25.625 39.3215 28.1315Z" fill="#1DD1A1"/>
<path d="M33.0752 28.1315C33.0752 26.1192 34.3854 24.4141 36.1984 23.8192C35.753 23.6729 35.2773 23.5928 34.7831 23.5928C32.2763 23.5928 30.2444 25.625 30.2444 28.1315C30.2444 30.638 32.2763 32.6699 34.7831 32.6699C35.2773 32.6699 35.753 32.5898 36.1984 32.4438C34.3854 31.8489 33.0752 30.1438 33.0752 28.1315Z" fill="#15BA8B"/>
<path d="M33.7863 29.8196L32.4049 28.4382C32.13 28.163 32.13 27.7172 32.4049 27.4424C32.6801 27.1672 33.1258 27.1672 33.4011 27.4424L34.284 28.3254L36.1653 26.4444C36.4402 26.1696 36.8859 26.1696 37.1611 26.4444C37.436 26.7196 37.436 27.1654 37.1611 27.4406L34.7821 29.8196C34.5076 30.0941 34.0611 30.0945 33.7863 29.8196Z" fill="#E4EAF8"/>
<path d="M44.9581 47.0064L35.0126 37.0606C34.5562 36.6048 34.4134 35.9544 34.5868 35.3779C34.2144 35.4171 33.8526 35.5787 33.5675 35.8639C32.9081 36.5244 32.9124 37.591 33.5728 38.2501L44.5429 49.2202C44.7918 49.4691 44.5825 49.8917 44.2339 49.8447C44.2339 49.8447 45.6054 49.965 46.028 49.2601C46.4506 48.5551 45.8087 47.8566 44.9581 47.0064Z" fill="#FFBEAB"/>
</svg>
